<svg xmlns="http://www.w3.org/2000/svg" id="Layer_1" viewBox="0 0 268 223"><path fill="#30536b" d="m57 210 1 3q-3-2-5 1-3 0-4 2h9q4 2 10 0l3 1 11-1 11 2-2-1 1-1q6 3 13 0l14 2 7 1 6 1-6-1-5-2h1c4 1 6-2 17 0l7 1h7l-5-1h-1l-2-1h6q7 2 13 0l10 1h1l1-1h9l11 2h6l-6-1-2-1v-1h2v1h2l6-1c12-1 24 3 37 3q-14 4-28 1l-4 1q-16 3-32-1l-3 1-2-1h-11l11 2 2-1h2v1q-13 3-28 0-13 3-28 0l-13 2-22-4q-14 4-29-1-6 1-12-2-11 3-19-2 9 1 18-2c6 3 8-1 14-2m58 11-10-2z"/><path fill="#30536b" d="M225 213h1l8 1 4-1q7 3 16 1-7 4-13 3-9 0-15-2z"/><path fill="#292622" d="m227 95 1-1q1 0 0 0z"/><path fill="#cdbb9f" d="m180 215-1 1h-2z"/><path fill="#d3c1a7" d="m176 216-1 1h-1v-1z"/><path fill="#211d19" d="m186 120-1 5q13-3 27 0v1l-4 1v-1l-1-1h-10q3 2 5 1v5l-16-1-3 1h3l25 1 10 1 1 1h-14l2 6v1h-1l-1-3-1-2h-1v1l-1 1h-1v1h-1v-6l-2 1v13h-2v1l-1 5-2 12v1l-1 11h3v-1l-1-1 1-2 1-13h1v14l-1 2v6h3v-8l1-17h1v16h5v-2l-1-6v-4l-1-2h1l2 6v3l3 1-1-3v-4h1l1 3 1 3v1l1 3h2v-3l-1-1v-5l2 3v1h1v3l1 1h2l1 1v-1h4l2 1-9 1q6 1 13-1v1l-12 2q-1 2 1 2h13v1l1-1-1-4h1l1 3-1 1h1l3 1c1 1 0 14-4 20l-8 6c-4 3-1 7-4 9l1-8-4 4q-2-2 1-4h1l-2-4-2-1 4-1 11-1 1-2h-1v-1l2-1 2-8 1-4v-3l-15 2h-2l1 1v1c0 4-3 1-8 3v-2l-1 1h-3v2h-1l-1-2v-2l-1-1-17 2v-8h1v-5l1-1v-4l1-1v-5l1-4-1-1q2 0 2-4v-1l1-4q-3 0-2 2h-1l1-1q0-2-1-1l-1 1q0 2-1 1l3-11v-4h-13v2l-1 2v16l1 2q-2 5 0 9l-1 1q-3-14-1-29v-4l1-1zm11 9q3 0 2-1-3-1-3-3l-12 1v3zm0 9-1 4-1 1 1 2 1-1 1 1v-8h-1zm2 1v1zm0 5v2zm14 28v-2h-2v2zm6 1q-2-2-3 1zm-5 1v-1zl-3 1zm-10 0v1h1l6-1zm8 2h4zm5-1v2h3v-2zm-7 1h-6v1zm8 4h2l1-2h-5v1zm10-2q-2-1-6 1h7l4-1zm-32 4q2 1 2-4h-5l1 4c2 2 1-2 2-3l1 2zm8-1q2-1 1-3l-1 2zm6-3h-4v3h4zm5 1h-3v2l2-1zm7 3-1-1-4 1q2 2 5 0m-6 0h-4v1h4z"/><path fill="#292622" d="m65 79-5 17h-1v3l-1 2 1-1 1-1 11-11 1 1v1l-9 8-7 8-1 1-16 16-24 27-2 2-2 2-1 2H9v1H6l-4-3 4 3 5 3-1 1H8c-3-3-9-5-8-7l2-1 5 2 49-52 1-4h1l-1-1 2-5v-1l1-5h1v-1z"/><path fill="#211d19" d="m228 94-1 1-2 2-1 3q0-1 0 0v2h-1v1l1 16 1 2-1 1-1 1a43 43 0 0 1 1-27l1-1h1v-1h-5v-3l-3-11 1-12 2-1h-31l1 1v1l-1-1h-2v-2l1-1h14v-8l1-1v-7l1-2c3 0 1 7 2 12l6 6 9 1 1 2-2 1q-4 13 3 24zm-23-36v2q-2 3 0 6V49zm6 7-4-4v4z"/><path fill="#cdbb9f" d="M69 53h1q-3 8-2 15l4-5v4q11-3 20-2h1v-1l2 1v3q-15-2-27 4v-2l-2-1q0-8 3-16"/><path fill="#211d19" d="M190 10h-5l-5-3h-9c-3-5-6-2-14-2h-1V2l-1 2h-1V1l3-1v3h6q7-2 10 4 8-4 12 2l8-1 1 1v2z"/><path fill="#eedfc5" d="m237 151 5 12q1 4 4 5h1v1h-3l-4-3-4-2-1-1v-12z"/><path fill="#322f28" d="M190 10q-4 4-10 1c-3-1-8 4-13-1l-6 1 1-1q5-2 9 1l9-2q5 3 10 1M87 40l-3 2h4l-1 2H72l8 1h-5l-2 2v-1l-2-1-1-1 1-1 11-1 5-4z"/><path fill="#8d6e4c" d="M155 4h1v21q-2-1-2-3l-1-4v-1c3-5 1-13 3-12z"/><path fill="#292622" d="M247 169h2l1 2-2 1-12 1h-3v-1l15-1v-1l-10 1v-1l3-1h5"/><path fill="#322f28" d="m229 120-1-1h-2l2-2-4 2v-1l8-6 1 3-2 1-2 2z"/><path fill="#403b34" d="M122 28v1h-1zm-9 3q-8 4-18 6v-1zm8-2q-3 2-8 2z"/><path fill="#292622" d="M90 37v1l-1 2 1 2 1 1 1-1h5v1l-10 1 1-2-1-2v-2l1-3z"/><path fill="#403b34" d="m243 162-1 1-5-12-1-1 1-1z"/><path fill="#8d6e4c" d="m90 37-2-2v-8h1l1-2z"/><path fill="#594436" d="m183 48-1 1-8-10v-1zm-51-23v1l-10 3v-1z"/><path fill="#715539" d="m189 56-7-7 1-1z"/><path fill="#594436" d="m73 47-2 5h-1zl-1-1 2 1z"/><path fill="#8d6e4c" d="M198 65h-2l-4-5v-1zm-57-43-6 2h-2z"/><path fill="#715539" d="M246 168q-3-1-4-5l1-1z"/><path fill="#403b34" d="M161 22h-1l-3-3v-2z"/><path fill="#cdbb9f" d="M153 17v1l-6 2z"/><path fill="#d3c1a7" d="m147 20-5 3-1-1zM20 175l-6-7z"/><path fill="#322f28" d="m67 74-5 1q2-2 5-1"/><path fill="#594436" d="m26 181-2-2v-1z"/><path fill="#715539" d="M24 179v1l-3-3v-1z"/><path fill="#8d6e4c" d="m68 72-1-3 2 1z"/><path fill="#594436" d="M30 184h-3z"/><path fill="#cdbb9f" d="M14 167q-2 0-3-2h1z"/><path fill="#8d6e4c" d="M191 57v1l-2-2z"/><path fill="#322f28" d="m64 78-2-1h1z"/><path fill="#8d6e4c" d="m21 176-1-2zm227-7h-1v-1z"/><path fill="#715539" d="m203 57 1-2v1z"/><path fill="#8d6e4c" d="M133 25h-1v-1z"/><path fill="#cdbb9f" d="m134 25-1 1v-1z"/><path fill="#211d19" d="M161 22v-1z"/><path fill="#715539" d="M224 101v-1q0-1 0 0 1 0 0 0z"/><path fill="#322f28" d="M61 86v1h-1z"/><path fill="#8d6e4c" d="m71 52-1 1h-1l1-1z"/><path fill="#715539" d="M159 12h-1z"/><path fill="#403b34" d="m192 59-1-2v-1z"/><path fill="#8d6e4c" d="m201 63-1 1z"/><path fill="#cdbb9f" d="m222 113 1 9 2 7h-3l-5-2-4-1-1-1q-14-3-27 0l1-5q2 0 1-2h4c0 2 7 0 7 0v-2l1 2 3 1c6 0 19 3 18-5l1-1z"/><path fill="#eedfc5" d="m216 142 1 1q0 4 3 3v5l-1 14-2-3-6-21v-2l1 1z"/><path fill="#eedfc5" d="m217 144-1-1v-3h2v4z"/><path fill="#8d6e4c" d="M203 136v21l-1 17h-2v-14l1-13v-11z"/><path fill="#292622" d="m196 148 1 2v1l-2 2v2l1 1q-2 1-2 4l-1 5h2l-1 1h-2v4h2l-1 1-2 1-1 3h3l-1 1h-1v1h1v1l-4 1 1 2h-2l-1-1v-2l-4-13 1-1 2 7 1-2h1v7q3-2 2-5l1-1v-6q2-1 2-4v-5q2 1 3-7zm-7 29q-1 0 0 0"/><path fill="#cdbb9f" d="m228 160 6 9-14 1v-3l1-4q4 0 6-3zm-8-26v13q-3 1-3-3h1v-4h-2v2l-4-1-1-1v2l-1-2-2-6zm-3 10-1-1zm-1-1v-1z"/><path fill="#322f28" d="M221 134v8l1 7v1l-1 13-1 4h-1v-1l1-14v-18zm-15 8v-3h1v1l2 7 1 4v2l2 2-1 1 1 5h-1l-2-5-2-1v3h-1v-4h1c4 2 1-1 1-6h-2v-1l1-1v-2l-1-1h-1l-1-2-1 1-1 1v-5h1z"/><path fill="#d3c1a7" d="M206 148v1l1 6v4l1 2-2-1c-2-2 0 4-2 4v-19l1-1zm2 17 1 6h-3l-1 2h-2l1-9 2 2z"/><path fill="#715539" d="M203 128v3h7l1 1-25-1v-1l16 1v-4z"/><path fill="#292622" d="m211 142 6 21v2l-1-1q1-1-1-3 1-3-2-5l-1-4-1-4-2-6 1-1v-1z"/><path fill="#594436" d="M234 172q-6 2-13 1l9-1 9-1 10-1v1zm-38-37v2l-11 15-1-1z"/><path fill="#cdbb9f" d="M222 134h1v7l-3 1v-8zm-10 28v3h-2l-2-6v-3l2 1z"/><path fill="#594436" d="m230 131-1 2h-4l-1-1h-1v1h-1l-1-1v-1h6l1-1z"/><path fill="#292622" d="m201 147-1 13h-1v-7l1-6z"/><path fill="#403b34" d="m236 167 1 1v2h2v1l-9 1-2-1 6-1h1z"/><path fill="#cdbb9f" d="M208 161v4l-2 1-2-2c2 0 0-6 2-4zm5-5q3 3 2 5l-2 1-1-5z"/><path fill="#594436" d="M207 125v1h-5q-2 1-5-1z"/><path fill="#eedfc5" d="M234 169v1l-6 1h-7l-1-1z"/><path fill="#322f28" d="M204 145v12h-1z"/><path fill="#cdbb9f" d="M216 164v3h-2l-1-3zm-4 2 1 3-3-1v-3zm-3-24 2 6h-1l-2-7h1z"/><path fill="#d3c1a7" d="M215 161q2 1 1 3l-2 1-1-3zm-2 11h-2v-2h2z"/><path fill="#cdbb9f" d="M218 169v2l-2 1-1-3z"/><path fill="#403b34" d="M202 174v2h-3l1-2z"/><path fill="#8d6e4c" d="M221 132v1l-10-1z"/><path fill="#594436" d="M204 175h6z"/><path fill="#715539" d="M203 136h-2v-2l2-1zm-18 16-2 3-1-2z"/><path fill="#cdbb9f" d="m206 138 1 1v3h-1zm3 33v2h-4l1-2z"/><path fill="#292622" d="m205 138 1 4-2-3zm3 0h-2v-2h1z"/><path fill="#715539" d="M214 173v1h-3z"/><path fill="#322f28" d="m198 142-1 2-1 1v-3l2-1z"/><path fill="#715539" d="m219 173-3 1q1-3 3-1"/><path fill="#292622" d="M208 127h-2v-1zv-1l1 1z"/><path fill="#8d6e4c" d="M209 141v-1l-1-1 1-1z"/><path fill="#403b34" d="m217 168 1 1h-3v-1z"/><path fill="#292622" d="M186 130v1h-3z"/><path fill="#cdbb9f" d="M196 142v3"/><path fill="#292622" d="M199 144v2q-1 0 0 0zm5-18-1 2-1-1v-1zm-6 12v-1h1zm1 1h-1z"/><path fill="#322f28" d="M204 174v1h-1z"/><path fill="#594436" d="m212 165-2-1z"/><path fill="#322f28" d="M214 174h1z"/><path fill="#403b34" d="M224 171v-1z"/><path fill="#292622" d="M213 126h-1v-1z"/><path fill="#cdbb9f" d="M196 137v-2z"/><path fill="#594436" d="M211 176h1z"/><path fill="#efe1ca" d="m69 77 1 1-2 5 4-4h2l1-2 4 1-2 4 4-4h4l-1 4 3-4h8l-2 6h1l2-6h8l-2 10 2-5 6 2v16l-2 4-4 2-3-3q2 6 0 8-10 1-19-1l-1-2v2c0 1-4 1-4-2v-3l-3 4q-3-1-2-4l2-14v-4l-1-1q-1 0 0 0h-1l-1 1-11 11h-1v-2l1-1 5-17 1-2zm7 6-2 2 1 1zm-8 1h-1l1 1zm-1 1-1 2h1z"/><path fill="#eedfc5" d="M106 45q-3 6-1 12c-2 0 0 5-4 7v-1h-1v1l-5 1-2-1-1 1q-9-1-20 2v-4l-4 5q-1-7 2-15l1-1 2-5 2-2z"/><path fill="#cdbb9f" d="M116 124v1l-2-1h-1l-4-2-13-4h-3q-9-3-20-1l3-9c0 3 4 3 4 2v-2l1 2q9 2 19 1h2v-2l2 1q2-1 3-6l2-4q2 12 6 23"/><path fill="#d3c1a7" d="M105 57q0 5 2 9l-4 1-1 3-7-2v-3l5-1v-1h1v1c4-2 2-7 4-7"/><path fill="#eedfc5" d="m110 85-6-2 2-5h6z"/><path fill="#8d6e4c" d="M97 43h11q-1 2-2 1l-18 1-8-1h7z"/><path fill="#cdbb9f" d="m107 66 3 7-8-3 1-3z"/><path fill="#594436" d="M127 64v1h-1l-13 10h-1l-1-2z"/><path fill="#d3c1a7" d="m75 77-1 2h-2l-4 4 2-5-1-1zm40 35v3h3l-2 4-2-7z"/><path fill="#cdbb9f" d="m106 78-2 5-2 5 2-10z"/><path fill="#715539" d="M114 77h-10v-1z"/><path fill="#594436" d="M74 76H63zm15-5 1 2q0 2-2 1v-5q3 0 2 1z"/><path fill="#eedfc5" d="m96 78-2 6h-1l2-6z"/><path fill="#cdbb9f" d="m84 74 2-3 1 2q-1 2-3 1"/><path fill="#d3c1a7" d="m81 78-4 4 2-4z"/><path fill="#403b34" d="M107 42h-5z"/><path fill="#eedfc5" d="m87 78-3 4 1-4z"/><path fill="#594436" d="M111 53v1l-3-1v-1zM97 76h-4zm-18 0h-3zm38 49-1-1h1z"/><path fill="#efe1ca" d="m70 95-7 21-1 3v2l-2 3v2l-1 1-1 6-1 1-5 9q-5 8-14 8l-8 1-11 1 2-4 3-2h-1l-8 3 24-27 7-6s9-8 9-10l1-1 8-8-6 16c2-2-2 1-1-2l2-8q4-3 4-6l9-8zm-24 51"/><path fill="#eedfc5" d="M19 153v1h-8l2-2 8-3z"/><path fill="#d3c1a7" d="m21 149-8 3 2-2 8-3h1z"/><path fill="#cdbb9f" d="m70 95 2-5v-1l1-1q1 4-3 7"/><path fill="#d3c1a7" d="m18 154-8 2 1-2z"/><path fill="#322f28" d="m59 99-1 1-1 1z"/><path fill="#594436" d="m73 88-1 1-1-1 1-1z"/><path fill="#322f28" d="m60 96-1 1v-1z"/><path fill="#594436" d="M114 54h-1v-1zm15 4v1h-1l-1-1-13-4z"/><path fill="#eedfc5" d="M199 95h13l5 1-1 7 2-7h6q-3 8-2 17h-1l-1 1c1 8-12 5-18 5l-3-1-1-2v2s-7 2-7 0v-3q-3-8-2-17c1-4 7 0 7-3zm-1-27h21l-1 12-3 3-1-1v2h-22c-3 1-4-4-6-4l1-3v-1l4-7v-1z"/><path fill="#292622" d="M179 63q-3 15 0 29l1 3v3l1 1v-1l1-3v-1h-2v-1q2-2 5-1-2-9 1-15h1l-1 3-1 9 1 1h1l-1 2h15l1-1-2-1v-2l-11 2v-2l6-1h7q9 0 18 4l-1 1-12-3v3l14 1v1l-21-1h-1v2h-3v-1q-5-2-11-1h-3l2 1-1 4q-3 3-1 7l2 6q-7-13-8-27v-2q0-10 2-19zm24 25v1h1zm0 2v1l1 1v-2z"/><path fill="#cdbb9f" d="m218 80 3 11h-1q-9-4-18-4v-3h12v-2l1 1z"/><path fill="#715539" d="M219 68h-12l-1-1h-7l-1 1h-7l-1-1h31z"/><path fill="#8d6e4c" d="M221 94h4v1l-1 1h-7l-5-1v-1h-13v-1h1z"/><path fill="#d3c1a7" d="m228 121-1 1v2l1 1v1l-1 1h-2l-2-6 1-1 1-1z"/><path fill="#322f28" d="m224 122 3 6v4h-2v-2h1l-1-1z"/><path fill="#403b34" d="m191 69-4 7h-1l4-7-2-1h2z"/><path fill="#d3c1a7" d="M211 65h-4v-4z"/><path fill="#715539" d="M205 59V49zm0 1v6q-2-3-1-6zm21 59v1l-1 1-1-2 4-2z"/><path fill="#594436" d="M221 91v1h-2l1-1z"/><path fill="#322f28" d="M205 59v1h-1l1-2z"/><path fill="#292622" d="M225 95h1v1z"/><path fill="#eedfc5" d="M231 134v3l2 8-2-2c-1 1 1 7 2 6v1c-3 0-1 8-5 8q-2-5-6-9l-1-7 3-1v-2q5-1 6-3l-1-2z"/><path fill="#d3c1a7" d="M233 150v2h1v16h-1l-5-8-1-2c4 0 2-8 5-8"/><path fill="#cdbb9f" d="M233 145v4c-1 1-3-5-2-6zm-5-22 1 3-1-1z"/><path fill="#594436" d="M228 119v2l-2-1v-1z"/><path fill="#d3c1a7" d="m236 150 1 1h-2v-1z"/><path fill="#cdbb9f" d="M235 151v1l-1-1v-1h1z"/><path fill="#a62f28" d="m179 7 5 3h5q-5 3-10-1l-9 2q-4-3-9-1h-1l-3 1-1-1V5c8 0 11-3 14 3z"/><path fill="#322f28" d="M157 5v6l-1-2V5z"/><path fill="#403b34" d="m156 4 1-2z"/><path fill="#cdbb9f" d="M244 169h-2l-1-1h-4l-1-1v-3l4 2q4 1 4 3"/><path fill="#8d6e4c" d="m235 163 1 1v3h-1z"/><path fill="#594436" d="M158 11h-1v-1z"/><path fill="#715539" d="M90 38v4l-1-2zm-10 6 8 1h-8l-8-1z"/><path fill="#eedfc5" d="m242 169-3 1h-2v-2z"/><path fill="#cdbb9f" d="M136 25h-1v-1z"/><path fill="#211d19" d="M217 127h-2l-2-1v-1z"/><path fill="#594436" d="m222 129-1 1-4-2v-1z"/><path fill="#8d6e4c" d="M225 129h-5l1-1z"/><path fill="#322f28" d="m190 159-1 5h1v1h-1l-2 4h-1l3-11z"/><path fill="#211d19" d="m192 155-1 1h-1l3-9c2 1-1 3-1 7"/><path fill="#292622" d="m190 159-1-1 1-1h1z"/><path fill="#211d19" d="M204 145v-2l1-1z"/><path fill="#594436" d="M189 170h-3l1-1z"/><path fill="#eedfc5" d="M227 160q-2 3-6 3l1-13z"/><path fill="#8d6e4c" d="m228 158 1 2h-2l-5-10v-1z"/><path fill="#715539" d="m234 168-6-9h1z"/><path fill="#8d6e4c" d="M235 168v2h-1v-2z"/><path fill="#292622" d="m206 144 1 4v1l1 6h-1l-1-6q1 0 0 0v-1zv-2z"/><path fill="#cdbb9f" d="m208 155-1-6h2c0 5 3 8-1 6m-1-7-1-4h1l1 1v2z"/><path fill="#efe1ca" d="m211 148 1 4h-1l-1-4z"/><path fill="#cdbb9f" d="m212 152 1 4-2-2z"/><path fill="#211d19" d="M208 140h-1v-1z"/><path fill="#cdbb9f" d="M205 142v2l-1 1v-2zm1 7q1 0 0 0"/><path fill="#292622" d="m213 127 2 1-1 2h11v2h-14l-1-1v-1z"/><path fill="#211d19" d="M206 126v1l1 3h3v1h-7v-5z"/><path fill="#d3c1a7" d="M225 134h4l1 2q-1 2-6 3v-5z"/><path fill="#292622" d="M225 134h-2v-1h1z"/><path fill="#403b34" d="M231 134h-2l1-2z"/><path fill="#322f28" d="m208 138-1-1z"/><path fill="#292622" d="m77 109-3 9q11-2 20 1H83q1 2 3 1l-1 1h-2q-2 0-1-2h-8l-2 6h10l3-2-1 2h2l1-1v2l3-1 1 1h-9v1l12 1h2v1H79l-3-1h-5l-5 26h-1q2-19 8-39l-1-1v1l-4 6-10 12 1-6 1 1 1-1q1-1-1-1 1 2 0 0v-2h2q3 0 4-4l-4 1v-2c7-1 6-2 9-6l3-3 3-4zm4 18h-8v1z"/><path fill="#eedfc5" d="M73 88v4l-2 14q0 3 2 4l-3 3c-1-2-4 2-8 3zm35 17q-1 5-3 6l-2-1v2h-2q2-2 0-8l3 3z"/><path fill="#292622" d="m73 87-1-1z"/><path fill="#d3c1a7" d="m74 85 2-2h1l-2 3zm-7 0v2h-1z"/><circle cx="68" cy="84" r="1" fill="#d3c1a7"/><path fill="#594436" d="M74 88v-1z"/><path fill="#eedfc5" d="M84 83v1z"/><path fill="#8d6e4c" d="M113 53v1h-2v-1z"/><path fill="#322f28" d="M110 123v1l-13-3v-2z"/><path fill="#292622" d="M114 125h1v1l-1 1h1v1h-8v-1h5v-2z"/><path fill="#322f28" d="M94 119h2l-1 2-1 1-1-1-2-1v-1z"/><path fill="#403b34" d="M114 125h-4v-2z"/><path fill="#594436" d="m117 126-2-1v-1z"/><path fill="#211d19" d="M97 119v2h-2l1-2z"/><path fill="#cdbb9f" d="m58 133-2 9-3 15h-1v1q-8 2-14 6h-2l5-7v-1h-1l-4-1v-1l-1 1h-2l-1-1h-2v-2l8-1q9 0 14-8l5-9z"/><path fill="#d3c1a7" d="m53 158 3-15 2-9 9-12c2 1-1 8-3 11v-3z"/><path fill="#cdbb9f" d="M71 113c-3 4-2 5-9 6l1-3c4-1 7-5 8-3"/><path fill="#d3c1a7" d="M30 152v2H19v-1z"/><path fill="#eedfc5" d="m60 108 1 1q-1 5-5 9z"/><path fill="#cdbb9f" d="M62 121v3h-2z"/><path fill="#8d6e4c" d="M59 127q1 2 0 0 2 0 1 1l-1 1z"/><path fill="#292622" d="m36 164-1 2h-1v1h1l2-1h1q9 0 17 2v1q-11-2-23 0l2 1v1h-1l-5-2 1-1c3 1 6-8 11-12h1v1z"/><path fill="#d3c1a7" d="m33 155-2-1h1zm3 0h-1z"/><path fill="#cdbb9f" d="M180 93v2z"/><path fill="#211d19" d="M187 76v1h-1v-1z"/><path fill="#d3c1a7" d="M189 98q-1 8 2 17l-5-1-1-2-1-1-2-6q-2-3 1-7 3 0 4 2z"/><path fill="#cdbb9f" d="M196 95c0 3-6-1-7 3l-2 2q-1-2-4-2l1-4z"/><path fill="#715539" d="M212 95h-13v-1h13z"/><path fill="#d3c1a7" d="m218 96-2 7 1-7z"/><path fill="#cdbb9f" d="M216 117v1z"/><path fill="#d3c1a7" d="m192 84-3 4v1l-2 1v-1h-2l1-9c2 0 3 5 6 4m10 0v3h-7v-3z"/><path fill="#cdbb9f" d="M195 84v3l-6 1 3-4z"/><path fill="#322f28" d="M207 68h-9l1-1h7z"/><path fill="#715539" d="M185 93h10v1l-12-1-2-1z"/><path fill="#8d6e4c" d="M196 94h-10l-1-1q6-1 11 1"/><path fill="#cdbb9f" d="M199 92v-1l2 1-1 1z"/><path fill="#715539" d="M203 90h1v2l-1-1z"/><path fill="#403b34" d="M189 89h-2zm14-1h1v1h-1z"/><path fill="#cdbb9f" d="M187 90h-1l-1-1h2zm-7 8h1v1zm48 30v2h-1l-1-2z"/><path fill="#efe1ca" d="M84 129v1l2-1 1-1h5v1h1v-1h3l-3 9v1l4-10 11 1-3 11q4-5 4-11l9 1v2l-1 1q0 1 0 0v2l-3 7h-1v2l-1 1 2 1-1 2h-1v3q-6 0-6 5l4 3v1l-5 3-1-4v4l-3 1h-7l-14-2h-6c-4 0-4-18 0-26q-1-3 2-7l3-1zm-2 7 1-1 1-3h-1z"/><path fill="#cdbb9f" d="M113 152q0 12 3 23l2 5-5-2q-11-5-23-7v-1c0-2 3-1 4-5h7v3q2 1 4-2l7-1-2-4v-1c3-4 1-8 3-8"/><path fill="#cdbb9f" d="m118 150 3 5 7 11 1 1c0 2-7 2-12 5q-4-13-1-25z"/><path fill="#d3c1a7" d="M94 165c-1 4-4 3-4 5H80l-2-1 4-2-2-4z"/><path fill="#322f28" d="m131 170 7 13-1 1z"/><path fill="#403b34" d="m117 174 2 8-6-3v-1l5 2z"/><path fill="#594436" d="m153 177-3-2v-4h3z"/><path fill="#8d6e4c" d="m141 181-2-1 3-10z"/><path fill="#322f28" d="M139 179h-1l-3-6h1z"/><path fill="#eedfc5" d="M113 149v3c-2 0 0 4-3 8l-4-3q0-5 6-5zm1-4v2l-2-1 1-1z"/><path fill="#292622" d="M79 174v1h-2l1-2z"/><path fill="#d3c1a7" d="M114 145h-1v-1l1-1z"/><path fill="#292622" d="M81 170v1h-1v-1z"/><path fill="#322f28" d="m129 167-1-1h1z"/><path fill="#292622" d="m86 170-1 1v-1zm4 0h-1l-1-1zm-13 5h-1v-1z"/><path fill="#d3c1a7" d="m126 150 2 7 2 4-3 2-5-8-2-4 4-3z"/><path fill="#cdbb9f" d="m217 128 4 2h3-10l1-2z"/><path fill="#eedfc5" d="m52 158 3 4v1l-18 3 1-2q6-4 14-6m13-4c0-2-2 5-5 7l-3-5v6l-1 1 1-1-3-3q3-2 3-5l8-24v3c2-3 5-10 4-11l4-6h1q-6 20-8 39"/><path fill="#d3c1a7" d="M76 128v2q-3 4-2 7c-4 8-4 26 0 26 0 6-11-1-9 7h-2l1-3v-2l1-7v-1l1-3 5-26z"/><path fill="#715539" d="m101 127 6 1h8l7 1v1l-3-1-23-1h-1v-1z"/><path fill="#594436" d="m119 129-1 2-9-1h-1l-11-1h-1v-1z"/><path fill="#715539" d="m91 126 3 1v1l-12-1v-1z"/><path fill="#594436" d="M91 119v2h-2l-3-1q-2 1-3-1z"/><path fill="#211d19" d="m66 154-1 3v1l-1 7h-1l1-11z"/><path fill="#cdbb9f" d="m97 129-4 10v-1l3-9z"/><path fill="#594436" d="M89 122h1v3l-3 1v-2l1-2z"/><path fill="#211d19" d="M89 121h-1l-1 2-1 1-1-2v-2l1-1z"/><path fill="#403b34" d="M81 127h-9v-1z"/><path fill="#211d19" d="M91 121h1v1l1 1 1 2h-1v-1h-1l-1 1v1l-1-1v-4z"/><path fill="#594436" d="M86 125h-2l1-2z"/><path fill="#cdbb9f" d="m79 129-3 1v-2z"/><path fill="#d3c1a7" d="M86 129v1l-2 1v-1l1-1z"/><path fill="#594436" d="M95 127v1h-1z"/><path fill="#cdbb9f" d="M85 129v-1zm-12-14h-1zm14 14-1 1v-1zm6 0"/><path fill="#8d6e4c" d="M73 113v1z"/><path fill="#cdbb9f" d="m115 126 2 1h-3z"/><path fill="#594436" d="m118 133-1 1z"/><path fill="#211d19" d="M107 127v1l-6-1v-1z"/><path fill="#292622" d="M94 122h-1l-1-1h-1v-1l2 1z"/><path fill="#594436" d="m53 157 3 3-1 1-3-4z"/><path fill="#d3c1a7" d="m38 164-1 2-2 1v-1l1-2z"/><path fill="#cdbb9f" d="m64 154-1 11-1 2v2l-1-1-3-3v-1 1l2 3v1h-1l-4-1q-8-2-17-2l17-3 1 1 1-1-1-2q2-2 0-6l3 5c3-2 5-9 5-7zm-6 10h-1q1 1 0 0"/><path fill="#211d19" d="m64 167-1 3h2l13-1 2 1v1l-2 1v1l-1 2h-1v-4c-4 0-11 0-11 2h-3q-2 2-4 1v-1l3-1v-1q-2-2-4-1v1l-1 1-1-3v-1l4 1h1v-1h1l1 1v-2z"/><path fill="#eedfc5" d="M35 167h1z"/><path fill="#594436" d="m199 91 1-1v1z"/><path fill="#292622" d="M229 120c2 1 9-2 18 1q7 3 16 1l5 24v2h-2q-8 3-17 0-7-1-12 1l-1 1h-3v-5l-2-8 1-1h1v4l2 8c12-5 20 4 32-2q-5-11-5-23l-12 1v-1h-3l-2 1v-2h-2l-2-1h-3l-4 1-2-1h-2v2l4 2-1 1h-4l-1-3 1-1-1-1v-2z"/><path fill="#a62f28" d="m241 121 1 4 1 2h1l3 1h3l1-1-1-3 12-1q0 12 5 23c-12 6-20-3-32 2l-2-8v-4h2l6-1 1-1-2-4-4-1h-5v-2h9v-3l-1-3zm2 11 2 4 5 1h2l1-1-1-1v-3q-1-3-4-2h-4z"/><path fill="#cdbb9f" d="m239 132-4 4h-3v-1h2-1l3-2 1-1q2 0 1-1v-1z"/><path fill="#d3c1a7" d="m234 122 4 3v2h-3v-2h1l-1-1-3-3zm2 3"/><path fill="#403b34" d="m238 121 1 4h-1l-4-3zm12 3 1 3h-4v-1h1z"/><path fill="#30536b" d="m245 124-1 1h-1v-3h2z"/><path fill="#403b34" d="M231 126v3h-1l-1-3v-1z"/><path fill="#cdbb9f" d="M243 122v3h-1l-1-4zm-10 4h2v1h-4v-1zm6-5 1 3-1 1-1-4zm-8 1 4 2 1 1h-2z"/><path fill="#8d6e4c" d="m248 123-1 2-1-1h1v-1z"/><path fill="#403b34" d="m232 136-1 1v-1zm2-11"/><path fill="#cdbb9f" d="m246 124-2 1zl2-1z"/><path fill="#8d6e4c" d="m235 124-4-2 1-1z"/><path fill="#594436" d="M233 140v-1z"/><path fill="#322f28" d="M231 130h4q1 1-3 5v1h-1v-2l-1-2v-2z"/><path fill="#30536b" d="m241 135-6 1 4-4q3 1 2 3m5-3 4 5-5-1v-4z"/><path fill="#8d6e4c" d="M247 132h1l3 3 1 1q-4-1-7-4z"/><path fill="#403b34" d="M252 132v3l-3-3h-1v-1z"/><path fill="#d3c1a7" d="m253 136-1 1h-2l-4-5q3 3 7 4m-8-4v4l-2-4z"/><path fill="#cdbb9f" d="m252 132-4-1v-1q3 0 4 2m-16-3-1 1h-4v-1zm15-2-1 1h-1v-1zm-4 3h-2z"/><path fill="#d3c1a7" d="m240 125 1-1z"/><path fill="#b57d3a" d="m247 125-3 2v-2l2-1z"/><path fill="#a62f28" d="m236 133 2-2q1 1-1 1z"/><path fill="#d3c1a7" d="M249 132h-2z"/><path fill="#cdbb9f" d="m61 171-3 1h-1l-1-1 1-1v-1q2-1 4 1"/><path fill="#d3c1a7" d="m64 173 1 2-1 1-1-2-1-1z"/><path fill="#cdbb9f" d="M68 178h-1l-1-2-1-1 1-1 3 3"/><path fill="#8d6e4c" d="m64 176-2-3z"/><path fill="#292622" d="M58 173v1h-1v-1z"/><path fill="#8d6e4c" d="m66 179-1-2z"/><path fill="#cdbb9f" d="m80 163 2 4-4 2-13 1c-2-8 9-1 9-7z"/><path fill="#d3c1a7" d="m110 161 2 4-7 1q-2 3-4 2v-3l3-1v-4l1 4zm-1-31q0 6-4 11l3-11zm-27 6 1-4h1l-1 3z"/><path fill="#eedfc5" d="m114 143-1 1z"/><path fill="#403b34" d="m127 163 2 3h-1l-7-11h1z"/><path fill="#211d19" d="M95 36v1l-2 1 9 4h7v2l-2 1-1 6 2 1v1c-5-2 0 14 3 20l1 2h1l4 1q-1 3-4 2-3 12-1 26l2 8 2 7 2-4h-3v-3c3-1 6 1 5-2h2v2h24q3-1 3-3l-4-3q-10-1-20 3v-1q5-3 11-3 25-2 45 7v1h-1v1h2l-10 1h-7q-9-2-19-1 5 2 10 1l9 1h10v1h-8l-1-1-1 1h-9v-1h-2l-33-1v-1h6l18 1v-1l-17-1h-11v1h2v1l-2 9h-1q-5-11-6-23V85l2-7H79l-4-1h-9l-1 2h-1v-1l-1-1h-1l-1-1 1-1 5-1v-2h1q12-7 27-4l7 2 8 3-3-7q-3-4-2-9-2-6 1-12 1 1 2-2H97v-1l-5-3v3l-1 1-1-1V25l-1 2h-1v-3h3l1 13zM82 74q3-2 4-5-10 0-18 5zm7-3 1-1q1-1-2-1v5q2 1 2-1zm19 3q-8-4-15-4-3 1-1 4zm-24 0q2 1 3-1l-1-2zm-10 2q-5-2-11 0zm5 0h-3zm5 0h7zm13 0h-4zm17 1h-10v1zm45 30q-6-2-12-1 6 2 12 1m10 6 2 1h6l1-1c1-2-11-4-16-6l-5 2 2 4zm-17-1h3v-2q0-2-3-1zm-3 1 1-1v-2zm7-1v-1z"/><path fill="#292622" d="M173 27v2l-1 1h1v6l1 1v1c-2 4 2 13 4 20h4l1 1v1h-1l-1-1h-54l9 1v1h-6l-2 4-6 17h-1l5-17 1-1v-1l1-2h-2l-1-2 3-1h1v-1h11l1 1 11-1c1-1-1-5-3-4v-1q2-2 4-1v2h2v-2h3v2q-2 3 1 4l16 1 1-1v-1l-5-14v-4l1-12zm-19 32q2-1 1-2l-1-2zm2-2v2z"/><path fill="#211d19" d="m157 11 3-1v1l-2 1zl-1 5v8h5v-2l1 1 1 1v1h-9l-1 1q0-2-8-1h-3v-1h10l1-3q0 2 2 3V9z"/><path fill="#322f28" d="m173 28-1-1h-8v-1h12v2z"/><path fill="#594436" d="M174 37h-1v-1zm-10-12"/><path fill="#eedfc5" d="M165 117h18l3 1-1 2-3 11h-1v5l-2 1c-1 10-1 20-8 23l-1-4v4q-4 3-10 2l-18-2q-2-9 0-20v15q5-2 5-6h3v-2l-2-1 1-1h2c2 0 2-5 4-6l3 1h2l1 1q6 0 5-5l4-5 4-13c-4-1-7 3-13 1l1-2z"/><path fill="#cdbb9f" d="M181 136a86 86 0 0 0 5 42h-1q-23-10-49-10l-3-1-2-7 1-1 1 1h9l18 2q6 0 10-2v-4l1 4c7-3 7-13 8-23z"/><path fill="#322f28" d="M187 118q1 2-1 2h-1z"/><path fill="#cdbb9f" d="m182 131-1 1v-1z"/><path fill="#efe1ca" d="m161 117-4 11v4l1-4 3-9c6 2 9-2 13-1l-4 13-4 5q1 5-5 5l-1-1h-2l-3-1c-2 1-2 6-4 6h-2l-1 1 2 1v2h-3q0 4-5 6v-15q-2 11 0 20h-9l-1-1-2-5q-2-6 0-13l-3 1-1-2q-1-3 3-7-2 0-3 2l-1-9q0-6 5-8h6l-1 4v1h-1v2l-1 3q-3 1-4 5l3-3 1-1v-1l4-4 3-3 2-4 6 1q-2 1-1 4 1-4 3-4l5-1zm-15 8-1-1-1 4z"/><path fill="#cdbb9f" d="M176 83q1 14 8 27v2l-3-1q-21-9-45-7-6 0-11 3l-2 1-1 1h-1l-1-2V90l1-1q1 5 4 8l2-5 1 6q4 3 8-1 1 3 4 1h6l2 1h11q9 1 10-2h2c6-5 3-11 5-14m-55 32 33 1 1 1h-5l-3 5q-1-3 1-5h-6l-4 1-3 4 1-4h-6q-5 3-5 8l-7-1h-1v-1l2-9z"/><path fill="#715539" d="M184 113c-1 4 3 1 6 3l-2 1-2 1-3-1h3l-11-1h-3v-1l10-1h2l-3-1v-1z"/><path fill="#594436" d="m165 115-9-1q-5 1-10-1 10-1 19 1m-38 0 1-1 17 1v1z"/><path fill="#d3c1a7" d="m162 117-1 2-3 9h-1l4-11z"/><path fill="#594436" d="M159 107q-6 1-12-1 6-1 12 1"/><path fill="#715539" d="m128 113-1 1h-10v-1z"/><path fill="#594436" d="M152 112v-3q2-1 3 1v2z"/><path fill="#322f28" d="M172 115v1h-7v-1z"/><path fill="#594436" d="M183 117h-8v-1l11 1z"/><path fill="#cdbb9f" d="m149 113 1-3v2zm32 0 3 1h-4z"/><path fill="#594436" d="M140 112h-3z"/><path fill="#403b34" d="m120 108 1 2h-1z"/><path fill="#d3c1a7" d="m171 114-2-1h2z"/><path fill="#403b34" d="m156 117-1-1h1zm11 0h-2z"/><path fill="#322f28" d="M121 114h-2v-1z"/><path fill="#8d6e4c" d="M156 112h1z"/><path fill="#594436" d="M123 110v-1z"/><path fill="#efe1ca" d="m151 62-2 8 3-8h5v3l1 2v6l4-11h3v2l5 1-3 10-2 7-3 3q-3 0-5 2l4 1q-3 1-3 4h-2v2c-2 4-8 0-8 5h-2l-1-8v2q-1 2-3 1l-5 2-1-2v4q-4 2-8 0l-1-6-2 5q-3-3-4-8v-2l1-2v-1l6-18 3 2-1 6q2-5 6-6l-1-3 2-2h6l-4 9 5-9h2v-1z"/><path fill="#eedfc5" d="m167 27-2 6h1zh4l-1 12h-2v2l1 1v3q0 2-2 3l-1-2-1 1 5 7-1 1-9-2-3-1h-5q-2-1-4 1l-4-1q1-3-1-4l-7 2v-4l-3 5-1 1c-3 0 0-13 2-18l3-6 14-1v2l-2 5 3-4 2-3zm-31 35h10v1h-2l-5 8 4-8h-6l-2 2 1 3q-4 1-6 6l1-6-3-2 2-4zm-4 2v1l2-1z"/><path fill="#d3c1a7" d="m176 57-6-2 1-1-5-7 1-1 1 2q2-1 2-3l1-2z"/><path fill="#211d19" d="M140 61h37v1h-41v-1zm-18 22v2l-1 1v2l-1 1v19h-1v-1h1l-1-1V87h1v-4z"/><path fill="#322f28" d="M171 60h-31v-1z"/><path fill="#8d6e4c" d="M164 26h8l1 1h-18q5-2 9-1"/><path fill="#211d19" d="m145 52 4 1v1h-2l-12 3v-1l3-2z"/><path fill="#cdbb9f" d="m170 55 6 2v1l-1 1q-6-4-14-5v-1z"/><path fill="#403b34" d="M140 60h-4l-9-1z"/><path fill="#594436" d="M182 61h-11v-1z"/><path fill="#8d6e4c" d="m147 55-6 4-1-1z"/><path fill="#322f28" d="m182 61-4 2h-1v-1h-1v-1z"/><path fill="#d3c1a7" d="M171 39v3h-1l-1-1v-2z"/><path fill="#594436" d="M154 59v-4l1 2q1 1-1 2"/><path fill="#403b34" d="M155 52v2h-2v-2z"/><path fill="#8d6e4c" d="M161 53h-3v-2z"/><path fill="#594436" d="M133 57h-3v-2z"/><path fill="#cdbb9f" d="m171 43-1 2zh1z"/><path fill="#715539" d="M156 57v2zm-19-31h9q5 2 8 1l1-1v1l-2 3-1-1v-2l-14 1h-2z"/><path fill="#403b34" d="M143 25v1h-6l-1 1v1l-1-1v-1h1z"/><path fill="#8d6e4c" d="M154 27q-3 1-8-1 8-1 8 1"/><path fill="#322f28" d="m131 160 2 7h-1l-2-6-2-4 1-1z"/><path fill="#eedfc5" d="m132 159-1 1-2-4v-2h1z"/><path fill="#403b34" d="M191 115v3h-5l2-1 2-1c-3-2-7 1-6-3v-1h1l1 2z"/><path fill="#d3c1a7" d="m125 126 1 9q1-2 3-2-4 4-3 7l1 2 3-1q-2 7 0 13h-1l-3-5-1-4-1-2c0-4-4-9-4-12l4-1c1-3-7-1-6-5z"/><path fill="#eedfc5" d="m142 117-2 4q-3 0-3 3l-3 1v-2h1v-1l3-4z"/><path fill="#d3c1a7" d="M133 128v1l-1 1-3 3q1-4 4-5"/><path fill="#cdbb9f" d="m137 124-4 4 1-3z"/><path fill="#eedfc5" d="m145 124-2 3zm13 4-1 4z"/><path fill="#cdbb9f" d="M137 124q0-3 3-3zm9-2v1zm0 3-1-1zm-12-2h1zm1-89c-2 5-5 18-2 18l1-1h4v3l-3 2-2 1-3-1q0-12 4-22z"/><path fill="#8d6e4c" d="m138 28-3 6 2-6z"/><path fill="#eedfc5" d="M177 62h1v1q-2 9-2 20c-2 3 1 9-5 14h-2q-1 3-10 2h-11c0-5 6-1 8-5v-2l2-1 3-3-4-1q2-2 5-2l3-3 2-7 3-10-5-1v-2zm-31 36-6 1-4-1v-4l1 2 5-2q2 1 3-1v-2z"/><path fill="#403b34" d="M121 88v1l-1 1z"/><path fill="#715539" d="M125 108v1l-2 1v-1zm60 4v-1z"/><path fill="#322f28" d="M118 125c-1 4 7 2 6 5l-4 2c0 2 4 7 4 11l-1 1-4-11-1 3h-1v-2l1-1v-2l1-2 3 1v-1l-7-1v-1h2v-2z"/><path fill="#403b34" d="m119 87 1-1zm0 20"/><path fill="#eedfc5" d="m162 62-4 11v-6l-1-2v-3zm-10 0-3 8 2-8z"/><path fill="#403b34" d="m122 85-1 2v-1z"/><path fill="#d3c1a7" d="m145 52-7 2v-3h-4l3-5v4l7-2q2 1 1 4m23-25-2 6h-1l2-6z"/><path fill="#8d6e4c" d="m152 30-3 4z"/><path fill="#efe1ca" d="M132 64h2l-2 1z"/><path fill="#322f28" d="m135 57-2 1v-1l2-1z"/><path fill="#cdbb9f" d="M149 54h-2v-1z"/><path fill="#403b34" d="M149 55h-2z"/><path fill="#8d6e4c" d="M139 26h-2z"/><path fill="#cdbb9f" d="m123 144 1 2v2l-4 3-2-2q0-2-2-3l2-10 1-3zm9 23-1 1-2-1v-1l-2-3 3-2z"/><path fill="#715539" d="m118 149-2-3v-1q3 1 2 3"/><path fill="#403b34" d="M129 154v2l-1 1-2-7v-1z"/><path fill="#211d19" d="M126 149v1l-2-2v-2l1-1z"/><path fill="#403b34" d="m125 145-1 1-1-2 1-1z"/><path fill="#594436" d="m120 151 2 4h-1l-3-5v-1z"/><path fill="#292622" d="m68 178-3-3-1-2h1z"/><path fill="#211d19" d="M69 178h-1l1-1z"/><path fill="#292622" d="M55 163v-1l1-1 1 2v1q1 1 0 0h-1zm9 2v2h-2l1-2zm30-40q3 2 7 1v1h-7l-3-1 1-1 1 1v-1zm-4-4v1h-1v-1z"/><path fill="#715539" d="m93 125-1-1v-1z"/><path fill="#403b34" d="M61 168h-1l-2-3z"/><path fill="#292622" d="M60 169h-1z"/><path fill="#8d6e4c" d="M61 172v-1z"/><path fill="#594436" d="m212 210-1 3-7 2-6 1-1-1h-3l-1 1q-6-4-13-1l-3 1h-3l-7-2 12-1z"/><path fill="#211d19" d="M31 172h3v2l-1 1 1 1 1 1h1l1 1-2 1-3-2-3 4v-3l-1 3v1q-1 0 0 0l1-1v2l4 1-1 1-2-1h-3l-1-2v-1q3-3 3-8l-18-11-1-1 1-1zm0 2v1zq0-1 0 0m13 7 5 3v1h-1q-2 0-1 1c0 2 5 0 5 3h-3l-1-1h-2l8 12 7 14-3-1-1-3c-4-8-12-18-12-22v-1h-2l-1-1 1-1 1 1 2-2-8-4v-1zm-6-2-1-1z"/><path fill="#322f28" d="M220 214q-4 1-9-1l1-3 9-2c-1 4-4 6-1 6"/><path fill="#594436" d="M225 213h-4l2-5 4-4zM37 178v1l5 5-1 1 1 1-8-2v-1l6 1-6-6z"/><path fill="#594436" d="m42 177 3 1 1 1h-2v2l-6-2v-1h-1l-1-1q2-1 4 1h1z"/><path fill="#8d6e4c" d="M10 161q-1 2 1 3h-1l-3-4z"/><path fill="#292622" d="M35 184v1h-3l1-1z"/><path fill="#403b34" d="M91 213v2l2 1h-1v1l-13-4c-2-1-5 2-8 1l-5-1-2-4q8 3 17 2zm68 1-8 2h-6l-6-2zm39 2h-2v-1h1z"/><path fill="#b57d3a" d="M77 193h-2v5l5 1 1-2 2-1q-2-1-2-3l3-1 14 2h1v3l-3-2-6-1v6h6c1-3 4-1 8-2h1v3h6l1-2h6l-1-4h3v6h6l3-2-2-1-1-2-1-1h24v7h6q0-3 2-3l-3-3 1-1h9c2 1-2 2-2 3l1 3c0 1 6 1 6-1l-1-2q-2 1-2-2l1-1h3l1 2 1-2h2q2-1 2 1l-3 1 1 4h6v-2l5-1-2-4h3l12-1v6h5q0-2 2-3l-2-1v-2l2-1 18-1q-2 3-1 5h2v2l-4 1-33 3h-7l-11 1h-39l-29-1c-9 0-41-3-43-5v-2h5q2 2 6 0v-2l-2-1q-3 1-4-1v-1zm139 6q0-2 2-3-2-1-2-3l-6 1v5zm-25 2q2 1 3-2 1-1-1-3l-5-1v6zm-47-1c-3-2-2-4-9-3v6h6q0-2 3-3"/><path fill="#292622" d="m220 200 2 1 2 4h-2v4l-2 5c-3 0 0-2 1-6l-9 2-33 3 1-3h4q8 0 14-7l-11 1v-1z"/><path fill="#403b34" d="M236 181h4l-1 5h-1l-14 1h-12v-2l3-1h1v2c5-2 8 1 8-3h1l1-1z"/><path fill="#322f28" d="m238 186-13 2-2 8 12-1v1l-11 1h-2q-1-2 1-5l-18 1 1-1h5l2-3h1l1 1h4l1-2 4-1zm-51-2 1 1 20-1 1 1h1l1 2h-2q-5-3-9-1l-1 2-4 1q0-1 0 0l-1 1h-6c0-2 4-3 3-3l-3-1-4 1q0-3 3-3"/><path fill="#8d6e4c" d="M238 186h1l-2 8-2 1-12 1 2-8zm-1 2-5 1v5l3-1zm-12 5 1 1 1-1h3l1-5h-5z"/><path fill="#715539" d="M218 187v1l-4 1h-1c-2-2-2 2-8 0q-4 3-8 1h2-4v-1l4-1q5 1 10-1z"/><path fill="#b57d3a" d="M210 184h-2l-20 1-1-1 4-1 1 1 17-2 1 1zm30-4-4 1-10 1h-2l-1-1h2l15-2z"/><path fill="#8d6e4c" d="M224 199v-2l11-1h1l-1 2z"/><path fill="#715539" d="M202 176v6h-3v-6z"/><path fill="#322f28" d="m196 182 1-1-1-2c-1 1 0 5-2 3l-1-4h5q0 5-2 4"/><path fill="#594436" d="M192 178v6l-1-1-1-1h-1v-1l-1-2zm14 0h4v3h-4z"/><path fill="#8d6e4c" d="M222 182q-3 2-5 0l4-1z"/><path fill="#715539" d="m228 178 1 1h-7q4-2 6-1"/><path fill="#8d6e4c" d="M212 182h4v2h-4z"/><path fill="#594436" d="M204 181v-1l1-2q1 2-1 3m11-2-1 1-2 1v-2z"/><path fill="#403b34" d="M229 179h5z"/><path fill="#292622" d="m219 178-1 2-2-1v-1z"/><path fill="#594436" d="m218 180 1-2h2l-1 2z"/><path fill="#292622" d="M240 180v1h-4zm-14 2h-1v-1zm-16 2h-1l-1-1z"/><path fill="#715539" d="m9 157 19 12 5 2v1h-2l-20-12-5-3z"/><path fill="#322f28" d="m29 168-19-12z"/><path fill="#594436" d="m6 157-4-3z"/><path fill="#322f28" d="M130 204h4l1 1h34l7-1v1h1v-1h2l1-1 7 1 11-1q-5 7-14 7h-4l-1 3-12 1-5-1h-1l-1 1h-24l-1-1-7 1H99v-1h-6c0-6-9-2-15-7v-2l4-1z"/><path fill="#594436" d="m57 199 7 14-3 1-7-14z"/><path fill="#b57d3a" d="m49 189 2 2 1 1v1l5 3v3l-3 1-8-12h2z"/><path fill="#715539" d="M46 179q5 7 12 6l3 2c1 1-3 2-3 1l-4-1-5-3-5-3v-2z"/><path fill="#8d6e4c" d="M55 191h-2v-1l-4-1h3l1-1c1 2 5 3 3 3z"/><path fill="#292622" d="m54 187-4-3v-1z"/><path fill="#715539" d="m49 185 4 3-1 1c0-3-5-1-5-3q-1-1 1-1zm-6-9 2 1v1l-3-1-7-3h-1v-2z"/><path fill="#322f28" d="m35 171 9 4-1 1q-4-3-9-4h-1v-1zm7 6-1 1h-1q-2-2-4-1h-1v-1q0-1 0 0v-2z"/><path fill="#292622" d="M35 174v2h-1l-1-1z"/><path fill="#594436" d="M33 172h-2z"/><path fill="#403b34" d="m29 181 1-3zm2-7q0-1 0 0"/><path fill="#594436" d="m35 177-1-1h1q0-1 0 0z"/><path fill="#292622" d="M29 181q-1 0 0 0m29 15v2c2 2 34 5 43 5l29 1v1l-52-1v2c6 5 15 1 15 7h-2l-10-2q-9 1-17-2l2 4h-2l-7-14v-3z"/><path fill="#594436" d="M128 214q-2 3-7 1-8 3-14-1zm-35-1h6v1l-6 2-2-1v-2z"/><path fill="#403b34" d="m162 213-2 1 1-1z"/><path fill="#211d19" d="m118 136-2 10v1q-2 12 1 25c5-3 12-3 12-5l2 1 1-1h1l3 1q26 0 49 10v2h1l1 1h-2l1 1h4l1 1-4 1q-3 0-3 3h-3l2 1-1 2v3l1 1 3 1h-3l2 4-5 1v2h-6l-1-4 3-1q0-2-2-1l1-1v-3h-1l-2-1-1 1v2h-2l-1-2q-2 0-2 2l1 2-1 1q0 3 2 2l1 2c0 2-6 2-6 1l-1-3c0-1 4-2 2-3h-2q2 0 2-3 0-2-2-3h-39l-8-1 1 6h1v1l1 4h-6l-1 2h-6v-3h-1c-4 1-7-1-8 2h-6v-6l6 1q2 3 3 2v-3h1l1 3h3v-3l1-1-1-1v-3l-1-2v-1l-1-1h-2l-1-1v2h1v1h-1v1h-1v-1q2 0 1-1H89v-1l7 1 1-1v-1h-1l-16-1v-2h1l-1-1-1 1-1 1h-3v-1l-1-1v2h-1l-1 1v1h-4l-2-1h-1l-2-1 8 1q-2-3-5-2v-1h3v-2l4 3 2-4 1-2h1l-1 3q2 1 3-1v-4l1-3h1v4q-2 2-1 4h2v-2h1v6l2-1v-10h-2l-1-1h-1v-1h4v1l1-1h2l1 1h1q12 1 23 7v1q-2 0 1 6l22 1 1-2 1-1 1 2 1 1v-2l-2-5h1v1l2 1v3l2 1h1v1h-2l1 2h-13 2l1 1h31c-4-3-13 0-13-2l2-1v-15h-3v4l-1 12-1 1-1-3 1-1 1-14h-14l1 3h-1l-1-3h-4q-7 0-13 4l-1 1q-3-12-3-23v-3l1-2v-4l3-7zm44 44-1-8-6-1v12q3-4 7-3m-76-5v8h3v-10l-2-1-2 1zm11 6-1-7-6-1 1 11 1-3zm69-6-1-2h-3l1 2zm5-1-4-1q0 3 2 2zm-71 1-3-1 1 3q3 0 2-2m77 5-1-3-3-2v4zm-74-3v4h5l1 2v1l1 1h2v-1h-1v-1h-1q2-2 0-4-1-2-3-1l-1 1-1-1v-1l-3-1zm69 3-1-3h-3v3zm-9-3 1 3h3l-1-3zm18 2q-1-3-3-2l1 3zm-83-1q-1 3 1 3h2v-3zm84 2-3 1 1 2v2h2q3 0 2-3 0-2-2-2m-106 1v-1zm98 0v1h3v-1zm-11 5-1-4q-6-1-7 5zm1-5v1h3v-1zm5 0v1h3v-1zm-71 2h-5zm4 1-2-1-2 1zm5 0-3-1 1 2zm68 0 1 2 2-1-1-1zm-11 0v2h4v-1zm9 1h-4l3 1zm-68 2v3l1 1v2l2 1-1 2h-1v5h3v-1l1-2-1-1 1-1-1-4v-2l-1-1-1-1v-1l1 1v-1zm4 0h4v-1zm14 1h-7v1zm2-1v1h4v-1zm40 1 4-1zm5-1v1h4v-1zm7 1h1-2v2h5q0-2-2-3v-1zv1zm-67 3 1 1v2h1l-1 2 1 2h3v-6l-1-1-2-2q-2 0-2 2m63-1 1 1v-1zm4 3 1 1h3v-1l-2-1q-2-2-2 1m5 5q0-3-2-2h-2q1 2 4 2m-88 1h-2v-2q-3 0-2 2t2 1q2 1 2-1m0-2v1h1zm71 4"/><path fill="#403b34" d="M123 190v2c0 2 9 1 16 1q9 1 20-1h-34l10-2h27q2 1 2 3 0 3-2 3l-7 1v-2l-20 1h-8v-1h-11l-1-6z"/><path fill="#292622" d="M66 181v1l-9-1v1l6 1 2 1-4 1v4q4 2 9 2 0-3 2-4v-3l17 2v1h-4l-8-1 1 1q2 5 6 6l-3 1h-1l-3-1-14-2-4-1-1-2 3-1-3-2-12-6-1-1v-1l-2-1 1-1 10 7 3-2zm7 10h2q1 0 0 0z"/><path fill="#403b34" d="m85 187 2 2-1 1v1q3 0 2-1v-3h4v1h1v-1h4v1h1v7l-14-2q-4-2-6-6l-1-1zm103 3c1 3 9 0 6 0l1-1q0-1 0 0l1 1h1q4 2 8-1c6 2 6-2 8 0l-2 3h-5l-1 1-2 1h-5l-12 1-3-1-1-1 5-2-3-1 4-4 3 1c1 0-3 1-3 3m23 0"/><path fill="#292622" d="M144 200q-3 1-3 3h-6v-6c7-1 6 1 9 3"/><path fill="#211d19" d="m58 188 1 2h-1l-1 1 6 1q1 2 4 1v2l-10-2 6 2v1h-3l-1-1-1 1h-1l-5-3 1-1 2 1v-2h1c2 0-2-1-3-3l1-1zm-2 5"/><path fill="#292622" d="m126 197 1 2 2 1-3 2h-6v-5z"/><path fill="#211d19" d="M77 194h4l2 3-2 1-1 2-5-1v-5zm3 2q-1 0 0 0m136 3h-6v-5l6-1q0 2 2 3-2 1-2 3m-25 2h-3l-1-6 6 1q2 2 1 3-1 3-3 2m-1-1h3l-1-2v1zm-37-3h1l3 3q-2 0-2 3h-6v-6zm1 3-1-1v1q0 1 0 0zm0 1-4 1zm49-6 2 1q-2 1-2 3h-5v-5z"/><path fill="#292622" d="M169 204v1h-29v-1z"/><path fill="#322f28" d="m155 195-2 2h-4l-14-1z"/><path fill="#292622" d="M99 189q2 2 5 1v3l1 1-1 1h-6zm4 5q1-1-1-3-3-2-2 0v2z"/><path fill="#322f28" d="M169 194h6v1l-1 1h-2l-1 2-1-2h-3l-1-2z"/><path fill="#292622" d="M63 196v-1h4v-2l2 1v2q-3 2-6 0"/><path fill="#211d19" d="m180 203-1 1h-3l-7 1v-1z"/><path fill="#292622" d="M127 196h-10v-1z"/><path fill="#715539" d="M125 196h-6v-1z"/><path fill="#8d6e4c" d="m59 190 4 1v1l-6-1z"/><path fill="#211d19" d="m187 203-7-1zm-47 1v1h-5l-1-1z"/><path fill="#715539" d="M203 194h-5v-1zm-123 0h-3v-1z"/><path fill="#8d6e4c" d="M153 197h-4z"/><path fill="#403b34" d="M60 196h-2l1-1z"/><path fill="#715539" d="M155 195v2h-2zm-50 4"/><path fill="#322f28" d="M186 178v2h-1v-2z"/><path fill="#b57d3a" d="m224 187-4 1h-2v-1z"/><path fill="#322f28" d="M187 181h2v1h-3v-1z"/><path fill="#403b34" d="M218 188h2l-1 2h-4l-1-1zm-9-1q-5 2-10 1l1-2q4-2 9 1"/><path fill="#594436" d="m188 186-5 4 4 1-5 2v-3l1-2 1-1z"/><path fill="#8d6e4c" d="M194 190c3 0-5 3-6 0z"/><path fill="#b57d3a" d="m184 187-1 1-2-1z"/><path fill="#322f28" d="m237 188-2 5-3 1v-5zm-4 2v2h1l1-1z"/><path fill="#292622" d="M227 194h2v-2h-2zh-2l1-4h5l-1 5z"/><path fill="#403b34" d="M227 193v1l-1 1-1-1v-1z"/><path fill="#322f28" d="M197 190h3z"/><path fill="#292622" d="M177 204v1h-1z"/><path fill="#594436" d="m53 191 2 1v1zh-1l-1-1z"/><path fill="#322f28" d="m53 190-2 1-1-2zm0 2v-1z"/><path fill="#8d6e4c" d="M58 185q-7 1-12-6z"/><path fill="#322f28" d="m55 191-2-1z"/><path fill="#211d19" d="M35 171h-1v-1z"/><path fill="#8d6e4c" d="M153 177v4l-1 1h1v2l-2 1v2c0 2 8-1 13 2h-31v-1h15l1-1 1-12z"/><path fill="#322f28" d="M65 184v2l2-1h4v2q-2 1-2 4-5 1-9-2v-4z"/><path fill="#715539" d="m89 176 1 1v6h-3v-8l1-3 2 1z"/><path fill="#8d6e4c" d="M74 183h3l2 1 16 1 1 1-1 1-7-1-17-2 1-1z"/><path fill="#403b34" d="m163 186-8 1q1-6 7-5zm-2-3h-2zq2 0 1-1"/><path fill="#715539" d="M66 182q3-1 5 2l-8-1-6-1v-1z"/><path fill="#322f28" d="m148 184-1 1 1 3h-5l-1-2h2v-1h-1z"/><path fill="#d3c1a7" d="m110 183-1-2-1-3q2-1 3 1 2 2 0 4"/><path fill="#403b34" d="M182 180v5h-2v-2l-1-2z"/><path fill="#594436" d="m135 190-10 2h-2v-2z"/><path fill="#292622" d="m108 197 1 1-1 2h-2l-1 1v-4z"/><path fill="#b57d3a" d="M104 195v3h-3l-1-3z"/><path fill="#715539" d="M123 188h-8v-1z"/><path fill="#d3c1a7" d="M98 178h3v3h-2q-2 0-1-3"/><path fill="#322f28" d="M182 185v-5q2 0 2 2 1 3-2 3"/><path fill="#b57d3a" d="M115 196v2h-3l-1-2z"/><path fill="#292622" d="m109 192 1 4h-3l1-2-2-1v-1l2 1z"/><path fill="#322f28" d="M179 188q2 1 2 3h-5v-2zh-1v-1z"/><path fill="#292622" d="M94 199q1 2-2 1l-2-1q-1-2 2-2v2z"/><path fill="#403b34" d="M115 192v2h-4v-2z"/><path fill="#292622" d="m84 172-1 5h-1v-1l-1-1v-1h1l1-2z"/><path fill="#b57d3a" d="M182 198q-3 1-4-2h2q2-1 2 2"/><path fill="#322f28" d="M181 193v1h-3l-1-1z"/><path fill="#403b34" d="M100 188h3l1 2q-3 1-5-1z"/><path fill="#d3c1a7" d="M100 175q1 3-2 2l-1-3z"/><path fill="#594436" d="M165 186v-2l4 1v2zm-58-2-2 1q-1 1-1-2z"/><path fill="#715539" d="M103 187h-4v-1h3z"/><path fill="#8d6e4c" d="M175 194h-4v-2h4z"/><path fill="#403b34" d="M109 190h-4v-1l2-1 1 1zm5 1h-4q0-2 2-2z"/><path fill="#594436" d="M175 184h2l1 1-2 1z"/><path fill="#292622" d="m114 191 1 1h-4l-1-1z"/><path fill="#8d6e4c" d="M109 187h4v1z"/><path fill="#322f28" d="M102 184h-4l2-1z"/><path fill="#594436" d="m173 185-1 1-3-1z"/><path fill="#292622" d="M69 179v2h-2v-2z"/><path fill="#403b34" d="M98 183h-5z"/><path fill="#292622" d="M115 194v2h-4l1-2z"/><path fill="#8d6e4c" d="M169 194h-3q0-2 2-2z"/><path fill="#403b34" d="M109 191v1l-1 1-2-1v-1z"/><path fill="#715539" d="M110 183h1v2h-1l-1-1h2z"/><path fill="#594436" d="M153 184v2l-2 1v-2z"/><path fill="#b57d3a" d="M165 189v-1h3z"/><path fill="#715539" d="M125 187h4v1h-4z"/><path fill="#594436" d="M174 182h3v1z"/><path fill="#715539" d="M107 187h-2z"/><path fill="#8d6e4c" d="M181 193h-4q0-3 2-1z"/><path fill="#403b34" d="M164 181h4v1h-4z"/><path fill="#cdbb9f" d="M105 177h-3v-1z"/><path fill="#b57d3a" d="M170 187h4v1h-4z"/><path fill="#8d6e4c" d="M107 196h3l-1 1zm72-8h-3v-1h3z"/><path fill="#594436" d="M169 181h3v1h-3z"/><path fill="#292622" d="M108 181h-2v-2l1-1zm1 9v1h-3l-1-1z"/><path fill="#322f28" d="M174 192h-3l1-1z"/><path fill="#292622" d="m87 172-1 3-1-2z"/><path fill="#322f28" d="M109 200h-3l1-1z"/><path fill="#292622" d="M79 182h1v2l-2-1zm15 15 1 1h-1zm9-10v1h-3v-1zm4 0v1l-2 1v-2zm-9 1v-1zq1 1-1 1m-29-4-2 1v-2zm7-2h-1v-2l1 1z"/><path fill="#594436" d="m153 182 1-1z"/><path fill="#322f28" d="M165 201h1z"/><path fill="#292622" d="M89 177h1z"/><path fill="#322f28" d="M173 190h1v1z"/><path fill="#292622" d="M105 177v1h-2v-1z"/><path fill="#715539" d="m97 186-1-1z"/><path fill="#cdbb9f" d="M111 185v-1h1v1z"/><path fill="#322f28" d="M139 185v2z"/><path fill="#b57d3a" d="M132 188h-2z"/><path fill="#292622" d="M109 184h2z"/><path fill="#8d6e4c" d="M125 192h34q-11 2-20 1c-7 0-16 1-16-1z"/><path fill="#594436" d="M88 187v2h-1l-2-2z"/><path fill="#322f28" d="M73 191h2q1 0 0 0z"/><path fill="#403b34" d="M76 188h1z"/><path fill="#8d6e4c" d="M88 189v1q1 1-2 1v-1l1-1z"/><path fill="#594436" d="M67 195h-4l-6-2z"/><circle cx="79" cy="196" r="1" fill="#322f28"/><path fill="#322f28" d="m190 200 2-1v-1l1 2z"/><path fill="#292622" d="m154 201-4 1z"/><circle cx="153" cy="200" r="1" fill="#292622"/><path fill="#403b34" d="M103 194h-3v-3h2z"/><path fill="#715539" d="m233 190 2 1-1 1h-1z"/><path fill="#8d6e4c" d="M227 193v-2h2v2z"/><path fill="#211d19" d="M161 183q1 1-1 1l-1-1zm-52 14-1 1-1-1z"/><path fill="none" stroke="#211d19" stroke-miterlimit="10" d="m9 156 10-2h8l6 1 10 2 9 1 11-44 10-25v-2"/></svg>