<svg xmlns="http://www.w3.org/2000/svg" viewBox="0 0 761 900" width="761" height="900"><rect width="761" height="900" fill="#9cc0ca"/><path d="M22.8 630.4L85.0 631.2L91.3 670.4L100.0 728.2L104.1 741.0L108.0 748.3L106.4 752.8L110.5 755.5L104.5 761.3L104.7 767.0L101.6 774.8L105.1 788.5L102.5 800.5L106.4 813.1L88.9 813.3L14.2 813.3L13.0 819.3L21.0 828.1L19.7 835.6L22.4 839.3L17.1 846.1L12.3 847.6L3.3 840.1L2.3 828.8L-0.4 827.6L-3.7 836.1L-4.9 844.3L-14.0 842.1L-16.7 772.3L-8.6 685.5L-3.5 635.4L-7.2 630.7L22.8 630.4Z" fill="#d9c79c" stroke="#b7a276" stroke-width="0.8"/><path d="M389.6 448.0L394.0 452.5L389.4 457.3L386.6 450.7L389.6 448.0Z" fill="#d9c79c" stroke="#b7a276" stroke-width="0.8"/><path d="M-93.8 287.4L-28.0 288.1L7.0 288.1L5.8 296.9L11.3 307.1L16.9 323.9L16.7 431.7L12.8 440.0L17.3 449.7L17.9 457.8L13.4 464.3L12.3 470.3L5.8 480.0L1.7 480.8L2.7 486.5L-0.0 488.8L-2.1 499.5L-1.0 502.5L-5.6 509.0L-2.3 517.1L-16.9 521.3L-18.3 526.1L-15.0 532.1L-19.5 535.8L-32.5 528.8L-36.6 529.3L-42.0 537.3L-40.3 539.8L-45.9 539.3L-53.9 526.3L-51.0 523.3L-53.9 514.6L-53.9 507.5L-65.4 497.8L-69.3 498.8L-73.2 492.8L-83.7 483.5L-83.5 476.3L-77.5 464.5L-78.4 460.3L-74.9 454.8L-80.0 451.5L-87.8 449.5L-91.9 453.8L-94.6 451.0L-96.9 436.0L-108.8 426.2L-119.7 414.5L-124.2 400.5L-124.5 391.2L-121.4 384.7L-120.8 376.4L-110.9 371.4L-109.9 364.4L-105.3 359.9L-104.7 351.9L-110.5 345.4L-108.2 337.4L-94.4 335.1L-83.3 329.4L-82.1 322.4L-77.5 319.4L-76.1 310.6L-77.1 304.9L-85.0 300.4L-86.0 295.6L-93.8 287.4Z" fill="#d9c79c" stroke="#b7a276" stroke-width="0.8"/><path d="M71.4 321.6L113.4 321.6L113.4 324.6L113.6 379.2L113.1 443.0L110.3 445.0L113.2 457.5L107.0 457.8L100.4 462.0L91.3 460.0L91.6 469.0L85.6 472.8L83.3 478.5L77.1 480.8L73.7 492.3L69.7 495.3L61.7 491.0L60.3 485.8L52.5 491.5L53.1 496.5L45.1 498.3L42.8 493.8L33.9 498.3L30.9 503.0L22.0 496.3L17.3 497.8L14.2 494.5L11.3 497.8L2.3 498.3L-1.0 502.5L-2.1 499.5L-0.0 488.8L2.7 486.5L1.7 480.8L5.8 480.0L12.3 470.3L13.4 464.3L17.9 457.8L17.3 449.7L12.8 440.0L16.7 431.7L16.9 323.9L20.4 326.9L31.3 326.9L41.8 321.6L71.4 321.6Z" fill="#d9c79c" stroke="#b7a276" stroke-width="0.8"/><path d="M161.5 322.9L113.4 324.6L113.4 321.6L71.4 321.6L41.8 321.6L49.0 315.6L53.9 305.4L58.4 299.1L61.7 290.4L63.6 277.8L62.8 264.3L52.3 237.8L55.6 227.8L53.3 215.8L61.5 203.5L63.2 193.3L62.1 187.8L67.9 185.5L68.7 178.0L77.8 176.0L84.8 167.8L84.3 184.3L88.0 185.0L92.6 176.8L92.8 162.8L95.7 159.2L105.5 157.0L102.4 147.2L108.8 139.0L116.8 138.5L125.7 143.7L134.5 144.5L138.7 151.0L145.4 151.5L156.4 157.5L160.3 157.2L166.4 167.0L161.5 172.3L166.2 179.0L167.9 186.8L165.8 203.8L158.6 208.0L156.8 216.8L148.3 219.8L143.6 230.3L145.4 234.3L153.9 238.1L160.5 232.3L168.3 220.5L180.6 216.0L186.6 219.5L190.3 226.1L194.0 245.1L194.6 254.6L198.5 266.1L194.8 282.6L188.9 285.1L188.8 279.1L184.9 280.9L180.4 294.6L173.2 299.9L171.0 310.4L162.1 319.1L161.5 322.9Z M88.5 140.2L89.1 145.7L84.4 146.7L86.4 139.0L88.5 140.2Z M14.6 169.3L9.1 164.5L12.5 158.0L4.1 157.0L7.4 150.7L7.8 142.7L0.4 137.2L-3.7 131.5L-18.9 127.0L-23.5 128.5L-38.7 121.7L-75.3 112.5L-79.2 104.7L-85.8 101.9L-72.0 97.2L-65.8 91.7L-50.2 89.4L-40.1 82.7L-35.4 82.4L-31.5 77.7L-20.4 70.9L-14.8 65.2L-6.4 61.4L1.6 64.7L-12.5 78.7L-15.8 83.4L-15.6 91.9L-8.8 85.4L3.5 86.4L13.0 90.9L21.6 103.4L26.3 105.7L35.2 103.7L37.4 106.5L46.3 108.0L65.4 97.4L75.3 96.4L88.5 96.9L97.5 93.4L104.3 93.2L105.7 106.0L112.7 107.7L119.7 105.7L122.6 108.7L127.3 105.0L137.6 103.7L137.8 119.7L142.4 126.5L149.4 128.2L150.2 123.7L157.0 123.7L160.7 128.5L157.6 132.0L138.2 129.0L128.8 131.0L118.7 125.5L115.8 130.5L117.1 134.7L112.7 133.7L106.0 127.5L94.6 123.7L88.7 123.5L83.1 129.5L73.7 131.0L63.6 129.7L59.5 132.2L58.6 137.2L47.5 141.5L48.1 135.5L43.2 134.2L41.2 140.5L33.1 140.7L29.4 143.5L23.9 154.2L13.8 168.0L14.6 169.3Z M-28.6 37.6L-37.6 43.4L-42.2 44.1L-41.8 39.4L-19.5 28.6L-23.7 36.1L-28.6 37.6Z" fill="#d9c79c" stroke="#b7a276" stroke-width="0.8"/><path d="M-16.7 630.7L-7.2 630.7L-3.5 635.4L-8.6 685.5L-16.7 772.3L-14.0 842.1L-17.9 844.1L-26.5 843.1L-30.0 840.1L-38.5 842.1L-50.4 847.3L-54.1 850.6L-58.4 845.8L-59.7 838.3L-65.6 828.3L-62.1 813.3L-129.2 813.3L-126.7 810.1L-129.2 801.0L-124.9 800.5L-124.3 783.8L-120.8 784.8L-118.7 774.5L-110.3 768.0L-106.1 757.5L-106.8 744.0L-112.1 738.2L-111.7 729.0L-109.2 727.0L-112.5 721.7L-109.8 715.5L-111.7 706.0L-108.6 702.2L-114.8 696.2L-109.2 682.2L-102.7 674.9L-104.9 669.9L-97.5 662.4L-97.7 659.4L-91.3 656.9L-91.9 647.9L-88.2 645.9L-85.6 638.2L-80.0 634.7L-82.1 630.7L-16.7 630.7Z" fill="#d9c79c" stroke="#b7a276" stroke-width="0.8"/><path d="M-85.8 101.9L-79.2 104.7L-75.3 112.5L-38.7 121.7L-23.5 128.5L-18.9 127.0L-3.7 131.5L0.4 137.2L7.8 142.7L7.4 150.7L4.1 157.0L12.5 158.0L9.1 164.5L14.6 169.3L13.2 174.8L6.4 175.8L0.6 186.3L-1.6 193.5L2.5 194.8L8.0 190.0L13.8 181.0L21.2 177.5L27.0 166.0L34.4 163.5L33.9 169.5L28.8 175.0L18.9 194.0L16.1 204.5L16.3 212.0L12.6 214.5L9.3 224.8L10.5 233.6L7.4 239.3L3.1 253.6L4.1 264.8L8.4 274.8L7.0 288.1L-28.0 288.1L-93.8 287.4L-96.3 281.6L-109.0 276.3L-111.7 269.1L-112.9 258.8L-108.6 253.3L-113.8 248.8L-114.2 242.1L-116.2 236.8L-115.2 229.6L-122.0 219.5L-127.7 217.8L-137.8 210.0L-139.5 204.0L-150.4 199.0L-154.1 194.0L-161.5 193.3L-170.9 185.0L-168.3 168.3L-169.1 160.5L-165.0 153.5L-169.5 147.7L-173.6 147.2L-173.0 140.7L-164.8 131.0L-154.7 127.2L-152.6 124.5L-152.6 97.4L-145.4 93.7L-142.6 95.7L-134.7 96.2L-109.9 88.4L-100.8 84.2L-97.7 87.4L-102.6 93.4L-90.9 101.2L-85.8 101.9Z" fill="#d9c79c" stroke="#b7a276" stroke-width="0.8"/><path d="M1141.1 -214.1L1146.5 -212.4L1144.2 -212.8L1144.9 -210.8L1143.4 -211.0L1144.0 -209.8L1137.9 -212.2L1141.1 -214.1Z M1155.9 -90.6L1152.7 -86.9L1149.3 -88.0L1150.5 -91.0L1151.5 -90.1L1156.0 -91.6L1155.9 -90.6Z M1205.1 -42.8L1208.6 -38.8L1198.8 -35.0L1197.6 -35.7L1197.2 -39.8L1198.9 -39.9L1197.9 -41.9L1200.3 -42.1L1201.2 -40.0L1202.7 -43.3L1205.1 -42.8Z M1189.2 -38.1L1187.5 -34.7L1182.2 -33.3L1181.7 -31.5L1177.0 -31.4L1179.3 -32.8L1176.6 -34.1L1176.3 -36.1L1179.8 -36.7L1180.0 -34.6L1181.6 -34.0L1185.7 -38.1L1185.9 -36.7L1188.9 -39.5L1189.2 -38.1Z M1223.5 27.8L1225.4 27.5L1225.3 29.9L1223.9 31.7L1224.7 32.1L1221.0 33.1L1213.1 32.1L1210.3 28.2L1211.3 26.9L1213.3 29.2L1216.3 28.6L1219.0 29.8L1223.5 27.8Z M1139.5 51.3L1139.4 53.0L1141.3 54.3L1140.4 54.7L1132.9 52.8L1139.5 51.3Z M1203.6 53.0L1199.3 64.0L1195.0 63.7L1198.7 60.5L1200.7 57.3L1199.5 56.7L1201.9 53.9L1201.9 55.5L1203.2 51.7L1203.6 53.0Z M830.3 -528.0L824.6 -529.5L821.9 -532.2L822.3 -533.3L830.0 -533.8L834.0 -530.6L833.8 -528.8L836.0 -530.2L837.5 -530.0L837.5 -528.7L835.7 -527.0L837.7 -524.6L830.3 -528.0Z M833.7 -525.5L839.1 -522.6L830.9 -524.9L825.7 -522.2L833.0 -523.7L838.3 -521.7L835.4 -517.0L830.4 -514.9L823.3 -511.1L831.3 -514.0L836.5 -514.4L831.8 -511.8L838.6 -510.4L835.0 -506.7L839.8 -508.1L844.7 -511.5L843.5 -505.8L848.2 -506.9L846.4 -501.9L854.2 -497.5L848.3 -489.7L852.8 -494.6L857.5 -493.5L853.4 -489.1L857.3 -491.9L862.6 -489.5L859.8 -485.0L852.7 -484.9L861.1 -483.7L859.6 -477.0L865.1 -482.6L869.2 -478.1L874.7 -479.0L871.8 -474.8L868.6 -469.8L861.0 -468.2L855.0 -469.7L851.0 -466.9L856.3 -468.6L869.5 -467.4L875.0 -470.6L883.8 -468.5L876.3 -467.1L882.1 -465.1L876.7 -459.4L882.6 -460.2L888.4 -460.8L891.6 -456.4L886.8 -452.6L892.9 -452.8L891.2 -447.7L882.2 -443.3L872.6 -444.0L867.3 -434.0L878.8 -441.5L885.0 -441.2L895.2 -442.8L902.8 -443.1L901.7 -437.5L893.3 -432.3L900.4 -432.7L885.6 -427.2L880.7 -423.2L876.1 -419.4L883.7 -420.2L894.0 -426.9L898.6 -426.8L903.4 -427.8L907.7 -428.3L905.8 -422.8L910.7 -425.4L905.0 -420.6L899.9 -417.1L907.5 -418.8L911.9 -416.0L916.4 -416.1L921.6 -415.6L923.9 -409.9L927.5 -405.2L921.9 -401.5L914.1 -399.0L904.4 -397.5L910.8 -393.8L917.8 -395.8L927.6 -393.4L928.6 -387.7L923.2 -385.7L927.5 -384.3L931.8 -383.4L936.7 -385.2L943.6 -381.4L946.9 -375.8L942.0 -373.8L936.5 -369.3L927.1 -365.3L934.3 -362.3L930.0 -361.2L935.9 -358.5L926.5 -358.4L906.0 -364.6L913.8 -366.7L922.0 -367.0L904.4 -367.2L926.7 -357.3L915.8 -356.8L925.7 -355.4L933.9 -355.1L922.1 -352.0L926.2 -348.9L931.2 -346.9L938.4 -342.1L930.5 -342.9L935.9 -341.2L931.6 -340.6L921.1 -342.0L926.6 -338.6L936.0 -339.2L946.8 -339.1L947.3 -333.5L943.2 -331.5L950.9 -330.9L941.4 -329.3L945.9 -328.0L955.1 -327.4L955.6 -321.9L968.0 -322.1L961.2 -317.6L967.9 -316.6L971.8 -320.8L973.8 -315.4L970.7 -309.0L976.9 -319.9L982.0 -318.0L977.3 -313.3L978.9 -306.1L982.7 -309.7L978.7 -303.6L983.0 -305.5L987.7 -305.1L982.2 -301.3L978.2 -296.7L973.1 -290.9L978.2 -294.1L982.5 -294.7L978.3 -291.9L971.0 -285.3L977.7 -288.1L989.1 -296.3L994.1 -295.4L988.1 -287.7L984.4 -284.1L991.3 -289.5L994.1 -294.0L1002.7 -298.3L1004.3 -292.3L999.7 -290.3L1004.4 -289.8L1011.3 -290.9L1004.3 -281.8L1000.5 -277.7L996.8 -271.8L1002.2 -273.5L1008.9 -281.2L1015.0 -286.4L1020.2 -291.9L1024.6 -294.1L1021.4 -287.9L1016.7 -282.0L1021.4 -284.9L1025.9 -288.9L1030.5 -288.7L1028.8 -283.0L1034.1 -281.1L1029.9 -278.2L1034.5 -279.4L1038.2 -276.4L1047.5 -274.3L1051.5 -271.3L1058.9 -273.9L1065.9 -270.2L1071.0 -271.3L1077.9 -266.3L1085.4 -267.3L1089.1 -264.0L1076.3 -258.9L1086.4 -258.3L1077.9 -254.8L1060.7 -254.3L1056.6 -251.8L1062.5 -252.4L1057.2 -250.7L1050.0 -248.5L1040.1 -244.2L1033.4 -243.9L1017.0 -239.7L1009.9 -239.8L1020.5 -238.5L1041.4 -243.3L1052.4 -248.1L1044.2 -239.5L1029.0 -238.8L1033.2 -238.1L1026.3 -235.1L1013.9 -229.8L1001.0 -230.4L990.1 -227.4L994.2 -224.0L990.6 -219.8L980.9 -222.3L966.0 -227.1L961.7 -225.2L966.2 -224.9L975.7 -222.9L984.9 -217.4L993.1 -214.5L983.0 -209.6L988.6 -207.6L980.7 -204.0L985.5 -204.1L990.8 -204.2L993.9 -208.1L998.1 -212.7L1002.5 -213.7L1008.8 -216.1L1017.2 -221.5L1022.8 -223.5L1027.7 -223.1L1034.7 -232.5L1061.3 -242.0L1073.4 -240.7L1060.2 -243.8L1054.2 -241.6L1059.8 -248.4L1078.0 -246.7L1086.2 -245.9L1090.9 -237.8L1096.4 -234.6L1098.7 -229.5L1081.9 -218.9L1088.0 -219.6L1090.5 -214.6L1096.6 -217.0L1100.9 -224.4L1111.9 -226.2L1120.4 -227.6L1111.2 -222.7L1119.9 -220.3L1125.1 -220.6L1136.0 -218.2L1127.6 -216.6L1135.8 -212.9L1140.1 -209.9L1143.6 -205.2L1145.3 -200.0L1138.9 -197.0L1131.0 -193.2L1135.5 -192.1L1140.9 -190.5L1143.9 -184.5L1137.4 -183.0L1131.2 -183.6L1135.0 -181.0L1138.3 -177.2L1145.3 -176.6L1139.2 -175.4L1132.6 -175.9L1137.8 -174.5L1133.7 -172.3L1128.5 -171.0L1119.3 -173.3L1128.2 -170.4L1133.1 -171.2L1138.0 -169.1L1145.8 -168.9L1149.5 -166.2L1144.1 -163.8L1130.0 -166.1L1143.2 -161.0L1146.9 -157.7L1148.0 -150.8L1142.5 -146.3L1132.8 -139.8L1121.5 -134.6L1112.7 -129.8L1108.2 -124.6L1103.8 -123.0L1097.7 -119.4L1097.8 -146.2L1088.3 -146.2L861.5 -146.2L865.6 -148.0L854.8 -158.3L852.2 -163.9L853.7 -172.3L858.4 -174.4L874.8 -175.9L867.1 -181.4L869.0 -190.5L865.7 -196.2L855.4 -195.4L853.3 -188.8L846.6 -185.1L845.5 -176.9L845.3 -171.3L849.8 -163.2L848.6 -153.1L843.5 -152.0L843.0 -146.3L840.0 -139.4L843.3 -134.3L837.0 -131.0L832.1 -126.0L827.7 -132.2L831.6 -136.9L822.6 -143.0L813.3 -154.0L801.1 -155.7L797.0 -148.3L790.2 -151.3L784.6 -148.5L779.4 -151.6L775.5 -156.3L771.9 -160.4L769.7 -152.4L766.0 -155.4L764.4 -160.5L768.9 -164.8L765.8 -170.4L766.2 -178.5L768.2 -184.4L769.4 -190.7L764.7 -193.4L758.6 -189.4L757.9 -179.4L752.7 -176.5L743.7 -178.1L743.3 -189.5L746.8 -193.1L746.4 -200.8L749.3 -207.4L743.7 -209.4L741.1 -216.6L728.6 -219.5L730.8 -227.4L725.2 -231.0L719.9 -237.6L723.5 -245.6L728.9 -248.3L724.9 -254.3L723.6 -259.5L728.6 -264.1L735.3 -260.6L738.3 -265.3L744.8 -266.0L738.5 -268.1L735.2 -273.4L730.0 -284.1L736.4 -286.3L745.1 -278.6L748.0 -274.2L755.4 -271.0L760.1 -273.7L757.5 -278.4L754.4 -288.1L757.2 -292.6L751.7 -298.1L757.2 -297.0L761.2 -294.7L773.1 -282.9L780.4 -279.1L786.7 -279.0L792.7 -270.2L801.4 -271.6L812.8 -269.3L823.9 -271.8L833.1 -270.5L838.3 -271.9L853.5 -266.2L864.5 -265.5L872.8 -282.0L868.1 -286.0L869.8 -291.6L882.0 -296.8L882.0 -302.4L877.6 -307.2L872.3 -310.6L862.8 -322.5L872.4 -330.0L860.1 -330.7L852.0 -332.4L857.1 -338.9L849.6 -340.8L848.6 -346.8L853.6 -347.8L854.7 -354.0L848.1 -361.4L853.0 -364.8L857.3 -369.0L857.2 -377.7L860.1 -382.2L858.5 -389.5L863.0 -391.6L861.1 -396.7L862.6 -402.1L866.7 -404.9L861.0 -408.1L856.5 -408.0L852.5 -411.8L845.1 -419.3L837.4 -424.2L845.2 -431.1L847.1 -436.2L859.1 -441.8L851.9 -444.1L850.9 -451.2L867.8 -453.0L867.3 -459.0L861.0 -460.2L852.7 -457.7L847.2 -454.4L843.5 -459.1L832.5 -460.8L827.2 -463.5L821.5 -462.7L827.1 -469.2L837.9 -465.1L842.3 -466.8L835.2 -470.8L834.7 -477.4L833.6 -483.1L840.6 -488.7L827.8 -486.4L823.3 -490.3L825.2 -497.9L823.8 -503.4L829.2 -506.4L822.6 -510.0L827.7 -514.6L830.1 -519.8L825.4 -519.7L822.4 -523.6L833.7 -525.5Z M851.0 -504.8L851.5 -502.7L850.0 -502.0L854.1 -500.5L852.8 -499.0L847.9 -497.8L846.9 -498.1L847.6 -499.2L845.4 -499.5L846.0 -501.1L848.1 -500.6L847.3 -502.0L848.4 -504.8L851.0 -504.8Z M927.9 -414.2L928.0 -411.8L925.6 -410.6L919.9 -412.5L923.9 -416.2L926.3 -416.1L925.9 -414.5L927.9 -414.2Z M936.0 -409.8L934.6 -407.2L932.0 -407.4L929.9 -410.2L927.4 -409.3L931.6 -413.2L934.5 -412.6L933.6 -410.4L935.3 -411.0L936.0 -409.8Z M926.4 -395.3L923.0 -398.4L924.6 -401.2L926.2 -401.4L925.6 -399.7L927.5 -401.4L931.5 -399.7L931.5 -397.8L926.4 -395.3Z M936.4 -398.5L934.7 -397.3L936.3 -396.7L935.3 -395.8L931.2 -395.6L929.9 -394.3L934.6 -394.8L937.4 -393.7L936.3 -392.6L927.3 -394.6L931.5 -396.8L933.1 -399.1L936.4 -398.5Z M946.7 -370.5L944.9 -369.1L946.4 -367.7L943.7 -366.2L943.4 -367.4L941.8 -367.2L941.4 -365.7L938.5 -363.9L945.6 -364.4L946.2 -360.3L944.9 -359.2L945.4 -357.2L943.5 -357.3L936.4 -362.5L936.8 -368.2L940.3 -370.2L940.7 -372.0L942.7 -372.7L944.1 -371.4L947.1 -371.6L946.7 -370.5Z M939.5 -354.1L947.7 -352.3L946.5 -350.5L953.1 -350.7L951.3 -349.5L954.0 -349.1L942.4 -350.3L941.4 -348.9L936.9 -350.2L936.9 -351.3L944.4 -351.0L936.8 -352.1L939.0 -352.6L937.9 -354.2L939.5 -354.1Z M939.9 -346.8L942.4 -347.5L944.7 -345.9L942.8 -344.7L944.5 -343.7L942.1 -343.1L934.9 -345.1L931.0 -347.8L939.9 -346.8Z M956.1 -336.7L957.7 -336.0L956.9 -334.6L961.3 -333.3L959.0 -330.5L961.6 -329.5L957.8 -329.2L951.4 -331.3L951.2 -333.4L954.0 -333.1L952.8 -333.8L956.1 -336.7Z M968.3 -325.8L968.1 -324.8L970.4 -325.4L967.9 -323.5L962.8 -323.1L965.9 -323.7L963.7 -324.6L964.1 -326.8L968.3 -325.8Z M1068.0 -279.2L1066.3 -277.2L1066.4 -274.2L1068.1 -275.4L1070.0 -274.2L1070.7 -275.6L1071.5 -274.7L1070.1 -273.7L1060.9 -272.2L1057.9 -275.7L1058.2 -277.7L1059.8 -276.6L1068.0 -279.2Z M1141.3 -94.2L1133.5 -87.6L1133.2 -95.9L1131.3 -86.4L1128.4 -78.8L1122.6 -71.9L1116.8 -62.0L1110.5 -55.9L1109.9 -47.3L1104.7 -43.3L1109.2 -42.4L1106.5 -34.1L1110.8 -39.6L1120.0 -49.9L1125.2 -56.0L1131.5 -61.7L1134.7 -58.1L1130.2 -51.3L1136.8 -56.3L1146.0 -51.3L1151.4 -53.1L1156.1 -52.9L1140.8 -43.8L1136.7 -41.9L1131.2 -37.6L1135.4 -39.7L1140.7 -41.8L1141.2 -35.9L1134.1 -31.4L1143.1 -33.1L1148.5 -30.4L1153.9 -31.4L1152.3 -25.7L1155.1 -30.6L1159.3 -32.1L1156.7 -25.4L1160.8 -27.7L1161.4 -33.3L1167.6 -33.8L1164.2 -25.0L1159.5 -16.7L1158.8 -11.0L1166.0 -14.6L1162.2 -17.7L1170.4 -22.1L1175.7 -21.7L1177.9 -27.9L1178.7 -21.4L1188.8 -33.2L1192.6 -30.6L1191.9 -24.4L1195.3 -28.6L1200.2 -28.2L1206.5 -31.1L1227.3 -20.6L1223.6 -14.8L1213.8 -10.6L1208.9 -4.2L1201.7 -0.0L1208.3 -0.5L1214.4 -1.3L1207.2 2.7L1211.8 7.0L1214.0 2.3L1218.5 5.2L1210.5 10.2L1218.1 11.0L1211.5 14.6L1207.6 17.3L1202.2 19.0L1208.3 18.2L1213.6 15.0L1220.5 11.8L1217.8 17.1L1222.7 12.6L1228.4 8.0L1232.7 10.0L1238.1 7.8L1244.4 9.2L1241.6 16.3L1236.6 20.6L1231.0 18.9L1227.6 23.8L1220.0 29.1L1210.1 26.0L1211.1 32.7L1219.9 33.6L1210.9 35.5L1215.8 36.7L1222.0 34.4L1218.9 41.1L1215.3 47.1L1210.5 43.4L1214.1 49.4L1216.5 54.4L1220.8 56.1L1225.2 54.2L1227.1 45.4L1230.9 42.7L1233.2 36.6L1238.1 33.5L1246.4 28.8L1245.2 36.2L1241.5 40.1L1236.3 48.7L1234.0 54.5L1236.2 60.8L1247.2 56.7L1251.4 45.5L1253.7 51.8L1257.0 59.4L1252.7 68.1L1248.3 77.7L1247.6 84.9L1245.7 91.9L1240.3 98.5L1234.0 94.4L1229.7 96.8L1223.6 99.9L1220.6 95.5L1223.9 88.4L1222.1 82.6L1225.8 76.6L1220.8 77.6L1216.3 80.7L1209.7 88.9L1201.2 90.3L1207.6 71.8L1212.4 66.1L1212.1 55.9L1207.8 44.8L1198.6 41.1L1200.4 46.7L1196.0 50.3L1191.6 59.6L1189.6 65.4L1193.1 54.7L1185.9 64.4L1178.9 65.6L1170.9 72.1L1170.0 78.5L1165.4 79.0L1164.3 85.5L1159.5 86.6L1154.3 86.2L1150.2 88.2L1139.4 87.1L1141.7 78.9L1155.1 76.0L1161.9 70.0L1163.0 64.1L1174.2 59.2L1178.1 55.6L1183.2 51.9L1174.3 54.8L1169.6 55.3L1174.7 46.5L1168.2 55.9L1161.1 51.7L1155.9 53.9L1158.0 59.7L1151.6 64.0L1150.1 57.5L1145.3 61.5L1139.6 62.2L1146.0 55.5L1133.2 61.1L1143.8 54.6L1150.1 51.4L1142.7 54.0L1144.1 45.7L1146.1 40.1L1142.1 45.9L1137.4 47.6L1133.1 50.6L1131.4 44.2L1131.9 51.0L1126.3 53.8L1125.9 48.0L1124.7 54.4L1112.7 53.8L1109.2 58.2L1101.7 55.6L1096.9 56.5L1090.3 55.7L1084.0 53.7L1078.5 54.9L1074.0 54.2L1068.8 52.6L1064.6 50.4L1053.3 52.8L1056.2 47.9L1050.6 53.3L1044.3 54.3L1026.1 56.9L1019.5 54.4L1020.4 47.9L1016.1 40.8L1022.6 35.2L1031.1 30.9L1045.0 16.9L1051.0 14.3L1056.4 12.9L1047.4 13.7L1041.6 11.2L1021.6 15.2L1038.4 1.0L1031.8 8.5L1036.8 10.5L1042.5 2.6L1046.6 -2.8L1048.1 -9.3L1053.4 -16.0L1059.8 -12.0L1063.7 -8.0L1069.7 -8.3L1062.0 -10.9L1068.5 -14.8L1062.6 -16.0L1068.4 -20.1L1058.7 -20.1L1057.9 -27.0L1065.9 -34.7L1068.8 -30.4L1074.9 -29.9L1072.1 -34.7L1067.8 -36.9L1080.0 -62.8L1082.7 -71.5L1088.2 -81.8L1096.0 -83.0L1091.6 -83.6L1087.3 -86.5L1093.2 -88.2L1098.2 -90.5L1102.2 -94.7L1098.2 -101.4L1104.9 -101.1L1109.1 -106.8L1112.5 -115.9L1133.0 -124.4L1140.8 -129.3L1141.3 -123.0L1150.4 -122.1L1146.2 -125.9L1150.5 -128.4L1158.1 -126.6L1153.5 -123.4L1154.4 -117.1L1145.5 -116.3L1133.9 -117.3L1136.6 -112.9L1138.2 -107.5L1142.7 -111.0L1147.2 -108.4L1143.7 -103.1L1143.4 -97.1L1141.3 -94.2Z" fill="#d9c79c" stroke="#b7a276" stroke-width="0.8"/><path d="M835.5 40.3L834.4 44.2L831.2 48.0L829.7 48.9L828.2 47.8L829.7 46.2L827.7 44.6L829.0 42.6L831.1 41.7L833.8 42.8L835.5 40.3Z M673.6 68.7L690.1 62.8L697.1 56.7L697.3 40.0L706.3 39.9L724.4 36.7L733.2 43.8L739.4 41.9L744.4 39.7L751.7 36.7L769.0 33.2L789.0 41.5L794.8 51.6L800.2 51.1L808.6 45.4L815.6 43.7L823.4 45.2L828.7 48.6L823.8 51.4L820.9 56.8L821.4 62.5L818.4 69.0L804.0 78.3L809.9 78.2L816.3 78.0L824.3 78.6L821.4 85.4L821.7 92.2L826.0 97.6L828.8 105.0L830.2 112.5L832.8 117.9L843.7 117.2L847.5 120.7L853.7 119.7L860.6 122.4L855.6 125.5L850.3 125.2L847.2 129.3L843.0 135.4L835.6 140.6L833.7 132.6L828.5 128.2L832.3 134.2L828.8 139.3L825.0 145.9L820.6 144.9L816.6 148.5L805.6 152.7L790.9 162.4L784.5 164.2L780.3 160.4L781.6 152.5L778.5 157.4L773.9 166.3L769.4 167.0L764.0 166.8L758.6 169.8L753.3 170.9L749.4 168.5L745.1 165.9L739.6 162.4L740.7 168.0L736.4 165.3L730.5 164.9L731.2 156.4L728.2 151.4L730.5 146.5L724.2 146.0L720.6 142.5L717.6 137.3L719.2 131.7L718.0 79.4L702.4 66.1L696.7 69.2L692.3 68.7L678.8 73.9L673.7 70.5L673.6 68.7Z" fill="#d9c79c" stroke="#b7a276" stroke-width="0.8"/><path d="M962.5 148.7L959.3 152.8L958.5 152.2L959.3 151.1L956.7 150.6L955.4 148.9L958.7 147.3L962.8 147.3L963.6 148.2L962.5 148.7Z M754.5 182.7L755.5 186.0L754.6 188.4L749.7 191.3L751.1 185.3L754.5 182.7Z M973.6 119.0L978.2 113.5L980.0 112.9L979.9 115.1L971.9 123.1L963.9 125.6L964.6 124.3L963.6 124.3L960.2 128.5L955.3 130.0L954.8 131.4L959.5 130.6L963.7 126.2L968.7 125.7L966.3 128.9L966.1 131.1L956.9 132.8L957.7 133.2L956.2 134.9L960.4 133.2L962.2 134.9L960.3 134.5L961.4 136.1L958.9 136.1L955.1 138.7L954.2 141.8L956.8 142.1L962.3 139.2L966.5 141.3L964.8 144.3L967.8 142.1L968.8 142.8L968.2 139.7L969.2 137.6L980.8 128.1L970.4 133.1L966.9 130.4L984.0 118.3L984.3 117.3L981.6 117.7L975.4 123.2L971.5 124.8L982.5 113.7L984.7 113.2L987.6 117.2L984.5 120.9L986.3 120.0L987.7 121.4L987.9 118.7L990.1 116.6L993.3 117.5L992.1 118.8L996.6 118.7L996.9 121.0L1001.5 120.5L998.8 123.9L1001.6 123.1L996.2 127.0L1001.1 128.0L1001.3 131.2L995.8 132.4L995.0 134.0L990.2 134.0L989.1 135.4L992.2 137.2L988.6 138.7L986.5 141.6L970.9 147.8L964.5 146.0L963.9 144.4L953.3 148.4L954.1 147.1L951.6 145.9L949.2 148.8L943.1 141.4L939.8 126.8L942.1 124.9L943.7 120.6L949.2 117.0L956.1 107.0L958.1 102.3L957.2 100.7L958.1 99.2L958.8 100.9L963.1 92.6L969.8 87.2L972.1 82.2L973.8 80.7L977.5 82.5L980.7 81.2L981.1 82.4L977.1 87.0L978.8 86.9L979.0 88.6L983.2 88.2L984.1 89.7L982.5 96.6L980.7 97.5L982.2 98.3L981.1 98.9L982.6 100.2L973.9 116.3L973.6 119.0Z M851.2 128.3L855.8 128.8L859.7 133.1L864.0 134.8L871.1 133.5L879.9 136.7L874.7 138.6L881.6 138.3L885.9 139.1L899.9 138.5L896.2 142.9L900.6 144.9L906.9 143.7L914.9 141.2L926.7 133.1L928.0 142.2L933.5 145.2L939.2 142.8L947.5 148.9L950.4 153.2L942.2 156.8L950.1 158.3L960.3 158.9L956.5 163.6L952.0 162.4L946.5 164.0L938.1 167.1L930.2 168.8L926.2 171.5L921.9 173.3L915.2 175.5L911.7 178.7L907.5 181.4L902.0 181.0L895.3 183.7L890.8 185.8L886.3 184.0L883.2 187.8L878.2 190.6L873.9 190.0L864.8 186.6L868.3 190.4L869.7 196.1L865.8 199.4L861.1 196.6L855.1 195.8L856.7 187.7L850.6 190.1L852.4 195.8L846.7 192.5L842.0 193.6L840.1 199.1L845.2 202.8L840.4 203.0L844.2 205.9L837.4 203.8L835.1 212.9L830.8 213.2L827.3 216.9L822.7 222.9L820.5 228.4L815.7 227.2L814.5 233.0L808.7 228.5L807.0 234.4L805.1 239.9L801.2 237.6L800.1 243.8L797.0 238.9L791.4 242.0L789.6 233.5L786.6 228.2L782.3 226.4L780.9 233.4L776.8 228.4L776.3 218.8L776.9 208.8L787.3 193.1L774.9 201.8L778.0 196.4L789.3 187.7L792.8 191.1L802.0 183.8L791.5 188.8L822.1 167.2L837.3 161.8L840.1 166.1L847.1 171.0L847.3 164.8L857.9 161.3L869.1 158.4L875.4 157.1L861.4 155.4L856.8 157.6L850.2 154.9L839.0 156.9L832.7 154.8L827.8 156.8L819.4 158.7L836.4 142.8L839.4 137.4L847.2 129.3L851.2 128.3Z" fill="#d9c79c" stroke="#b7a276" stroke-width="0.8"/><path d="M300.3 -121.5L300.6 -109.3L300.7 -99.7L297.6 -102.1L295.7 -103.0L293.0 -108.9L295.6 -114.1L295.0 -118.8L300.3 -121.5Z M300.7 -98.6L301.3 1.6L301.3 8.9L301.6 56.4L299.3 62.0L304.1 70.1L304.0 77.2L308.9 84.9L314.2 90.8L321.5 104.5L328.5 109.6L366.6 119.5L371.1 121.0L379.4 126.7L383.5 133.5L390.7 137.5L394.0 132.9L398.5 138.8L402.7 146.6L414.3 152.8L419.8 149.8L431.8 156.6L445.8 149.7L466.3 144.3L474.5 144.6L483.3 147.8L480.4 159.1L485.9 164.4L482.0 166.8L471.2 173.9L463.0 176.0L450.2 182.3L434.9 195.6L427.2 201.8L408.5 208.9L401.9 209.4L391.4 216.0L394.8 211.2L389.2 213.4L371.0 213.7L379.6 212.3L388.1 211.1L386.3 217.8L392.9 216.0L389.3 221.6L396.2 221.9L386.0 225.9L381.0 223.4L373.6 221.9L365.8 217.4L316.5 227.2L306.9 235.6L298.9 239.2L292.2 250.4L307.5 256.4L317.1 252.8L317.4 260.3L322.4 269.1L316.2 272.3L303.6 270.6L277.0 274.6L268.2 282.7L280.2 285.9L265.7 284.5L251.4 280.3L236.9 280.9L220.8 292.5L218.3 298.9L210.6 299.1L199.4 305.0L196.1 309.2L195.2 314.6L190.9 309.0L181.5 311.5L173.2 307.5L176.6 296.4L195.7 296.4L198.3 287.9L192.0 287.4L194.7 281.7L196.4 275.8L196.4 269.6L206.9 261.7L222.2 249.2L223.9 242.7L222.2 215.5L226.8 209.3L228.1 203.5L234.3 199.3L239.2 191.1L236.3 174.8L227.7 166.7L223.1 163.7L238.6 162.2L239.3 168.8L244.8 175.4L250.5 175.3L244.0 184.7L248.8 182.3L250.8 192.1L255.6 187.2L261.1 186.1L263.5 191.3L281.0 197.9L284.3 193.8L284.7 188.1L280.2 184.9L286.2 179.7L296.3 184.9L295.5 179.1L290.3 176.5L286.5 173.0L280.7 168.0L282.9 159.3L279.7 154.8L275.9 158.0L272.3 153.7L270.0 145.9L257.6 131.5L247.2 129.9L242.7 127.1L231.0 129.1L224.9 130.4L230.8 126.0L223.7 127.1L229.4 125.2L222.3 124.8L208.4 122.6L200.0 120.3L189.2 120.4L178.1 120.1L146.9 114.4L140.4 113.0L139.5 104.9L127.5 104.9L121.1 102.1L127.1 96.1L122.6 96.0L122.8 90.2L128.2 89.9L121.6 84.8L114.5 83.1L118.9 71.9L119.9 65.7L105.6 54.3L110.4 46.2L112.1 38.9L86.8 39.9L76.0 37.2L66.4 25.5L61.7 9.8L55.6 1.0L51.4 3.1L46.1 -0.5L40.7 2.2L36.6 -0.4L25.2 1.5L19.8 -2.0L15.1 -3.9L1.6 -6.9L-6.5 -7.6L-3.7 0.6L-7.3 8.8L-11.8 6.5L-13.9 11.8L-19.9 16.9L-12.4 5.6L-12.8 -1.7L-17.1 -2.5L-18.1 3.8L-22.2 8.0L-24.6 13.4L-26.3 19.7L-33.3 22.2L-27.0 10.0L-40.5 14.4L-44.2 18.8L-47.5 31.2L-54.4 36.5L-62.1 35.3L-67.5 36.9L-72.0 32.6L-76.2 31.4L-90.8 32.3L-97.5 32.5L-101.8 24.9L-107.5 27.6L-115.1 32.8L-126.9 34.6L-131.6 31.3L-134.6 27.1L-141.4 25.1L-146.6 19.8L-151.9 20.4L-155.3 26.5L-158.9 20.2L-167.2 15.5L-175.8 7.8L-180.9 7.9L-188.5 7.4L-193.9 9.5L-205.4 13.2L-207.6 8.0L-221.4 6.8L-228.5 4.1L-233.4 3.9L-237.8 1.0L-242.7 -24.3L-254.1 -26.1L-254.2 -35.5L-254.0 -183.9L-200.8 -224.9L-187.3 -237.5L-166.9 -256.3L-159.0 -263.5L-101.0 -313.8L-46.4 -357.6L-41.9 -368.6L-36.9 -367.1L-31.2 -368.1L-23.3 -360.7L-17.4 -358.3L-12.6 -354.2L0.9 -348.9L9.8 -338.2L14.8 -332.4L23.0 -328.6L36.3 -325.8L54.1 -320.2L61.2 -316.5L73.0 -315.1L86.1 -309.0L92.6 -301.9L102.0 -299.1L92.4 -287.9L99.7 -294.4L106.5 -296.8L120.8 -294.3L130.6 -296.5L138.8 -295.7L144.9 -297.8L151.7 -295.1L156.3 -293.5L171.3 -292.3L178.9 -293.9L179.5 -288.1L190.1 -291.0L201.8 -286.2L203.6 -280.1L200.4 -260.4L197.5 -254.1L197.7 -247.1L201.7 -243.2L208.6 -228.4L205.5 -219.5L209.1 -204.4L204.3 -201.6L202.5 -190.1L209.6 -186.4L214.1 -181.9L228.9 -167.0L231.7 -160.0L222.1 -157.7L217.3 -154.8L221.8 -157.1L230.9 -156.9L236.2 -150.8L249.1 -146.6L252.3 -141.4L262.9 -133.1L265.9 -124.5L269.2 -117.1L261.1 -113.2L257.6 -108.6L248.2 -101.8L253.6 -105.8L259.6 -107.6L265.4 -113.5L270.3 -116.0L284.4 -112.1L293.4 -106.2L300.7 -98.6Z M182.0 129.4L184.4 128.3L183.3 131.6L186.3 135.0L192.1 134.8L194.0 137.7L195.1 134.8L192.3 132.4L202.5 128.3L207.2 135.3L211.4 129.5L215.7 128.9L217.1 130.2L216.4 132.9L219.6 133.4L218.6 137.7L220.3 140.2L224.4 132.3L225.4 134.3L223.6 137.1L227.8 137.1L223.1 145.9L218.0 149.8L213.4 148.0L216.8 147.2L221.7 141.6L210.8 148.1L188.7 137.4L170.1 133.7L171.0 129.5L174.4 131.6L175.7 129.7L178.2 131.1L182.0 129.4Z" fill="#d9c79c" stroke="#b7a276" stroke-width="0.8"/><path d="M614.5 262.3L610.2 259.1L610.8 254.6L605.2 249.3L602.8 189.3L601.1 159.7L616.5 153.5L613.9 150.2L619.8 143.2L625.8 140.0L624.6 137.2L630.3 133.0L628.5 125.0L632.0 113.0L637.5 109.0L639.6 96.2L667.1 61.2L673.5 62.7L673.9 71.2L678.5 74.2L690.0 69.2L697.2 69.2L702.3 65.9L712.2 73.2L718.0 79.2L718.4 130.5L717.6 142.7L729.9 146.0L728.2 151.2L731.3 156.2L728.7 160.7L733.8 167.8L740.4 166.3L746.8 182.5L739.4 189.8L735.2 187.0L731.7 192.0L726.6 190.8L726.0 195.0L719.4 194.5L708.9 204.3L706.4 197.5L702.7 197.0L704.4 204.3L696.2 207.8L694.3 202.0L690.4 205.0L681.3 205.0L681.1 198.3L675.6 199.8L676.6 204.5L671.5 214.5L672.5 217.3L665.9 222.8L659.3 220.8L655.4 226.6L649.9 227.3L645.5 232.1L640.0 231.1L638.5 226.1L630.5 234.1L632.6 239.1L626.8 240.8L626.4 245.1L619.8 250.3L614.5 262.3Z" fill="#e3d3a8"/><path d="M601.1 159.7L602.8 189.3L605.2 249.3L610.8 254.6L610.2 259.1L614.5 262.3L610.4 270.8L606.9 270.1L597.4 274.6L593.5 278.9L552.2 277.3L549.1 273.8L549.5 267.1L552.6 264.6L552.2 258.1L555.0 238.8L561.2 229.8L564.3 219.5L567.4 215.8L567.2 204.5L579.1 200.3L584.9 192.5L581.6 185.0L586.5 177.5L586.1 173.0L591.2 161.2L599.3 162.5L601.1 159.7Z" fill="#e3d3a8"/><path d="M606.9 270.1L610.4 270.8L611.8 278.9L610.2 285.4L604.6 291.4L604.4 298.4L612.2 299.4L616.9 306.6L616.1 312.4L620.0 313.9L620.4 319.1L630.3 323.6L641.8 319.4L639.2 325.6L622.3 331.1L616.1 331.4L612.4 327.1L606.5 328.4L606.3 331.6L599.7 333.6L597.0 325.4L596.0 323.9L592.3 320.6L590.4 309.9L585.1 309.9L575.6 310.4L575.6 309.6L531.0 308.9L515.7 308.4L514.9 306.6L523.4 276.6L552.2 277.3L593.5 278.9L597.4 274.6L606.9 270.1Z" fill="#e3d3a8"/><path d="M597.0 325.4L599.7 333.6L592.7 334.6L597.0 325.4Z M585.1 309.9L590.4 309.9L592.3 320.6L596.0 323.9L591.7 323.1L588.1 329.9L586.9 339.4L573.5 341.7L575.6 337.4L575.6 310.4L585.1 309.9Z" fill="#e3d3a8"/><path d="M531.0 308.9L575.6 309.6L575.6 310.4L575.6 337.4L573.5 341.7L570.3 340.9L554.8 344.4L536.3 343.4L528.3 349.7L519.7 351.7L509.6 356.9L507.1 351.7L515.9 346.7L513.3 342.9L515.7 308.4L531.0 308.9Z" fill="#e3d3a8"/><path d="M520.7 173.0L521.1 182.5L519.2 191.0L522.5 199.3L521.5 208.0L517.4 217.3L520.5 229.8L518.6 233.6L524.2 241.1L523.1 272.6L523.4 276.6L514.9 306.6L515.7 308.4L513.3 342.9L515.9 346.7L507.1 351.7L509.6 356.9L524.8 360.7L527.9 357.9L541.0 357.9L547.6 356.4L558.5 349.2L559.3 354.4L564.9 356.7L551.9 363.4L524.4 373.4L512.9 375.4L505.4 374.9L499.7 377.2L496.6 369.7L500.9 356.4L489.0 349.9L472.7 339.9L471.1 336.6L465.7 336.4L459.2 328.6L460.0 321.9L455.7 316.6L453.0 316.9L449.1 310.6L292.7 310.6L292.7 299.1L292.7 298.4L314.5 285.4L318.0 279.1L325.0 274.8L322.2 267.1L319.3 265.6L317.2 253.1L338.0 247.8L356.5 248.1L363.9 249.3L371.9 254.3L376.9 252.3L392.3 252.6L401.6 249.3L411.6 241.1L418.0 240.8L418.2 228.3L421.5 221.1L413.5 216.0L415.3 210.3L429.5 202.5L434.7 195.8L451.8 180.5L468.0 172.8L492.1 174.0L520.7 173.0Z" fill="#e3d3a8"/><path d="M489.0 349.9L500.9 356.4L496.6 369.7L490.8 372.7L487.6 379.7L497.4 383.2L498.2 388.4L493.9 413.0L482.8 431.2L475.6 436.5L469.2 448.0L465.8 440.5L455.5 436.7L442.9 426.7L442.1 420.0L441.9 419.0L443.9 416.5L447.2 411.0L456.7 407.2L457.3 403.7L468.2 396.2L469.9 392.2L459.8 382.9L459.4 377.2L455.0 375.7L454.6 370.4L460.0 362.4L457.1 357.7L466.0 348.2L468.0 343.2L472.7 339.9L489.0 349.9Z" fill="#e3d3a8"/><path d="M292.7 299.1L292.7 310.6L449.1 310.6L453.0 316.9L455.7 316.6L460.0 321.9L459.2 328.6L465.7 336.4L471.1 336.6L472.7 339.9L468.0 343.2L466.0 348.2L457.1 357.7L460.0 362.4L454.6 370.4L455.0 375.7L459.4 377.2L459.8 382.9L469.9 392.2L468.2 396.2L457.3 403.7L456.7 407.2L447.2 411.0L440.0 409.7L433.9 414.7L302.8 414.7L265.8 414.7L265.8 372.9L265.8 311.6L265.8 311.6L272.4 309.1L292.7 298.4L292.7 299.1Z" fill="#e3d3a8"/><path d="M447.2 411.0L443.9 416.5L440.2 419.5L440.9 426.7L446.2 433.5L447.6 444.7L455.1 456.5L458.6 457.0L460.2 472.8L437.2 472.3L433.9 414.7L440.0 409.7L447.2 411.0Z" fill="#e3d3a8"/><path d="M426.5 495.5L425.8 495.5L424.8 495.5L426.5 495.5Z M302.8 414.7L433.9 414.7L437.2 472.3L460.2 472.8L453.2 492.0L447.8 492.8L438.0 495.5L430.4 497.5L430.6 490.0L427.7 487.0L431.8 483.8L426.3 476.3L424.6 479.5L417.2 478.8L414.7 470.5L417.0 470.5L417.2 459.8L419.5 455.5L416.4 441.0L420.3 432.5L426.3 431.0L427.3 422.2L422.8 423.2L422.6 427.7L413.3 433.5L410.6 438.7L410.0 452.0L406.5 458.3L408.1 468.8L412.7 476.0L412.1 481.5L415.1 487.0L413.5 490.8L405.3 483.5L393.7 480.0L390.2 473.0L383.5 477.0L381.0 471.5L386.3 464.5L389.4 457.3L394.0 452.5L389.6 448.0L386.6 450.7L382.0 446.5L374.6 444.2L374.6 437.5L370.7 433.7L365.2 433.0L361.2 420.2L355.1 420.2L349.1 416.0L345.8 419.5L339.9 419.2L338.6 424.2L328.1 421.0L321.1 427.7L316.4 426.2L309.4 434.0L302.4 438.2L302.8 414.7Z" fill="#e3d3a8"/><path d="M447.8 492.8L453.2 492.0L448.5 499.8L443.7 502.5L440.7 513.1L433.4 530.1L427.3 533.6L425.4 527.3L428.5 513.3L438.0 495.5L447.8 492.8Z M425.8 495.5L426.5 495.5L424.8 495.5L425.8 495.5Z M342.9 426.5L361.4 441.7L365.2 433.0L370.7 433.7L374.6 437.5L374.6 444.2L382.0 446.5L386.6 450.7L389.4 457.3L386.3 464.5L382.0 466.5L379.3 473.0L380.8 477.8L390.3 476.3L392.1 483.5L404.6 486.5L408.1 492.3L418.0 498.5L413.5 511.3L417.6 521.3L412.7 526.1L412.1 531.8L416.6 535.3L411.8 540.8L404.4 533.6L402.6 536.1L409.0 541.3L426.5 542.6L431.0 559.6L301.6 560.1L273.8 559.8L249.5 559.1L224.6 557.8L153.7 557.3L172.8 550.8L175.1 545.8L181.9 544.1L182.3 540.1L187.6 537.1L187.6 533.6L200.6 526.8L214.2 514.6L213.7 518.3L218.5 526.1L224.6 529.8L229.0 529.6L235.8 523.6L240.7 528.3L249.9 525.8L266.0 517.1L267.4 519.8L273.6 515.8L273.8 507.5L277.7 500.3L284.3 493.5L287.0 485.3L294.0 476.8L296.7 466.3L302.8 472.5L308.6 474.5L312.3 470.8L319.9 454.5L324.4 458.5L340.9 440.0L342.9 426.5Z M265.8 372.9L265.8 414.7L302.8 414.7L302.4 438.2L309.4 434.0L316.4 426.2L321.1 427.7L328.1 421.0L338.6 424.2L339.9 419.2L345.8 419.5L349.1 416.0L355.1 420.2L361.2 420.2L365.2 433.0L361.4 441.7L342.9 426.5L340.9 440.0L324.4 458.5L319.9 454.5L312.3 470.8L308.6 474.5L302.8 472.5L296.7 466.3L294.0 476.8L287.0 485.3L284.3 493.5L277.7 500.3L273.8 507.5L273.6 515.8L267.4 519.8L266.0 517.1L249.9 525.8L240.7 528.3L235.8 523.6L229.0 529.6L224.6 529.8L218.5 526.1L213.7 518.3L214.2 514.6L209.6 513.8L202.8 508.5L201.0 503.3L195.4 496.5L191.1 487.8L192.1 474.0L201.4 473.0L202.8 467.0L207.0 464.5L205.3 457.5L211.9 446.5L217.2 453.5L220.9 449.2L219.9 444.0L224.4 435.2L228.4 435.5L232.5 429.0L236.4 432.0L240.9 430.0L254.7 415.2L258.0 398.5L262.9 387.4L263.1 380.4L260.6 375.4L265.8 372.9Z" fill="#e3d3a8"/><path d="M249.5 559.1L273.8 559.8L301.6 560.1L431.0 559.6L435.1 577.9L425.2 576.1L423.8 578.4L411.8 581.1L410.0 583.6L402.0 584.4L402.4 587.6L412.1 585.4L413.5 587.4L424.2 585.1L427.7 589.4L434.1 587.6L436.5 598.6L434.3 603.9L430.0 604.4L421.1 615.6L409.2 616.1L407.3 623.9L412.3 631.7L416.4 633.2L408.8 645.9L402.4 644.4L391.1 645.7L383.3 648.4L371.1 657.2L361.4 668.7L356.3 683.2L348.9 679.9L336.1 682.9L295.8 639.4L255.9 638.7L256.5 633.4L251.0 625.6L247.3 628.4L247.1 623.6L203.3 621.4L193.6 623.1L186.0 627.4L173.8 630.4L155.7 631.2L130.8 630.9L131.7 620.1L138.7 619.1L141.5 611.6L150.2 604.9L160.0 604.6L168.7 597.6L177.9 595.1L185.6 584.9L190.5 581.9L191.5 586.4L205.5 577.6L211.9 579.4L216.4 570.9L223.0 568.6L224.6 557.8L249.5 559.1Z" fill="#e3d3a8"/><path d="M186.0 627.4L193.6 623.1L203.3 621.4L247.1 623.6L247.3 628.4L251.0 625.6L256.5 633.4L255.9 638.7L295.8 639.4L336.1 682.9L329.8 685.2L322.0 692.7L314.5 704.5L313.1 714.0L307.1 721.5L299.1 721.5L297.3 727.0L289.0 733.0L284.3 739.5L276.9 742.2L268.9 749.3L268.1 752.5L260.7 756.3L252.8 766.0L244.6 762.0L244.4 754.3L238.8 742.0L233.9 738.7L233.5 729.0L231.2 721.5L221.6 714.5L215.4 706.0L215.8 700.7L206.3 693.0L201.6 684.4L193.4 678.7L187.8 669.2L186.6 663.9L181.2 653.9L177.5 654.7L165.6 644.9L166.2 640.2L173.8 630.4L186.0 627.4Z" fill="#e3d3a8"/><path d="M173.8 630.4L166.2 640.2L165.6 644.9L177.5 654.7L181.2 653.9L186.6 663.9L187.8 669.2L193.4 678.7L201.6 684.4L206.3 693.0L215.8 700.7L215.4 706.0L221.6 714.5L231.2 721.5L233.5 729.0L233.9 738.7L238.8 742.0L244.4 754.3L244.6 762.0L252.8 766.0L244.0 781.5L242.5 789.5L238.8 796.5L238.4 803.8L234.5 807.1L232.9 826.6L223.2 824.8L215.0 821.1L211.7 824.6L213.1 833.1L211.5 842.3L207.2 842.6L205.5 832.8L160.0 829.3L111.3 826.3L106.4 813.1L102.5 800.5L105.1 788.5L101.6 774.8L104.7 767.0L104.5 761.3L110.5 755.5L106.4 752.8L108.0 748.3L104.1 741.0L100.0 728.2L91.3 670.4L85.0 631.2L130.8 630.9L155.7 631.2L173.8 630.4Z" fill="#e3d3a8"/><path d="M586.1 173.0L586.5 177.5L581.6 185.0L584.9 192.5L579.1 200.3L567.2 204.5L567.4 215.8L564.3 219.5L561.2 229.8L555.0 238.8L552.2 258.1L552.6 264.6L549.5 267.1L549.1 273.8L552.2 277.3L523.4 276.6L523.1 272.6L524.2 241.1L518.6 233.6L520.5 229.8L517.4 217.3L521.5 208.0L522.5 199.3L519.2 191.0L521.1 182.5L520.7 173.0L557.5 173.5L586.1 173.0Z" fill="#e3d3a8"/><path d="M265.8 311.6L265.8 372.9L260.6 375.4L263.1 380.4L262.9 387.4L258.0 398.5L254.7 415.2L240.9 430.0L236.4 432.0L232.5 429.0L228.4 435.5L224.4 435.2L219.9 444.0L220.9 449.2L217.2 453.5L211.9 446.5L205.3 457.5L207.0 464.5L202.8 467.0L201.4 473.0L192.1 474.0L187.2 467.8L183.1 466.5L181.6 458.8L176.5 460.3L172.6 464.8L159.2 461.3L153.5 464.5L145.6 458.3L134.5 456.5L133.9 452.5L126.7 443.0L113.1 443.0L113.6 379.2L113.4 324.6L161.5 322.9L175.3 329.1L180.0 332.9L183.5 329.4L191.3 336.6L196.1 338.9L212.7 332.9L222.4 334.1L232.9 325.6L248.3 317.4L265.8 311.6L265.8 311.6Z" fill="#e3d3a8"/><path d="M145.6 458.3L153.5 464.5L159.2 461.3L172.6 464.8L176.5 460.3L181.6 458.8L183.1 466.5L187.2 467.8L192.1 474.0L191.1 487.8L195.4 496.5L201.0 503.3L202.8 508.5L209.6 513.8L214.2 514.6L200.6 526.8L187.6 533.6L187.6 537.1L182.3 540.1L181.9 544.1L175.1 545.8L172.8 550.8L153.7 557.3L153.1 558.1L122.8 557.6L96.3 556.1L89.3 556.6L50.0 554.8L5.3 555.8L-2.5 553.8L-1.9 562.1L-46.1 561.6L-50.4 562.1L-48.5 556.3L-43.2 558.3L-40.3 539.8L-42.0 537.3L-36.6 529.3L-32.5 528.8L-19.5 535.8L-15.0 532.1L-18.3 526.1L-16.9 521.3L-2.3 517.1L-5.6 509.0L-1.0 502.5L2.3 498.3L11.3 497.8L14.2 494.5L17.3 497.8L22.0 496.3L30.9 503.0L33.9 498.3L42.8 493.8L45.1 498.3L53.1 496.5L52.5 491.5L60.3 485.8L61.7 491.0L69.7 495.3L73.7 492.3L77.1 480.8L83.3 478.5L85.6 472.8L91.6 469.0L91.3 460.0L100.4 462.0L107.0 457.8L113.2 457.5L110.3 445.0L113.1 443.0L126.7 443.0L133.9 452.5L134.5 456.5L145.6 458.3Z M-1.9 562.1L-2.5 553.8L5.3 555.8L50.0 554.8L89.3 556.6L96.3 556.1L122.8 557.6L153.1 558.1L153.7 557.3L224.6 557.8L223.0 568.6L216.4 570.9L211.9 579.4L205.5 577.6L191.5 586.4L190.5 581.9L185.6 584.9L177.9 595.1L168.7 597.6L160.0 604.6L150.2 604.9L141.5 611.6L138.7 619.1L131.7 620.1L130.8 630.9L85.0 631.2L22.8 630.4L-7.2 630.7L-16.7 630.7L-82.1 630.7L-78.6 629.4L-75.1 621.4L-75.7 610.4L-69.1 602.9L-67.9 595.9L-62.7 593.4L-61.5 584.9L-54.5 573.4L-54.7 562.1L-52.7 562.1L-50.4 562.1L-46.1 561.6L-1.9 562.1Z" fill="#e3d3a8"/><path d="M88.9 813.3L106.4 813.1L111.3 826.3L160.0 829.3L205.5 832.8L207.2 842.6L211.5 842.3L213.1 833.1L211.7 824.6L215.0 821.1L223.2 824.8L232.9 826.6L235.1 846.3L239.5 868.6L249.9 897.9L265.6 929.2L263.3 931.4L264.1 945.9L270.7 962.2L281.0 995.0L283.1 1005.2L282.9 1015.7L279.0 1053.5L275.7 1054.3L272.2 1066.0L273.4 1069.8L266.6 1078.3L263.9 1076.3L257.2 1079.8L246.0 1081.8L242.7 1077.0L244.2 1070.0L236.2 1049.8L230.0 1046.0L224.6 1048.8L220.3 1037.5L219.1 1028.2L211.7 1018.0L210.0 1011.2L211.1 1001.5L207.0 999.7L208.0 1005.5L204.3 1007.0L193.0 982.2L188.6 976.0L199.3 957.7L192.3 958.7L187.6 964.4L182.9 955.4L189.1 930.4L190.3 909.6L186.0 904.6L184.7 897.9L177.9 896.4L169.9 885.4L163.5 880.9L163.1 874.1L158.6 871.6L154.9 864.1L141.3 854.1L129.4 856.3L130.0 863.4L126.1 862.1L111.3 870.6L95.5 872.6L95.9 867.6L92.2 861.6L73.7 848.1L60.5 842.3L48.6 840.8L38.7 841.8L17.1 846.1L22.4 839.3L19.7 835.6L21.0 828.1L13.0 819.3L14.2 813.3L88.9 813.3Z" fill="#e3d3a8"/><path d="M354.6 -630.1L360.0 -630.0L361.1 -628.5L351.6 -628.6L351.5 -629.7L354.6 -630.1Z M668.6 -471.9L668.0 -469.1L670.3 -468.5L667.2 -465.6L667.1 -463.9L664.7 -464.9L662.4 -463.7L665.2 -469.0L662.4 -472.4L665.3 -473.1L668.6 -471.9Z M302.1 -364.0L302.5 -359.0L301.2 -359.4L299.6 -357.0L299.0 -358.8L300.2 -360.1L300.2 -362.4L298.8 -364.0L299.1 -365.8L302.1 -364.0Z M323.3 -343.5L317.6 -334.6L312.3 -322.4L313.1 -326.3L320.2 -341.2L320.4 -346.7L317.8 -344.7L316.2 -339.0L318.0 -339.1L317.6 -337.5L309.7 -322.7L315.0 -334.7L314.4 -339.6L311.1 -335.8L307.0 -327.6L302.2 -322.5L297.2 -324.3L291.9 -319.3L302.9 -333.4L301.5 -335.1L298.5 -333.1L288.6 -321.3L287.6 -320.9L286.1 -323.9L283.4 -324.4L293.3 -336.1L301.0 -341.5L302.9 -346.3L303.5 -354.2L304.9 -349.2L302.7 -344.8L302.3 -341.0L298.1 -334.9L304.6 -338.2L309.1 -349.4L310.2 -357.5L310.8 -354.1L315.0 -353.7L317.1 -349.2L322.3 -348.4L323.0 -344.6L321.5 -343.4L323.3 -343.5Z M300.0 -351.7L294.9 -342.9L284.7 -338.1L280.3 -338.0L282.7 -343.1L288.9 -344.1L288.6 -346.3L294.9 -345.8L297.9 -348.7L299.0 -351.7L300.5 -353.0L300.0 -351.7Z M331.8 -347.9L331.3 -337.2L322.1 -334.2L322.7 -336.8L326.0 -340.9L325.3 -341.6L326.5 -344.4L325.7 -345.0L329.3 -349.1L331.6 -349.0L331.8 -347.9Z M319.4 -331.8L321.3 -332.8L321.6 -330.6L319.7 -329.5L322.1 -329.9L319.7 -328.0L317.8 -322.8L314.9 -319.3L318.7 -327.5L319.4 -331.8Z M870.7 -47.6L890.2 -42.6L905.6 -36.1L909.8 -31.6L914.8 -30.0L916.4 -27.9L928.2 -24.9L935.8 -15.7L934.4 -13.3L930.4 -12.2L915.1 -12.0L907.5 -14.9L885.0 -19.6L878.2 -23.7L867.5 -26.8L866.2 -31.6L858.3 -38.3L844.2 -43.5L839.8 -46.8L838.8 -45.2L834.4 -48.6L836.4 -50.3L845.5 -52.6L855.2 -49.6L870.7 -47.6Z M944.8 52.9L945.8 53.9L941.8 57.0L939.8 56.9L942.6 54.0L940.0 54.0L934.8 57.8L934.0 58.6L928.9 63.2L931.7 62.5L935.3 57.8L938.2 56.9L934.4 59.8L932.1 64.1L929.8 63.9L928.7 66.1L926.1 67.0L925.3 70.3L927.0 69.8L930.2 71.6L931.5 70.3L930.9 71.6L928.8 72.3L923.4 72.1L926.3 63.6L940.3 53.4L944.8 52.9Z M610.6 82.3L607.4 86.2L599.4 88.8L607.7 81.6L609.8 81.0L610.6 82.3Z M1097.7 -119.4L1092.6 -123.5L1080.0 -120.1L1074.8 -122.1L1065.1 -114.6L1057.8 -112.9L1050.6 -114.7L1045.3 -111.7L1036.1 -104.3L1030.2 -101.2L1032.5 -95.2L1029.3 -90.3L1026.8 -95.0L1023.5 -88.2L1017.9 -85.1L1009.6 -76.7L1001.4 -74.6L996.7 -66.5L990.8 -65.5L986.2 -65.4L978.9 -66.7L974.1 -64.3L968.2 -65.5L961.6 -63.7L955.3 -63.4L948.7 -63.9L933.7 -59.0L938.2 -61.9L931.2 -60.9L916.3 -65.5L909.6 -68.3L897.6 -67.7L889.5 -67.9L882.4 -68.1L875.5 -65.9L870.9 -66.8L859.4 -69.1L846.9 -66.8L836.5 -69.4L821.7 -67.0L810.4 -67.9L791.8 -66.6L783.3 -68.0L779.6 -64.7L773.3 -64.8L768.5 -63.7L762.3 -64.3L766.4 -62.3L759.0 -63.1L755.3 -56.8L747.6 -53.7L744.8 -46.6L739.7 -43.2L737.6 -36.1L737.8 -30.6L732.4 -23.9L725.9 -24.2L717.3 -21.6L712.1 -22.6L706.3 -21.5L699.9 -18.1L703.8 -14.3L699.0 -13.7L694.8 -11.9L694.8 -17.9L689.0 -11.1L685.8 -6.4L676.6 -0.7L670.0 9.4L664.7 15.6L659.7 22.5L654.6 25.6L650.8 30.3L646.3 29.4L641.0 24.2L634.2 24.0L626.3 19.5L615.2 19.1L604.7 15.4L611.6 18.5L623.0 20.6L629.8 22.9L641.8 26.4L649.1 31.5L642.2 46.9L634.6 52.1L631.5 59.6L621.8 62.4L619.1 69.7L613.9 77.6L604.9 82.1L597.0 89.0L593.4 94.0L598.9 89.3L603.8 89.2L620.3 82.1L627.5 75.3L632.4 68.0L638.0 64.4L643.2 57.5L655.7 44.2L659.0 37.5L681.3 19.9L691.3 15.9L708.5 5.0L726.5 -2.5L743.7 -7.6L758.9 -14.7L773.6 -18.3L791.5 -19.5L796.3 -21.0L819.2 -18.9L831.8 -14.3L844.3 -5.0L847.1 2.0L842.1 -1.1L832.9 -3.7L838.4 -0.8L847.0 8.1L842.8 11.2L841.5 17.4L827.1 21.1L825.3 27.6L818.4 28.1L807.6 36.0L801.0 36.5L788.4 31.2L785.4 26.5L778.8 32.1L771.2 31.4L764.9 31.1L751.7 36.7L748.0 41.2L739.4 41.9L734.6 41.3L724.6 39.5L706.5 36.5L697.3 40.0L697.2 52.3L690.1 62.8L673.6 68.7L673.4 63.0L666.9 61.5L640.0 96.3L639.0 101.9L637.9 108.5L632.7 112.6L629.4 119.2L628.7 124.9L630.7 130.5L624.7 137.5L619.9 143.4L613.9 150.2L617.0 155.7L611.2 154.2L609.6 160.9L605.4 158.1L600.9 159.8L593.4 160.2L588.1 162.8L588.7 168.3L586.0 173.0L571.9 173.3L549.0 173.4L526.2 173.2L520.7 173.3L496.6 174.0L471.2 173.9L479.4 170.3L485.9 164.4L480.4 159.1L483.3 147.8L474.5 144.6L466.3 144.3L445.8 149.7L431.8 156.6L423.6 150.1L414.3 152.8L404.8 148.4L401.1 141.0L397.8 134.1L393.6 136.8L383.5 133.5L379.4 126.7L371.1 121.0L366.6 119.5L330.3 112.5L321.5 104.5L314.2 90.8L308.9 84.9L304.0 77.2L304.1 70.1L299.3 62.0L301.6 56.4L301.3 8.9L301.3 1.6L300.7 -98.6L307.1 -90.3L304.8 -95.1L300.7 -99.7L300.6 -109.3L300.3 -121.5L307.2 -130.5L310.0 -124.7L315.2 -125.1L318.9 -122.3L322.0 -113.6L325.3 -108.0L323.2 -114.5L328.2 -122.7L326.7 -128.4L321.8 -130.6L318.6 -136.0L325.6 -138.9L328.7 -145.0L332.6 -148.8L336.2 -154.5L340.9 -157.1L335.5 -158.6L336.0 -166.1L328.2 -172.0L328.5 -178.0L329.4 -183.8L324.9 -186.3L325.3 -192.4L320.4 -193.0L322.8 -199.4L321.3 -204.8L320.2 -212.1L315.8 -214.8L321.2 -215.4L317.5 -219.1L314.4 -224.1L318.3 -227.7L323.3 -229.1L317.5 -231.0L314.9 -235.6L319.7 -237.6L315.3 -241.3L309.6 -241.3L313.8 -242.9L318.0 -245.9L312.4 -244.6L306.3 -246.4L303.4 -251.5L301.9 -256.8L298.3 -262.9L296.2 -268.1L311.2 -274.7L320.6 -276.1L324.6 -279.1L343.4 -285.1L363.8 -296.4L367.4 -300.2L383.2 -310.4L387.8 -315.5L396.5 -325.7L403.0 -331.7L404.3 -337.4L407.2 -342.5L408.4 -365.6L406.6 -376.2L403.1 -393.0L397.5 -403.2L385.6 -421.3L373.5 -427.9L369.2 -432.6L354.8 -437.6L351.0 -440.7L345.7 -444.0L341.2 -448.7L335.1 -448.4L338.7 -452.4L338.0 -457.8L336.5 -463.2L342.4 -464.1L346.6 -465.6L350.8 -470.9L361.4 -478.8L366.5 -484.0L358.4 -485.0L365.2 -490.6L362.4 -496.8L367.0 -496.8L374.0 -495.0L379.7 -491.8L375.2 -493.4L371.6 -497.5L375.4 -501.8L380.4 -502.2L375.6 -507.8L380.2 -510.1L383.5 -513.6L388.7 -514.5L395.8 -516.3L383.7 -518.6L379.6 -513.1L368.4 -514.7L376.4 -517.6L371.2 -520.6L369.4 -526.8L364.4 -529.6L370.4 -534.6L376.1 -536.5L371.3 -537.8L367.0 -536.8L361.2 -540.9L369.2 -546.3L364.4 -546.6L372.6 -549.9L359.2 -545.9L348.5 -547.7L357.2 -557.6L362.0 -559.7L366.1 -566.6L362.7 -578.1L370.9 -578.7L367.0 -581.1L374.0 -582.1L368.4 -583.8L362.9 -589.3L355.1 -590.9L352.4 -596.9L350.4 -603.5L349.5 -610.8L354.4 -621.0L365.9 -624.5L373.5 -630.0L389.1 -626.8L421.3 -620.4L428.1 -619.0L438.9 -616.4L432.1 -611.6L444.6 -616.6L450.4 -617.3L456.5 -616.1L464.4 -614.4L470.2 -609.6L477.6 -607.8L470.7 -611.8L482.8 -614.5L487.4 -617.7L497.4 -619.4L502.1 -624.0L508.8 -625.0L513.0 -620.3L519.2 -619.9L525.4 -617.3L530.7 -611.4L536.4 -609.6L540.6 -607.9L546.2 -608.3L547.0 -601.7L540.3 -595.5L544.7 -597.5L561.2 -596.8L563.3 -591.8L568.8 -588.3L565.3 -584.7L560.1 -585.7L565.5 -584.0L570.8 -587.7L580.0 -587.5L584.5 -582.9L573.6 -581.6L577.5 -578.6L572.5 -577.0L583.2 -575.9L574.8 -574.4L580.4 -572.3L581.6 -566.7L585.8 -564.7L590.9 -562.8L596.3 -565.0L603.6 -562.9L610.5 -560.3L616.2 -559.7L620.8 -560.1L627.0 -560.2L634.3 -561.2L636.5 -555.3L642.1 -548.6L648.2 -553.7L651.7 -559.8L656.8 -560.5L659.9 -553.9L662.0 -548.7L649.6 -542.9L651.7 -537.9L645.7 -535.7L647.5 -530.7L653.5 -522.3L652.9 -514.8L645.1 -514.6L627.7 -513.0L619.7 -511.3L602.9 -514.5L619.4 -510.2L631.5 -511.1L637.3 -509.2L649.2 -510.0L655.1 -505.6L651.8 -497.9L656.6 -495.8L650.9 -491.7L652.1 -485.1L648.1 -480.6L652.6 -479.6L660.4 -482.2L666.2 -480.8L664.7 -475.5L660.2 -474.8L655.9 -473.6L662.8 -470.2L657.0 -469.2L658.9 -461.1L655.6 -457.2L651.2 -456.5L651.2 -462.8L647.0 -464.5L646.7 -458.2L630.6 -455.5L638.2 -453.8L642.4 -455.7L646.7 -452.5L652.2 -452.1L657.0 -455.7L662.7 -460.1L670.4 -461.5L679.0 -460.4L683.5 -462.4L696.7 -457.4L699.0 -450.7L700.3 -444.3L702.6 -438.5L699.3 -431.3L694.0 -422.4L676.3 -418.4L667.9 -414.3L661.9 -409.6L676.8 -417.5L696.2 -422.1L699.8 -429.2L704.6 -439.3L709.6 -443.7L714.3 -443.2L715.7 -434.7L707.2 -426.6L712.2 -430.0L717.6 -433.9L718.1 -441.5L722.4 -439.8L719.9 -435.2L723.3 -431.7L722.2 -423.5L720.0 -418.8L723.5 -422.3L729.0 -432.8L740.1 -437.6L745.7 -439.7L750.5 -442.2L759.7 -442.6L760.9 -449.2L765.3 -453.3L769.2 -458.8L777.7 -453.2L781.7 -450.2L780.9 -442.9L778.5 -437.0L782.9 -438.2L785.0 -444.5L783.5 -451.5L780.0 -454.8L788.8 -459.0L782.0 -461.4L786.9 -463.5L793.1 -462.7L789.0 -466.3L793.7 -468.0L799.4 -465.2L805.9 -467.9L797.9 -470.6L791.8 -472.8L790.8 -478.1L796.2 -474.6L796.9 -483.3L804.5 -478.7L801.9 -484.4L797.9 -488.4L810.5 -487.0L817.8 -483.2L809.3 -488.3L802.5 -489.3L797.9 -499.6L804.0 -502.4L811.7 -501.6L817.7 -500.8L809.7 -504.1L812.2 -509.5L816.2 -514.8L819.2 -520.4L822.1 -525.2L829.9 -527.4L822.4 -523.6L825.4 -519.7L830.1 -519.8L826.6 -516.4L820.5 -513.9L829.5 -508.5L825.4 -506.2L825.2 -497.9L823.3 -490.3L827.8 -486.4L837.3 -490.2L835.5 -484.1L833.6 -479.0L835.2 -473.2L839.7 -469.3L829.4 -467.3L823.2 -467.5L823.9 -461.9L832.5 -460.8L842.0 -460.6L847.2 -454.4L852.7 -457.7L858.3 -458.2L867.3 -459.0L871.2 -454.5L850.9 -451.2L849.7 -445.7L856.7 -446.0L847.1 -436.2L845.2 -431.1L838.6 -428.6L845.3 -421.8L850.7 -409.8L855.3 -411.0L858.9 -406.2L863.3 -404.9L867.1 -408.2L862.6 -402.1L861.1 -396.7L863.0 -391.6L858.5 -389.5L857.8 -383.5L861.9 -385.3L860.3 -379.7L857.6 -374.3L852.5 -367.8L848.1 -361.4L854.7 -354.0L857.3 -349.0L846.7 -348.5L847.8 -342.8L853.6 -340.8L852.0 -332.4L858.1 -334.4L872.4 -330.0L863.6 -326.3L870.9 -315.1L877.6 -307.2L883.1 -307.3L884.8 -299.2L869.8 -291.6L868.1 -286.0L872.8 -282.0L864.5 -265.5L853.5 -266.2L841.1 -271.9L833.1 -270.5L823.9 -271.8L812.8 -269.3L801.4 -271.6L792.7 -270.2L787.5 -275.5L783.1 -280.0L773.1 -282.9L761.2 -294.7L757.2 -297.0L751.7 -298.1L757.2 -292.6L754.4 -288.1L758.2 -282.2L760.1 -273.7L755.4 -271.0L748.0 -274.2L745.1 -278.6L735.5 -283.6L730.9 -286.5L733.2 -277.6L739.5 -270.4L744.8 -266.0L738.3 -265.3L735.3 -260.6L728.6 -264.1L723.6 -259.5L724.9 -254.3L727.2 -248.9L723.5 -245.6L718.3 -240.5L724.5 -234.3L730.8 -227.4L728.6 -219.5L741.1 -216.6L743.7 -211.5L749.3 -207.4L746.4 -200.8L746.8 -193.1L743.3 -189.5L744.0 -183.0L750.0 -177.0L757.9 -179.4L758.6 -189.4L763.0 -189.3L769.4 -190.7L772.1 -186.3L770.0 -179.9L766.3 -174.1L768.9 -164.8L764.4 -160.5L766.0 -155.4L769.7 -152.4L770.3 -159.4L775.5 -156.3L779.4 -151.6L784.6 -148.5L788.8 -150.6L797.0 -148.3L801.1 -155.7L813.3 -154.0L822.4 -147.2L831.8 -138.4L827.2 -134.7L831.2 -129.9L837.0 -131.0L843.3 -134.3L840.0 -139.4L843.0 -146.3L843.5 -152.0L848.6 -153.1L848.0 -159.0L845.3 -171.3L845.5 -176.9L846.6 -185.1L854.1 -185.8L855.4 -195.4L863.6 -197.1L869.0 -190.5L867.1 -181.4L873.2 -178.5L858.4 -174.4L853.7 -172.3L849.8 -167.7L855.2 -165.3L854.8 -158.3L864.9 -151.9L858.9 -149.4L1088.3 -146.2L1097.8 -146.2L1097.7 -119.4Z" fill="#e3d3a8"/><path d="M614.5 262.3L610.2 259.1L610.8 254.6L605.2 249.3L602.8 189.3L601.1 159.7L616.5 153.5L613.9 150.2L619.8 143.2L625.8 140.0L624.6 137.2L630.3 133.0L628.5 125.0L632.0 113.0L637.5 109.0L639.6 96.2L667.1 61.2L673.5 62.7L673.9 71.2L678.5 74.2L690.0 69.2L697.2 69.2L702.3 65.9L712.2 73.2L718.0 79.2L718.4 130.5L717.6 142.7L729.9 146.0L728.2 151.2L731.3 156.2L728.7 160.7L733.8 167.8L740.4 166.3L746.8 182.5L739.4 189.8L735.2 187.0L731.7 192.0L726.6 190.8L726.0 195.0L719.4 194.5L708.9 204.3L706.4 197.5L702.7 197.0L704.4 204.3L696.2 207.8L694.3 202.0L690.4 205.0L681.3 205.0L681.1 198.3L675.6 199.8L676.6 204.5L671.5 214.5L672.5 217.3L665.9 222.8L659.3 220.8L655.4 226.6L649.9 227.3L645.5 232.1L640.0 231.1L638.5 226.1L630.5 234.1L632.6 239.1L626.8 240.8L626.4 245.1L619.8 250.3L614.5 262.3Z" fill="rgba(31,78,121,0.74)" stroke="#4a3a22" stroke-width="1.4"/><path d="M601.1 159.7L602.8 189.3L605.2 249.3L610.8 254.6L610.2 259.1L614.5 262.3L610.4 270.8L606.9 270.1L597.4 274.6L593.5 278.9L552.2 277.3L549.1 273.8L549.5 267.1L552.6 264.6L552.2 258.1L555.0 238.8L561.2 229.8L564.3 219.5L567.4 215.8L567.2 204.5L579.1 200.3L584.9 192.5L581.6 185.0L586.5 177.5L586.1 173.0L591.2 161.2L599.3 162.5L601.1 159.7Z" fill="rgba(31,78,121,0.74)" stroke="#4a3a22" stroke-width="1.4"/><path d="M606.9 270.1L610.4 270.8L611.8 278.9L610.2 285.4L604.6 291.4L604.4 298.4L612.2 299.4L616.9 306.6L616.1 312.4L620.0 313.9L620.4 319.1L630.3 323.6L641.8 319.4L639.2 325.6L622.3 331.1L616.1 331.4L612.4 327.1L606.5 328.4L606.3 331.6L599.7 333.6L597.0 325.4L596.0 323.9L592.3 320.6L590.4 309.9L585.1 309.9L575.6 310.4L575.6 309.6L531.0 308.9L515.7 308.4L514.9 306.6L523.4 276.6L552.2 277.3L593.5 278.9L597.4 274.6L606.9 270.1Z" fill="rgba(31,78,121,0.74)" stroke="#4a3a22" stroke-width="1.4"/><path d="M597.0 325.4L599.7 333.6L592.7 334.6L597.0 325.4Z M585.1 309.9L590.4 309.9L592.3 320.6L596.0 323.9L591.7 323.1L588.1 329.9L586.9 339.4L573.5 341.7L575.6 337.4L575.6 310.4L585.1 309.9Z" fill="rgba(31,78,121,0.74)" stroke="#4a3a22" stroke-width="1.4"/><path d="M531.0 308.9L575.6 309.6L575.6 310.4L575.6 337.4L573.5 341.7L570.3 340.9L554.8 344.4L536.3 343.4L528.3 349.7L519.7 351.7L509.6 356.9L507.1 351.7L515.9 346.7L513.3 342.9L515.7 308.4L531.0 308.9Z" fill="rgba(31,78,121,0.74)" stroke="#4a3a22" stroke-width="1.4"/><path d="M520.7 173.0L521.1 182.5L519.2 191.0L522.5 199.3L521.5 208.0L517.4 217.3L520.5 229.8L518.6 233.6L524.2 241.1L523.1 272.6L523.4 276.6L514.9 306.6L515.7 308.4L513.3 342.9L515.9 346.7L507.1 351.7L509.6 356.9L524.8 360.7L527.9 357.9L541.0 357.9L547.6 356.4L558.5 349.2L559.3 354.4L564.9 356.7L551.9 363.4L524.4 373.4L512.9 375.4L505.4 374.9L499.7 377.2L496.6 369.7L500.9 356.4L489.0 349.9L472.7 339.9L471.1 336.6L465.7 336.4L459.2 328.6L460.0 321.9L455.7 316.6L453.0 316.9L449.1 310.6L292.7 310.6L292.7 299.1L292.7 298.4L314.5 285.4L318.0 279.1L325.0 274.8L322.2 267.1L319.3 265.6L317.2 253.1L338.0 247.8L356.5 248.1L363.9 249.3L371.9 254.3L376.9 252.3L392.3 252.6L401.6 249.3L411.6 241.1L418.0 240.8L418.2 228.3L421.5 221.1L413.5 216.0L415.3 210.3L429.5 202.5L434.7 195.8L451.8 180.5L468.0 172.8L492.1 174.0L520.7 173.0Z" fill="rgba(31,78,121,0.74)" stroke="#4a3a22" stroke-width="1.4"/><path d="M489.0 349.9L500.9 356.4L496.6 369.7L490.8 372.7L487.6 379.7L497.4 383.2L498.2 388.4L493.9 413.0L482.8 431.2L475.6 436.5L469.2 448.0L465.8 440.5L455.5 436.7L442.9 426.7L442.1 420.0L441.9 419.0L443.9 416.5L447.2 411.0L456.7 407.2L457.3 403.7L468.2 396.2L469.9 392.2L459.8 382.9L459.4 377.2L455.0 375.7L454.6 370.4L460.0 362.4L457.1 357.7L466.0 348.2L468.0 343.2L472.7 339.9L489.0 349.9Z" fill="rgba(31,78,121,0.74)" stroke="#4a3a22" stroke-width="1.4"/><path d="M292.7 299.1L292.7 310.6L449.1 310.6L453.0 316.9L455.7 316.6L460.0 321.9L459.2 328.6L465.7 336.4L471.1 336.6L472.7 339.9L468.0 343.2L466.0 348.2L457.1 357.7L460.0 362.4L454.6 370.4L455.0 375.7L459.4 377.2L459.8 382.9L469.9 392.2L468.2 396.2L457.3 403.7L456.7 407.2L447.2 411.0L440.0 409.7L433.9 414.7L302.8 414.7L265.8 414.7L265.8 372.9L265.8 311.6L265.8 311.6L272.4 309.1L292.7 298.4L292.7 299.1Z" fill="rgba(31,78,121,0.74)" stroke="#4a3a22" stroke-width="1.4"/><path d="M447.2 411.0L443.9 416.5L440.2 419.5L440.9 426.7L446.2 433.5L447.6 444.7L455.1 456.5L458.6 457.0L460.2 472.8L437.2 472.3L433.9 414.7L440.0 409.7L447.2 411.0Z" fill="rgba(31,78,121,0.74)" stroke="#4a3a22" stroke-width="1.4"/><path d="M426.5 495.5L425.8 495.5L424.8 495.5L426.5 495.5Z M302.8 414.7L433.9 414.7L437.2 472.3L460.2 472.8L453.2 492.0L447.8 492.8L438.0 495.5L430.4 497.5L430.6 490.0L427.7 487.0L431.8 483.8L426.3 476.3L424.6 479.5L417.2 478.8L414.7 470.5L417.0 470.5L417.2 459.8L419.5 455.5L416.4 441.0L420.3 432.5L426.3 431.0L427.3 422.2L422.8 423.2L422.6 427.7L413.3 433.5L410.6 438.7L410.0 452.0L406.5 458.3L408.1 468.8L412.7 476.0L412.1 481.5L415.1 487.0L413.5 490.8L405.3 483.5L393.7 480.0L390.2 473.0L383.5 477.0L381.0 471.5L386.3 464.5L389.4 457.3L394.0 452.5L389.6 448.0L386.6 450.7L382.0 446.5L374.6 444.2L374.6 437.5L370.7 433.7L365.2 433.0L361.2 420.2L355.1 420.2L349.1 416.0L345.8 419.5L339.9 419.2L338.6 424.2L328.1 421.0L321.1 427.7L316.4 426.2L309.4 434.0L302.4 438.2L302.8 414.7Z" fill="rgba(31,78,121,0.74)" stroke="#4a3a22" stroke-width="1.4"/><path d="M447.8 492.8L453.2 492.0L448.5 499.8L443.7 502.5L440.7 513.1L433.4 530.1L427.3 533.6L425.4 527.3L428.5 513.3L438.0 495.5L447.8 492.8Z M425.8 495.5L426.5 495.5L424.8 495.5L425.8 495.5Z M342.9 426.5L361.4 441.7L365.2 433.0L370.7 433.7L374.6 437.5L374.6 444.2L382.0 446.5L386.6 450.7L389.4 457.3L386.3 464.5L382.0 466.5L379.3 473.0L380.8 477.8L390.3 476.3L392.1 483.5L404.6 486.5L408.1 492.3L418.0 498.5L413.5 511.3L417.6 521.3L412.7 526.1L412.1 531.8L416.6 535.3L411.8 540.8L404.4 533.6L402.6 536.1L409.0 541.3L426.5 542.6L431.0 559.6L301.6 560.1L273.8 559.8L249.5 559.1L224.6 557.8L153.7 557.3L172.8 550.8L175.1 545.8L181.9 544.1L182.3 540.1L187.6 537.1L187.6 533.6L200.6 526.8L214.2 514.6L213.7 518.3L218.5 526.1L224.6 529.8L229.0 529.6L235.8 523.6L240.7 528.3L249.9 525.8L266.0 517.1L267.4 519.8L273.6 515.8L273.8 507.5L277.7 500.3L284.3 493.5L287.0 485.3L294.0 476.8L296.7 466.3L302.8 472.5L308.6 474.5L312.3 470.8L319.9 454.5L324.4 458.5L340.9 440.0L342.9 426.5Z M265.8 372.9L265.8 414.7L302.8 414.7L302.4 438.2L309.4 434.0L316.4 426.2L321.1 427.7L328.1 421.0L338.6 424.2L339.9 419.2L345.8 419.5L349.1 416.0L355.1 420.2L361.2 420.2L365.2 433.0L361.4 441.7L342.9 426.5L340.9 440.0L324.4 458.5L319.9 454.5L312.3 470.8L308.6 474.5L302.8 472.5L296.7 466.3L294.0 476.8L287.0 485.3L284.3 493.5L277.7 500.3L273.8 507.5L273.6 515.8L267.4 519.8L266.0 517.1L249.9 525.8L240.7 528.3L235.8 523.6L229.0 529.6L224.6 529.8L218.5 526.1L213.7 518.3L214.2 514.6L209.6 513.8L202.8 508.5L201.0 503.3L195.4 496.5L191.1 487.8L192.1 474.0L201.4 473.0L202.8 467.0L207.0 464.5L205.3 457.5L211.9 446.5L217.2 453.5L220.9 449.2L219.9 444.0L224.4 435.2L228.4 435.5L232.5 429.0L236.4 432.0L240.9 430.0L254.7 415.2L258.0 398.5L262.9 387.4L263.1 380.4L260.6 375.4L265.8 372.9Z" fill="rgba(31,78,121,0.74)" stroke="#4a3a22" stroke-width="1.4"/><path d="M249.5 559.1L273.8 559.8L301.6 560.1L431.0 559.6L435.1 577.9L425.2 576.1L423.8 578.4L411.8 581.1L410.0 583.6L402.0 584.4L402.4 587.6L412.1 585.4L413.5 587.4L424.2 585.1L427.7 589.4L434.1 587.6L436.5 598.6L434.3 603.9L430.0 604.4L421.1 615.6L409.2 616.1L407.3 623.9L412.3 631.7L416.4 633.2L408.8 645.9L402.4 644.4L391.1 645.7L383.3 648.4L371.1 657.2L361.4 668.7L356.3 683.2L348.9 679.9L336.1 682.9L295.8 639.4L255.9 638.7L256.5 633.4L251.0 625.6L247.3 628.4L247.1 623.6L203.3 621.4L193.6 623.1L186.0 627.4L173.8 630.4L155.7 631.2L130.8 630.9L131.7 620.1L138.7 619.1L141.5 611.6L150.2 604.9L160.0 604.6L168.7 597.6L177.9 595.1L185.6 584.9L190.5 581.9L191.5 586.4L205.5 577.6L211.9 579.4L216.4 570.9L223.0 568.6L224.6 557.8L249.5 559.1Z" fill="rgba(31,78,121,0.74)" stroke="#4a3a22" stroke-width="1.4"/><path d="M186.0 627.4L193.6 623.1L203.3 621.4L247.1 623.6L247.3 628.4L251.0 625.6L256.5 633.4L255.9 638.7L295.8 639.4L336.1 682.9L329.8 685.2L322.0 692.7L314.5 704.5L313.1 714.0L307.1 721.5L299.1 721.5L297.3 727.0L289.0 733.0L284.3 739.5L276.9 742.2L268.9 749.3L268.1 752.5L260.7 756.3L252.8 766.0L244.6 762.0L244.4 754.3L238.8 742.0L233.9 738.7L233.5 729.0L231.2 721.5L221.6 714.5L215.4 706.0L215.8 700.7L206.3 693.0L201.6 684.4L193.4 678.7L187.8 669.2L186.6 663.9L181.2 653.9L177.5 654.7L165.6 644.9L166.2 640.2L173.8 630.4L186.0 627.4Z" fill="rgba(31,78,121,0.74)" stroke="#4a3a22" stroke-width="1.4"/><path d="M173.8 630.4L166.2 640.2L165.6 644.9L177.5 654.7L181.2 653.9L186.6 663.9L187.8 669.2L193.4 678.7L201.6 684.4L206.3 693.0L215.8 700.7L215.4 706.0L221.6 714.5L231.2 721.5L233.5 729.0L233.9 738.7L238.8 742.0L244.4 754.3L244.6 762.0L252.8 766.0L244.0 781.5L242.5 789.5L238.8 796.5L238.4 803.8L234.5 807.1L232.9 826.6L223.2 824.8L215.0 821.1L211.7 824.6L213.1 833.1L211.5 842.3L207.2 842.6L205.5 832.8L160.0 829.3L111.3 826.3L106.4 813.1L102.5 800.5L105.1 788.5L101.6 774.8L104.7 767.0L104.5 761.3L110.5 755.5L106.4 752.8L108.0 748.3L104.1 741.0L100.0 728.2L91.3 670.4L85.0 631.2L130.8 630.9L155.7 631.2L173.8 630.4Z" fill="rgba(140,43,43,0.76)" stroke="#4a3a22" stroke-width="1.4"/><path d="M586.1 173.0L586.5 177.5L581.6 185.0L584.9 192.5L579.1 200.3L567.2 204.5L567.4 215.8L564.3 219.5L561.2 229.8L555.0 238.8L552.2 258.1L552.6 264.6L549.5 267.1L549.1 273.8L552.2 277.3L523.4 276.6L523.1 272.6L524.2 241.1L518.6 233.6L520.5 229.8L517.4 217.3L521.5 208.0L522.5 199.3L519.2 191.0L521.1 182.5L520.7 173.0L557.5 173.5L586.1 173.0Z" fill="rgba(154,140,110,0.55)" stroke="#4a3a22" stroke-width="1.4"/><path d="M265.8 311.6L265.8 372.9L260.6 375.4L263.1 380.4L262.9 387.4L258.0 398.5L254.7 415.2L240.9 430.0L236.4 432.0L232.5 429.0L228.4 435.5L224.4 435.2L219.9 444.0L220.9 449.2L217.2 453.5L211.9 446.5L205.3 457.5L207.0 464.5L202.8 467.0L201.4 473.0L192.1 474.0L187.2 467.8L183.1 466.5L181.6 458.8L176.5 460.3L172.6 464.8L159.2 461.3L153.5 464.5L145.6 458.3L134.5 456.5L133.9 452.5L126.7 443.0L113.1 443.0L113.6 379.2L113.4 324.6L161.5 322.9L175.3 329.1L180.0 332.9L183.5 329.4L191.3 336.6L196.1 338.9L212.7 332.9L222.4 334.1L232.9 325.6L248.3 317.4L265.8 311.6L265.8 311.6Z" fill="rgba(154,140,110,0.55)" stroke="#4a3a22" stroke-width="1.4"/><path d="M145.6 458.3L153.5 464.5L159.2 461.3L172.6 464.8L176.5 460.3L181.6 458.8L183.1 466.5L187.2 467.8L192.1 474.0L191.1 487.8L195.4 496.5L201.0 503.3L202.8 508.5L209.6 513.8L214.2 514.6L200.6 526.8L187.6 533.6L187.6 537.1L182.3 540.1L181.9 544.1L175.1 545.8L172.8 550.8L153.7 557.3L153.1 558.1L122.8 557.6L96.3 556.1L89.3 556.6L50.0 554.8L5.3 555.8L-2.5 553.8L-1.9 562.1L-46.1 561.6L-50.4 562.1L-48.5 556.3L-43.2 558.3L-40.3 539.8L-42.0 537.3L-36.6 529.3L-32.5 528.8L-19.5 535.8L-15.0 532.1L-18.3 526.1L-16.9 521.3L-2.3 517.1L-5.6 509.0L-1.0 502.5L2.3 498.3L11.3 497.8L14.2 494.5L17.3 497.8L22.0 496.3L30.9 503.0L33.9 498.3L42.8 493.8L45.1 498.3L53.1 496.5L52.5 491.5L60.3 485.8L61.7 491.0L69.7 495.3L73.7 492.3L77.1 480.8L83.3 478.5L85.6 472.8L91.6 469.0L91.3 460.0L100.4 462.0L107.0 457.8L113.2 457.5L110.3 445.0L113.1 443.0L126.7 443.0L133.9 452.5L134.5 456.5L145.6 458.3Z M-1.9 562.1L-2.5 553.8L5.3 555.8L50.0 554.8L89.3 556.6L96.3 556.1L122.8 557.6L153.1 558.1L153.7 557.3L224.6 557.8L223.0 568.6L216.4 570.9L211.9 579.4L205.5 577.6L191.5 586.4L190.5 581.9L185.6 584.9L177.9 595.1L168.7 597.6L160.0 604.6L150.2 604.9L141.5 611.6L138.7 619.1L131.7 620.1L130.8 630.9L85.0 631.2L22.8 630.4L-7.2 630.7L-16.7 630.7L-82.1 630.7L-78.6 629.4L-75.1 621.4L-75.7 610.4L-69.1 602.9L-67.9 595.9L-62.7 593.4L-61.5 584.9L-54.5 573.4L-54.7 562.1L-52.7 562.1L-50.4 562.1L-46.1 561.6L-1.9 562.1Z" fill="rgba(154,140,110,0.55)" stroke="#4a3a22" stroke-width="1.4"/><path d="M88.9 813.3L106.4 813.1L111.3 826.3L160.0 829.3L205.5 832.8L207.2 842.6L211.5 842.3L213.1 833.1L211.7 824.6L215.0 821.1L223.2 824.8L232.9 826.6L235.1 846.3L239.5 868.6L249.9 897.9L265.6 929.2L263.3 931.4L264.1 945.9L270.7 962.2L281.0 995.0L283.1 1005.2L282.9 1015.7L279.0 1053.5L275.7 1054.3L272.2 1066.0L273.4 1069.8L266.6 1078.3L263.9 1076.3L257.2 1079.8L246.0 1081.8L242.7 1077.0L244.2 1070.0L236.2 1049.8L230.0 1046.0L224.6 1048.8L220.3 1037.5L219.1 1028.2L211.7 1018.0L210.0 1011.2L211.1 1001.5L207.0 999.7L208.0 1005.5L204.3 1007.0L193.0 982.2L188.6 976.0L199.3 957.7L192.3 958.7L187.6 964.4L182.9 955.4L189.1 930.4L190.3 909.6L186.0 904.6L184.7 897.9L177.9 896.4L169.9 885.4L163.5 880.9L163.1 874.1L158.6 871.6L154.9 864.1L141.3 854.1L129.4 856.3L130.0 863.4L126.1 862.1L111.3 870.6L95.5 872.6L95.9 867.6L92.2 861.6L73.7 848.1L60.5 842.3L48.6 840.8L38.7 841.8L17.1 846.1L22.4 839.3L19.7 835.6L21.0 828.1L13.0 819.3L14.2 813.3L88.9 813.3Z" fill="rgba(154,140,110,0.55)" stroke="#4a3a22" stroke-width="1.4"/><path d="M354.6 -630.1L360.0 -630.0L361.1 -628.5L351.6 -628.6L351.5 -629.7L354.6 -630.1Z M668.6 -471.9L668.0 -469.1L670.3 -468.5L667.2 -465.6L667.1 -463.9L664.7 -464.9L662.4 -463.7L665.2 -469.0L662.4 -472.4L665.3 -473.1L668.6 -471.9Z M302.1 -364.0L302.5 -359.0L301.2 -359.4L299.6 -357.0L299.0 -358.8L300.2 -360.1L300.2 -362.4L298.8 -364.0L299.1 -365.8L302.1 -364.0Z M323.3 -343.5L317.6 -334.6L312.3 -322.4L313.1 -326.3L320.2 -341.2L320.4 -346.7L317.8 -344.7L316.2 -339.0L318.0 -339.1L317.6 -337.5L309.7 -322.7L315.0 -334.7L314.4 -339.6L311.1 -335.8L307.0 -327.6L302.2 -322.5L297.2 -324.3L291.9 -319.3L302.9 -333.4L301.5 -335.1L298.5 -333.1L288.6 -321.3L287.6 -320.9L286.1 -323.9L283.4 -324.4L293.3 -336.1L301.0 -341.5L302.9 -346.3L303.5 -354.2L304.9 -349.2L302.7 -344.8L302.3 -341.0L298.1 -334.9L304.6 -338.2L309.1 -349.4L310.2 -357.5L310.8 -354.1L315.0 -353.7L317.1 -349.2L322.3 -348.4L323.0 -344.6L321.5 -343.4L323.3 -343.5Z M300.0 -351.7L294.9 -342.9L284.7 -338.1L280.3 -338.0L282.7 -343.1L288.9 -344.1L288.6 -346.3L294.9 -345.8L297.9 -348.7L299.0 -351.7L300.5 -353.0L300.0 -351.7Z M331.8 -347.9L331.3 -337.2L322.1 -334.2L322.7 -336.8L326.0 -340.9L325.3 -341.6L326.5 -344.4L325.7 -345.0L329.3 -349.1L331.6 -349.0L331.8 -347.9Z M319.4 -331.8L321.3 -332.8L321.6 -330.6L319.7 -329.5L322.1 -329.9L319.7 -328.0L317.8 -322.8L314.9 -319.3L318.7 -327.5L319.4 -331.8Z M870.7 -47.6L890.2 -42.6L905.6 -36.1L909.8 -31.6L914.8 -30.0L916.4 -27.9L928.2 -24.9L935.8 -15.7L934.4 -13.3L930.4 -12.2L915.1 -12.0L907.5 -14.9L885.0 -19.6L878.2 -23.7L867.5 -26.8L866.2 -31.6L858.3 -38.3L844.2 -43.5L839.8 -46.8L838.8 -45.2L834.4 -48.6L836.4 -50.3L845.5 -52.6L855.2 -49.6L870.7 -47.6Z M944.8 52.9L945.8 53.9L941.8 57.0L939.8 56.9L942.6 54.0L940.0 54.0L934.8 57.8L934.0 58.6L928.9 63.2L931.7 62.5L935.3 57.8L938.2 56.9L934.4 59.8L932.1 64.1L929.8 63.9L928.7 66.1L926.1 67.0L925.3 70.3L927.0 69.8L930.2 71.6L931.5 70.3L930.9 71.6L928.8 72.3L923.4 72.1L926.3 63.6L940.3 53.4L944.8 52.9Z M610.6 82.3L607.4 86.2L599.4 88.8L607.7 81.6L609.8 81.0L610.6 82.3Z M1097.7 -119.4L1092.6 -123.5L1080.0 -120.1L1074.8 -122.1L1065.1 -114.6L1057.8 -112.9L1050.6 -114.7L1045.3 -111.7L1036.1 -104.3L1030.2 -101.2L1032.5 -95.2L1029.3 -90.3L1026.8 -95.0L1023.5 -88.2L1017.9 -85.1L1009.6 -76.7L1001.4 -74.6L996.7 -66.5L990.8 -65.5L986.2 -65.4L978.9 -66.7L974.1 -64.3L968.2 -65.5L961.6 -63.7L955.3 -63.4L948.7 -63.9L933.7 -59.0L938.2 -61.9L931.2 -60.9L916.3 -65.5L909.6 -68.3L897.6 -67.7L889.5 -67.9L882.4 -68.1L875.5 -65.9L870.9 -66.8L859.4 -69.1L846.9 -66.8L836.5 -69.4L821.7 -67.0L810.4 -67.9L791.8 -66.6L783.3 -68.0L779.6 -64.7L773.3 -64.8L768.5 -63.7L762.3 -64.3L766.4 -62.3L759.0 -63.1L755.3 -56.8L747.6 -53.7L744.8 -46.6L739.7 -43.2L737.6 -36.1L737.8 -30.6L732.4 -23.9L725.9 -24.2L717.3 -21.6L712.1 -22.6L706.3 -21.5L699.9 -18.1L703.8 -14.3L699.0 -13.7L694.8 -11.9L694.8 -17.9L689.0 -11.1L685.8 -6.4L676.6 -0.7L670.0 9.4L664.7 15.6L659.7 22.5L654.6 25.6L650.8 30.3L646.3 29.4L641.0 24.2L634.2 24.0L626.3 19.5L615.2 19.1L604.7 15.4L611.6 18.5L623.0 20.6L629.8 22.9L641.8 26.4L649.1 31.5L642.2 46.9L634.6 52.1L631.5 59.6L621.8 62.4L619.1 69.7L613.9 77.6L604.9 82.1L597.0 89.0L593.4 94.0L598.9 89.3L603.8 89.2L620.3 82.1L627.5 75.3L632.4 68.0L638.0 64.4L643.2 57.5L655.7 44.2L659.0 37.5L681.3 19.9L691.3 15.9L708.5 5.0L726.5 -2.5L743.7 -7.6L758.9 -14.7L773.6 -18.3L791.5 -19.5L796.3 -21.0L819.2 -18.9L831.8 -14.3L844.3 -5.0L847.1 2.0L842.1 -1.1L832.9 -3.7L838.4 -0.8L847.0 8.1L842.8 11.2L841.5 17.4L827.1 21.1L825.3 27.6L818.4 28.1L807.6 36.0L801.0 36.5L788.4 31.2L785.4 26.5L778.8 32.1L771.2 31.4L764.9 31.1L751.7 36.7L748.0 41.2L739.4 41.9L734.6 41.3L724.6 39.5L706.5 36.5L697.3 40.0L697.2 52.3L690.1 62.8L673.6 68.7L673.4 63.0L666.9 61.5L640.0 96.3L639.0 101.9L637.9 108.5L632.7 112.6L629.4 119.2L628.7 124.9L630.7 130.5L624.7 137.5L619.9 143.4L613.9 150.2L617.0 155.7L611.2 154.2L609.6 160.9L605.4 158.1L600.9 159.8L593.4 160.2L588.1 162.8L588.7 168.3L586.0 173.0L571.9 173.3L549.0 173.4L526.2 173.2L520.7 173.3L496.6 174.0L471.2 173.9L479.4 170.3L485.9 164.4L480.4 159.1L483.3 147.8L474.5 144.6L466.3 144.3L445.8 149.7L431.8 156.6L423.6 150.1L414.3 152.8L404.8 148.4L401.1 141.0L397.8 134.1L393.6 136.8L383.5 133.5L379.4 126.7L371.1 121.0L366.6 119.5L330.3 112.5L321.5 104.5L314.2 90.8L308.9 84.9L304.0 77.2L304.1 70.1L299.3 62.0L301.6 56.4L301.3 8.9L301.3 1.6L300.7 -98.6L307.1 -90.3L304.8 -95.1L300.7 -99.7L300.6 -109.3L300.3 -121.5L307.2 -130.5L310.0 -124.7L315.2 -125.1L318.9 -122.3L322.0 -113.6L325.3 -108.0L323.2 -114.5L328.2 -122.7L326.7 -128.4L321.8 -130.6L318.6 -136.0L325.6 -138.9L328.7 -145.0L332.6 -148.8L336.2 -154.5L340.9 -157.1L335.5 -158.6L336.0 -166.1L328.2 -172.0L328.5 -178.0L329.4 -183.8L324.9 -186.3L325.3 -192.4L320.4 -193.0L322.8 -199.4L321.3 -204.8L320.2 -212.1L315.8 -214.8L321.2 -215.4L317.5 -219.1L314.4 -224.1L318.3 -227.7L323.3 -229.1L317.5 -231.0L314.9 -235.6L319.7 -237.6L315.3 -241.3L309.6 -241.3L313.8 -242.9L318.0 -245.9L312.4 -244.6L306.3 -246.4L303.4 -251.5L301.9 -256.8L298.3 -262.9L296.2 -268.1L311.2 -274.7L320.6 -276.1L324.6 -279.1L343.4 -285.1L363.8 -296.4L367.4 -300.2L383.2 -310.4L387.8 -315.5L396.5 -325.7L403.0 -331.7L404.3 -337.4L407.2 -342.5L408.4 -365.6L406.6 -376.2L403.1 -393.0L397.5 -403.2L385.6 -421.3L373.5 -427.9L369.2 -432.6L354.8 -437.6L351.0 -440.7L345.7 -444.0L341.2 -448.7L335.1 -448.4L338.7 -452.4L338.0 -457.8L336.5 -463.2L342.4 -464.1L346.6 -465.6L350.8 -470.9L361.4 -478.8L366.5 -484.0L358.4 -485.0L365.2 -490.6L362.4 -496.8L367.0 -496.8L374.0 -495.0L379.7 -491.8L375.2 -493.4L371.6 -497.5L375.4 -501.8L380.4 -502.2L375.6 -507.8L380.2 -510.1L383.5 -513.6L388.7 -514.5L395.8 -516.3L383.7 -518.6L379.6 -513.1L368.4 -514.7L376.4 -517.6L371.2 -520.6L369.4 -526.8L364.4 -529.6L370.4 -534.6L376.1 -536.5L371.3 -537.8L367.0 -536.8L361.2 -540.9L369.2 -546.3L364.4 -546.6L372.6 -549.9L359.2 -545.9L348.5 -547.7L357.2 -557.6L362.0 -559.7L366.1 -566.6L362.7 -578.1L370.9 -578.7L367.0 -581.1L374.0 -582.1L368.4 -583.8L362.9 -589.3L355.1 -590.9L352.4 -596.9L350.4 -603.5L349.5 -610.8L354.4 -621.0L365.9 -624.5L373.5 -630.0L389.1 -626.8L421.3 -620.4L428.1 -619.0L438.9 -616.4L432.1 -611.6L444.6 -616.6L450.4 -617.3L456.5 -616.1L464.4 -614.4L470.2 -609.6L477.6 -607.8L470.7 -611.8L482.8 -614.5L487.4 -617.7L497.4 -619.4L502.1 -624.0L508.8 -625.0L513.0 -620.3L519.2 -619.9L525.4 -617.3L530.7 -611.4L536.4 -609.6L540.6 -607.9L546.2 -608.3L547.0 -601.7L540.3 -595.5L544.7 -597.5L561.2 -596.8L563.3 -591.8L568.8 -588.3L565.3 -584.7L560.1 -585.7L565.5 -584.0L570.8 -587.7L580.0 -587.5L584.5 -582.9L573.6 -581.6L577.5 -578.6L572.5 -577.0L583.2 -575.9L574.8 -574.4L580.4 -572.3L581.6 -566.7L585.8 -564.7L590.9 -562.8L596.3 -565.0L603.6 -562.9L610.5 -560.3L616.2 -559.7L620.8 -560.1L627.0 -560.2L634.3 -561.2L636.5 -555.3L642.1 -548.6L648.2 -553.7L651.7 -559.8L656.8 -560.5L659.9 -553.9L662.0 -548.7L649.6 -542.9L651.7 -537.9L645.7 -535.7L647.5 -530.7L653.5 -522.3L652.9 -514.8L645.1 -514.6L627.7 -513.0L619.7 -511.3L602.9 -514.5L619.4 -510.2L631.5 -511.1L637.3 -509.2L649.2 -510.0L655.1 -505.6L651.8 -497.9L656.6 -495.8L650.9 -491.7L652.1 -485.1L648.1 -480.6L652.6 -479.6L660.4 -482.2L666.2 -480.8L664.7 -475.5L660.2 -474.8L655.9 -473.6L662.8 -470.2L657.0 -469.2L658.9 -461.1L655.6 -457.2L651.2 -456.5L651.2 -462.8L647.0 -464.5L646.7 -458.2L630.6 -455.5L638.2 -453.8L642.4 -455.7L646.7 -452.5L652.2 -452.1L657.0 -455.7L662.7 -460.1L670.4 -461.5L679.0 -460.4L683.5 -462.4L696.7 -457.4L699.0 -450.7L700.3 -444.3L702.6 -438.5L699.3 -431.3L694.0 -422.4L676.3 -418.4L667.9 -414.3L661.9 -409.6L676.8 -417.5L696.2 -422.1L699.8 -429.2L704.6 -439.3L709.6 -443.7L714.3 -443.2L715.7 -434.7L707.2 -426.6L712.2 -430.0L717.6 -433.9L718.1 -441.5L722.4 -439.8L719.9 -435.2L723.3 -431.7L722.2 -423.5L720.0 -418.8L723.5 -422.3L729.0 -432.8L740.1 -437.6L745.7 -439.7L750.5 -442.2L759.7 -442.6L760.9 -449.2L765.3 -453.3L769.2 -458.8L777.7 -453.2L781.7 -450.2L780.9 -442.9L778.5 -437.0L782.9 -438.2L785.0 -444.5L783.5 -451.5L780.0 -454.8L788.8 -459.0L782.0 -461.4L786.9 -463.5L793.1 -462.7L789.0 -466.3L793.7 -468.0L799.4 -465.2L805.9 -467.9L797.9 -470.6L791.8 -472.8L790.8 -478.1L796.2 -474.6L796.9 -483.3L804.5 -478.7L801.9 -484.4L797.9 -488.4L810.5 -487.0L817.8 -483.2L809.3 -488.3L802.5 -489.3L797.9 -499.6L804.0 -502.4L811.7 -501.6L817.7 -500.8L809.7 -504.1L812.2 -509.5L816.2 -514.8L819.2 -520.4L822.1 -525.2L829.9 -527.4L822.4 -523.6L825.4 -519.7L830.1 -519.8L826.6 -516.4L820.5 -513.9L829.5 -508.5L825.4 -506.2L825.2 -497.9L823.3 -490.3L827.8 -486.4L837.3 -490.2L835.5 -484.1L833.6 -479.0L835.2 -473.2L839.7 -469.3L829.4 -467.3L823.2 -467.5L823.9 -461.9L832.5 -460.8L842.0 -460.6L847.2 -454.4L852.7 -457.7L858.3 -458.2L867.3 -459.0L871.2 -454.5L850.9 -451.2L849.7 -445.7L856.7 -446.0L847.1 -436.2L845.2 -431.1L838.6 -428.6L845.3 -421.8L850.7 -409.8L855.3 -411.0L858.9 -406.2L863.3 -404.9L867.1 -408.2L862.6 -402.1L861.1 -396.7L863.0 -391.6L858.5 -389.5L857.8 -383.5L861.9 -385.3L860.3 -379.7L857.6 -374.3L852.5 -367.8L848.1 -361.4L854.7 -354.0L857.3 -349.0L846.7 -348.5L847.8 -342.8L853.6 -340.8L852.0 -332.4L858.1 -334.4L872.4 -330.0L863.6 -326.3L870.9 -315.1L877.6 -307.2L883.1 -307.3L884.8 -299.2L869.8 -291.6L868.1 -286.0L872.8 -282.0L864.5 -265.5L853.5 -266.2L841.1 -271.9L833.1 -270.5L823.9 -271.8L812.8 -269.3L801.4 -271.6L792.7 -270.2L787.5 -275.5L783.1 -280.0L773.1 -282.9L761.2 -294.7L757.2 -297.0L751.7 -298.1L757.2 -292.6L754.4 -288.1L758.2 -282.2L760.1 -273.7L755.4 -271.0L748.0 -274.2L745.1 -278.6L735.5 -283.6L730.9 -286.5L733.2 -277.6L739.5 -270.4L744.8 -266.0L738.3 -265.3L735.3 -260.6L728.6 -264.1L723.6 -259.5L724.9 -254.3L727.2 -248.9L723.5 -245.6L718.3 -240.5L724.5 -234.3L730.8 -227.4L728.6 -219.5L741.1 -216.6L743.7 -211.5L749.3 -207.4L746.4 -200.8L746.8 -193.1L743.3 -189.5L744.0 -183.0L750.0 -177.0L757.9 -179.4L758.6 -189.4L763.0 -189.3L769.4 -190.7L772.1 -186.3L770.0 -179.9L766.3 -174.1L768.9 -164.8L764.4 -160.5L766.0 -155.4L769.7 -152.4L770.3 -159.4L775.5 -156.3L779.4 -151.6L784.6 -148.5L788.8 -150.6L797.0 -148.3L801.1 -155.7L813.3 -154.0L822.4 -147.2L831.8 -138.4L827.2 -134.7L831.2 -129.9L837.0 -131.0L843.3 -134.3L840.0 -139.4L843.0 -146.3L843.5 -152.0L848.6 -153.1L848.0 -159.0L845.3 -171.3L845.5 -176.9L846.6 -185.1L854.1 -185.8L855.4 -195.4L863.6 -197.1L869.0 -190.5L867.1 -181.4L873.2 -178.5L858.4 -174.4L853.7 -172.3L849.8 -167.7L855.2 -165.3L854.8 -158.3L864.9 -151.9L858.9 -149.4L1088.3 -146.2L1097.8 -146.2L1097.7 -119.4Z" fill="rgba(140,43,43,0.76)" stroke="#4a3a22" stroke-width="1.4"/><rect x="603.7" y="292.8" width="22" height="22" rx="3" fill="#1f4e79" stroke="#14100a" stroke-width="2"/><rect x="486.4" y="358.6" width="22" height="22" rx="3" fill="#8c2b2b" stroke="#14100a" stroke-width="2"/><rect x="445.2" y="393.3" width="22" height="22" rx="3" fill="#1f4e79" stroke="#14100a" stroke-width="2"/><rect x="275.7" y="720.9" width="22" height="22" rx="3" fill="#1f4e79" stroke="#14100a" stroke-width="2"/><text x="667.9" y="149.2" font-family="Georgia,serif" font-size="11" font-weight="bold" text-anchor="middle" fill="#f7efd9" stroke="rgba(20,12,4,0.75)" stroke-width="2.6" paint-order="stroke">Maine</text><circle cx="667.9" cy="168.2" r="13" fill="#f7f2e2" stroke="#1f4e79" stroke-width="2"/><text x="667.9" y="172.7" font-family="Georgia,serif" font-size="10.5" font-weight="bold" text-anchor="middle" fill="#2b2118">1k</text><text x="588" y="224.6" font-family="Georgia,serif" font-size="11" font-weight="bold" text-anchor="middle" fill="#f7efd9" stroke="rgba(20,12,4,0.75)" stroke-width="2.6" paint-order="stroke">New Hampshire</text><circle cx="588" cy="243.6" r="13" fill="#f7f2e2" stroke="#1f4e79" stroke-width="2"/><text x="588" y="248.1" font-family="Georgia,serif" font-size="10.5" font-weight="bold" text-anchor="middle" fill="#2b2118">2k</text><text x="575.6" y="279.4" font-family="Georgia,serif" font-size="11" font-weight="bold" text-anchor="middle" fill="#f7efd9" stroke="rgba(20,12,4,0.75)" stroke-width="2.6" paint-order="stroke">Massachusetts</text><circle cx="575.6" cy="298.4" r="13" fill="#f7f2e2" stroke="#1f4e79" stroke-width="2"/><text x="575.6" y="302.9" font-family="Georgia,serif" font-size="10.5" font-weight="bold" text-anchor="middle" fill="#2b2118">1.5k</text><path d="M587.6 282.9L589.0 286.5L592.8 286.7L589.9 289.1L590.8 292.8L587.6 290.8L584.4 292.8L585.3 289.1L582.4 286.7L586.2 286.5Z" fill="#fff3cf" stroke="#2b2118" stroke-width="0.7"/><text x="588" y="318.2" font-family="Georgia,serif" font-size="11" font-weight="bold" text-anchor="middle" fill="#f7efd9" stroke="rgba(20,12,4,0.75)" stroke-width="2.6" paint-order="stroke">R.I.</text><circle cx="588" cy="337.2" r="13" fill="#f7f2e2" stroke="#1f4e79" stroke-width="2"/><text x="588" y="341.7" font-family="Georgia,serif" font-size="10.5" font-weight="bold" text-anchor="middle" fill="#2b2118">1.5k</text><text x="532.9" y="325.1" font-family="Georgia,serif" font-size="11" font-weight="bold" text-anchor="middle" fill="#f7efd9" stroke="rgba(20,12,4,0.75)" stroke-width="2.6" paint-order="stroke">Connecticut</text><circle cx="532.9" cy="344.1" r="13" fill="#f7f2e2" stroke="#1f4e79" stroke-width="2"/><text x="532.9" y="348.6" font-family="Georgia,serif" font-size="10.5" font-weight="bold" text-anchor="middle" fill="#2b2118">2k</text><text x="451.2" y="254.3" font-family="Georgia,serif" font-size="11" font-weight="bold" text-anchor="middle" fill="#f7efd9" stroke="rgba(20,12,4,0.75)" stroke-width="2.6" paint-order="stroke">New York</text><circle cx="451.2" cy="273.3" r="13" fill="#f7f2e2" stroke="#1f4e79" stroke-width="2"/><text x="451.2" y="277.8" font-family="Georgia,serif" font-size="10.5" font-weight="bold" text-anchor="middle" fill="#2b2118">2k</text><text x="519.6" y="419.5" font-family="Georgia,serif" font-size="11" font-weight="bold" text-anchor="middle" fill="#f7efd9" stroke="rgba(20,12,4,0.75)" stroke-width="2.6" paint-order="stroke">New Jersey</text><circle cx="479.6" cy="403.5" r="13" fill="#f7f2e2" stroke="#1f4e79" stroke-width="2"/><text x="479.6" y="408" font-family="Georgia,serif" font-size="10.5" font-weight="bold" text-anchor="middle" fill="#2b2118">2k</text><text x="362.4" y="349.1" font-family="Georgia,serif" font-size="11" font-weight="bold" text-anchor="middle" fill="#f7efd9" stroke="rgba(20,12,4,0.75)" stroke-width="2.6" paint-order="stroke">Pennsylvania</text><circle cx="362.4" cy="368.1" r="13" fill="#f7f2e2" stroke="#1f4e79" stroke-width="2"/><text x="362.4" y="372.6" font-family="Georgia,serif" font-size="10.5" font-weight="bold" text-anchor="middle" fill="#2b2118">2k</text><text x="475.9" y="469.4" font-family="Georgia,serif" font-size="11" font-weight="bold" text-anchor="middle" fill="#f7efd9" stroke="rgba(20,12,4,0.75)" stroke-width="2.6" paint-order="stroke">Delaware</text><circle cx="445.9" cy="451.4" r="13" fill="#f7f2e2" stroke="#1f4e79" stroke-width="2"/><text x="445.9" y="455.9" font-family="Georgia,serif" font-size="10.5" font-weight="bold" text-anchor="middle" fill="#2b2118">1.5k</text><text x="383.7" y="414.2" font-family="Georgia,serif" font-size="11" font-weight="bold" text-anchor="middle" fill="#f7efd9" stroke="rgba(20,12,4,0.75)" stroke-width="2.6" paint-order="stroke">Maryland</text><circle cx="383.7" cy="433.2" r="13" fill="#f7f2e2" stroke="#1f4e79" stroke-width="2"/><text x="383.7" y="437.7" font-family="Georgia,serif" font-size="10.5" font-weight="bold" text-anchor="middle" fill="#2b2118">2k</text><text x="302" y="466.7" font-family="Georgia,serif" font-size="11" font-weight="bold" text-anchor="middle" fill="#f7efd9" stroke="rgba(20,12,4,0.75)" stroke-width="2.6" paint-order="stroke">Virginia</text><circle cx="302" cy="485.7" r="13" fill="#f7f2e2" stroke="#1f4e79" stroke-width="2"/><text x="302" y="490.2" font-family="Georgia,serif" font-size="10.5" font-weight="bold" text-anchor="middle" fill="#2b2118">3.5k</text><path d="M314.0 470.2L315.4 473.8L319.2 474.0L316.3 476.4L317.2 480.1L314.0 478.1L310.8 480.1L311.7 476.4L308.8 474.0L312.6 473.8Z" fill="#fff3cf" stroke="#2b2118" stroke-width="0.7"/><text x="307.7" y="592.9" font-family="Georgia,serif" font-size="11" font-weight="bold" text-anchor="middle" fill="#f7efd9" stroke="rgba(20,12,4,0.75)" stroke-width="2.6" paint-order="stroke">North Carolina</text><circle cx="307.7" cy="611.9" r="13" fill="#f7f2e2" stroke="#1f4e79" stroke-width="2"/><text x="307.7" y="616.4" font-family="Georgia,serif" font-size="10.5" font-weight="bold" text-anchor="middle" fill="#2b2118">2k</text><text x="252.4" y="667.5" font-family="Georgia,serif" font-size="11" font-weight="bold" text-anchor="middle" fill="#f7efd9" stroke="rgba(20,12,4,0.75)" stroke-width="2.6" paint-order="stroke">South Carolina</text><circle cx="252.4" cy="686.5" r="13" fill="#f7f2e2" stroke="#1f4e79" stroke-width="2"/><text x="252.4" y="691" font-family="Georgia,serif" font-size="10.5" font-weight="bold" text-anchor="middle" fill="#2b2118">1.5k</text><text x="161.8" y="724.9" font-family="Georgia,serif" font-size="11" font-weight="bold" text-anchor="middle" fill="#f7efd9" stroke="rgba(20,12,4,0.75)" stroke-width="2.6" paint-order="stroke">Georgia</text><circle cx="161.8" cy="743.9" r="13" fill="#f7f2e2" stroke="#8c2b2b" stroke-width="2"/><text x="161.8" y="748.4" font-family="Georgia,serif" font-size="10.5" font-weight="bold" text-anchor="middle" fill="#2b2118">5k</text><path d="M173.8 728.4L175.2 732.0L179.0 732.2L176.1 734.6L177.0 738.3L173.8 736.3L170.6 738.3L171.5 734.6L168.6 732.2L172.4 732.0Z" fill="#fff3cf" stroke="#2b2118" stroke-width="0.7"/><text x="536.5" y="190.3" font-family="Georgia,serif" font-size="11" font-weight="bold" text-anchor="middle" fill="#f7efd9" stroke="rgba(20,12,4,0.75)" stroke-width="2.6" paint-order="stroke">Vermont</text><circle cx="536.5" cy="209.3" r="13" fill="#f7f2e2" stroke="#9a8c6e" stroke-width="2"/><text x="536.5" y="213.8" font-family="Georgia,serif" font-size="10.5" font-weight="bold" text-anchor="middle" fill="#2b2118">1k</text><text x="188.3" y="375.3" font-family="Georgia,serif" font-size="11" font-weight="bold" text-anchor="middle" fill="#f7efd9" stroke="rgba(20,12,4,0.75)" stroke-width="2.6" paint-order="stroke">Ohio Country</text><circle cx="188.3" cy="394.3" r="13" fill="#f7f2e2" stroke="#9a8c6e" stroke-width="2"/><text x="188.3" y="398.8" font-family="Georgia,serif" font-size="10.5" font-weight="bold" text-anchor="middle" fill="#2b2118">1.5k</text><text x="78.2" y="553.5" font-family="Georgia,serif" font-size="11" font-weight="bold" text-anchor="middle" fill="#f7efd9" stroke="rgba(20,12,4,0.75)" stroke-width="2.6" paint-order="stroke">Appalachia</text><circle cx="78.2" cy="572.5" r="13" fill="#f7f2e2" stroke="#9a8c6e" stroke-width="2"/><text x="78.2" y="577" font-family="Georgia,serif" font-size="10.5" font-weight="bold" text-anchor="middle" fill="#2b2118">1.5k</text><text x="177.6" y="861.9" font-family="Georgia,serif" font-size="11" font-weight="bold" text-anchor="middle" fill="#f7efd9" stroke="rgba(20,12,4,0.75)" stroke-width="2.6" paint-order="stroke">East Florida</text><circle cx="177.6" cy="880.9" r="13" fill="#f7f2e2" stroke="#9a8c6e" stroke-width="2"/><text x="177.6" y="885.4" font-family="Georgia,serif" font-size="10.5" font-weight="bold" text-anchor="middle" fill="#2b2118">2.5k</text><text x="586.2" y="60.099999999999994" font-family="Georgia,serif" font-size="11" font-weight="bold" text-anchor="middle" fill="#f7efd9" stroke="rgba(20,12,4,0.75)" stroke-width="2.6" paint-order="stroke">Quebec</text><circle cx="586.2" cy="79.1" r="13" fill="#f7f2e2" stroke="#8c2b2b" stroke-width="2"/><text x="586.2" y="83.6" font-family="Georgia,serif" font-size="10.5" font-weight="bold" text-anchor="middle" fill="#2b2118">6k</text><path d="M598.2 63.6L599.6 67.2L603.4 67.4L600.5 69.8L601.4 73.5L598.2 71.5L595.0 73.5L595.9 69.8L593.0 67.4L596.8 67.2Z" fill="#fff3cf" stroke="#2b2118" stroke-width="0.7"/><text x="648.7" y="309.8" font-family="Georgia,serif" font-size="11" font-weight="bold" text-anchor="middle" fill="#f7efd9" stroke="rgba(20,12,4,0.75)" stroke-width="2.6" paint-order="stroke">Boston</text><text x="614.7" y="308.3" font-family="Georgia,serif" font-size="10.5" font-weight="bold" text-anchor="middle" fill="#f7f2e2" stroke="rgba(15,9,4,0.85)" stroke-width="3" paint-order="stroke">1.5k</text><text x="527.4" y="373.6" font-family="Georgia,serif" font-size="11" font-weight="bold" text-anchor="middle" fill="#f7efd9" stroke="rgba(20,12,4,0.75)" stroke-width="2.6" paint-order="stroke">N.Y.C.</text><path d="M497.4 345.1L499.0 349.3L503.6 349.6L500.1 352.5L501.2 356.9L497.4 354.4L493.6 356.9L494.7 352.5L491.2 349.6L495.8 349.3Z" fill="#ffd24a" stroke="#2b2118" stroke-width="0.7"/><text x="497.4" y="374.1" font-family="Georgia,serif" font-size="10.5" font-weight="bold" text-anchor="middle" fill="#f7f2e2" stroke="rgba(15,9,4,0.85)" stroke-width="3" paint-order="stroke">8k</text><path d="M486.4 353.6L487.7 356.8L491.2 357.1L488.5 359.3L489.3 362.6L486.4 360.8L483.5 362.6L484.3 359.3L481.6 357.1L485.1 356.8Z" fill="#fff3cf" stroke="#2b2118" stroke-width="0.7"/><text x="452.2" y="429.3" font-family="Georgia,serif" font-size="11" font-weight="bold" text-anchor="middle" fill="#f7efd9" stroke="rgba(20,12,4,0.75)" stroke-width="2.6" paint-order="stroke">Phila.</text><path d="M456.2 379.8L457.8 384.0L462.4 384.3L458.9 387.2L460.0 391.6L456.2 389.1L452.4 391.6L453.5 387.2L450.0 384.3L454.6 384.0Z" fill="#ffd24a" stroke="#2b2118" stroke-width="0.7"/><text x="456.2" y="408.8" font-family="Georgia,serif" font-size="10.5" font-weight="bold" text-anchor="middle" fill="#f7f2e2" stroke="rgba(15,9,4,0.85)" stroke-width="3" paint-order="stroke">3k</text><path d="M445.2 388.3L446.5 391.5L450.0 391.8L447.3 394.0L448.1 397.3L445.2 395.5L442.3 397.3L443.1 394.0L440.4 391.8L443.9 391.5Z" fill="#fff3cf" stroke="#2b2118" stroke-width="0.7"/><text x="286.7" y="754.9" font-family="Georgia,serif" font-size="11" font-weight="bold" text-anchor="middle" fill="#f7efd9" stroke="rgba(20,12,4,0.75)" stroke-width="2.6" paint-order="stroke">Charleston</text><text x="286.7" y="736.4" font-family="Georgia,serif" font-size="10.5" font-weight="bold" text-anchor="middle" fill="#f7f2e2" stroke="rgba(15,9,4,0.85)" stroke-width="3" paint-order="stroke">1.5k</text><text x="611" y="780" font-family="Georgia,serif" font-size="17" font-style="italic" letter-spacing="4" text-anchor="middle" fill="rgba(30,60,70,0.55)" font-weight="bold">ATLANTIC OCEAN</text></svg>