<svg xmlns="http://www.w3.org/2000/svg" viewBox="0 0 690 900" width="690" height="900"><rect width="690" height="900" fill="#9cc0ca"/><path d="M558.2 280.8L553.8 277.5L554.4 272.8L548.6 267.4L546.2 205.3L544.4 174.7L560.2 168.2L557.6 164.9L563.6 157.6L569.8 154.3L568.6 151.4L574.4 147.0L572.6 138.7L576.2 126.3L581.8 122.2L584.0 109.0L612.2 72.7L618.8 74.3L619.2 83.1L624.0 86.2L635.7 81.0L643.1 81.0L648.3 77.6L658.5 85.1L664.5 91.4L664.9 144.4L664.1 157.1L676.7 160.5L674.9 165.9L678.1 171.1L675.5 175.7L680.7 183.0L687.5 181.4L694.1 198.3L686.5 205.8L682.1 202.9L678.5 208.1L673.3 206.8L672.7 211.2L665.9 210.7L655.1 220.8L652.5 213.8L648.7 213.3L650.5 220.8L642.1 224.4L640.1 218.5L636.1 221.6L626.8 221.6L626.6 214.6L621.0 216.1L622.0 221.0L616.8 231.4L617.8 234.2L611.0 239.9L604.2 237.9L600.2 243.8L594.6 244.6L590.0 249.5L584.4 248.5L582.8 243.3L574.6 251.6L576.8 256.8L570.8 258.6L570.4 263.0L563.6 268.4L558.2 280.8Z" fill="#d9c79c" stroke="#b7a276" stroke-width="0.8"/><path d="M544.4 174.7L546.2 205.3L548.6 267.4L554.4 272.8L553.8 277.5L558.2 280.8L554.0 289.6L550.4 288.9L540.6 293.5L536.7 297.9L494.3 296.4L491.1 292.7L491.5 285.8L494.7 283.2L494.3 276.4L497.1 256.5L503.5 247.2L506.7 236.6L509.9 232.7L509.7 221.0L521.9 216.6L527.9 208.6L524.5 200.9L529.5 193.1L529.1 188.4L534.3 176.3L542.6 177.6L544.4 174.7Z" fill="#d9c79c" stroke="#b7a276" stroke-width="0.8"/><path d="M529.1 188.4L529.5 193.1L524.5 200.9L527.9 208.6L521.9 216.6L509.7 221.0L509.9 232.7L506.7 236.6L503.5 247.2L497.1 256.5L494.3 276.4L494.7 283.2L491.5 285.8L491.1 292.7L494.3 296.4L464.7 295.6L464.3 291.4L465.5 258.8L459.7 251.1L461.7 247.2L458.5 234.2L462.7 224.7L463.7 215.6L460.3 207.1L462.3 198.3L461.9 188.4L499.7 188.9L529.1 188.4Z" fill="#d9c79c" stroke="#b7a276" stroke-width="0.8"/><path d="M540.2 346.1L543.0 354.6L535.9 355.6L540.2 346.1Z M528.1 330.0L533.5 330.0L535.5 341.1L539.2 344.5L534.9 343.7L531.1 350.7L529.9 360.6L516.1 362.9L518.3 358.5L518.3 330.5L528.1 330.0Z" fill="#d9c79c" stroke="#b7a276" stroke-width="0.8"/><path d="M200.2 395.2L200.2 438.5L238.2 438.5L237.8 462.8L245.0 458.4L252.1 450.4L256.9 451.9L264.1 444.9L274.9 448.3L276.3 443.1L282.3 443.4L285.7 439.8L291.9 444.2L298.1 444.2L302.3 457.4L298.3 466.4L279.3 450.6L277.3 464.6L260.3 483.8L255.7 479.6L247.9 496.5L244.2 500.3L238.2 498.3L232.0 491.8L229.2 502.7L222.0 511.5L219.2 520.0L212.4 527.0L208.4 534.5L208.2 543.0L201.8 547.2L200.4 544.3L183.8 553.4L174.4 556.0L169.4 551.1L162.4 557.3L157.8 557.5L151.6 553.7L146.7 545.6L147.3 541.8L142.5 541.0L135.5 535.5L133.7 530.1L127.9 523.1L123.5 514.1L124.5 499.8L134.1 498.8L135.5 492.6L139.9 490.0L138.1 482.7L144.9 471.3L150.3 478.6L154.0 474.2L153.0 468.8L157.6 459.7L161.8 460.0L166.0 453.2L170.0 456.3L174.6 454.3L188.8 439.0L192.2 421.6L197.2 410.3L197.4 403.0L194.8 397.8L200.2 395.2Z" fill="#d9c79c" stroke="#b7a276" stroke-width="0.8"/><path d="M200.2 331.8L200.2 395.2L194.8 397.8L197.4 403.0L197.2 410.3L192.2 421.6L188.8 439.0L174.6 454.3L170.0 456.3L166.0 453.2L161.8 460.0L157.6 459.7L153.0 468.8L154.0 474.2L150.3 478.6L144.9 471.3L138.1 482.7L139.9 490.0L135.5 492.6L134.1 498.8L124.5 499.8L119.5 493.3L115.3 492.1L113.7 484.0L108.5 485.6L104.5 490.2L90.7 486.6L84.9 490.0L76.7 483.5L65.3 481.7L64.7 477.6L57.3 467.7L43.4 467.7L44.0 401.7L43.8 345.3L93.1 343.5L107.3 349.9L112.1 353.8L115.7 350.2L123.7 357.7L128.7 360.0L145.7 353.8L155.6 355.1L166.4 346.3L182.2 337.8L200.2 331.8L200.2 331.8Z" fill="#d9c79c" stroke="#b7a276" stroke-width="0.8"/><path d="M76.7 483.5L84.9 490.0L90.7 486.6L104.5 490.2L108.5 485.6L113.7 484.0L115.3 492.1L119.5 493.3L124.5 499.8L123.5 514.1L127.9 523.1L133.7 530.1L135.5 535.5L142.5 541.0L147.3 541.8L133.3 554.4L119.9 561.4L119.9 565.0L114.5 568.2L114.1 572.3L107.1 574.1L104.7 579.3L85.1 586.0L84.5 586.8L53.4 586.3L26.2 584.7L19.0 585.2L-21.4 583.4L-67.3 584.5L-75.3 582.4L-74.7 590.9L-120.1 590.4L-124.5 590.9L-122.5 585.0L-117.1 587.0L-114.1 567.9L-115.9 565.3L-110.3 557.0L-106.1 556.5L-92.7 563.8L-88.1 559.9L-91.5 553.7L-90.1 548.7L-75.1 544.3L-78.5 536.1L-73.7 529.3L-70.3 524.9L-61.1 524.4L-58.1 521.0L-54.9 524.4L-50.1 522.9L-41.0 529.8L-38.0 524.9L-28.8 520.3L-26.4 524.9L-18.2 523.1L-18.8 517.9L-10.8 512.0L-9.4 517.4L-1.2 521.8L3.0 518.7L6.4 506.8L12.8 504.5L15.2 498.5L21.4 494.6L21.0 485.3L30.4 487.4L37.2 483.0L43.6 482.7L40.6 469.8L43.4 467.7L57.3 467.7L64.7 477.6L65.3 481.7L76.7 483.5Z" fill="#d9c79c" stroke="#b7a276" stroke-width="0.8"/><path d="M-74.7 590.9L-75.3 582.4L-67.3 584.5L-21.4 583.4L19.0 585.2L26.2 584.7L53.4 586.3L84.5 586.8L85.1 586.0L157.8 586.5L156.2 597.7L149.5 600.0L144.9 608.8L138.3 607.0L123.9 616.0L122.9 611.4L117.9 614.5L109.9 625.1L100.5 627.7L91.5 634.9L81.5 635.2L72.5 642.2L69.7 649.9L62.5 651.0L61.5 662.1L14.6 662.4L-49.3 661.6L-80.1 661.9L-89.9 661.9L-157.0 661.9L-153.4 660.6L-149.8 652.3L-150.4 640.9L-143.6 633.1L-142.4 625.9L-137.1 623.3L-135.9 614.5L-128.7 602.6L-128.9 590.9L-126.9 590.9L-124.5 590.9L-120.1 590.4L-74.7 590.9Z" fill="#d9c79c" stroke="#b7a276" stroke-width="0.8"/><path d="M0.6 342.2L43.8 342.2L43.8 345.3L44.0 401.7L43.4 467.7L40.6 469.8L43.6 482.7L37.2 483.0L30.4 487.4L21.0 485.3L21.4 494.6L15.2 498.5L12.8 504.5L6.4 506.8L3.0 518.7L-1.2 521.8L-9.4 517.4L-10.8 512.0L-18.8 517.9L-18.2 523.1L-26.4 524.9L-28.8 520.3L-38.0 524.9L-41.0 529.8L-50.1 522.9L-54.9 524.4L-58.1 521.0L-61.1 524.4L-70.3 524.9L-73.7 529.3L-74.9 526.2L-72.7 515.1L-69.9 512.8L-70.9 506.8L-66.7 506.0L-60.1 495.9L-58.9 489.7L-54.3 483.0L-54.9 474.7L-59.5 464.6L-55.5 456.1L-55.3 344.5L-51.7 347.6L-40.6 347.6L-29.8 342.2L0.6 342.2Z" fill="#d9c79c" stroke="#b7a276" stroke-width="0.8"/><path d="M93.1 343.5L43.8 345.3L43.8 342.2L0.6 342.2L-29.8 342.2L-22.4 336.0L-17.4 325.4L-12.8 318.9L-9.4 309.8L-7.4 296.9L-8.2 282.9L-19.0 255.5L-15.6 245.1L-18.0 232.7L-9.6 220.0L-7.8 209.4L-9.0 203.7L-3.0 201.4L-2.2 193.6L7.2 191.5L14.4 183.0L13.8 200.1L17.6 200.9L22.4 192.3L22.6 177.8L25.6 174.2L35.6 171.9L32.4 161.8L39.0 153.2L47.2 152.7L56.3 158.1L65.3 158.9L69.7 165.6L76.5 166.2L87.9 172.4L91.9 172.1L98.1 182.2L93.1 187.7L97.9 194.6L99.7 202.7L97.5 220.3L90.1 224.7L88.3 233.7L79.5 236.8L74.7 247.7L76.5 251.8L85.3 255.7L92.1 249.8L100.1 237.6L112.7 232.9L118.9 236.6L122.7 243.3L126.5 263.0L127.1 272.8L131.1 284.7L127.3 301.8L121.3 304.4L121.1 298.2L117.1 300.0L112.5 314.2L105.1 319.7L102.9 330.5L93.7 339.6L93.1 343.5Z M18.2 154.5L18.8 160.2L14.0 161.2L16.0 153.2L18.2 154.5Z M-57.7 184.5L-63.3 179.6L-59.9 172.9L-68.5 171.9L-65.1 165.4L-64.7 157.1L-72.3 151.4L-76.5 145.5L-92.1 140.8L-96.9 142.4L-112.5 135.4L-150.0 125.8L-154.0 117.8L-160.8 114.9L-146.6 110.0L-140.2 104.3L-124.3 102.0L-113.9 95.0L-109.1 94.7L-105.1 89.8L-93.7 82.8L-87.9 76.9L-79.3 73.0L-71.1 76.3L-85.5 90.8L-88.9 95.8L-88.7 104.6L-81.7 97.8L-69.1 98.9L-59.3 103.5L-50.5 116.5L-45.7 118.8L-36.6 116.7L-34.4 119.6L-25.2 121.1L-5.6 110.3L4.6 109.2L18.2 109.7L27.4 106.1L34.4 105.9L35.8 119.1L43.0 120.9L50.2 118.8L53.2 121.9L57.9 118.0L68.5 116.7L68.7 133.3L73.5 140.3L80.7 142.1L81.5 137.4L88.5 137.4L92.3 142.4L89.1 146.0L69.1 142.9L59.5 144.9L49.2 139.2L46.2 144.4L47.6 148.8L43.0 147.8L36.2 141.3L24.4 137.4L18.4 137.2L12.6 143.4L3.0 144.9L-7.4 143.6L-11.6 146.2L-12.6 151.4L-24.0 155.8L-23.4 149.6L-28.4 148.3L-30.4 154.8L-38.8 155.0L-42.5 157.9L-48.1 169.0L-58.5 183.3L-57.7 184.5Z M-102.1 48.4L-111.3 54.3L-116.1 55.1L-115.7 50.2L-92.7 39.1L-97.1 46.8L-102.1 48.4Z" fill="#d9c79c" stroke="#b7a276" stroke-width="0.8"/><path d="M-49.3 661.6L14.6 662.4L21.0 703.0L30.0 762.8L34.2 776.0L38.2 783.5L36.6 788.2L40.8 791.0L34.6 797.0L34.8 802.9L31.6 810.9L35.2 825.2L32.6 837.6L36.6 850.6L18.6 850.8L-58.1 850.8L-59.3 857.0L-51.1 866.1L-52.5 873.8L-49.7 877.7L-55.1 884.7L-60.1 886.3L-69.3 878.5L-70.3 866.9L-73.1 865.6L-76.5 874.4L-77.7 882.9L-87.1 880.6L-89.9 808.4L-81.5 718.5L-76.3 666.8L-80.1 661.9L-49.3 661.6Z" fill="#d9c79c" stroke="#b7a276" stroke-width="0.8"/><path d="M-89.9 661.9L-80.1 661.9L-76.3 666.8L-81.5 718.5L-89.9 808.4L-87.1 880.6L-91.1 882.6L-99.9 881.6L-103.5 878.5L-112.3 880.6L-124.5 886.0L-128.3 889.4L-132.7 884.5L-134.1 876.7L-140.0 866.3L-136.5 850.8L-205.4 850.8L-202.8 847.4L-205.4 838.1L-201.0 837.6L-200.4 820.3L-196.8 821.3L-194.6 810.7L-186.0 804.0L-181.6 793.1L-182.4 779.1L-187.8 773.2L-187.4 763.6L-184.8 761.5L-188.2 756.1L-185.4 749.6L-187.4 739.8L-184.2 735.9L-190.6 729.7L-184.8 715.2L-178.2 707.7L-180.4 702.5L-172.8 694.7L-173.0 691.6L-166.4 689.0L-167.0 679.7L-163.2 677.6L-160.6 669.6L-154.8 666.0L-157.0 661.9L-89.9 661.9Z" fill="#d9c79c" stroke="#b7a276" stroke-width="0.8"/><path d="M18.6 850.8L36.6 850.6L41.6 864.3L91.5 867.4L138.3 871.0L140.1 881.1L144.5 880.8L146.1 871.3L144.7 862.5L148.1 858.8L156.4 862.7L166.4 864.5L168.6 885.0L173.2 908.0L183.8 938.3L200.0 970.7L197.6 973.0L198.4 988.0L205.2 1004.8L215.8 1038.7L218.0 1049.3L217.8 1060.2L213.8 1099.3L210.4 1100.1L206.8 1112.2L208.0 1116.1L201.0 1124.9L198.2 1122.9L191.4 1126.5L179.8 1128.6L176.4 1123.6L178.0 1116.4L169.8 1095.4L163.4 1091.5L157.8 1094.4L153.4 1082.7L152.2 1073.2L144.7 1062.5L142.9 1055.6L144.1 1045.5L139.9 1043.7L140.9 1049.6L137.1 1051.2L125.5 1025.5L120.9 1019.1L131.9 1000.2L124.7 1001.2L119.9 1007.2L115.1 997.8L121.5 972.0L122.7 950.5L118.3 945.3L116.9 938.3L109.9 936.7L101.7 925.4L95.1 920.7L94.7 913.7L90.1 911.1L86.3 903.4L72.3 893.0L60.1 895.3L60.7 902.6L56.7 901.3L41.6 910.1L25.4 912.2L25.8 907.0L22.0 900.8L3.0 886.8L-10.6 880.8L-22.8 879.3L-33.0 880.3L-55.1 884.7L-49.7 877.7L-52.5 873.8L-51.1 866.1L-59.3 857.0L-58.1 850.8L18.6 850.8Z" fill="#d9c79c" stroke="#b7a276" stroke-width="0.8"/><path d="M-169.0 306.7L-101.5 307.5L-65.5 307.5L-66.7 316.6L-61.1 327.2L-55.3 344.5L-55.5 456.1L-59.5 464.6L-54.9 474.7L-54.3 483.0L-58.9 489.7L-60.1 495.9L-66.7 506.0L-70.9 506.8L-69.9 512.8L-72.7 515.1L-74.9 526.2L-73.7 529.3L-78.5 536.1L-75.1 544.3L-90.1 548.7L-91.5 553.7L-88.1 559.9L-92.7 563.8L-106.1 556.5L-110.3 557.0L-115.9 565.3L-114.1 567.9L-119.9 567.4L-128.1 553.9L-125.1 550.8L-128.1 541.8L-128.1 534.5L-139.8 524.4L-143.8 525.4L-147.8 519.2L-158.6 509.7L-158.4 502.1L-152.2 490.0L-153.2 485.6L-149.6 479.9L-154.8 476.5L-162.8 474.5L-167.0 478.9L-169.8 476.0L-172.2 460.5L-184.4 450.4L-195.6 438.2L-200.2 423.7L-200.6 414.1L-197.4 407.4L-196.8 398.9L-186.6 393.7L-185.6 386.4L-180.8 381.8L-180.2 373.5L-186.2 366.8L-183.8 358.5L-169.6 356.2L-158.2 350.2L-157.0 343.0L-152.2 339.9L-150.8 330.8L-151.8 324.8L-160.0 320.2L-161.0 315.3L-169.0 306.7Z" fill="#d9c79c" stroke="#b7a276" stroke-width="0.8"/><path d="M327.3 472.9L331.9 477.6L327.1 482.5L324.3 475.7L327.3 472.9Z" fill="#d9c79c" stroke="#b7a276" stroke-width="0.8"/><path d="M550.4 288.9L554.0 289.6L555.4 297.9L553.8 304.6L548.0 310.9L547.8 318.1L555.8 319.1L560.6 326.7L559.8 332.6L563.8 334.2L564.2 339.6L574.4 344.3L586.2 339.9L583.6 346.3L566.2 352.0L559.8 352.3L556.0 347.9L550.0 349.2L549.8 352.5L543.0 354.6L540.2 346.1L539.2 344.5L535.5 341.1L533.5 330.0L528.1 330.0L518.3 330.5L518.3 329.8L472.5 329.0L456.7 328.5L455.9 326.7L464.7 295.6L494.3 296.4L536.7 297.9L540.6 293.5L550.4 288.9Z" fill="#e3d3a8"/><path d="M472.5 329.0L518.3 329.8L518.3 330.5L518.3 358.5L516.1 362.9L512.9 362.1L496.9 365.7L477.9 364.7L469.7 371.2L460.9 373.2L450.5 378.7L447.9 373.2L456.9 368.1L454.3 364.2L456.7 328.5L472.5 329.0Z" fill="#e3d3a8"/><path d="M461.9 188.4L462.3 198.3L460.3 207.1L463.7 215.6L462.7 224.7L458.5 234.2L461.7 247.2L459.7 251.1L465.5 258.8L464.3 291.4L464.7 295.6L455.9 326.7L456.7 328.5L454.3 364.2L456.9 368.1L447.9 373.2L450.5 378.7L466.1 382.6L469.3 379.7L482.7 379.7L489.5 378.2L500.7 370.7L501.5 376.1L507.3 378.4L493.9 385.4L465.7 395.8L453.9 397.8L446.1 397.3L440.4 399.6L437.2 391.9L441.5 378.2L429.4 371.4L412.6 361.1L411.0 357.7L405.4 357.5L398.8 349.4L399.6 342.4L395.2 337.0L392.4 337.3L388.4 330.8L227.8 330.8L227.8 318.9L227.8 318.1L250.1 304.6L253.7 298.2L260.9 293.8L258.1 285.8L255.1 284.2L252.9 271.3L274.3 265.8L293.3 266.1L300.9 267.4L309.1 272.6L314.3 270.5L330.1 270.7L339.7 267.4L349.8 258.8L356.4 258.6L356.6 245.6L360.0 238.1L351.8 232.9L353.6 227.0L368.2 219.0L373.6 212.0L391.2 196.2L407.8 188.2L432.6 189.5L461.9 188.4Z" fill="#e3d3a8"/><path d="M429.4 371.4L441.5 378.2L437.2 391.9L431.2 395.0L428.0 402.2L438.0 405.9L438.8 411.3L434.4 436.7L423.0 455.6L415.6 461.0L409.0 472.9L405.6 465.1L395.0 461.2L382.0 450.9L381.2 443.9L381.0 442.9L383.0 440.3L386.4 434.6L396.2 430.7L396.8 427.1L408.0 419.3L409.8 415.2L399.4 405.6L399.0 399.6L394.4 398.1L394.0 392.7L399.6 384.4L396.6 379.5L405.8 369.6L407.8 364.4L412.6 361.1L429.4 371.4Z" fill="#e3d3a8"/><path d="M227.8 318.9L227.8 330.8L388.4 330.8L392.4 337.3L395.2 337.0L399.6 342.4L398.8 349.4L405.4 357.5L411.0 357.7L412.6 361.1L407.8 364.4L405.8 369.6L396.6 379.5L399.6 384.4L394.0 392.7L394.4 398.1L399.0 399.6L399.4 405.6L409.8 415.2L408.0 419.3L396.8 427.1L396.2 430.7L386.4 434.6L379.0 433.3L372.8 438.5L238.2 438.5L200.2 438.5L200.2 395.2L200.2 331.8L200.2 331.8L207.0 329.2L227.8 318.1L227.8 318.9Z" fill="#e3d3a8"/><path d="M386.4 434.6L383.0 440.3L379.2 443.4L380.0 450.9L385.4 457.9L386.8 469.5L394.6 481.7L398.2 482.2L399.8 498.5L376.2 498.0L372.8 438.5L379.0 433.3L386.4 434.6Z" fill="#e3d3a8"/><path d="M365.2 522.1L364.4 522.1L363.4 522.1L365.2 522.1Z M238.2 438.5L372.8 438.5L376.2 498.0L399.8 498.5L392.6 518.5L387.0 519.2L377.0 522.1L369.2 524.1L369.4 516.4L366.4 513.3L370.6 509.9L365.0 502.1L363.2 505.5L355.6 504.7L353.0 496.2L355.4 496.2L355.6 485.1L358.0 480.7L354.8 465.7L358.8 456.8L365.0 455.3L366.0 446.2L361.4 447.3L361.2 451.9L351.6 457.9L348.8 463.3L348.2 477.0L344.6 483.5L346.2 494.4L351.0 501.9L350.4 507.6L353.4 513.3L351.8 517.2L343.5 509.7L331.5 506.0L327.9 498.8L321.1 502.9L318.5 497.2L323.9 490.0L327.1 482.5L331.9 477.6L327.3 472.9L324.3 475.7L319.5 471.3L311.9 469.0L311.9 462.0L307.9 458.1L302.3 457.4L298.1 444.2L291.9 444.2L285.7 439.8L282.3 443.4L276.3 443.1L274.9 448.3L264.1 444.9L256.9 451.9L252.1 450.4L245.0 458.4L237.8 462.8L238.2 438.5Z" fill="#e3d3a8"/><path d="M387.0 519.2L392.6 518.5L387.8 526.5L382.8 529.3L379.8 540.2L372.2 557.8L366.0 561.4L364.0 555.0L367.2 540.5L377.0 522.1L387.0 519.2Z M364.4 522.1L365.2 522.1L363.4 522.1L364.4 522.1Z M279.3 450.6L298.3 466.4L302.3 457.4L307.9 458.1L311.9 462.0L311.9 469.0L319.5 471.3L324.3 475.7L327.1 482.5L323.9 490.0L319.5 492.1L316.7 498.8L318.3 503.7L328.1 502.1L329.9 509.7L342.7 512.8L346.2 518.7L356.4 525.2L351.8 538.4L356.0 548.7L351.0 553.7L350.4 559.6L355.0 563.2L350.0 568.9L342.5 561.4L340.7 564.0L347.2 569.4L365.2 570.7L369.8 588.3L237.0 588.9L208.4 588.6L183.4 587.8L157.8 586.5L85.1 586.0L104.7 579.3L107.1 574.1L114.1 572.3L114.5 568.2L119.9 565.0L119.9 561.4L133.3 554.4L147.3 541.8L146.7 545.6L151.6 553.7L157.8 557.5L162.4 557.3L169.4 551.1L174.4 556.0L183.8 553.4L200.4 544.3L201.8 547.2L208.2 543.0L208.4 534.5L212.4 527.0L219.2 520.0L222.0 511.5L229.2 502.7L232.0 491.8L238.2 498.3L244.2 500.3L247.9 496.5L255.7 479.6L260.3 483.8L277.3 464.6L279.3 450.6Z" fill="#e3d3a8"/><path d="M183.4 587.8L208.4 588.6L237.0 588.9L369.8 588.3L374.0 607.2L363.8 605.4L362.4 607.8L350.0 610.6L348.2 613.2L340.1 614.0L340.5 617.3L350.4 615.0L351.8 617.1L362.8 614.7L366.4 619.1L373.0 617.3L375.4 628.7L373.2 634.2L368.8 634.7L359.6 646.3L347.4 646.8L345.4 654.9L350.6 662.9L354.8 664.4L347.0 677.6L340.5 676.1L328.9 677.4L320.9 680.2L308.3 689.3L298.3 701.2L293.1 716.2L285.5 712.8L272.3 716.0L231.0 670.9L190.0 670.1L190.6 664.7L185.0 656.7L181.2 659.5L181.0 654.6L136.1 652.3L126.1 654.1L118.3 658.5L105.7 661.6L87.1 662.4L61.5 662.1L62.5 651.0L69.7 649.9L72.5 642.2L81.5 635.2L91.5 634.9L100.5 627.7L109.9 625.1L117.9 614.5L122.9 611.4L123.9 616.0L138.3 607.0L144.9 608.8L149.5 600.0L156.2 597.7L157.8 586.5L183.4 587.8Z" fill="#e3d3a8"/><path d="M118.3 658.5L126.1 654.1L136.1 652.3L181.0 654.6L181.2 659.5L185.0 656.7L190.6 664.7L190.0 670.1L231.0 670.9L272.3 716.0L265.9 718.3L257.9 726.0L250.1 738.2L248.7 748.0L242.6 755.8L234.4 755.8L232.6 761.5L224.0 767.7L219.2 774.5L211.6 777.3L203.4 784.5L202.6 787.9L195.0 791.8L186.8 801.9L178.4 797.7L178.2 789.7L172.4 777.0L167.4 773.7L167.0 763.6L164.6 755.8L154.8 748.6L148.5 739.8L148.9 734.3L139.1 726.3L134.3 717.5L125.9 711.6L120.1 701.7L118.9 696.3L113.3 685.9L109.5 686.7L97.3 676.6L97.9 671.7L105.7 661.6L118.3 658.5Z" fill="#e3d3a8"/><path d="M105.7 661.6L97.9 671.7L97.3 676.6L109.5 686.7L113.3 685.9L118.9 696.3L120.1 701.7L125.9 711.6L134.3 717.5L139.1 726.3L148.9 734.3L148.5 739.8L154.8 748.6L164.6 755.8L167.0 763.6L167.4 773.7L172.4 777.0L178.2 789.7L178.4 797.7L186.8 801.9L177.8 817.9L176.2 826.2L172.4 833.5L172.0 841.0L168.0 844.3L166.4 864.5L156.4 862.7L148.1 858.8L144.7 862.5L146.1 871.3L144.5 880.8L140.1 881.1L138.3 871.0L91.5 867.4L41.6 864.3L36.6 850.6L32.6 837.6L35.2 825.2L31.6 810.9L34.8 802.9L34.6 797.0L40.8 791.0L36.6 788.2L38.2 783.5L34.2 776.0L30.0 762.8L21.0 703.0L14.6 662.4L61.5 662.1L87.1 662.4L105.7 661.6Z" fill="#e3d3a8"/><path d="M237.4 66.2L346.8 28.4L510.9 18.9L620.4 37.8L675.1 80.3L613.1 122.9L583.9 146.5L529.2 189.0L463.5 189.0L412.5 189.0L332.2 226.9L255.6 241.0L233.7 179.6L237.4 66.2Z" fill="#e3d3a8"/><path d="M550.4 288.9L554.0 289.6L555.4 297.9L553.8 304.6L548.0 310.9L547.8 318.1L555.8 319.1L560.6 326.7L559.8 332.6L563.8 334.2L564.2 339.6L574.4 344.3L586.2 339.9L583.6 346.3L566.2 352.0L559.8 352.3L556.0 347.9L550.0 349.2L549.8 352.5L543.0 354.6L540.2 346.1L539.2 344.5L535.5 341.1L533.5 330.0L528.1 330.0L518.3 330.5L518.3 329.8L472.5 329.0L456.7 328.5L455.9 326.7L464.7 295.6L494.3 296.4L536.7 297.9L540.6 293.5L550.4 288.9Z" fill="rgba(31,78,121,0.74)" stroke="#4a3a22" stroke-width="1.4"/><path d="M472.5 329.0L518.3 329.8L518.3 330.5L518.3 358.5L516.1 362.9L512.9 362.1L496.9 365.7L477.9 364.7L469.7 371.2L460.9 373.2L450.5 378.7L447.9 373.2L456.9 368.1L454.3 364.2L456.7 328.5L472.5 329.0Z" fill="rgba(31,78,121,0.74)" stroke="#4a3a22" stroke-width="1.4"/><path d="M461.9 188.4L462.3 198.3L460.3 207.1L463.7 215.6L462.7 224.7L458.5 234.2L461.7 247.2L459.7 251.1L465.5 258.8L464.3 291.4L464.7 295.6L455.9 326.7L456.7 328.5L454.3 364.2L456.9 368.1L447.9 373.2L450.5 378.7L466.1 382.6L469.3 379.7L482.7 379.7L489.5 378.2L500.7 370.7L501.5 376.1L507.3 378.4L493.9 385.4L465.7 395.8L453.9 397.8L446.1 397.3L440.4 399.6L437.2 391.9L441.5 378.2L429.4 371.4L412.6 361.1L411.0 357.7L405.4 357.5L398.8 349.4L399.6 342.4L395.2 337.0L392.4 337.3L388.4 330.8L227.8 330.8L227.8 318.9L227.8 318.1L250.1 304.6L253.7 298.2L260.9 293.8L258.1 285.8L255.1 284.2L252.9 271.3L274.3 265.8L293.3 266.1L300.9 267.4L309.1 272.6L314.3 270.5L330.1 270.7L339.7 267.4L349.8 258.8L356.4 258.6L356.6 245.6L360.0 238.1L351.8 232.9L353.6 227.0L368.2 219.0L373.6 212.0L391.2 196.2L407.8 188.2L432.6 189.5L461.9 188.4Z" fill="rgba(140,43,43,0.76)" stroke="#4a3a22" stroke-width="1.4"/><path d="M429.4 371.4L441.5 378.2L437.2 391.9L431.2 395.0L428.0 402.2L438.0 405.9L438.8 411.3L434.4 436.7L423.0 455.6L415.6 461.0L409.0 472.9L405.6 465.1L395.0 461.2L382.0 450.9L381.2 443.9L381.0 442.9L383.0 440.3L386.4 434.6L396.2 430.7L396.8 427.1L408.0 419.3L409.8 415.2L399.4 405.6L399.0 399.6L394.4 398.1L394.0 392.7L399.6 384.4L396.6 379.5L405.8 369.6L407.8 364.4L412.6 361.1L429.4 371.4Z" fill="rgba(31,78,121,0.74)" stroke="#4a3a22" stroke-width="1.4"/><path d="M227.8 318.9L227.8 330.8L388.4 330.8L392.4 337.3L395.2 337.0L399.6 342.4L398.8 349.4L405.4 357.5L411.0 357.7L412.6 361.1L407.8 364.4L405.8 369.6L396.6 379.5L399.6 384.4L394.0 392.7L394.4 398.1L399.0 399.6L399.4 405.6L409.8 415.2L408.0 419.3L396.8 427.1L396.2 430.7L386.4 434.6L379.0 433.3L372.8 438.5L238.2 438.5L200.2 438.5L200.2 395.2L200.2 331.8L200.2 331.8L207.0 329.2L227.8 318.1L227.8 318.9Z" fill="rgba(31,78,121,0.74)" stroke="#4a3a22" stroke-width="1.4"/><path d="M386.4 434.6L383.0 440.3L379.2 443.4L380.0 450.9L385.4 457.9L386.8 469.5L394.6 481.7L398.2 482.2L399.8 498.5L376.2 498.0L372.8 438.5L379.0 433.3L386.4 434.6Z" fill="rgba(31,78,121,0.74)" stroke="#4a3a22" stroke-width="1.4"/><path d="M365.2 522.1L364.4 522.1L363.4 522.1L365.2 522.1Z M238.2 438.5L372.8 438.5L376.2 498.0L399.8 498.5L392.6 518.5L387.0 519.2L377.0 522.1L369.2 524.1L369.4 516.4L366.4 513.3L370.6 509.9L365.0 502.1L363.2 505.5L355.6 504.7L353.0 496.2L355.4 496.2L355.6 485.1L358.0 480.7L354.8 465.7L358.8 456.8L365.0 455.3L366.0 446.2L361.4 447.3L361.2 451.9L351.6 457.9L348.8 463.3L348.2 477.0L344.6 483.5L346.2 494.4L351.0 501.9L350.4 507.6L353.4 513.3L351.8 517.2L343.5 509.7L331.5 506.0L327.9 498.8L321.1 502.9L318.5 497.2L323.9 490.0L327.1 482.5L331.9 477.6L327.3 472.9L324.3 475.7L319.5 471.3L311.9 469.0L311.9 462.0L307.9 458.1L302.3 457.4L298.1 444.2L291.9 444.2L285.7 439.8L282.3 443.4L276.3 443.1L274.9 448.3L264.1 444.9L256.9 451.9L252.1 450.4L245.0 458.4L237.8 462.8L238.2 438.5Z" fill="rgba(31,78,121,0.74)" stroke="#4a3a22" stroke-width="1.4"/><path d="M387.0 519.2L392.6 518.5L387.8 526.5L382.8 529.3L379.8 540.2L372.2 557.8L366.0 561.4L364.0 555.0L367.2 540.5L377.0 522.1L387.0 519.2Z M364.4 522.1L365.2 522.1L363.4 522.1L364.4 522.1Z M279.3 450.6L298.3 466.4L302.3 457.4L307.9 458.1L311.9 462.0L311.9 469.0L319.5 471.3L324.3 475.7L327.1 482.5L323.9 490.0L319.5 492.1L316.7 498.8L318.3 503.7L328.1 502.1L329.9 509.7L342.7 512.8L346.2 518.7L356.4 525.2L351.8 538.4L356.0 548.7L351.0 553.7L350.4 559.6L355.0 563.2L350.0 568.9L342.5 561.4L340.7 564.0L347.2 569.4L365.2 570.7L369.8 588.3L237.0 588.9L208.4 588.6L183.4 587.8L157.8 586.5L85.1 586.0L104.7 579.3L107.1 574.1L114.1 572.3L114.5 568.2L119.9 565.0L119.9 561.4L133.3 554.4L147.3 541.8L146.7 545.6L151.6 553.7L157.8 557.5L162.4 557.3L169.4 551.1L174.4 556.0L183.8 553.4L200.4 544.3L201.8 547.2L208.2 543.0L208.4 534.5L212.4 527.0L219.2 520.0L222.0 511.5L229.2 502.7L232.0 491.8L238.2 498.3L244.2 500.3L247.9 496.5L255.7 479.6L260.3 483.8L277.3 464.6L279.3 450.6Z" fill="rgba(31,78,121,0.74)" stroke="#4a3a22" stroke-width="1.4"/><path d="M183.4 587.8L208.4 588.6L237.0 588.9L369.8 588.3L374.0 607.2L363.8 605.4L362.4 607.8L350.0 610.6L348.2 613.2L340.1 614.0L340.5 617.3L350.4 615.0L351.8 617.1L362.8 614.7L366.4 619.1L373.0 617.3L375.4 628.7L373.2 634.2L368.8 634.7L359.6 646.3L347.4 646.8L345.4 654.9L350.6 662.9L354.8 664.4L347.0 677.6L340.5 676.1L328.9 677.4L320.9 680.2L308.3 689.3L298.3 701.2L293.1 716.2L285.5 712.8L272.3 716.0L231.0 670.9L190.0 670.1L190.6 664.7L185.0 656.7L181.2 659.5L181.0 654.6L136.1 652.3L126.1 654.1L118.3 658.5L105.7 661.6L87.1 662.4L61.5 662.1L62.5 651.0L69.7 649.9L72.5 642.2L81.5 635.2L91.5 634.9L100.5 627.7L109.9 625.1L117.9 614.5L122.9 611.4L123.9 616.0L138.3 607.0L144.9 608.8L149.5 600.0L156.2 597.7L157.8 586.5L183.4 587.8Z" fill="rgba(31,78,121,0.74)" stroke="#4a3a22" stroke-width="1.4"/><path d="M118.3 658.5L126.1 654.1L136.1 652.3L181.0 654.6L181.2 659.5L185.0 656.7L190.6 664.7L190.0 670.1L231.0 670.9L272.3 716.0L265.9 718.3L257.9 726.0L250.1 738.2L248.7 748.0L242.6 755.8L234.4 755.8L232.6 761.5L224.0 767.7L219.2 774.5L211.6 777.3L203.4 784.5L202.6 787.9L195.0 791.8L186.8 801.9L178.4 797.7L178.2 789.7L172.4 777.0L167.4 773.7L167.0 763.6L164.6 755.8L154.8 748.6L148.5 739.8L148.9 734.3L139.1 726.3L134.3 717.5L125.9 711.6L120.1 701.7L118.9 696.3L113.3 685.9L109.5 686.7L97.3 676.6L97.9 671.7L105.7 661.6L118.3 658.5Z" fill="rgba(31,78,121,0.74)" stroke="#4a3a22" stroke-width="1.4"/><path d="M105.7 661.6L97.9 671.7L97.3 676.6L109.5 686.7L113.3 685.9L118.9 696.3L120.1 701.7L125.9 711.6L134.3 717.5L139.1 726.3L148.9 734.3L148.5 739.8L154.8 748.6L164.6 755.8L167.0 763.6L167.4 773.7L172.4 777.0L178.2 789.7L178.4 797.7L186.8 801.9L177.8 817.9L176.2 826.2L172.4 833.5L172.0 841.0L168.0 844.3L166.4 864.5L156.4 862.7L148.1 858.8L144.7 862.5L146.1 871.3L144.5 880.8L140.1 881.1L138.3 871.0L91.5 867.4L41.6 864.3L36.6 850.6L32.6 837.6L35.2 825.2L31.6 810.9L34.8 802.9L34.6 797.0L40.8 791.0L36.6 788.2L38.2 783.5L34.2 776.0L30.0 762.8L21.0 703.0L14.6 662.4L61.5 662.1L87.1 662.4L105.7 661.6Z" fill="rgba(140,43,43,0.76)" stroke="#4a3a22" stroke-width="1.4"/><path d="M237.4 66.2L346.8 28.4L510.9 18.9L620.4 37.8L675.1 80.3L613.1 122.9L583.9 146.5L529.2 189.0L463.5 189.0L412.5 189.0L332.2 226.9L255.6 241.0L233.7 179.6L237.4 66.2Z" fill="rgba(140,43,43,0.76)" stroke="#4a3a22" stroke-width="1.4"/><text x="547.4" y="296.6" font-family="Georgia,serif" font-size="13" font-weight="bold" text-anchor="middle" fill="#f7efd9" stroke="rgba(20,12,4,0.75)" stroke-width="3" paint-order="stroke">Massachusetts</text><circle cx="547.4" cy="315.6" r="13" fill="#f7f2e2" stroke="#1f4e79" stroke-width="2"/><text x="547.4" y="320.1" font-family="Georgia,serif" font-size="13" font-weight="bold" text-anchor="middle" fill="#2b2118">6</text><text x="479.9" y="341.5" font-family="Georgia,serif" font-size="13" font-weight="bold" text-anchor="middle" fill="#f7efd9" stroke="rgba(20,12,4,0.75)" stroke-width="3" paint-order="stroke">Connecticut</text><circle cx="479.9" cy="360.5" r="13" fill="#f7f2e2" stroke="#1f4e79" stroke-width="2"/><text x="479.9" y="365" font-family="Georgia,serif" font-size="13" font-weight="bold" text-anchor="middle" fill="#2b2118">4</text><text x="390.6" y="272.9" font-family="Georgia,serif" font-size="13" font-weight="bold" text-anchor="middle" fill="#f7efd9" stroke="rgba(20,12,4,0.75)" stroke-width="3" paint-order="stroke">New York</text><circle cx="390.6" cy="257.9" r="5" fill="#ffd24a" stroke="#2b2118"/><circle cx="390.6" cy="291.9" r="13" fill="#f7f2e2" stroke="#8c2b2b" stroke-width="2"/><text x="390.6" y="296.4" font-family="Georgia,serif" font-size="13" font-weight="bold" text-anchor="middle" fill="#2b2118">14</text><text x="419.8" y="407.6" font-family="Georgia,serif" font-size="13" font-weight="bold" text-anchor="middle" fill="#f7efd9" stroke="rgba(20,12,4,0.75)" stroke-width="3" paint-order="stroke">New Jersey</text><circle cx="419.8" cy="426.6" r="13" fill="#f7f2e2" stroke="#1f4e79" stroke-width="2"/><text x="419.8" y="431.1" font-family="Georgia,serif" font-size="13" font-weight="bold" text-anchor="middle" fill="#2b2118">4</text><text x="299.4" y="371" font-family="Georgia,serif" font-size="13" font-weight="bold" text-anchor="middle" fill="#f7efd9" stroke="rgba(20,12,4,0.75)" stroke-width="3" paint-order="stroke">Pennsylvania</text><circle cx="299.4" cy="356" r="5" fill="#ffd24a" stroke="#2b2118"/><circle cx="299.4" cy="390" r="13" fill="#f7f2e2" stroke="#1f4e79" stroke-width="2"/><text x="299.4" y="394.5" font-family="Georgia,serif" font-size="13" font-weight="bold" text-anchor="middle" fill="#2b2118">10</text><text x="385.1" y="457.2" font-family="Georgia,serif" font-size="13" font-weight="bold" text-anchor="middle" fill="#f7efd9" stroke="rgba(20,12,4,0.75)" stroke-width="3" paint-order="stroke">Delaware</text><circle cx="385.1" cy="476.2" r="13" fill="#f7f2e2" stroke="#1f4e79" stroke-width="2"/><text x="385.1" y="480.7" font-family="Georgia,serif" font-size="13" font-weight="bold" text-anchor="middle" fill="#2b2118">3</text><text x="321.3" y="438.3" font-family="Georgia,serif" font-size="13" font-weight="bold" text-anchor="middle" fill="#f7efd9" stroke="rgba(20,12,4,0.75)" stroke-width="3" paint-order="stroke">Maryland</text><circle cx="321.3" cy="457.3" r="13" fill="#f7f2e2" stroke="#1f4e79" stroke-width="2"/><text x="321.3" y="461.8" font-family="Georgia,serif" font-size="13" font-weight="bold" text-anchor="middle" fill="#2b2118">4</text><text x="281.1" y="521" font-family="Georgia,serif" font-size="13" font-weight="bold" text-anchor="middle" fill="#f7efd9" stroke="rgba(20,12,4,0.75)" stroke-width="3" paint-order="stroke">Virginia</text><circle cx="281.1" cy="540" r="13" fill="#f7f2e2" stroke="#1f4e79" stroke-width="2"/><text x="281.1" y="544.5" font-family="Georgia,serif" font-size="13" font-weight="bold" text-anchor="middle" fill="#2b2118">7</text><text x="243.2" y="623.2" font-family="Georgia,serif" font-size="13" font-weight="bold" text-anchor="middle" fill="#f7efd9" stroke="rgba(20,12,4,0.75)" stroke-width="3" paint-order="stroke">North Carolina</text><circle cx="243.2" cy="642.2" r="13" fill="#f7f2e2" stroke="#1f4e79" stroke-width="2"/><text x="243.2" y="646.7" font-family="Georgia,serif" font-size="13" font-weight="bold" text-anchor="middle" fill="#2b2118">4</text><text x="186.5" y="700.5" font-family="Georgia,serif" font-size="13" font-weight="bold" text-anchor="middle" fill="#f7efd9" stroke="rgba(20,12,4,0.75)" stroke-width="3" paint-order="stroke">South Carolina</text><circle cx="186.5" cy="719.5" r="13" fill="#f7f2e2" stroke="#1f4e79" stroke-width="2"/><text x="186.5" y="724" font-family="Georgia,serif" font-size="13" font-weight="bold" text-anchor="middle" fill="#2b2118">5</text><text x="93.4" y="759.8" font-family="Georgia,serif" font-size="13" font-weight="bold" text-anchor="middle" fill="#f7efd9" stroke="rgba(20,12,4,0.75)" stroke-width="3" paint-order="stroke">Georgia</text><circle cx="93.4" cy="778.8" r="13" fill="#f7f2e2" stroke="#8c2b2b" stroke-width="2"/><text x="93.4" y="783.3" font-family="Georgia,serif" font-size="13" font-weight="bold" text-anchor="middle" fill="#2b2118">6</text><text x="474.5" y="95.7" font-family="Georgia,serif" font-size="13" font-weight="bold" text-anchor="middle" fill="#f7efd9" stroke="rgba(20,12,4,0.75)" stroke-width="3" paint-order="stroke">Quebec</text><circle cx="474.5" cy="114.7" r="13" fill="#f7f2e2" stroke="#8c2b2b" stroke-width="2"/><text x="474.5" y="119.2" font-family="Georgia,serif" font-size="13" font-weight="bold" text-anchor="middle" fill="#2b2118">8</text><text x="540" y="780" font-family="Georgia,serif" font-size="17" font-style="italic" letter-spacing="4" text-anchor="middle" fill="rgba(30,60,70,0.55)" font-weight="bold">ATLANTIC OCEAN</text></svg>