<svg xmlns="http://www.w3.org/2000/svg" viewBox="0 0 1137 900" width="1137" height="900"><rect width="1137" height="900" fill="#9cc0ca"/><path d="M235.9 630.4L298.2 631.2L304.4 670.4L313.2 728.2L317.3 741.0L321.2 748.3L319.6 752.8L323.7 755.5L317.7 761.3L317.9 767.0L314.7 774.8L318.3 788.5L315.7 800.5L319.6 813.1L302.1 813.3L227.4 813.3L226.2 819.3L234.2 828.1L232.8 835.6L235.5 839.3L230.3 846.1L225.4 847.6L216.5 840.1L215.5 828.8L212.8 827.6L209.5 836.1L208.3 844.3L199.2 842.1L196.4 772.3L204.6 685.5L209.7 635.4L206.0 630.7L235.9 630.4Z" fill="#d9c79c" stroke="#b7a276" stroke-width="0.8"/><path d="M-16.8 561.8L136.7 562.1L139.8 570.9L134.4 576.4L128.7 584.9L151.7 584.9L150.5 593.4L145.3 595.9L144.1 602.9L137.5 610.4L138.1 621.4L134.6 629.4L131.1 630.7L133.2 634.7L127.6 638.2L125.0 645.9L121.3 647.9L121.9 656.9L115.5 659.4L115.7 662.4L108.3 669.9L110.4 674.9L104.0 682.2L98.4 696.2L104.6 702.2L101.5 706.0L103.4 715.5L100.7 721.7L13.9 721.0L-1.5 721.0L-1.5 696.7L-6.5 694.7L-13.5 697.0L-17.2 692.7L-15.3 612.4L-21.9 561.8L-16.8 561.8Z" fill="#d9c79c" stroke="#b7a276" stroke-width="0.8"/><path d="M602.7 448.0L607.2 452.5L602.5 457.3L599.8 450.7L602.7 448.0Z" fill="#d9c79c" stroke="#b7a276" stroke-width="0.8"/><path d="M119.4 287.4L185.2 288.1L220.2 288.1L219.0 296.9L224.5 307.1L230.1 323.9L229.9 431.7L226.0 440.0L230.5 449.7L231.1 457.8L226.6 464.3L225.4 470.3L219.0 480.0L214.9 480.8L215.9 486.5L213.2 488.8L211.0 499.5L212.2 502.5L207.5 509.0L210.8 517.1L196.2 521.3L194.9 526.1L198.2 532.1L193.7 535.8L180.7 528.8L176.6 529.3L171.1 537.3L172.9 539.8L167.2 539.3L159.3 526.3L162.2 523.3L159.3 514.6L159.3 507.5L147.8 497.8L143.9 498.8L140.0 492.8L129.5 483.5L129.7 476.3L135.7 464.5L134.8 460.3L138.3 454.8L133.2 451.5L125.4 449.5L121.3 453.8L118.6 451.0L116.3 436.0L104.4 426.2L93.5 414.5L89.0 400.5L88.6 391.2L91.7 384.7L92.3 376.4L102.3 371.4L103.2 364.4L107.9 359.9L108.5 351.9L102.6 345.4L105.0 337.4L118.8 335.1L129.9 329.4L131.1 322.4L135.7 319.4L137.1 310.6L136.1 304.9L128.1 300.4L127.2 295.6L119.4 287.4Z" fill="#d9c79c" stroke="#b7a276" stroke-width="0.8"/><path d="M284.6 321.6L326.6 321.6L326.6 324.6L326.8 379.2L326.2 443.0L323.5 445.0L326.4 457.5L320.2 457.8L313.6 462.0L304.4 460.0L304.8 469.0L298.8 472.8L296.5 478.5L290.2 480.8L286.9 492.3L282.8 495.3L274.9 491.0L273.5 485.8L265.7 491.5L266.3 496.5L258.3 498.3L256.0 493.8L247.0 498.3L244.1 503.0L235.2 496.3L230.5 497.8L227.4 494.5L224.5 497.8L215.5 498.3L212.2 502.5L211.0 499.5L213.2 488.8L215.9 486.5L214.9 480.8L219.0 480.0L225.4 470.3L226.6 464.3L231.1 457.8L230.5 449.7L226.0 440.0L229.9 431.7L230.1 323.9L233.6 326.9L244.5 326.9L255.0 321.6L284.6 321.6Z" fill="#d9c79c" stroke="#b7a276" stroke-width="0.8"/><path d="M93.5 242.1L98.9 242.1L99.3 248.8L104.6 253.3L100.3 258.8L101.5 269.1L104.2 276.3L116.8 281.6L119.4 287.4L127.2 295.6L128.1 300.4L136.1 304.9L137.1 310.6L135.7 319.4L131.1 322.4L129.9 329.4L118.8 335.1L105.0 337.4L102.6 345.4L108.5 351.9L107.9 359.9L103.2 364.4L102.3 371.4L92.3 376.4L91.7 384.7L87.9 383.2L80.7 373.9L77.0 374.2L26.4 375.4L-22.5 375.9L-62.8 375.2L-66.8 369.2L-64.9 357.4L-68.4 347.2L-68.2 335.6L-74.4 331.6L-75.4 325.4L-73.3 319.9L-75.6 311.9L-80.5 308.9L-86.9 288.4L-93.5 278.3L-90.4 271.6L-89.2 262.6L-86.5 259.3L-91.0 254.8L-89.8 246.8L-91.8 243.1L-87.1 242.1L93.5 242.1Z" fill="#d9c79c" stroke="#b7a276" stroke-width="0.8"/><path d="M-280.9 402.0L-46.4 402.0L-42.9 406.2L-31.4 409.7L-39.4 423.0L-34.9 427.5L-29.3 438.2L-21.7 440.5L-21.9 539.1L-216.3 539.1L-285.8 539.3L-286.1 402.0L-280.9 402.0Z" fill="#d9c79c" stroke="#b7a276" stroke-width="0.8"/><path d="M13.9 721.0L100.7 721.7L104.0 727.0L101.5 729.0L101.1 738.2L106.3 744.0L107.1 757.5L102.8 768.0L94.5 774.5L92.3 784.8L88.8 783.8L88.2 800.5L84.0 801.0L86.5 810.1L84.0 813.3L151.1 813.3L147.6 828.3L153.4 838.3L154.8 845.8L159.1 850.6L148.6 856.8L147.8 861.4L156.4 864.4L160.0 857.1L167.4 864.4L166.9 870.1L162.6 872.6L154.6 870.4L155.6 874.6L152.8 881.1L159.7 886.9L170.6 888.6L174.4 895.4L177.6 896.4L171.9 904.1L165.7 902.6L160.4 894.6L147.4 890.4L147.4 882.6L141.0 885.1L141.4 891.6L138.4 897.6L133.8 898.6L130.3 891.9L122.1 891.6L119.2 898.6L113.7 900.6L107.9 896.4L103.2 895.9L98.8 884.6L90.8 879.6L87.7 880.4L84.5 870.9L75.2 872.1L75.0 866.4L65.9 871.9L67.0 876.1L60.0 880.1L49.1 878.1L36.5 871.9L27.5 869.1L8.3 871.4L5.7 873.1L2.6 868.6L11.0 852.3L8.3 843.6L10.8 838.8L9.6 832.6L13.1 827.8L16.8 816.1L16.2 806.3L6.5 787.8L6.3 777.8L-1.5 767.8L-1.5 721.0L13.9 721.0Z" fill="#d9c79c" stroke="#b7a276" stroke-width="0.8"/><path d="M374.7 322.9L326.6 324.6L326.6 321.6L284.6 321.6L255.0 321.6L262.2 315.6L267.1 305.4L271.5 299.1L274.9 290.4L276.8 277.8L276.0 264.3L265.5 237.8L268.8 227.8L266.5 215.8L274.7 203.5L276.4 193.3L275.2 187.8L281.1 185.5L281.9 178.0L291.0 176.0L298.0 167.8L297.4 184.3L301.1 185.0L305.8 176.8L306.0 162.8L308.9 159.2L318.6 157.0L315.5 147.2L321.9 139.0L329.9 138.5L338.9 143.7L347.6 144.5L351.9 151.0L358.5 151.5L369.6 157.5L373.5 157.2L379.5 167.0L374.7 172.3L379.4 179.0L381.1 186.8L379.0 203.8L371.8 208.0L370.0 216.8L361.5 219.8L356.8 230.3L358.5 234.3L367.1 238.1L373.7 232.3L381.5 220.5L393.8 216.0L399.8 219.5L403.5 226.1L407.2 245.1L407.8 254.6L411.7 266.1L408.0 282.6L402.1 285.1L401.9 279.1L398.0 280.9L393.6 294.6L386.4 299.9L384.2 310.4L375.3 319.1L374.7 322.9Z M301.7 140.2L302.3 145.7L297.6 146.7L299.6 139.0L301.7 140.2Z M227.8 169.3L222.3 164.5L225.6 158.0L217.3 157.0L220.6 150.7L221.0 142.7L213.6 137.2L209.5 131.5L194.3 127.0L189.6 128.5L174.4 121.7L137.9 112.5L134.0 104.7L127.4 101.9L141.2 97.2L147.4 91.7L163.0 89.4L173.1 82.7L177.8 82.4L181.6 77.7L192.7 70.9L198.4 65.2L206.8 61.4L214.7 64.7L200.7 78.7L197.4 83.4L197.6 91.9L204.4 85.4L216.7 86.4L226.2 90.9L234.8 103.4L239.4 105.7L248.4 103.7L250.5 106.5L259.5 108.0L278.6 97.4L288.5 96.4L301.7 96.9L310.7 93.4L317.5 93.2L318.8 106.0L325.8 107.7L332.8 105.7L335.8 108.7L340.4 105.0L350.7 103.7L350.9 119.7L355.6 126.5L362.6 128.2L363.4 123.7L370.2 123.7L373.9 128.5L370.8 132.0L351.3 129.0L342.0 131.0L331.9 125.5L329.0 130.5L330.3 134.7L325.8 133.7L319.2 127.5L307.7 123.7L301.9 123.5L296.3 129.5L286.9 131.0L276.8 129.7L272.7 132.2L271.7 137.2L260.7 141.5L261.2 135.5L256.4 134.2L254.4 140.5L246.3 140.7L242.6 143.5L237.1 154.2L227.0 168.0L227.8 169.3Z M184.6 37.6L175.6 43.4L170.9 44.1L171.3 39.4L193.7 28.6L189.4 36.1L184.6 37.6Z" fill="#d9c79c" stroke="#b7a276" stroke-width="0.8"/><path d="M70.5 95.7L67.8 93.7L60.6 97.4L60.6 124.5L58.5 127.2L48.4 131.0L40.2 140.7L39.6 147.2L43.7 147.7L48.2 153.5L44.1 160.5L44.9 168.3L42.3 185.0L51.7 193.3L59.1 194.0L62.8 199.0L73.6 204.0L75.4 210.0L85.5 217.8L91.2 219.5L98.0 229.6L97.0 236.8L98.9 242.1L93.5 242.1L-87.1 242.1L-87.1 160.0L-95.3 154.7L-101.5 146.0L-91.8 136.2L-91.0 131.0L-92.3 112.7L-96.6 108.0L-99.5 97.9L-99.0 85.7L-100.3 83.7L-101.5 54.4L-108.5 38.9L-111.2 30.1L-112.4 11.6L-110.0 5.4L-114.7 -9.1L-41.0 -9.1L-41.0 -26.7L-34.0 -26.2L-29.3 -22.7L-24.6 1.1L-20.9 3.9L-9.2 4.6L-7.9 6.9L5.7 7.9L7.3 12.9L19.0 11.6L19.0 9.6L28.1 7.1L36.1 8.1L45.2 11.9L47.8 16.6L53.0 16.1L57.9 26.4L60.2 22.1L69.2 20.1L70.7 24.4L81.2 27.4L81.2 31.4L86.5 34.6L97.2 32.9L103.6 28.4L112.4 25.6L115.5 32.4L121.5 30.9L128.7 32.4L137.1 31.4L146.6 37.1L155.8 36.1L155.0 38.6L143.1 44.4L126.6 48.9L115.9 53.7L100.5 65.4L93.9 72.7L83.8 80.9L67.8 91.9L70.5 95.7Z" fill="#d9c79c" stroke="#b7a276" stroke-width="0.8"/><path d="M196.4 630.7L206.0 630.7L209.7 635.4L204.6 685.5L196.4 772.3L199.2 842.1L195.3 844.1L186.7 843.1L183.2 840.1L174.6 842.1L162.8 847.3L159.1 850.6L154.8 845.8L153.4 838.3L147.6 828.3L151.1 813.3L84.0 813.3L86.5 810.1L84.0 801.0L88.2 800.5L88.8 783.8L92.3 784.8L94.5 774.5L102.8 768.0L107.1 757.5L106.3 744.0L101.1 738.2L101.5 729.0L104.0 727.0L100.7 721.7L103.4 715.5L101.5 706.0L104.6 702.2L98.4 696.2L104.0 682.2L110.4 674.9L108.3 669.9L115.7 662.4L115.5 659.4L121.9 656.9L121.3 647.9L125.0 645.9L127.6 638.2L133.2 634.7L131.1 630.7L196.4 630.7Z" fill="#d9c79c" stroke="#b7a276" stroke-width="0.8"/><path d="M77.0 374.2L80.7 373.9L87.9 383.2L91.7 384.7L88.6 391.2L89.0 400.5L93.5 414.5L104.4 426.2L116.3 436.0L118.6 451.0L121.3 453.8L125.4 449.5L133.2 451.5L138.3 454.8L134.8 460.3L135.7 464.5L129.7 476.3L129.5 483.5L140.0 492.8L143.9 498.8L147.8 497.8L159.3 507.5L159.3 514.6L162.2 523.3L159.3 526.3L167.2 539.3L172.9 539.8L170.0 558.3L164.7 556.3L162.8 562.1L160.4 562.1L158.5 562.1L158.7 573.4L151.7 584.9L128.7 584.9L134.4 576.4L139.8 570.9L136.7 562.1L-16.8 561.8L-21.9 561.8L-21.9 539.1L-21.7 440.5L-29.3 438.2L-34.9 427.5L-39.4 423.0L-31.4 409.7L-42.9 406.2L-46.4 402.0L-55.2 389.9L-62.8 375.2L-22.5 375.9L26.4 375.4L77.0 374.2Z" fill="#d9c79c" stroke="#b7a276" stroke-width="0.8"/><path d="M-216.3 539.1L-21.9 539.1L-21.9 561.8L-15.3 612.4L-17.2 692.7L-30.8 687.7L-34.3 682.4L-43.5 677.9L-45.8 681.9L-55.0 681.7L-56.9 679.2L-65.3 683.7L-68.8 681.2L-76.4 683.4L-83.4 690.5L-86.1 686.5L-93.5 683.2L-101.3 683.2L-103.8 677.9L-112.8 688.2L-115.7 682.4L-119.8 684.2L-122.9 680.4L-131.3 676.9L-137.5 682.9L-140.2 676.7L-145.3 675.9L-148.2 670.9L-155.0 668.9L-159.5 673.2L-162.4 669.4L-169.4 669.9L-177.2 665.9L-184.4 666.4L-186.9 657.7L-198.2 657.2L-202.5 658.7L-210.5 649.9L-213.2 650.4L-213.2 561.8L-277.6 561.8L-319.8 561.8L-319.8 539.1L-285.8 539.3L-216.3 539.1Z" fill="#d9c79c" stroke="#b7a276" stroke-width="0.8"/><path d="M-277.6 561.8L-213.2 561.8L-213.2 650.4L-202.5 658.7L-198.2 657.2L-186.9 657.7L-184.4 666.4L-177.2 665.9L-169.4 669.9L-162.4 669.4L-155.0 668.9L-148.2 670.9L-145.3 675.9L-140.2 676.7L-137.5 682.9L-131.3 676.9L-122.9 680.4L-119.8 684.2L-115.7 682.4L-112.8 688.2L-103.8 677.9L-101.3 683.2L-93.5 683.2L-86.1 686.5L-76.4 683.4L-68.8 681.2L-56.9 679.2L-45.8 681.9L-34.3 682.4L-30.8 687.7L-17.2 692.7L-13.5 697.0L-6.5 694.7L-1.5 696.7L-1.5 721.0L-1.5 767.8L6.3 777.8L6.5 787.8L16.2 806.3L16.8 816.1L13.1 827.8L9.6 832.6L10.8 838.8L8.3 843.6L11.0 852.3L2.6 868.6L5.7 873.1L-0.1 873.4L-18.6 879.6L-25.2 876.1L-26.4 868.6L-31.0 873.9L-36.1 879.1L-32.4 881.9L-31.8 890.4L-38.4 899.4L-49.1 910.6L-70.5 922.7L-79.1 923.7L-88.1 922.9L-92.1 917.1L-85.3 930.2L-92.1 933.9L-98.6 931.7L-99.5 939.9L-107.5 948.4L-115.7 964.2L-120.9 980.7L-125.8 985.5L-123.7 996.0L-126.6 1003.2L-123.3 1007.0L-122.3 1020.7L-118.4 1025.5L-117.4 1034.3L-114.3 1042.0L-125.2 1046.8L-129.7 1040.8L-138.1 1038.5L-149.2 1039.0L-158.7 1031.5L-165.9 1030.7L-171.3 1024.7L-178.7 1022.7L-183.8 1017.0L-187.1 1003.2L-193.5 995.0L-192.7 988.0L-195.7 980.5L-194.7 973.9L-199.2 966.7L-208.9 959.4L-210.8 951.2L-216.1 943.7L-223.7 937.4L-227.4 923.7L-230.9 919.9L-235.6 908.9L-237.1 899.9L-241.6 893.4L-249.2 887.6L-257.9 880.1L-263.4 870.1L-278.9 867.9L-288.3 868.4L-296.3 864.9L-306.6 871.1L-313.0 880.6L-316.9 895.9L-323.9 905.1L-329.7 905.4L-338.5 898.4L-360.5 887.1L-364.8 881.1L-373.3 875.4L-379.4 862.4L-379.7 850.6L-385.8 841.1L-387.1 832.8L-391.0 827.6L-404.9 819.8L-412.2 809.3L-418.3 805.6L-424.7 796.5L-433.6 791.8L-439.9 779.8L-445.1 777.3L-449.2 772.0L-322.1 767.5L-322.1 721.7L-321.4 675.4L-321.2 561.8L-277.6 561.8Z" fill="#d9c79c" stroke="#b7a276" stroke-width="0.8"/><path d="M127.4 101.9L134.0 104.7L137.9 112.5L174.4 121.7L189.6 128.5L194.3 127.0L209.5 131.5L213.6 137.2L221.0 142.7L220.6 150.7L217.3 157.0L225.6 158.0L222.3 164.5L227.8 169.3L226.4 174.8L219.6 175.8L213.8 186.3L211.6 193.5L215.7 194.8L221.1 190.0L227.0 181.0L234.4 177.5L240.2 166.0L247.6 163.5L247.0 169.5L242.0 175.0L232.0 194.0L229.3 204.5L229.5 212.0L225.8 214.5L222.5 224.8L223.7 233.6L220.6 239.3L216.3 253.6L217.3 264.8L221.5 274.8L220.2 288.1L185.2 288.1L119.4 287.4L116.8 281.6L104.2 276.3L101.5 269.1L100.3 258.8L104.6 253.3L99.3 248.8L98.9 242.1L97.0 236.8L98.0 229.6L91.2 219.5L85.5 217.8L75.4 210.0L73.6 204.0L62.8 199.0L59.1 194.0L51.7 193.3L42.3 185.0L44.9 168.3L44.1 160.5L48.2 153.5L43.7 147.7L39.6 147.2L40.2 140.7L48.4 131.0L58.5 127.2L60.6 124.5L60.6 97.4L67.8 93.7L70.5 95.7L78.5 96.2L103.2 88.4L112.4 84.2L115.5 87.4L110.6 93.4L122.3 101.2L127.4 101.9Z" fill="#d9c79c" stroke="#b7a276" stroke-width="0.8"/><path d="M1354.3 -214.1L1359.7 -212.4L1357.4 -212.8L1358.1 -210.8L1356.6 -211.0L1357.2 -209.8L1351.1 -212.2L1354.3 -214.1Z M1369.0 -90.6L1365.8 -86.9L1362.4 -88.0L1363.6 -91.0L1364.7 -90.1L1369.2 -91.6L1369.0 -90.6Z M1418.3 -42.8L1421.8 -38.8L1412.0 -35.0L1410.7 -35.7L1410.4 -39.8L1412.1 -39.9L1411.1 -41.9L1413.5 -42.1L1414.3 -40.0L1415.9 -43.3L1418.3 -42.8Z M1402.3 -38.1L1400.7 -34.7L1395.3 -33.3L1394.9 -31.5L1390.2 -31.4L1392.5 -32.8L1389.8 -34.1L1389.5 -36.1L1393.0 -36.7L1393.2 -34.6L1394.7 -34.0L1398.9 -38.1L1399.1 -36.7L1402.1 -39.5L1402.3 -38.1Z M1436.7 27.8L1438.6 27.5L1438.5 29.9L1437.0 31.7L1437.8 32.1L1434.2 33.1L1426.3 32.1L1423.4 28.2L1424.5 26.9L1426.5 29.2L1429.5 28.6L1432.2 29.8L1436.7 27.8Z M1352.7 51.3L1352.6 53.0L1354.5 54.3L1353.6 54.7L1346.1 52.8L1352.7 51.3Z M1416.7 53.0L1412.5 64.0L1408.2 63.7L1411.9 60.5L1413.9 57.3L1412.6 56.7L1415.0 53.9L1415.1 55.5L1416.4 51.7L1416.7 53.0Z M1043.4 -528.0L1037.8 -529.5L1035.1 -532.2L1035.5 -533.3L1043.1 -533.8L1047.2 -530.6L1047.0 -528.8L1049.1 -530.2L1050.7 -530.0L1050.7 -528.7L1048.9 -527.0L1050.8 -524.6L1043.4 -528.0Z M1046.9 -525.5L1052.2 -522.6L1044.1 -524.9L1038.9 -522.2L1046.2 -523.7L1051.5 -521.7L1048.6 -517.0L1043.6 -514.9L1036.5 -511.1L1044.4 -514.0L1049.7 -514.4L1045.0 -511.8L1051.7 -510.4L1048.1 -506.7L1053.0 -508.1L1057.9 -511.5L1056.6 -505.8L1061.4 -506.9L1059.6 -501.9L1067.4 -497.5L1061.5 -489.7L1066.0 -494.6L1070.7 -493.5L1066.6 -489.1L1070.4 -491.9L1075.7 -489.5L1073.0 -485.0L1065.9 -484.9L1074.3 -483.7L1072.8 -477.0L1078.3 -482.6L1082.4 -478.1L1087.9 -479.0L1085.0 -474.8L1081.8 -469.8L1074.1 -468.2L1068.2 -469.7L1064.2 -466.9L1069.5 -468.6L1082.7 -467.4L1088.2 -470.6L1097.0 -468.5L1089.5 -467.1L1095.3 -465.1L1089.9 -459.4L1095.8 -460.2L1101.6 -460.8L1104.8 -456.4L1100.0 -452.6L1106.1 -452.8L1104.4 -447.7L1095.4 -443.3L1085.8 -444.0L1080.5 -434.0L1092.0 -441.5L1098.2 -441.2L1108.4 -442.8L1116.0 -443.1L1114.9 -437.5L1106.4 -432.3L1113.5 -432.7L1098.8 -427.2L1093.9 -423.2L1089.3 -419.4L1096.8 -420.2L1107.2 -426.9L1111.7 -426.8L1116.6 -427.8L1120.8 -428.3L1118.9 -422.8L1123.8 -425.4L1118.2 -420.6L1113.0 -417.1L1120.7 -418.8L1125.1 -416.0L1129.6 -416.1L1134.8 -415.6L1137.1 -409.9L1140.7 -405.2L1135.1 -401.5L1127.3 -399.0L1117.6 -397.5L1124.0 -393.8L1131.0 -395.8L1140.8 -393.4L1141.8 -387.7L1136.4 -385.7L1140.6 -384.3L1145.0 -383.4L1149.9 -385.2L1156.8 -381.4L1160.1 -375.8L1155.1 -373.8L1149.7 -369.3L1140.3 -365.3L1147.5 -362.3L1143.2 -361.2L1149.1 -358.5L1139.7 -358.4L1119.2 -364.6L1127.0 -366.7L1135.2 -367.0L1117.6 -367.2L1139.9 -357.3L1129.0 -356.8L1138.9 -355.4L1147.1 -355.1L1135.3 -352.0L1139.4 -348.9L1144.4 -346.9L1151.5 -342.1L1143.6 -342.9L1149.1 -341.2L1144.8 -340.6L1134.2 -342.0L1139.8 -338.6L1149.2 -339.2L1160.0 -339.1L1160.5 -333.5L1156.4 -331.5L1164.0 -330.9L1154.6 -329.3L1159.1 -328.0L1168.3 -327.4L1168.8 -321.9L1181.1 -322.1L1174.4 -317.6L1181.1 -316.6L1185.0 -320.8L1186.9 -315.4L1183.9 -309.0L1190.1 -319.9L1195.1 -318.0L1190.4 -313.3L1192.1 -306.1L1195.9 -309.7L1191.9 -303.6L1196.2 -305.5L1200.8 -305.1L1195.4 -301.3L1191.4 -296.7L1186.2 -290.9L1191.4 -294.1L1195.6 -294.7L1191.4 -291.9L1184.2 -285.3L1190.9 -288.1L1202.3 -296.3L1207.2 -295.4L1201.3 -287.7L1197.6 -284.1L1204.5 -289.5L1207.3 -294.0L1215.8 -298.3L1217.5 -292.3L1212.8 -290.3L1217.6 -289.8L1224.5 -290.9L1217.5 -281.8L1213.7 -277.7L1210.0 -271.8L1215.4 -273.5L1222.1 -281.2L1228.1 -286.4L1233.3 -291.9L1237.8 -294.1L1234.5 -287.9L1229.9 -282.0L1234.6 -284.9L1239.0 -288.9L1243.7 -288.7L1242.0 -283.0L1247.3 -281.1L1243.0 -278.2L1247.6 -279.4L1251.4 -276.4L1260.7 -274.3L1264.7 -271.3L1272.1 -273.9L1279.1 -270.2L1284.2 -271.3L1291.1 -266.3L1298.6 -267.3L1302.2 -264.0L1289.5 -258.9L1299.6 -258.3L1291.1 -254.8L1273.9 -254.3L1269.7 -251.8L1275.6 -252.4L1270.4 -250.7L1263.2 -248.5L1253.3 -244.2L1246.5 -243.9L1230.2 -239.7L1223.1 -239.8L1233.7 -238.5L1254.6 -243.3L1265.6 -248.1L1257.4 -239.5L1242.2 -238.8L1246.4 -238.1L1239.4 -235.1L1227.1 -229.8L1214.2 -230.4L1203.3 -227.4L1207.4 -224.0L1203.7 -219.8L1194.1 -222.3L1179.2 -227.1L1174.8 -225.2L1179.4 -224.9L1188.9 -222.9L1198.1 -217.4L1206.3 -214.5L1196.2 -209.6L1201.8 -207.6L1193.9 -204.0L1198.7 -204.1L1203.9 -204.2L1207.1 -208.1L1211.2 -212.7L1215.6 -213.7L1222.0 -216.1L1230.4 -221.5L1235.9 -223.5L1240.9 -223.1L1247.9 -232.5L1274.4 -242.0L1286.5 -240.7L1273.4 -243.8L1267.4 -241.6L1273.0 -248.4L1291.2 -246.7L1299.4 -245.9L1304.1 -237.8L1309.5 -234.6L1311.9 -229.5L1295.0 -218.9L1301.2 -219.6L1303.7 -214.6L1309.7 -217.0L1314.1 -224.4L1325.1 -226.2L1333.6 -227.6L1324.3 -222.7L1333.0 -220.3L1338.2 -220.6L1349.1 -218.2L1340.8 -216.6L1349.0 -212.9L1353.2 -209.9L1356.8 -205.2L1358.5 -200.0L1352.1 -197.0L1344.2 -193.2L1348.7 -192.1L1354.0 -190.5L1357.1 -184.5L1350.5 -183.0L1344.4 -183.6L1348.2 -181.0L1351.5 -177.2L1358.4 -176.6L1352.3 -175.4L1345.7 -175.9L1351.0 -174.5L1346.9 -172.3L1341.7 -171.0L1332.5 -173.3L1341.4 -170.4L1346.3 -171.2L1351.1 -169.1L1358.9 -168.9L1362.7 -166.2L1357.2 -163.8L1343.2 -166.1L1356.4 -161.0L1360.0 -157.7L1361.1 -150.8L1355.7 -146.3L1345.9 -139.8L1334.7 -134.6L1325.9 -129.8L1321.4 -124.6L1316.9 -123.0L1310.9 -119.4L1311.0 -146.2L1301.5 -146.2L1074.7 -146.2L1078.7 -148.0L1068.0 -158.3L1065.4 -163.9L1066.9 -172.3L1071.6 -174.4L1088.0 -175.9L1080.2 -181.4L1082.2 -190.5L1078.9 -196.2L1068.6 -195.4L1066.5 -188.8L1059.7 -185.1L1058.7 -176.9L1058.5 -171.3L1063.0 -163.2L1061.8 -153.1L1056.7 -152.0L1056.1 -146.3L1053.2 -139.4L1056.5 -134.3L1050.2 -131.0L1045.2 -126.0L1040.9 -132.2L1044.8 -136.9L1035.8 -143.0L1026.5 -154.0L1014.2 -155.7L1010.2 -148.3L1003.4 -151.3L997.8 -148.5L992.5 -151.6L988.6 -156.3L985.0 -160.4L982.9 -152.4L979.2 -155.4L977.5 -160.5L982.1 -164.8L978.9 -170.4L979.4 -178.5L981.4 -184.4L982.5 -190.7L977.9 -193.4L971.8 -189.4L971.1 -179.4L965.9 -176.5L956.9 -178.1L956.5 -189.5L960.0 -193.1L959.6 -200.8L962.5 -207.4L956.9 -209.4L954.2 -216.6L941.8 -219.5L944.0 -227.4L938.4 -231.0L933.1 -237.6L936.6 -245.6L942.1 -248.3L938.1 -254.3L936.8 -259.5L941.8 -264.1L948.4 -260.6L951.5 -265.3L958.0 -266.0L951.7 -268.1L948.4 -273.4L943.2 -284.1L949.6 -286.3L958.3 -278.6L961.2 -274.2L968.6 -271.0L973.3 -273.7L970.7 -278.4L967.6 -288.1L970.3 -292.6L964.8 -298.1L970.4 -297.0L974.3 -294.7L986.3 -282.9L993.6 -279.1L999.9 -279.0L1005.8 -270.2L1014.6 -271.6L1026.0 -269.3L1037.0 -271.8L1046.3 -270.5L1051.5 -271.9L1066.7 -266.2L1077.6 -265.5L1085.9 -282.0L1081.3 -286.0L1082.9 -291.6L1095.1 -296.8L1095.1 -302.4L1090.8 -307.2L1085.5 -310.6L1076.0 -322.5L1085.6 -330.0L1073.3 -330.7L1065.2 -332.4L1070.2 -338.9L1062.8 -340.8L1061.8 -346.8L1066.8 -347.8L1067.8 -354.0L1061.3 -361.4L1066.2 -364.8L1070.4 -369.0L1070.4 -377.7L1073.2 -382.2L1071.7 -389.5L1076.2 -391.6L1074.3 -396.7L1075.8 -402.1L1079.8 -404.9L1074.2 -408.1L1069.7 -408.0L1065.6 -411.8L1058.3 -419.3L1050.5 -424.2L1058.4 -431.1L1060.3 -436.2L1072.3 -441.8L1065.1 -444.1L1064.1 -451.2L1081.0 -453.0L1080.5 -459.0L1074.2 -460.2L1065.9 -457.7L1060.3 -454.4L1056.7 -459.1L1045.7 -460.8L1040.3 -463.5L1034.7 -462.7L1040.3 -469.2L1051.1 -465.1L1055.5 -466.8L1048.4 -470.8L1047.8 -477.4L1046.8 -483.1L1053.8 -488.7L1041.0 -486.4L1036.5 -490.3L1038.4 -497.9L1036.9 -503.4L1042.4 -506.4L1035.8 -510.0L1040.9 -514.6L1043.2 -519.8L1038.6 -519.7L1035.5 -523.6L1046.9 -525.5Z M1064.2 -504.8L1064.7 -502.7L1063.2 -502.0L1067.3 -500.5L1066.0 -499.0L1061.1 -497.8L1060.1 -498.1L1060.7 -499.2L1058.6 -499.5L1059.2 -501.1L1061.3 -500.6L1060.4 -502.0L1061.5 -504.8L1064.2 -504.8Z M1141.0 -414.2L1141.1 -411.8L1138.8 -410.6L1133.0 -412.5L1137.1 -416.2L1139.5 -416.1L1139.1 -414.5L1141.0 -414.2Z M1149.2 -409.8L1147.7 -407.2L1145.1 -407.4L1143.1 -410.2L1140.6 -409.3L1144.8 -413.2L1147.6 -412.6L1146.7 -410.4L1148.4 -411.0L1149.2 -409.8Z M1139.5 -395.3L1136.2 -398.4L1137.8 -401.2L1139.4 -401.4L1138.8 -399.7L1140.6 -401.4L1144.7 -399.7L1144.6 -397.8L1139.5 -395.3Z M1149.6 -398.5L1147.9 -397.3L1149.5 -396.7L1148.5 -395.8L1144.4 -395.6L1143.1 -394.3L1147.8 -394.8L1150.6 -393.7L1149.4 -392.6L1140.5 -394.6L1144.7 -396.8L1146.3 -399.1L1149.6 -398.5Z M1159.8 -370.5L1158.1 -369.1L1159.6 -367.7L1156.9 -366.2L1156.5 -367.4L1154.9 -367.2L1154.6 -365.7L1151.7 -363.9L1158.7 -364.4L1159.4 -360.3L1158.1 -359.2L1158.6 -357.2L1156.6 -357.3L1149.6 -362.5L1150.0 -368.2L1153.5 -370.2L1153.9 -372.0L1155.8 -372.7L1157.2 -371.4L1160.3 -371.6L1159.8 -370.5Z M1152.6 -354.1L1160.9 -352.3L1159.7 -350.5L1166.3 -350.7L1164.5 -349.5L1167.2 -349.1L1155.6 -350.3L1154.6 -348.9L1150.1 -350.2L1150.1 -351.3L1157.6 -351.0L1150.0 -352.1L1152.2 -352.6L1151.1 -354.2L1152.6 -354.1Z M1153.0 -346.8L1155.6 -347.5L1157.8 -345.9L1156.0 -344.7L1157.7 -343.7L1155.3 -343.1L1148.1 -345.1L1144.2 -347.8L1153.0 -346.8Z M1169.3 -336.7L1170.8 -336.0L1170.1 -334.6L1174.4 -333.3L1172.1 -330.5L1174.8 -329.5L1171.0 -329.2L1164.6 -331.3L1164.4 -333.4L1167.2 -333.1L1166.0 -333.8L1169.3 -336.7Z M1181.4 -325.8L1181.3 -324.8L1183.6 -325.4L1181.1 -323.5L1175.9 -323.1L1179.0 -323.7L1176.9 -324.6L1177.3 -326.8L1181.4 -325.8Z M1281.2 -279.2L1279.5 -277.2L1279.6 -274.2L1281.2 -275.4L1283.1 -274.2L1283.9 -275.6L1284.7 -274.7L1283.2 -273.7L1274.1 -272.2L1271.1 -275.7L1271.4 -277.7L1273.0 -276.6L1281.2 -279.2Z M1354.5 -94.2L1346.7 -87.6L1346.4 -95.9L1344.5 -86.4L1341.6 -78.8L1335.7 -71.9L1330.0 -62.0L1323.7 -55.9L1323.1 -47.3L1317.9 -43.3L1322.3 -42.4L1319.6 -34.1L1324.0 -39.6L1333.1 -49.9L1338.4 -56.0L1344.6 -61.7L1347.9 -58.1L1343.4 -51.3L1349.9 -56.3L1359.1 -51.3L1364.5 -53.1L1369.3 -52.9L1354.0 -43.8L1349.9 -41.9L1344.4 -37.6L1348.5 -39.7L1353.9 -41.8L1354.4 -35.9L1347.3 -31.4L1356.2 -33.1L1361.7 -30.4L1367.1 -31.4L1365.5 -25.7L1368.3 -30.6L1372.5 -32.1L1369.9 -25.4L1374.0 -27.7L1374.6 -33.3L1380.8 -33.8L1377.4 -25.0L1372.6 -16.7L1372.0 -11.0L1379.1 -14.6L1375.4 -17.7L1383.6 -22.1L1388.9 -21.7L1391.0 -27.9L1391.9 -21.4L1401.9 -33.2L1405.8 -30.6L1405.1 -24.4L1408.4 -28.6L1413.4 -28.2L1419.7 -31.1L1440.5 -20.6L1436.8 -14.8L1427.0 -10.6L1422.1 -4.2L1414.8 -0.0L1421.5 -0.5L1427.5 -1.3L1420.4 2.7L1424.9 7.0L1427.1 2.3L1431.7 5.2L1423.7 10.2L1431.3 11.0L1424.6 14.6L1420.8 17.3L1415.3 19.0L1421.4 18.2L1426.8 15.0L1433.7 11.8L1430.9 17.1L1435.9 12.6L1441.6 8.0L1445.9 10.0L1451.2 7.8L1457.5 9.2L1454.8 16.3L1449.8 20.6L1444.2 18.9L1440.8 23.8L1433.2 29.1L1423.3 26.0L1424.3 32.7L1433.1 33.6L1424.0 35.5L1429.0 36.7L1435.2 34.4L1432.1 41.1L1428.5 47.1L1423.6 43.4L1427.2 49.4L1429.7 54.4L1434.0 56.1L1438.4 54.2L1440.3 45.4L1444.1 42.7L1446.4 36.6L1451.2 33.5L1459.5 28.8L1458.3 36.2L1454.6 40.1L1449.5 48.7L1447.2 54.5L1449.4 60.8L1460.4 56.7L1464.5 45.5L1466.8 51.8L1470.2 59.4L1465.8 68.1L1461.5 77.7L1460.8 84.9L1458.9 91.9L1453.5 98.5L1447.2 94.4L1442.9 96.8L1436.7 99.9L1433.8 95.5L1437.1 88.4L1435.3 82.6L1439.0 76.6L1434.0 77.6L1429.5 80.7L1422.9 88.9L1414.4 90.3L1420.7 71.8L1425.6 66.1L1425.2 55.9L1420.9 44.8L1411.8 41.1L1413.6 46.7L1409.2 50.3L1404.8 59.6L1402.8 65.4L1406.3 54.7L1399.1 64.4L1392.1 65.6L1384.1 72.1L1383.2 78.5L1378.6 79.0L1377.5 85.5L1372.6 86.6L1367.4 86.2L1363.4 88.2L1352.5 87.1L1354.9 78.9L1368.3 76.0L1375.0 70.0L1376.2 64.1L1387.4 59.2L1391.3 55.6L1396.4 51.9L1387.4 54.8L1382.8 55.3L1387.9 46.5L1381.4 55.9L1374.3 51.7L1369.0 53.9L1371.2 59.7L1364.8 64.0L1363.3 57.5L1358.5 61.5L1352.8 62.2L1359.1 55.5L1346.4 61.1L1357.0 54.6L1363.3 51.4L1355.8 54.0L1357.2 45.7L1359.3 40.1L1355.3 45.9L1350.6 47.6L1346.3 50.6L1344.5 44.2L1345.1 51.0L1339.5 53.8L1339.1 48.0L1337.8 54.4L1325.9 53.8L1322.4 58.2L1314.8 55.6L1310.1 56.5L1303.5 55.7L1297.2 53.7L1291.7 54.9L1287.2 54.2L1282.0 52.6L1277.8 50.4L1266.5 52.8L1269.4 47.9L1263.8 53.3L1257.5 54.3L1239.3 56.9L1232.7 54.4L1233.5 47.9L1229.3 40.8L1235.8 35.2L1244.3 30.9L1258.2 16.9L1264.2 14.3L1269.6 12.9L1260.6 13.7L1254.8 11.2L1234.7 15.2L1251.5 1.0L1245.0 8.5L1250.0 10.5L1255.7 2.6L1259.7 -2.8L1261.3 -9.3L1266.5 -16.0L1272.9 -12.0L1276.9 -8.0L1282.9 -8.3L1275.2 -10.9L1281.7 -14.8L1275.8 -16.0L1281.6 -20.1L1271.9 -20.1L1271.1 -27.0L1279.1 -34.7L1282.0 -30.4L1288.0 -29.9L1285.3 -34.7L1281.0 -36.9L1293.2 -62.8L1295.9 -71.5L1301.3 -81.8L1309.2 -83.0L1304.7 -83.6L1300.4 -86.5L1306.4 -88.2L1311.4 -90.5L1315.4 -94.7L1311.4 -101.4L1318.1 -101.1L1322.2 -106.8L1325.6 -115.9L1346.2 -124.4L1354.0 -129.3L1354.5 -123.0L1363.6 -122.1L1359.4 -125.9L1363.7 -128.4L1371.3 -126.6L1366.7 -123.4L1367.6 -117.1L1358.7 -116.3L1347.1 -117.3L1349.7 -112.9L1351.4 -107.5L1355.9 -111.0L1360.4 -108.4L1356.8 -103.1L1356.5 -97.1L1354.5 -94.2Z" fill="#d9c79c" stroke="#b7a276" stroke-width="0.8"/><path d="M1048.7 40.3L1047.6 44.2L1044.4 48.0L1042.9 48.9L1041.3 47.8L1042.9 46.2L1040.9 44.6L1042.2 42.6L1044.2 41.7L1046.9 42.8L1048.7 40.3Z M886.8 68.7L903.3 62.8L910.2 56.7L910.5 40.0L919.5 39.9L937.5 36.7L946.4 43.8L952.6 41.9L957.6 39.7L964.8 36.7L982.1 33.2L1002.2 41.5L1008.0 51.6L1013.4 51.1L1021.8 45.4L1028.8 43.7L1036.6 45.2L1041.8 48.6L1037.0 51.4L1034.1 56.8L1034.6 62.5L1031.6 69.0L1017.2 78.3L1023.1 78.2L1029.4 78.0L1037.5 78.6L1034.6 85.4L1034.9 92.2L1039.1 97.6L1042.0 105.0L1043.4 112.5L1046.0 117.9L1056.9 117.2L1060.7 120.7L1066.9 119.7L1073.8 122.4L1068.7 125.5L1063.5 125.2L1060.4 129.3L1056.2 135.4L1048.8 140.6L1046.9 132.6L1041.7 128.2L1045.5 134.2L1042.0 139.3L1038.2 145.9L1033.8 144.9L1029.8 148.5L1018.7 152.7L1004.1 162.4L997.7 164.2L993.4 160.4L994.7 152.5L991.7 157.4L987.1 166.3L982.5 167.0L977.2 166.8L971.8 169.8L966.5 170.9L962.6 168.5L958.3 165.9L952.8 162.4L953.9 168.0L949.5 165.3L943.7 164.9L944.4 156.4L941.4 151.4L943.7 146.5L937.4 146.0L933.8 142.5L930.7 137.3L932.4 131.7L931.2 79.4L915.5 66.1L909.8 69.2L905.5 68.7L891.9 73.9L886.9 70.5L886.8 68.7Z" fill="#d9c79c" stroke="#b7a276" stroke-width="0.8"/><path d="M1175.7 148.7L1172.5 152.8L1171.7 152.2L1172.5 151.1L1169.9 150.6L1168.6 148.9L1171.9 147.3L1176.0 147.3L1176.8 148.2L1175.7 148.7Z M967.6 182.7L968.7 186.0L967.8 188.4L962.8 191.3L964.3 185.3L967.6 182.7Z M1186.8 119.0L1191.4 113.5L1193.2 112.9L1193.1 115.1L1185.0 123.1L1177.1 125.6L1177.8 124.3L1176.7 124.3L1173.4 128.5L1168.4 130.0L1168.0 131.4L1172.7 130.6L1176.9 126.2L1181.9 125.7L1179.4 128.9L1179.3 131.1L1170.1 132.8L1170.9 133.2L1169.3 134.9L1173.6 133.2L1175.4 134.9L1173.5 134.5L1174.6 136.1L1172.1 136.1L1168.3 138.7L1167.4 141.8L1169.9 142.1L1175.5 139.2L1179.6 141.3L1178.0 144.3L1181.0 142.1L1181.9 142.8L1181.4 139.7L1182.4 137.6L1193.9 128.1L1183.6 133.1L1180.1 130.4L1197.2 118.3L1197.5 117.3L1194.7 117.7L1188.5 123.2L1184.7 124.8L1195.6 113.7L1197.9 113.2L1200.8 117.2L1197.7 120.9L1199.5 120.0L1200.9 121.4L1201.1 118.7L1203.3 116.6L1206.5 117.5L1205.3 118.8L1209.7 118.7L1210.1 121.0L1214.7 120.5L1212.0 123.9L1214.8 123.1L1209.4 127.0L1214.3 128.0L1214.4 131.2L1208.9 132.4L1208.2 134.0L1203.4 134.0L1202.3 135.4L1205.4 137.2L1201.8 138.7L1199.7 141.6L1184.1 147.8L1177.7 146.0L1177.0 144.4L1166.5 148.4L1167.3 147.1L1164.7 145.9L1162.3 148.8L1156.3 141.4L1153.0 126.8L1155.3 124.9L1156.9 120.6L1162.4 117.0L1169.3 107.0L1171.3 102.3L1170.4 100.7L1171.2 99.2L1172.0 100.9L1176.3 92.6L1183.0 87.2L1185.2 82.2L1187.0 80.7L1190.6 82.5L1193.9 81.2L1194.3 82.4L1190.3 87.0L1192.0 86.9L1192.2 88.6L1196.4 88.2L1197.3 89.7L1195.7 96.6L1193.9 97.5L1195.4 98.3L1194.3 98.9L1195.7 100.2L1187.1 116.3L1186.8 119.0Z M1064.4 128.3L1069.0 128.8L1072.8 133.1L1077.2 134.8L1084.3 133.5L1093.1 136.7L1087.9 138.6L1094.8 138.3L1099.1 139.1L1113.0 138.5L1109.4 142.9L1113.8 144.9L1120.1 143.7L1128.0 141.2L1139.9 133.1L1141.1 142.2L1146.7 145.2L1152.4 142.8L1160.6 148.9L1163.6 153.2L1155.4 156.8L1163.3 158.3L1173.5 158.9L1169.7 163.6L1165.2 162.4L1159.7 164.0L1151.3 167.1L1143.3 168.8L1139.3 171.5L1135.1 173.3L1128.4 175.5L1124.9 178.7L1120.7 181.4L1115.2 181.0L1108.5 183.7L1103.9 185.8L1099.4 184.0L1096.3 187.8L1091.3 190.6L1087.1 190.0L1078.0 186.6L1081.4 190.4L1082.9 196.1L1079.0 199.4L1074.3 196.6L1068.3 195.8L1069.9 187.7L1063.8 190.1L1065.6 195.8L1059.8 192.5L1055.1 193.6L1053.2 199.1L1058.4 202.8L1053.6 203.0L1057.4 205.9L1050.6 203.8L1048.3 212.9L1044.0 213.2L1040.5 216.9L1035.8 222.9L1033.7 228.4L1028.9 227.2L1027.7 233.0L1021.9 228.5L1020.2 234.4L1018.3 239.9L1014.3 237.6L1013.2 243.8L1010.1 238.9L1004.6 242.0L1002.8 233.5L999.8 228.2L995.4 226.4L994.1 233.4L990.0 228.4L989.5 218.8L990.0 208.8L1000.5 193.1L988.0 201.8L991.2 196.4L1002.5 187.7L1006.0 191.1L1015.1 183.8L1004.7 188.8L1035.3 167.2L1050.4 161.8L1053.3 166.1L1060.3 171.0L1060.4 164.8L1071.0 161.3L1082.2 158.4L1088.6 157.1L1074.6 155.4L1070.0 157.6L1063.4 154.9L1052.2 156.9L1045.9 154.8L1041.0 156.8L1032.6 158.7L1049.6 142.8L1052.5 137.4L1060.4 129.3L1064.4 128.3Z" fill="#d9c79c" stroke="#b7a276" stroke-width="0.8"/><path d="M1066.3 109.9L1061.1 108.9L1062.1 107.6L1061.8 103.5L1063.8 101.9L1063.3 98.9L1061.1 100.9L1057.9 99.2L1052.1 99.6L1051.1 96.8L1057.8 86.5L1065.9 79.4L1067.0 87.2L1062.6 92.3L1063.5 93.7L1066.8 94.0L1066.6 95.3L1070.1 98.4L1069.3 100.3L1071.8 99.7L1071.8 101.5L1068.1 106.1L1071.9 104.3L1072.6 105.3L1071.5 106.7L1076.2 107.9L1076.5 106.6L1075.1 105.3L1076.5 104.4L1075.7 103.1L1078.4 102.0L1084.0 103.9L1083.7 105.6L1085.2 106.8L1086.4 105.3L1085.2 104.6L1090.0 105.4L1092.9 109.7L1093.9 108.3L1116.1 108.5L1112.3 107.1L1120.0 106.1L1131.0 105.7L1138.0 107.0L1130.8 112.0L1126.8 110.7L1127.3 112.5L1124.2 111.7L1125.0 113.7L1122.7 113.9L1124.2 115.0L1123.7 115.9L1119.3 115.5L1121.4 116.4L1121.8 118.1L1116.1 117.3L1119.2 119.6L1116.0 118.5L1116.7 119.4L1115.5 119.8L1118.0 120.3L1117.7 122.3L1119.9 122.4L1118.7 121.4L1120.1 121.1L1121.1 123.8L1116.5 126.3L1120.6 127.6L1110.4 130.3L1105.6 128.1L1103.7 125.8L1105.1 124.9L1100.3 125.1L1104.2 123.7L1106.1 121.8L1105.5 120.8L1102.9 122.0L1103.4 119.2L1101.9 119.0L1102.0 120.0L1097.1 118.2L1102.7 113.3L1097.0 117.1L1094.5 115.6L1095.3 117.7L1091.7 119.0L1093.6 119.6L1095.3 118.3L1096.4 119.4L1092.1 121.6L1084.3 118.0L1080.4 118.2L1076.6 116.5L1072.5 112.7L1073.5 112.4L1073.0 110.9L1076.0 111.7L1074.2 110.5L1074.9 109.9L1069.8 109.8L1068.4 108.5L1066.3 109.9Z" fill="#d9c79c" stroke="#b7a276" stroke-width="0.8"/><path d="M-284.3 -511.7L-214.6 -511.7L-199.9 -511.7L-28.4 -511.7L-27.3 -501.7L-29.1 -495.1L-25.9 -486.4L-27.5 -479.4L-28.2 -470.0L-33.2 -469.9L-28.6 -468.8L-24.2 -464.7L-26.5 -458.4L-20.8 -460.3L-17.1 -457.4L-11.6 -453.3L-7.2 -457.0L-7.2 -451.3L-10.9 -446.1L-10.2 -440.3L-12.9 -430.3L-8.1 -438.4L-8.7 -447.1L-5.0 -453.8L17.7 -455.5L21.3 -452.3L30.1 -454.0L31.3 -443.6L38.0 -430.0L42.5 -422.9L44.4 -413.9L49.7 -404.3L55.0 -394.8L55.4 -385.2L50.6 -377.2L45.6 -372.2L39.9 -370.4L46.5 -371.6L55.3 -376.7L63.5 -377.3L54.5 -371.5L64.7 -376.0L106.5 -386.6L126.1 -383.5L142.1 -375.4L171.3 -368.6L166.8 -357.6L112.1 -313.8L57.3 -266.3L49.7 -259.4L25.9 -237.5L12.4 -224.9L-40.9 -183.9L-41.0 -35.5L-41.0 -29.8L-41.1 -9.1L-85.5 -9.1L-114.7 -9.1L-139.9 -9.1L-177.6 -9.1L-196.6 -9.1L-219.8 -9.1L-261.8 -9.1L-261.8 -17.2L-262.9 -33.5L-263.8 -49.7L-264.8 -65.9L-265.9 -81.8L-267.0 -98.2L-268.8 -144.9L-270.5 -160.9L-271.4 -176.9L-273.6 -208.7L-276.1 -237.7L-277.5 -256.6L-279.0 -262.0L-279.0 -272.6L-280.1 -288.6L-281.6 -304.6L-283.1 -313.9L-284.3 -321.2L-284.3 -339.0L-284.3 -345.7L-284.3 -375.2L-284.3 -386.5L-284.3 -397.3L-284.3 -414.3L-284.3 -421.9L-284.3 -508.0L-284.3 -511.7Z" fill="#d9c79c" stroke="#b7a276" stroke-width="0.8"/><path d="M827.7 262.3L823.4 259.1L824.0 254.6L818.4 249.3L816.0 189.3L814.3 159.7L829.6 153.5L827.1 150.2L832.9 143.2L839.0 140.0L837.8 137.2L843.5 133.0L841.7 125.0L845.2 113.0L850.7 109.0L852.8 96.2L880.2 61.2L886.7 62.7L887.0 71.2L891.7 74.2L903.2 69.2L910.4 69.2L915.5 65.9L925.4 73.2L931.2 79.2L931.6 130.5L930.8 142.7L943.1 146.0L941.3 151.2L944.4 156.2L941.9 160.7L947.0 167.8L953.6 166.3L960.0 182.5L952.6 189.8L948.3 187.0L944.8 192.0L939.8 190.8L939.2 195.0L932.6 194.5L922.1 204.3L919.5 197.5L915.8 197.0L917.6 204.3L909.4 207.8L907.5 202.0L903.6 205.0L894.4 205.0L894.2 198.3L888.8 199.8L889.8 204.5L884.7 214.5L885.7 217.3L879.1 222.8L872.4 220.8L868.6 226.6L863.1 227.3L858.6 232.1L853.2 231.1L851.6 226.1L843.6 234.1L845.8 239.1L840.0 240.8L839.6 245.1L832.9 250.3L827.7 262.3Z" fill="#e3d3a8"/><path d="M814.3 159.7L816.0 189.3L818.4 249.3L824.0 254.6L823.4 259.1L827.7 262.3L823.6 270.8L820.1 270.1L810.6 274.6L806.7 278.9L765.4 277.3L762.3 273.8L762.7 267.1L765.8 264.6L765.4 258.1L768.1 238.8L774.4 229.8L777.5 219.5L780.6 215.8L780.4 204.5L792.3 200.3L798.1 192.5L794.8 185.0L799.7 177.5L799.3 173.0L804.3 161.2L812.5 162.5L814.3 159.7Z" fill="#e3d3a8"/><path d="M820.1 270.1L823.6 270.8L825.0 278.9L823.4 285.4L817.8 291.4L817.6 298.4L825.4 299.4L830.0 306.6L829.2 312.4L833.1 313.9L833.5 319.1L843.5 323.6L854.9 319.4L852.4 325.6L835.5 331.1L829.2 331.4L825.6 327.1L819.7 328.4L819.5 331.6L812.9 333.6L810.2 325.4L809.2 323.9L805.5 320.6L803.6 309.9L798.3 309.9L788.8 310.4L788.8 309.6L744.2 308.9L728.8 308.4L728.1 306.6L736.6 276.6L765.4 277.3L806.7 278.9L810.6 274.6L820.1 270.1Z" fill="#e3d3a8"/><path d="M810.2 325.4L812.9 333.6L805.9 334.6L810.2 325.4Z M798.3 309.9L803.6 309.9L805.5 320.6L809.2 323.9L804.9 323.1L801.2 329.9L800.1 339.4L786.6 341.7L788.8 337.4L788.8 310.4L798.3 309.9Z" fill="#e3d3a8"/><path d="M744.2 308.9L788.8 309.6L788.8 310.4L788.8 337.4L786.6 341.7L783.5 340.9L768.0 344.4L749.5 343.4L741.5 349.7L732.9 351.7L722.8 356.9L720.3 351.7L729.0 346.7L726.5 342.9L728.8 308.4L744.2 308.9Z" fill="#e3d3a8"/><path d="M733.9 173.0L734.3 182.5L732.3 191.0L735.6 199.3L734.7 208.0L730.6 217.3L733.7 229.8L731.8 233.6L737.4 241.1L736.2 272.6L736.6 276.6L728.1 306.6L728.8 308.4L726.5 342.9L729.0 346.7L720.3 351.7L722.8 356.9L738.0 360.7L741.1 357.9L754.1 357.9L760.8 356.4L771.6 349.2L772.4 354.4L778.1 356.7L765.0 363.4L737.6 373.4L726.1 375.4L718.5 374.9L712.9 377.2L709.8 369.7L714.0 356.4L702.2 349.9L685.8 339.9L684.3 336.6L678.8 336.4L672.4 328.6L673.2 321.9L668.9 316.6L666.2 316.9L662.3 310.6L505.8 310.6L505.8 299.1L505.8 298.4L527.6 285.4L531.1 279.1L538.1 274.8L535.4 267.1L532.5 265.6L530.4 253.1L551.2 247.8L569.7 248.1L577.1 249.3L585.0 254.3L590.1 252.3L605.5 252.6L614.8 249.3L624.7 241.1L631.2 240.8L631.3 228.3L634.7 221.1L626.7 216.0L628.4 210.3L642.6 202.5L647.9 195.8L665.0 180.5L681.2 172.8L705.3 174.0L733.9 173.0Z" fill="#e3d3a8"/><path d="M702.2 349.9L714.0 356.4L709.8 369.7L703.9 372.7L700.8 379.7L710.5 383.2L711.3 388.4L707.0 413.0L696.0 431.2L688.8 436.5L682.3 448.0L679.0 440.5L668.7 436.7L656.1 426.7L655.3 420.0L655.1 419.0L657.0 416.5L660.3 411.0L669.9 407.2L670.5 403.7L681.4 396.2L683.1 392.2L673.0 382.9L672.6 377.2L668.1 375.7L667.7 370.4L673.2 362.4L670.3 357.7L679.2 348.2L681.2 343.2L685.8 339.9L702.2 349.9Z" fill="#e3d3a8"/><path d="M505.8 299.1L505.8 310.6L662.3 310.6L666.2 316.9L668.9 316.6L673.2 321.9L672.4 328.6L678.8 336.4L684.3 336.6L685.8 339.9L681.2 343.2L679.2 348.2L670.3 357.7L673.2 362.4L667.7 370.4L668.1 375.7L672.6 377.2L673.0 382.9L683.1 392.2L681.4 396.2L670.5 403.7L669.9 407.2L660.3 411.0L653.1 409.7L647.1 414.7L516.0 414.7L479.0 414.7L479.0 372.9L479.0 311.6L479.0 311.6L485.6 309.1L505.8 298.4L505.8 299.1Z" fill="#e3d3a8"/><path d="M660.3 411.0L657.0 416.5L653.3 419.5L654.1 426.7L659.4 433.5L660.7 444.7L668.3 456.5L671.8 457.0L673.4 472.8L650.4 472.3L647.1 414.7L653.1 409.7L660.3 411.0Z" fill="#e3d3a8"/><path d="M639.7 495.5L638.9 495.5L638.0 495.5L639.7 495.5Z M516.0 414.7L647.1 414.7L650.4 472.3L673.4 472.8L666.4 492.0L660.9 492.8L651.2 495.5L643.6 497.5L643.8 490.0L640.9 487.0L645.0 483.8L639.5 476.3L637.8 479.5L630.4 478.8L627.8 470.5L630.2 470.5L630.4 459.8L632.7 455.5L629.6 441.0L633.5 432.5L639.5 431.0L640.5 422.2L636.0 423.2L635.8 427.7L626.5 433.5L623.8 438.7L623.2 452.0L619.7 458.3L621.2 468.8L625.9 476.0L625.3 481.5L628.2 487.0L626.7 490.8L618.5 483.5L606.8 480.0L603.3 473.0L596.7 477.0L594.2 471.5L599.4 464.5L602.5 457.3L607.2 452.5L602.7 448.0L599.8 450.7L595.2 446.5L587.8 444.2L587.8 437.5L583.9 433.7L578.4 433.0L574.3 420.2L568.3 420.2L562.3 416.0L559.0 419.5L553.1 419.2L551.8 424.2L541.3 421.0L534.2 427.7L529.6 426.2L522.6 434.0L515.6 438.2L516.0 414.7Z" fill="#e3d3a8"/><path d="M660.9 492.8L666.4 492.0L661.7 499.8L656.8 502.5L653.9 513.1L646.5 530.1L640.5 533.6L638.5 527.3L641.7 513.3L651.2 495.5L660.9 492.8Z M638.9 495.5L639.7 495.5L638.0 495.5L638.9 495.5Z M556.0 426.5L574.5 441.7L578.4 433.0L583.9 433.7L587.8 437.5L587.8 444.2L595.2 446.5L599.8 450.7L602.5 457.3L599.4 464.5L595.2 466.5L592.4 473.0L594.0 477.8L603.5 476.3L605.3 483.5L617.7 486.5L621.2 492.3L631.2 498.5L626.7 511.3L630.8 521.3L625.9 526.1L625.3 531.8L629.8 535.3L624.9 540.8L617.5 533.6L615.8 536.1L622.2 541.3L639.7 542.6L644.2 559.6L514.8 560.1L487.0 559.8L462.6 559.1L437.7 557.8L366.9 557.3L386.0 550.8L388.3 545.8L395.1 544.1L395.5 540.1L400.8 537.1L400.8 533.6L413.8 526.8L427.4 514.6L426.8 518.3L431.7 526.1L437.7 529.8L442.2 529.6L449.0 523.6L453.9 528.3L463.0 525.8L479.2 517.1L480.5 519.8L486.8 515.8L487.0 507.5L490.9 500.3L497.5 493.5L500.2 485.3L507.2 476.8L509.9 466.3L516.0 472.5L521.8 474.5L525.5 470.8L533.1 454.5L537.6 458.5L554.1 440.0L556.0 426.5Z M479.0 372.9L479.0 414.7L516.0 414.7L515.6 438.2L522.6 434.0L529.6 426.2L534.2 427.7L541.3 421.0L551.8 424.2L553.1 419.2L559.0 419.5L562.3 416.0L568.3 420.2L574.3 420.2L578.4 433.0L574.5 441.7L556.0 426.5L554.1 440.0L537.6 458.5L533.1 454.5L525.5 470.8L521.8 474.5L516.0 472.5L509.9 466.3L507.2 476.8L500.2 485.3L497.5 493.5L490.9 500.3L487.0 507.5L486.8 515.8L480.5 519.8L479.2 517.1L463.0 525.8L453.9 528.3L449.0 523.6L442.2 529.6L437.7 529.8L431.7 526.1L426.8 518.3L427.4 514.6L422.7 513.8L415.9 508.5L414.2 503.3L408.5 496.5L404.3 487.8L405.2 474.0L414.6 473.0L415.9 467.0L420.2 464.5L418.5 457.5L425.1 446.5L430.3 453.5L434.0 449.2L433.1 444.0L437.5 435.2L441.6 435.5L445.7 429.0L449.6 432.0L454.1 430.0L467.9 415.2L471.2 398.5L476.1 387.4L476.3 380.4L473.7 375.4L479.0 372.9Z" fill="#e3d3a8"/><path d="M462.6 559.1L487.0 559.8L514.8 560.1L644.2 559.6L648.3 577.9L638.4 576.1L637.0 578.4L624.9 581.1L623.2 583.6L615.2 584.4L615.6 587.6L625.3 585.4L626.7 587.4L637.4 585.1L640.9 589.4L647.3 587.6L649.6 598.6L647.5 603.9L643.2 604.4L634.3 615.6L622.4 616.1L620.5 623.9L625.5 631.7L629.6 633.2L622.0 645.9L615.6 644.4L604.3 645.7L596.5 648.4L584.3 657.2L574.5 668.7L569.5 683.2L562.1 679.9L549.2 682.9L509.0 639.4L469.1 638.7L469.6 633.4L464.2 625.6L460.5 628.4L460.3 623.6L416.5 621.4L406.8 623.1L399.2 627.4L386.9 630.4L368.8 631.2L343.9 630.9L344.9 620.1L351.9 619.1L354.6 611.6L363.4 604.9L373.1 604.6L381.9 597.6L391.0 595.1L398.8 584.9L403.7 581.9L404.6 586.4L418.7 577.6L425.1 579.4L429.6 570.9L436.2 568.6L437.7 557.8L462.6 559.1Z" fill="#e3d3a8"/><path d="M399.2 627.4L406.8 623.1L416.5 621.4L460.3 623.6L460.5 628.4L464.2 625.6L469.6 633.4L469.1 638.7L509.0 639.4L549.2 682.9L543.0 685.2L535.2 692.7L527.6 704.5L526.3 714.0L520.2 721.5L512.3 721.5L510.5 727.0L502.1 733.0L497.5 739.5L490.1 742.2L482.1 749.3L481.3 752.5L473.9 756.3L465.9 766.0L457.8 762.0L457.6 754.3L451.9 742.0L447.1 738.7L446.7 729.0L444.3 721.5L434.8 714.5L428.6 706.0L429.0 700.7L419.4 693.0L414.8 684.4L406.6 678.7L401.0 669.2L399.8 663.9L394.3 653.9L390.6 654.7L378.8 644.9L379.4 640.2L386.9 630.4L399.2 627.4Z" fill="#e3d3a8"/><path d="M386.9 630.4L379.4 640.2L378.8 644.9L390.6 654.7L394.3 653.9L399.8 663.9L401.0 669.2L406.6 678.7L414.8 684.4L419.4 693.0L429.0 700.7L428.6 706.0L434.8 714.5L444.3 721.5L446.7 729.0L447.1 738.7L451.9 742.0L457.6 754.3L457.8 762.0L465.9 766.0L457.2 781.5L455.6 789.5L451.9 796.5L451.5 803.8L447.7 807.1L446.1 826.6L436.4 824.8L428.2 821.1L424.9 824.6L426.2 833.1L424.7 842.3L420.4 842.6L418.7 832.8L373.1 829.3L324.5 826.3L319.6 813.1L315.7 800.5L318.3 788.5L314.7 774.8L317.9 767.0L317.7 761.3L323.7 755.5L319.6 752.8L321.2 748.3L317.3 741.0L313.2 728.2L304.4 670.4L298.2 631.2L343.9 630.9L368.8 631.2L386.9 630.4Z" fill="#e3d3a8"/><path d="M799.3 173.0L799.7 177.5L794.8 185.0L798.1 192.5L792.3 200.3L780.4 204.5L780.6 215.8L777.5 219.5L774.4 229.8L768.1 238.8L765.4 258.1L765.8 264.6L762.7 267.1L762.3 273.8L765.4 277.3L736.6 276.6L736.2 272.6L737.4 241.1L731.8 233.6L733.7 229.8L730.6 217.3L734.7 208.0L735.6 199.3L732.3 191.0L734.3 182.5L733.9 173.0L770.7 173.5L799.3 173.0Z" fill="#e3d3a8"/><path d="M513.5 -121.5L513.8 -109.3L513.8 -99.7L510.7 -102.1L508.8 -103.0L506.2 -108.9L508.8 -114.1L508.1 -118.8L513.5 -121.5Z M513.8 -98.6L514.4 1.6L514.5 8.9L514.8 56.4L512.5 62.0L517.3 70.1L517.2 77.2L522.1 84.9L527.4 90.8L534.7 104.5L541.6 109.6L579.8 119.5L584.3 121.0L592.6 126.7L596.7 133.5L603.9 137.5L607.2 132.9L611.7 138.8L615.8 146.6L627.5 152.8L633.0 149.8L645.0 156.6L658.9 149.7L679.5 144.3L687.6 144.6L696.5 147.8L693.6 159.1L699.0 164.4L695.2 166.8L684.4 173.9L676.2 176.0L663.4 182.3L648.1 195.6L640.3 201.8L621.7 208.9L615.1 209.4L604.6 216.0L608.0 211.2L602.3 213.4L584.2 213.7L592.8 212.3L601.3 211.1L599.5 217.8L606.1 216.0L602.5 221.6L609.4 221.9L599.2 225.9L594.2 223.4L586.7 221.9L579.0 217.4L529.7 227.2L520.1 235.6L512.1 239.2L505.4 250.4L520.7 256.4L530.3 252.8L530.6 260.3L535.6 269.1L529.4 272.3L516.8 270.6L490.2 274.6L481.4 282.7L493.3 285.9L478.9 284.5L464.5 280.3L450.0 280.9L434.0 292.5L431.5 298.9L423.8 299.1L412.6 305.0L409.3 309.2L408.4 314.6L404.0 309.0L394.7 311.5L386.4 307.5L389.7 296.4L408.8 296.4L411.5 287.9L405.2 287.4L407.9 281.7L409.5 275.8L409.6 269.6L420.1 261.7L435.4 249.2L437.1 242.7L435.4 215.5L440.0 209.3L441.3 203.5L447.5 199.3L452.4 191.1L449.5 174.8L440.9 166.7L436.3 163.7L451.8 162.2L452.4 168.8L458.0 175.4L463.7 175.3L457.2 184.7L462.0 182.3L463.9 192.1L468.8 187.2L474.3 186.1L476.6 191.3L494.2 197.9L497.5 193.8L497.9 188.1L493.4 184.9L499.3 179.7L509.5 184.9L508.7 179.1L503.5 176.5L499.7 173.0L493.9 168.0L496.1 159.3L492.9 154.8L489.1 158.0L485.5 153.7L483.2 145.9L470.8 131.5L460.3 129.9L455.9 127.1L444.2 129.1L438.1 130.4L444.0 126.0L436.9 127.1L442.6 125.2L435.5 124.8L421.6 122.6L413.2 120.3L402.4 120.4L391.3 120.1L360.1 114.4L353.5 113.0L352.6 104.9L340.6 104.9L334.3 102.1L340.3 96.1L335.8 96.0L336.0 90.2L341.3 89.9L334.8 84.8L327.7 83.1L332.1 71.9L333.1 65.7L318.8 54.3L323.6 46.2L325.3 38.9L300.0 39.9L289.2 37.2L279.6 25.5L274.9 9.8L268.8 1.0L264.6 3.1L259.3 -0.5L253.8 2.2L249.8 -0.4L238.4 1.5L232.9 -2.0L228.2 -3.9L214.7 -6.9L206.7 -7.6L209.4 0.6L205.9 8.8L201.4 6.5L199.3 11.8L193.3 16.9L200.7 5.6L200.4 -1.7L196.1 -2.5L195.1 3.8L191.0 8.0L188.6 13.4L186.9 19.7L179.8 22.2L186.2 10.0L172.7 14.4L169.0 18.8L165.6 31.2L158.8 36.5L151.0 35.3L145.7 36.9L141.2 32.6L137.0 31.4L122.3 32.3L115.7 32.5L111.4 24.9L105.6 27.6L98.1 32.8L86.3 34.6L81.6 31.3L78.6 27.1L71.8 25.1L66.6 19.8L61.3 20.4L57.9 26.5L54.2 20.2L46.0 15.5L37.4 7.8L32.3 7.9L24.7 7.4L19.3 9.5L7.8 13.2L5.6 8.0L-8.2 6.8L-15.3 4.1L-20.3 3.9L-24.7 1.0L-29.6 -24.3L-40.9 -26.1L-41.0 -35.5L-40.9 -183.9L12.4 -224.9L25.9 -237.5L46.3 -256.3L54.1 -263.5L112.1 -313.8L166.8 -357.6L171.3 -368.6L176.3 -367.1L181.9 -368.1L189.9 -360.7L195.8 -358.3L200.6 -354.2L214.0 -348.9L223.0 -338.2L228.0 -332.4L236.2 -328.6L249.4 -325.8L267.3 -320.2L274.4 -316.5L286.2 -315.1L299.2 -309.0L305.8 -301.9L315.2 -299.1L305.6 -287.9L312.9 -294.4L319.7 -296.8L334.0 -294.3L343.8 -296.5L352.0 -295.7L358.1 -297.8L364.9 -295.1L369.5 -293.5L384.4 -292.3L392.1 -293.9L392.7 -288.1L403.2 -291.0L415.0 -286.2L416.7 -280.1L413.6 -260.4L410.7 -254.1L410.9 -247.1L414.9 -243.2L421.7 -228.4L418.7 -219.5L422.3 -204.4L417.4 -201.6L415.6 -190.1L422.7 -186.4L427.3 -181.9L442.1 -167.0L444.9 -160.0L435.3 -157.7L430.5 -154.8L434.9 -157.1L444.1 -156.9L449.3 -150.8L462.3 -146.6L465.4 -141.4L476.1 -133.1L479.1 -124.5L482.3 -117.1L474.2 -113.2L470.8 -108.6L461.3 -101.8L466.8 -105.8L472.7 -107.6L478.6 -113.5L483.5 -116.0L497.5 -112.1L506.6 -106.2L513.8 -98.6Z M395.1 129.4L397.6 128.3L396.4 131.6L399.4 135.0L405.3 134.8L407.2 137.7L408.3 134.8L405.5 132.4L415.7 128.3L420.4 135.3L424.6 129.5L428.9 128.9L430.3 130.2L429.6 132.9L432.7 133.4L431.8 137.7L433.5 140.2L437.6 132.3L438.6 134.3L436.8 137.1L441.0 137.1L436.3 145.9L431.2 149.8L426.5 148.0L430.0 147.2L434.8 141.6L424.0 148.1L401.9 137.4L383.2 133.7L384.2 129.5L387.6 131.6L388.9 129.7L391.4 131.1L395.1 129.4Z" fill="#e3d3a8"/><path d="M479.0 311.6L479.0 372.9L473.7 375.4L476.3 380.4L476.1 387.4L471.2 398.5L467.9 415.2L454.1 430.0L449.6 432.0L445.7 429.0L441.6 435.5L437.5 435.2L433.1 444.0L434.0 449.2L430.3 453.5L425.1 446.5L418.5 457.5L420.2 464.5L415.9 467.0L414.6 473.0L405.2 474.0L400.4 467.8L396.3 466.5L394.7 458.8L389.7 460.3L385.8 464.8L372.3 461.3L366.7 464.5L358.7 458.3L347.6 456.5L347.1 452.5L339.9 443.0L326.2 443.0L326.8 379.2L326.6 324.6L374.7 322.9L388.5 329.1L393.2 332.9L396.7 329.4L404.5 336.6L409.3 338.9L425.9 332.9L435.6 334.1L446.1 325.6L461.5 317.4L479.0 311.6L479.0 311.6Z" fill="#e3d3a8"/><path d="M358.7 458.3L366.7 464.5L372.3 461.3L385.8 464.8L389.7 460.3L394.7 458.8L396.3 466.5L400.4 467.8L405.2 474.0L404.3 487.8L408.5 496.5L414.2 503.3L415.9 508.5L422.7 513.8L427.4 514.6L413.8 526.8L400.8 533.6L400.8 537.1L395.5 540.1L395.1 544.1L388.3 545.8L386.0 550.8L366.9 557.3L366.3 558.1L336.0 557.6L309.5 556.1L302.5 556.6L263.2 554.8L218.4 555.8L210.6 553.8L211.2 562.1L167.1 561.6L162.8 562.1L164.7 556.3L170.0 558.3L172.9 539.8L171.1 537.3L176.6 529.3L180.7 528.8L193.7 535.8L198.2 532.1L194.9 526.1L196.2 521.3L210.8 517.1L207.5 509.0L212.2 502.5L215.5 498.3L224.5 497.8L227.4 494.5L230.5 497.8L235.2 496.3L244.1 503.0L247.0 498.3L256.0 493.8L258.3 498.3L266.3 496.5L265.7 491.5L273.5 485.8L274.9 491.0L282.8 495.3L286.9 492.3L290.2 480.8L296.5 478.5L298.8 472.8L304.8 469.0L304.4 460.0L313.6 462.0L320.2 457.8L326.4 457.5L323.5 445.0L326.2 443.0L339.9 443.0L347.1 452.5L347.6 456.5L358.7 458.3Z M211.2 562.1L210.6 553.8L218.4 555.8L263.2 554.8L302.5 556.6L309.5 556.1L336.0 557.6L366.3 558.1L366.9 557.3L437.7 557.8L436.2 568.6L429.6 570.9L425.1 579.4L418.7 577.6L404.6 586.4L403.7 581.9L398.8 584.9L391.0 595.1L381.9 597.6L373.1 604.6L363.4 604.9L354.6 611.6L351.9 619.1L344.9 620.1L343.9 630.9L298.2 631.2L235.9 630.4L206.0 630.7L196.4 630.7L131.1 630.7L134.6 629.4L138.1 621.4L137.5 610.4L144.1 602.9L145.3 595.9L150.5 593.4L151.7 584.9L158.7 573.4L158.5 562.1L160.4 562.1L162.8 562.1L167.1 561.6L211.2 562.1Z" fill="#e3d3a8"/><path d="M302.1 813.3L319.6 813.1L324.5 826.3L373.1 829.3L418.7 832.8L420.4 842.6L424.7 842.3L426.2 833.1L424.9 824.6L428.2 821.1L436.4 824.8L446.1 826.6L448.2 846.3L452.7 868.6L463.0 897.9L478.8 929.2L476.5 931.4L477.2 945.9L483.8 962.2L494.2 995.0L496.3 1005.2L496.1 1015.7L492.2 1053.5L488.9 1054.3L485.4 1066.0L486.6 1069.8L479.8 1078.3L477.0 1076.3L470.4 1079.8L459.1 1081.8L455.8 1077.0L457.4 1070.0L449.4 1049.8L443.2 1046.0L437.7 1048.8L433.4 1037.5L432.3 1028.2L424.9 1018.0L423.1 1011.2L424.3 1001.5L420.2 999.7L421.2 1005.5L417.5 1007.0L406.2 982.2L401.7 976.0L412.4 957.7L405.4 958.7L400.8 964.4L396.1 955.4L402.3 930.4L403.5 909.6L399.2 904.6L397.8 897.9L391.0 896.4L383.1 885.4L376.6 880.9L376.2 874.1L371.8 871.6L368.1 864.1L354.4 854.1L342.6 856.3L343.2 863.4L339.3 862.1L324.5 870.6L308.7 872.6L309.1 867.6L305.4 861.6L286.9 848.1L273.7 842.3L261.8 840.8L251.9 841.8L230.3 846.1L235.5 839.3L232.8 835.6L234.2 828.1L226.2 819.3L227.4 813.3L302.1 813.3Z" fill="#e3d3a8"/><path d="M567.8 -630.1L573.2 -630.0L574.2 -628.5L564.8 -628.6L564.6 -629.7L567.8 -630.1Z M881.7 -471.9L881.2 -469.1L883.5 -468.5L880.4 -465.6L880.3 -463.9L877.9 -464.9L875.6 -463.7L878.3 -469.0L875.5 -472.4L878.4 -473.1L881.7 -471.9Z M515.3 -364.0L515.7 -359.0L514.3 -359.4L512.8 -357.0L512.2 -358.8L513.4 -360.1L513.3 -362.4L512.0 -364.0L512.3 -365.8L515.3 -364.0Z M536.5 -343.5L530.8 -334.6L525.4 -322.4L526.2 -326.3L533.4 -341.2L533.5 -346.7L531.0 -344.7L529.4 -339.0L531.2 -339.1L530.8 -337.5L522.9 -322.7L528.2 -334.7L527.6 -339.6L524.3 -335.8L520.1 -327.6L515.4 -322.5L510.3 -324.3L505.0 -319.3L516.1 -333.4L514.7 -335.1L511.7 -333.1L501.8 -321.3L500.7 -320.9L499.3 -323.9L496.5 -324.4L506.5 -336.1L514.1 -341.5L516.0 -346.3L516.7 -354.2L518.0 -349.2L515.9 -344.8L515.5 -341.0L511.3 -334.9L517.8 -338.2L522.2 -349.4L523.4 -357.5L524.0 -354.1L528.2 -353.7L530.3 -349.2L535.5 -348.4L536.2 -344.6L534.7 -343.4L536.5 -343.5Z M513.2 -351.7L508.0 -342.9L497.9 -338.1L493.5 -338.0L495.8 -343.1L502.1 -344.1L501.8 -346.3L508.1 -345.8L511.1 -348.7L512.1 -351.7L513.6 -353.0L513.2 -351.7Z M545.0 -347.9L544.4 -337.2L535.3 -334.2L535.9 -336.8L539.1 -340.9L538.4 -341.6L539.7 -344.4L538.9 -345.0L542.5 -349.1L544.8 -349.0L545.0 -347.9Z M532.6 -331.8L534.4 -332.8L534.8 -330.6L532.8 -329.5L535.3 -329.9L532.8 -328.0L531.0 -322.8L528.1 -319.3L531.8 -327.5L532.6 -331.8Z M1083.9 -47.6L1103.4 -42.6L1118.8 -36.1L1122.9 -31.6L1128.0 -30.0L1129.6 -27.9L1141.4 -24.9L1149.0 -15.7L1147.6 -13.3L1143.6 -12.2L1128.3 -12.0L1120.7 -14.9L1098.2 -19.6L1091.3 -23.7L1080.7 -26.8L1079.4 -31.6L1071.5 -38.3L1057.4 -43.5L1053.0 -46.8L1052.0 -45.2L1047.6 -48.6L1049.6 -50.3L1058.6 -52.6L1068.3 -49.6L1083.9 -47.6Z M1158.0 52.9L1158.9 53.9L1154.9 57.0L1152.9 56.9L1155.7 54.0L1153.2 54.0L1147.9 57.8L1147.2 58.6L1142.1 63.2L1144.8 62.5L1148.5 57.8L1151.3 56.9L1147.5 59.8L1145.3 64.1L1143.0 63.9L1141.9 66.1L1139.3 67.0L1138.4 70.3L1140.2 69.8L1143.3 71.6L1144.6 70.3L1144.1 71.6L1141.9 72.3L1136.6 72.1L1139.5 63.6L1153.4 53.4L1158.0 52.9Z M823.8 82.3L820.6 86.2L812.5 88.8L820.8 81.6L823.0 81.0L823.8 82.3Z M1310.9 -119.4L1305.8 -123.5L1293.2 -120.1L1288.0 -122.1L1278.3 -114.6L1271.0 -112.9L1263.8 -114.7L1258.4 -111.7L1249.3 -104.3L1243.4 -101.2L1245.7 -95.2L1242.5 -90.3L1240.0 -95.0L1236.6 -88.2L1231.1 -85.1L1222.7 -76.7L1214.5 -74.6L1209.8 -66.5L1203.9 -65.5L1199.3 -65.4L1192.1 -66.7L1187.3 -64.3L1181.4 -65.5L1174.8 -63.7L1168.5 -63.4L1161.9 -63.9L1146.9 -59.0L1151.4 -61.9L1144.4 -60.9L1129.5 -65.5L1122.8 -68.3L1110.8 -67.7L1102.7 -67.9L1095.6 -68.1L1088.7 -65.9L1084.0 -66.8L1072.5 -69.1L1060.1 -66.8L1049.7 -69.4L1034.9 -67.0L1023.6 -67.9L1005.0 -66.6L996.5 -68.0L992.8 -64.7L986.4 -64.8L981.7 -63.7L975.5 -64.3L979.6 -62.3L972.1 -63.1L968.5 -56.8L960.8 -53.7L958.0 -46.6L952.9 -43.2L950.8 -36.1L951.0 -30.6L945.6 -23.9L939.0 -24.2L930.5 -21.6L925.3 -22.6L919.5 -21.5L913.1 -18.1L917.0 -14.3L912.2 -13.7L908.0 -11.9L908.0 -17.9L902.2 -11.1L899.0 -6.4L889.8 -0.7L883.2 9.4L877.8 15.6L872.9 22.5L867.7 25.6L863.9 30.3L859.4 29.4L854.1 24.2L847.3 24.0L839.4 19.5L828.4 19.1L817.9 15.4L824.8 18.5L836.2 20.6L843.0 22.9L854.9 26.4L862.3 31.5L855.3 46.9L847.8 52.1L844.7 59.6L834.9 62.4L832.3 69.7L827.1 77.6L818.1 82.1L810.2 89.0L806.5 94.0L812.1 89.3L817.0 89.2L833.5 82.1L840.7 75.3L845.5 68.0L851.1 64.4L856.4 57.5L868.8 44.2L872.2 37.5L894.5 19.9L904.5 15.9L921.7 5.0L939.6 -2.5L956.9 -7.6L972.1 -14.7L986.8 -18.3L1004.7 -19.5L1009.5 -21.0L1032.4 -18.9L1045.0 -14.3L1057.5 -5.0L1060.3 2.0L1055.3 -1.1L1046.1 -3.7L1051.6 -0.8L1060.2 8.1L1056.0 11.2L1054.7 17.4L1040.3 21.1L1038.5 27.6L1031.6 28.1L1020.8 36.0L1014.2 36.5L1001.5 31.2L998.6 26.5L992.0 32.1L984.4 31.4L978.1 31.1L964.8 36.7L961.2 41.2L952.6 41.9L947.8 41.3L937.8 39.5L919.6 36.5L910.5 40.0L910.3 52.3L903.3 62.8L886.8 68.7L886.5 63.0L880.0 61.5L853.2 96.3L852.2 101.9L851.0 108.5L845.9 112.6L842.6 119.2L841.9 124.9L843.9 130.5L837.9 137.5L833.1 143.4L827.1 150.2L830.1 155.7L824.4 154.2L822.7 160.9L818.6 158.1L814.0 159.8L806.6 160.2L801.3 162.8L801.9 168.3L799.2 173.0L785.1 173.3L762.2 173.4L739.4 173.2L733.9 173.3L709.8 174.0L684.4 173.9L692.6 170.3L699.0 164.4L693.6 159.1L696.5 147.8L687.6 144.6L679.5 144.3L658.9 149.7L645.0 156.6L636.8 150.1L627.5 152.8L617.9 148.4L614.3 141.0L610.9 134.1L606.8 136.8L596.7 133.5L592.6 126.7L584.3 121.0L579.8 119.5L543.5 112.5L534.7 104.5L527.4 90.8L522.1 84.9L517.2 77.2L517.3 70.1L512.5 62.0L514.8 56.4L514.5 8.9L514.4 1.6L513.8 -98.6L520.3 -90.3L517.9 -95.1L513.8 -99.7L513.8 -109.3L513.5 -121.5L520.4 -130.5L523.2 -124.7L528.4 -125.1L532.1 -122.3L535.1 -113.6L538.5 -108.0L536.3 -114.5L541.3 -122.7L539.9 -128.4L535.0 -130.6L531.8 -136.0L538.7 -138.9L541.9 -145.0L545.8 -148.8L549.4 -154.5L554.0 -157.1L548.7 -158.6L549.1 -166.1L541.3 -172.0L541.6 -178.0L542.6 -183.8L538.1 -186.3L538.4 -192.4L533.5 -193.0L535.9 -199.4L534.5 -204.8L533.4 -212.1L529.0 -214.8L534.4 -215.4L530.7 -219.1L527.6 -224.1L531.4 -227.7L536.4 -229.1L530.7 -231.0L528.1 -235.6L532.9 -237.6L528.4 -241.3L522.7 -241.3L527.0 -242.9L531.2 -245.9L525.6 -244.6L519.4 -246.4L516.6 -251.5L515.1 -256.8L511.5 -262.9L509.4 -268.1L524.4 -274.7L533.8 -276.1L537.8 -279.1L556.5 -285.1L577.0 -296.4L580.6 -300.2L596.4 -310.4L600.9 -315.5L609.7 -325.7L616.1 -331.7L617.5 -337.4L620.4 -342.5L621.6 -365.6L619.8 -376.2L616.3 -393.0L610.7 -403.2L598.8 -421.3L586.7 -427.9L582.3 -432.6L568.0 -437.6L564.2 -440.7L558.9 -444.0L554.4 -448.7L548.3 -448.4L551.9 -452.4L551.1 -457.8L549.6 -463.2L555.6 -464.1L559.8 -465.6L563.9 -470.9L574.5 -478.8L579.7 -484.0L571.6 -485.0L578.4 -490.6L575.5 -496.8L580.2 -496.8L587.2 -495.0L592.8 -491.8L588.3 -493.4L584.8 -497.5L588.6 -501.8L593.6 -502.2L588.8 -507.8L593.3 -510.1L596.6 -513.6L601.9 -514.5L609.0 -516.3L596.9 -518.6L592.8 -513.1L581.6 -514.7L589.6 -517.6L584.4 -520.6L582.6 -526.8L577.6 -529.6L583.6 -534.6L589.3 -536.5L584.5 -537.8L580.2 -536.8L574.4 -540.9L582.4 -546.3L577.5 -546.6L585.8 -549.9L572.4 -545.9L561.7 -547.7L570.4 -557.6L575.2 -559.7L579.3 -566.6L575.8 -578.1L584.1 -578.7L580.2 -581.1L587.1 -582.1L581.5 -583.8L576.1 -589.3L568.2 -590.9L565.6 -596.9L563.6 -603.5L562.7 -610.8L567.6 -621.0L579.1 -624.5L586.7 -630.0L602.3 -626.8L634.4 -620.4L641.3 -619.0L652.1 -616.4L645.3 -611.6L657.8 -616.6L663.6 -617.3L669.6 -616.1L677.6 -614.4L683.4 -609.6L690.8 -607.8L683.9 -611.8L696.0 -614.5L700.6 -617.7L710.6 -619.4L715.3 -624.0L722.0 -625.0L726.1 -620.3L732.3 -619.9L738.6 -617.3L743.9 -611.4L749.5 -609.6L753.8 -607.9L759.4 -608.3L760.2 -601.7L753.4 -595.5L757.9 -597.5L774.3 -596.8L776.5 -591.8L782.0 -588.3L778.5 -584.7L773.2 -585.7L778.7 -584.0L784.0 -587.7L793.2 -587.5L797.7 -582.9L786.8 -581.6L790.6 -578.6L785.6 -577.0L796.4 -575.9L787.9 -574.4L793.6 -572.3L794.8 -566.7L799.0 -564.7L804.0 -562.8L809.5 -565.0L816.8 -562.9L823.6 -560.3L829.4 -559.7L834.0 -560.1L840.2 -560.2L847.5 -561.2L849.7 -555.3L855.3 -548.6L861.3 -553.7L864.9 -559.8L870.0 -560.5L873.1 -553.9L875.1 -548.7L862.8 -542.9L864.9 -537.9L858.9 -535.7L860.6 -530.7L866.7 -522.3L866.0 -514.8L858.3 -514.6L840.9 -513.0L832.9 -511.3L816.1 -514.5L832.6 -510.2L844.6 -511.1L850.5 -509.2L862.4 -510.0L868.2 -505.6L865.0 -497.9L869.8 -495.8L864.1 -491.7L865.3 -485.1L861.3 -480.6L865.8 -479.6L873.6 -482.2L879.4 -480.8L877.8 -475.5L873.3 -474.8L869.0 -473.6L876.0 -470.2L870.2 -469.2L872.1 -461.1L868.8 -457.2L864.4 -456.5L864.4 -462.8L860.2 -464.5L859.9 -458.2L843.8 -455.5L851.4 -453.8L855.6 -455.7L859.9 -452.5L865.4 -452.1L870.2 -455.7L875.8 -460.1L883.6 -461.5L892.2 -460.4L896.6 -462.4L909.9 -457.4L912.2 -450.7L913.5 -444.3L915.8 -438.5L912.5 -431.3L907.2 -422.4L889.5 -418.4L881.0 -414.3L875.1 -409.6L890.0 -417.5L909.4 -422.1L913.0 -429.2L917.8 -439.3L922.8 -443.7L927.5 -443.2L928.9 -434.7L920.4 -426.6L925.4 -430.0L930.8 -433.9L931.3 -441.5L935.6 -439.8L933.1 -435.2L936.5 -431.7L935.4 -423.5L933.1 -418.8L936.7 -422.3L942.2 -432.8L953.3 -437.6L958.9 -439.7L963.7 -442.2L972.8 -442.6L974.1 -449.2L978.5 -453.3L982.4 -458.8L990.9 -453.2L994.8 -450.2L994.1 -442.9L991.6 -437.0L996.1 -438.2L998.2 -444.5L996.6 -451.5L993.2 -454.8L1002.0 -459.0L995.1 -461.4L1000.1 -463.5L1006.3 -462.7L1002.2 -466.3L1006.9 -468.0L1012.6 -465.2L1019.1 -467.9L1011.0 -470.6L1004.9 -472.8L1003.9 -478.1L1009.3 -474.6L1010.1 -483.3L1017.7 -478.7L1015.0 -484.4L1011.1 -488.4L1023.6 -487.0L1030.9 -483.2L1022.5 -488.3L1015.7 -489.3L1011.0 -499.6L1017.1 -502.4L1024.9 -501.6L1030.9 -500.8L1022.8 -504.1L1025.4 -509.5L1029.4 -514.8L1032.4 -520.4L1035.3 -525.2L1043.1 -527.4L1035.5 -523.6L1038.6 -519.7L1043.2 -519.8L1039.8 -516.4L1033.7 -513.9L1042.7 -508.5L1038.6 -506.2L1038.4 -497.9L1036.5 -490.3L1041.0 -486.4L1050.5 -490.2L1048.6 -484.1L1046.7 -479.0L1048.4 -473.2L1052.9 -469.3L1042.6 -467.3L1036.4 -467.5L1037.1 -461.9L1045.7 -460.8L1055.2 -460.6L1060.3 -454.4L1065.9 -457.7L1071.5 -458.2L1080.5 -459.0L1084.3 -454.5L1064.1 -451.2L1062.9 -445.7L1069.9 -446.0L1060.3 -436.2L1058.4 -431.1L1051.7 -428.6L1058.5 -421.8L1063.8 -409.8L1068.5 -411.0L1072.1 -406.2L1076.5 -404.9L1080.2 -408.2L1075.8 -402.1L1074.3 -396.7L1076.2 -391.6L1071.7 -389.5L1071.0 -383.5L1075.1 -385.3L1073.4 -379.7L1070.7 -374.3L1065.7 -367.8L1061.3 -361.4L1067.8 -354.0L1070.4 -349.0L1059.8 -348.5L1061.0 -342.8L1066.8 -340.8L1065.2 -332.4L1071.3 -334.4L1085.6 -330.0L1076.7 -326.3L1084.1 -315.1L1090.8 -307.2L1096.3 -307.3L1098.0 -299.2L1082.9 -291.6L1081.3 -286.0L1085.9 -282.0L1077.6 -265.5L1066.7 -266.2L1054.3 -271.9L1046.3 -270.5L1037.0 -271.8L1026.0 -269.3L1014.6 -271.6L1005.8 -270.2L1000.7 -275.5L996.3 -280.0L986.3 -282.9L974.3 -294.7L970.4 -297.0L964.8 -298.1L970.3 -292.6L967.6 -288.1L971.4 -282.2L973.3 -273.7L968.6 -271.0L961.2 -274.2L958.3 -278.6L948.7 -283.6L944.1 -286.5L946.4 -277.6L952.7 -270.4L958.0 -266.0L951.5 -265.3L948.4 -260.6L941.8 -264.1L936.8 -259.5L938.1 -254.3L940.4 -248.9L936.6 -245.6L931.5 -240.5L937.6 -234.3L944.0 -227.4L941.8 -219.5L954.2 -216.6L956.9 -211.5L962.5 -207.4L959.6 -200.8L960.0 -193.1L956.5 -189.5L957.2 -183.0L963.1 -177.0L971.1 -179.4L971.8 -189.4L976.2 -189.3L982.5 -190.7L985.2 -186.3L983.2 -179.9L979.5 -174.1L982.1 -164.8L977.5 -160.5L979.2 -155.4L982.9 -152.4L983.5 -159.4L988.6 -156.3L992.5 -151.6L997.8 -148.5L1001.9 -150.6L1010.2 -148.3L1014.2 -155.7L1026.5 -154.0L1035.6 -147.2L1045.0 -138.4L1040.4 -134.7L1044.4 -129.9L1050.2 -131.0L1056.5 -134.3L1053.2 -139.4L1056.1 -146.3L1056.7 -152.0L1061.8 -153.1L1061.2 -159.0L1058.5 -171.3L1058.7 -176.9L1059.7 -185.1L1067.3 -185.8L1068.6 -195.4L1076.8 -197.1L1082.2 -190.5L1080.2 -181.4L1086.4 -178.5L1071.6 -174.4L1066.9 -172.3L1063.0 -167.7L1068.4 -165.3L1068.0 -158.3L1078.1 -151.9L1072.1 -149.4L1301.5 -146.2L1311.0 -146.2L1310.9 -119.4Z" fill="#e3d3a8"/><path d="M827.7 262.3L823.4 259.1L824.0 254.6L818.4 249.3L816.0 189.3L814.3 159.7L829.6 153.5L827.1 150.2L832.9 143.2L839.0 140.0L837.8 137.2L843.5 133.0L841.7 125.0L845.2 113.0L850.7 109.0L852.8 96.2L880.2 61.2L886.7 62.7L887.0 71.2L891.7 74.2L903.2 69.2L910.4 69.2L915.5 65.9L925.4 73.2L931.2 79.2L931.6 130.5L930.8 142.7L943.1 146.0L941.3 151.2L944.4 156.2L941.9 160.7L947.0 167.8L953.6 166.3L960.0 182.5L952.6 189.8L948.3 187.0L944.8 192.0L939.8 190.8L939.2 195.0L932.6 194.5L922.1 204.3L919.5 197.5L915.8 197.0L917.6 204.3L909.4 207.8L907.5 202.0L903.6 205.0L894.4 205.0L894.2 198.3L888.8 199.8L889.8 204.5L884.7 214.5L885.7 217.3L879.1 222.8L872.4 220.8L868.6 226.6L863.1 227.3L858.6 232.1L853.2 231.1L851.6 226.1L843.6 234.1L845.8 239.1L840.0 240.8L839.6 245.1L832.9 250.3L827.7 262.3Z" fill="rgba(31,78,121,0.74)" stroke="#4a3a22" stroke-width="1.4"/><path d="M814.3 159.7L816.0 189.3L818.4 249.3L824.0 254.6L823.4 259.1L827.7 262.3L823.6 270.8L820.1 270.1L810.6 274.6L806.7 278.9L765.4 277.3L762.3 273.8L762.7 267.1L765.8 264.6L765.4 258.1L768.1 238.8L774.4 229.8L777.5 219.5L780.6 215.8L780.4 204.5L792.3 200.3L798.1 192.5L794.8 185.0L799.7 177.5L799.3 173.0L804.3 161.2L812.5 162.5L814.3 159.7Z" fill="rgba(31,78,121,0.74)" stroke="#4a3a22" stroke-width="1.4"/><path d="M820.1 270.1L823.6 270.8L825.0 278.9L823.4 285.4L817.8 291.4L817.6 298.4L825.4 299.4L830.0 306.6L829.2 312.4L833.1 313.9L833.5 319.1L843.5 323.6L854.9 319.4L852.4 325.6L835.5 331.1L829.2 331.4L825.6 327.1L819.7 328.4L819.5 331.6L812.9 333.6L810.2 325.4L809.2 323.9L805.5 320.6L803.6 309.9L798.3 309.9L788.8 310.4L788.8 309.6L744.2 308.9L728.8 308.4L728.1 306.6L736.6 276.6L765.4 277.3L806.7 278.9L810.6 274.6L820.1 270.1Z" fill="rgba(31,78,121,0.74)" stroke="#4a3a22" stroke-width="1.4"/><path d="M810.2 325.4L812.9 333.6L805.9 334.6L810.2 325.4Z M798.3 309.9L803.6 309.9L805.5 320.6L809.2 323.9L804.9 323.1L801.2 329.9L800.1 339.4L786.6 341.7L788.8 337.4L788.8 310.4L798.3 309.9Z" fill="rgba(31,78,121,0.74)" stroke="#4a3a22" stroke-width="1.4"/><path d="M744.2 308.9L788.8 309.6L788.8 310.4L788.8 337.4L786.6 341.7L783.5 340.9L768.0 344.4L749.5 343.4L741.5 349.7L732.9 351.7L722.8 356.9L720.3 351.7L729.0 346.7L726.5 342.9L728.8 308.4L744.2 308.9Z" fill="rgba(31,78,121,0.74)" stroke="#4a3a22" stroke-width="1.4"/><path d="M733.9 173.0L734.3 182.5L732.3 191.0L735.6 199.3L734.7 208.0L730.6 217.3L733.7 229.8L731.8 233.6L737.4 241.1L736.2 272.6L736.6 276.6L728.1 306.6L728.8 308.4L726.5 342.9L729.0 346.7L720.3 351.7L722.8 356.9L738.0 360.7L741.1 357.9L754.1 357.9L760.8 356.4L771.6 349.2L772.4 354.4L778.1 356.7L765.0 363.4L737.6 373.4L726.1 375.4L718.5 374.9L712.9 377.2L709.8 369.7L714.0 356.4L702.2 349.9L685.8 339.9L684.3 336.6L678.8 336.4L672.4 328.6L673.2 321.9L668.9 316.6L666.2 316.9L662.3 310.6L505.8 310.6L505.8 299.1L505.8 298.4L527.6 285.4L531.1 279.1L538.1 274.8L535.4 267.1L532.5 265.6L530.4 253.1L551.2 247.8L569.7 248.1L577.1 249.3L585.0 254.3L590.1 252.3L605.5 252.6L614.8 249.3L624.7 241.1L631.2 240.8L631.3 228.3L634.7 221.1L626.7 216.0L628.4 210.3L642.6 202.5L647.9 195.8L665.0 180.5L681.2 172.8L705.3 174.0L733.9 173.0Z" fill="rgba(31,78,121,0.74)" stroke="#4a3a22" stroke-width="1.4"/><path d="M702.2 349.9L714.0 356.4L709.8 369.7L703.9 372.7L700.8 379.7L710.5 383.2L711.3 388.4L707.0 413.0L696.0 431.2L688.8 436.5L682.3 448.0L679.0 440.5L668.7 436.7L656.1 426.7L655.3 420.0L655.1 419.0L657.0 416.5L660.3 411.0L669.9 407.2L670.5 403.7L681.4 396.2L683.1 392.2L673.0 382.9L672.6 377.2L668.1 375.7L667.7 370.4L673.2 362.4L670.3 357.7L679.2 348.2L681.2 343.2L685.8 339.9L702.2 349.9Z" fill="rgba(31,78,121,0.74)" stroke="#4a3a22" stroke-width="1.4"/><path d="M505.8 299.1L505.8 310.6L662.3 310.6L666.2 316.9L668.9 316.6L673.2 321.9L672.4 328.6L678.8 336.4L684.3 336.6L685.8 339.9L681.2 343.2L679.2 348.2L670.3 357.7L673.2 362.4L667.7 370.4L668.1 375.7L672.6 377.2L673.0 382.9L683.1 392.2L681.4 396.2L670.5 403.7L669.9 407.2L660.3 411.0L653.1 409.7L647.1 414.7L516.0 414.7L479.0 414.7L479.0 372.9L479.0 311.6L479.0 311.6L485.6 309.1L505.8 298.4L505.8 299.1Z" fill="rgba(31,78,121,0.74)" stroke="#4a3a22" stroke-width="1.4"/><path d="M660.3 411.0L657.0 416.5L653.3 419.5L654.1 426.7L659.4 433.5L660.7 444.7L668.3 456.5L671.8 457.0L673.4 472.8L650.4 472.3L647.1 414.7L653.1 409.7L660.3 411.0Z" fill="rgba(31,78,121,0.74)" stroke="#4a3a22" stroke-width="1.4"/><path d="M639.7 495.5L638.9 495.5L638.0 495.5L639.7 495.5Z M516.0 414.7L647.1 414.7L650.4 472.3L673.4 472.8L666.4 492.0L660.9 492.8L651.2 495.5L643.6 497.5L643.8 490.0L640.9 487.0L645.0 483.8L639.5 476.3L637.8 479.5L630.4 478.8L627.8 470.5L630.2 470.5L630.4 459.8L632.7 455.5L629.6 441.0L633.5 432.5L639.5 431.0L640.5 422.2L636.0 423.2L635.8 427.7L626.5 433.5L623.8 438.7L623.2 452.0L619.7 458.3L621.2 468.8L625.9 476.0L625.3 481.5L628.2 487.0L626.7 490.8L618.5 483.5L606.8 480.0L603.3 473.0L596.7 477.0L594.2 471.5L599.4 464.5L602.5 457.3L607.2 452.5L602.7 448.0L599.8 450.7L595.2 446.5L587.8 444.2L587.8 437.5L583.9 433.7L578.4 433.0L574.3 420.2L568.3 420.2L562.3 416.0L559.0 419.5L553.1 419.2L551.8 424.2L541.3 421.0L534.2 427.7L529.6 426.2L522.6 434.0L515.6 438.2L516.0 414.7Z" fill="rgba(31,78,121,0.74)" stroke="#4a3a22" stroke-width="1.4"/><path d="M660.9 492.8L666.4 492.0L661.7 499.8L656.8 502.5L653.9 513.1L646.5 530.1L640.5 533.6L638.5 527.3L641.7 513.3L651.2 495.5L660.9 492.8Z M638.9 495.5L639.7 495.5L638.0 495.5L638.9 495.5Z M556.0 426.5L574.5 441.7L578.4 433.0L583.9 433.7L587.8 437.5L587.8 444.2L595.2 446.5L599.8 450.7L602.5 457.3L599.4 464.5L595.2 466.5L592.4 473.0L594.0 477.8L603.5 476.3L605.3 483.5L617.7 486.5L621.2 492.3L631.2 498.5L626.7 511.3L630.8 521.3L625.9 526.1L625.3 531.8L629.8 535.3L624.9 540.8L617.5 533.6L615.8 536.1L622.2 541.3L639.7 542.6L644.2 559.6L514.8 560.1L487.0 559.8L462.6 559.1L437.7 557.8L366.9 557.3L386.0 550.8L388.3 545.8L395.1 544.1L395.5 540.1L400.8 537.1L400.8 533.6L413.8 526.8L427.4 514.6L426.8 518.3L431.7 526.1L437.7 529.8L442.2 529.6L449.0 523.6L453.9 528.3L463.0 525.8L479.2 517.1L480.5 519.8L486.8 515.8L487.0 507.5L490.9 500.3L497.5 493.5L500.2 485.3L507.2 476.8L509.9 466.3L516.0 472.5L521.8 474.5L525.5 470.8L533.1 454.5L537.6 458.5L554.1 440.0L556.0 426.5Z M479.0 372.9L479.0 414.7L516.0 414.7L515.6 438.2L522.6 434.0L529.6 426.2L534.2 427.7L541.3 421.0L551.8 424.2L553.1 419.2L559.0 419.5L562.3 416.0L568.3 420.2L574.3 420.2L578.4 433.0L574.5 441.7L556.0 426.5L554.1 440.0L537.6 458.5L533.1 454.5L525.5 470.8L521.8 474.5L516.0 472.5L509.9 466.3L507.2 476.8L500.2 485.3L497.5 493.5L490.9 500.3L487.0 507.5L486.8 515.8L480.5 519.8L479.2 517.1L463.0 525.8L453.9 528.3L449.0 523.6L442.2 529.6L437.7 529.8L431.7 526.1L426.8 518.3L427.4 514.6L422.7 513.8L415.9 508.5L414.2 503.3L408.5 496.5L404.3 487.8L405.2 474.0L414.6 473.0L415.9 467.0L420.2 464.5L418.5 457.5L425.1 446.5L430.3 453.5L434.0 449.2L433.1 444.0L437.5 435.2L441.6 435.5L445.7 429.0L449.6 432.0L454.1 430.0L467.9 415.2L471.2 398.5L476.1 387.4L476.3 380.4L473.7 375.4L479.0 372.9Z" fill="rgba(31,78,121,0.74)" stroke="#4a3a22" stroke-width="1.4"/><path d="M462.6 559.1L487.0 559.8L514.8 560.1L644.2 559.6L648.3 577.9L638.4 576.1L637.0 578.4L624.9 581.1L623.2 583.6L615.2 584.4L615.6 587.6L625.3 585.4L626.7 587.4L637.4 585.1L640.9 589.4L647.3 587.6L649.6 598.6L647.5 603.9L643.2 604.4L634.3 615.6L622.4 616.1L620.5 623.9L625.5 631.7L629.6 633.2L622.0 645.9L615.6 644.4L604.3 645.7L596.5 648.4L584.3 657.2L574.5 668.7L569.5 683.2L562.1 679.9L549.2 682.9L509.0 639.4L469.1 638.7L469.6 633.4L464.2 625.6L460.5 628.4L460.3 623.6L416.5 621.4L406.8 623.1L399.2 627.4L386.9 630.4L368.8 631.2L343.9 630.9L344.9 620.1L351.9 619.1L354.6 611.6L363.4 604.9L373.1 604.6L381.9 597.6L391.0 595.1L398.8 584.9L403.7 581.9L404.6 586.4L418.7 577.6L425.1 579.4L429.6 570.9L436.2 568.6L437.7 557.8L462.6 559.1Z" fill="rgba(31,78,121,0.74)" stroke="#4a3a22" stroke-width="1.4"/><path d="M399.2 627.4L406.8 623.1L416.5 621.4L460.3 623.6L460.5 628.4L464.2 625.6L469.6 633.4L469.1 638.7L509.0 639.4L549.2 682.9L543.0 685.2L535.2 692.7L527.6 704.5L526.3 714.0L520.2 721.5L512.3 721.5L510.5 727.0L502.1 733.0L497.5 739.5L490.1 742.2L482.1 749.3L481.3 752.5L473.9 756.3L465.9 766.0L457.8 762.0L457.6 754.3L451.9 742.0L447.1 738.7L446.7 729.0L444.3 721.5L434.8 714.5L428.6 706.0L429.0 700.7L419.4 693.0L414.8 684.4L406.6 678.7L401.0 669.2L399.8 663.9L394.3 653.9L390.6 654.7L378.8 644.9L379.4 640.2L386.9 630.4L399.2 627.4Z" fill="rgba(31,78,121,0.74)" stroke="#4a3a22" stroke-width="1.4"/><path d="M386.9 630.4L379.4 640.2L378.8 644.9L390.6 654.7L394.3 653.9L399.8 663.9L401.0 669.2L406.6 678.7L414.8 684.4L419.4 693.0L429.0 700.7L428.6 706.0L434.8 714.5L444.3 721.5L446.7 729.0L447.1 738.7L451.9 742.0L457.6 754.3L457.8 762.0L465.9 766.0L457.2 781.5L455.6 789.5L451.9 796.5L451.5 803.8L447.7 807.1L446.1 826.6L436.4 824.8L428.2 821.1L424.9 824.6L426.2 833.1L424.7 842.3L420.4 842.6L418.7 832.8L373.1 829.3L324.5 826.3L319.6 813.1L315.7 800.5L318.3 788.5L314.7 774.8L317.9 767.0L317.7 761.3L323.7 755.5L319.6 752.8L321.2 748.3L317.3 741.0L313.2 728.2L304.4 670.4L298.2 631.2L343.9 630.9L368.8 631.2L386.9 630.4Z" fill="rgba(140,43,43,0.76)" stroke="#4a3a22" stroke-width="1.4"/><path d="M799.3 173.0L799.7 177.5L794.8 185.0L798.1 192.5L792.3 200.3L780.4 204.5L780.6 215.8L777.5 219.5L774.4 229.8L768.1 238.8L765.4 258.1L765.8 264.6L762.7 267.1L762.3 273.8L765.4 277.3L736.6 276.6L736.2 272.6L737.4 241.1L731.8 233.6L733.7 229.8L730.6 217.3L734.7 208.0L735.6 199.3L732.3 191.0L734.3 182.5L733.9 173.0L770.7 173.5L799.3 173.0Z" fill="rgba(154,140,110,0.55)" stroke="#4a3a22" stroke-width="1.4"/><path d="M513.5 -121.5L513.8 -109.3L513.8 -99.7L510.7 -102.1L508.8 -103.0L506.2 -108.9L508.8 -114.1L508.1 -118.8L513.5 -121.5Z M513.8 -98.6L514.4 1.6L514.5 8.9L514.8 56.4L512.5 62.0L517.3 70.1L517.2 77.2L522.1 84.9L527.4 90.8L534.7 104.5L541.6 109.6L579.8 119.5L584.3 121.0L592.6 126.7L596.7 133.5L603.9 137.5L607.2 132.9L611.7 138.8L615.8 146.6L627.5 152.8L633.0 149.8L645.0 156.6L658.9 149.7L679.5 144.3L687.6 144.6L696.5 147.8L693.6 159.1L699.0 164.4L695.2 166.8L684.4 173.9L676.2 176.0L663.4 182.3L648.1 195.6L640.3 201.8L621.7 208.9L615.1 209.4L604.6 216.0L608.0 211.2L602.3 213.4L584.2 213.7L592.8 212.3L601.3 211.1L599.5 217.8L606.1 216.0L602.5 221.6L609.4 221.9L599.2 225.9L594.2 223.4L586.7 221.9L579.0 217.4L529.7 227.2L520.1 235.6L512.1 239.2L505.4 250.4L520.7 256.4L530.3 252.8L530.6 260.3L535.6 269.1L529.4 272.3L516.8 270.6L490.2 274.6L481.4 282.7L493.3 285.9L478.9 284.5L464.5 280.3L450.0 280.9L434.0 292.5L431.5 298.9L423.8 299.1L412.6 305.0L409.3 309.2L408.4 314.6L404.0 309.0L394.7 311.5L386.4 307.5L389.7 296.4L408.8 296.4L411.5 287.9L405.2 287.4L407.9 281.7L409.5 275.8L409.6 269.6L420.1 261.7L435.4 249.2L437.1 242.7L435.4 215.5L440.0 209.3L441.3 203.5L447.5 199.3L452.4 191.1L449.5 174.8L440.9 166.7L436.3 163.7L451.8 162.2L452.4 168.8L458.0 175.4L463.7 175.3L457.2 184.7L462.0 182.3L463.9 192.1L468.8 187.2L474.3 186.1L476.6 191.3L494.2 197.9L497.5 193.8L497.9 188.1L493.4 184.9L499.3 179.7L509.5 184.9L508.7 179.1L503.5 176.5L499.7 173.0L493.9 168.0L496.1 159.3L492.9 154.8L489.1 158.0L485.5 153.7L483.2 145.9L470.8 131.5L460.3 129.9L455.9 127.1L444.2 129.1L438.1 130.4L444.0 126.0L436.9 127.1L442.6 125.2L435.5 124.8L421.6 122.6L413.2 120.3L402.4 120.4L391.3 120.1L360.1 114.4L353.5 113.0L352.6 104.9L340.6 104.9L334.3 102.1L340.3 96.1L335.8 96.0L336.0 90.2L341.3 89.9L334.8 84.8L327.7 83.1L332.1 71.9L333.1 65.7L318.8 54.3L323.6 46.2L325.3 38.9L300.0 39.9L289.2 37.2L279.6 25.5L274.9 9.8L268.8 1.0L264.6 3.1L259.3 -0.5L253.8 2.2L249.8 -0.4L238.4 1.5L232.9 -2.0L228.2 -3.9L214.7 -6.9L206.7 -7.6L209.4 0.6L205.9 8.8L201.4 6.5L199.3 11.8L193.3 16.9L200.7 5.6L200.4 -1.7L196.1 -2.5L195.1 3.8L191.0 8.0L188.6 13.4L186.9 19.7L179.8 22.2L186.2 10.0L172.7 14.4L169.0 18.8L165.6 31.2L158.8 36.5L151.0 35.3L145.7 36.9L141.2 32.6L137.0 31.4L122.3 32.3L115.7 32.5L111.4 24.9L105.6 27.6L98.1 32.8L86.3 34.6L81.6 31.3L78.6 27.1L71.8 25.1L66.6 19.8L61.3 20.4L57.9 26.5L54.2 20.2L46.0 15.5L37.4 7.8L32.3 7.9L24.7 7.4L19.3 9.5L7.8 13.2L5.6 8.0L-8.2 6.8L-15.3 4.1L-20.3 3.9L-24.7 1.0L-29.6 -24.3L-40.9 -26.1L-41.0 -35.5L-40.9 -183.9L12.4 -224.9L25.9 -237.5L46.3 -256.3L54.1 -263.5L112.1 -313.8L166.8 -357.6L171.3 -368.6L176.3 -367.1L181.9 -368.1L189.9 -360.7L195.8 -358.3L200.6 -354.2L214.0 -348.9L223.0 -338.2L228.0 -332.4L236.2 -328.6L249.4 -325.8L267.3 -320.2L274.4 -316.5L286.2 -315.1L299.2 -309.0L305.8 -301.9L315.2 -299.1L305.6 -287.9L312.9 -294.4L319.7 -296.8L334.0 -294.3L343.8 -296.5L352.0 -295.7L358.1 -297.8L364.9 -295.1L369.5 -293.5L384.4 -292.3L392.1 -293.9L392.7 -288.1L403.2 -291.0L415.0 -286.2L416.7 -280.1L413.6 -260.4L410.7 -254.1L410.9 -247.1L414.9 -243.2L421.7 -228.4L418.7 -219.5L422.3 -204.4L417.4 -201.6L415.6 -190.1L422.7 -186.4L427.3 -181.9L442.1 -167.0L444.9 -160.0L435.3 -157.7L430.5 -154.8L434.9 -157.1L444.1 -156.9L449.3 -150.8L462.3 -146.6L465.4 -141.4L476.1 -133.1L479.1 -124.5L482.3 -117.1L474.2 -113.2L470.8 -108.6L461.3 -101.8L466.8 -105.8L472.7 -107.6L478.6 -113.5L483.5 -116.0L497.5 -112.1L506.6 -106.2L513.8 -98.6Z M395.1 129.4L397.6 128.3L396.4 131.6L399.4 135.0L405.3 134.8L407.2 137.7L408.3 134.8L405.5 132.4L415.7 128.3L420.4 135.3L424.6 129.5L428.9 128.9L430.3 130.2L429.6 132.9L432.7 133.4L431.8 137.7L433.5 140.2L437.6 132.3L438.6 134.3L436.8 137.1L441.0 137.1L436.3 145.9L431.2 149.8L426.5 148.0L430.0 147.2L434.8 141.6L424.0 148.1L401.9 137.4L383.2 133.7L384.2 129.5L387.6 131.6L388.9 129.7L391.4 131.1L395.1 129.4Z" fill="rgba(154,140,110,0.55)" stroke="#4a3a22" stroke-width="1.4"/><path d="M479.0 311.6L479.0 372.9L473.7 375.4L476.3 380.4L476.1 387.4L471.2 398.5L467.9 415.2L454.1 430.0L449.6 432.0L445.7 429.0L441.6 435.5L437.5 435.2L433.1 444.0L434.0 449.2L430.3 453.5L425.1 446.5L418.5 457.5L420.2 464.5L415.9 467.0L414.6 473.0L405.2 474.0L400.4 467.8L396.3 466.5L394.7 458.8L389.7 460.3L385.8 464.8L372.3 461.3L366.7 464.5L358.7 458.3L347.6 456.5L347.1 452.5L339.9 443.0L326.2 443.0L326.8 379.2L326.6 324.6L374.7 322.9L388.5 329.1L393.2 332.9L396.7 329.4L404.5 336.6L409.3 338.9L425.9 332.9L435.6 334.1L446.1 325.6L461.5 317.4L479.0 311.6L479.0 311.6Z" fill="rgba(154,140,110,0.55)" stroke="#4a3a22" stroke-width="1.4"/><path d="M358.7 458.3L366.7 464.5L372.3 461.3L385.8 464.8L389.7 460.3L394.7 458.8L396.3 466.5L400.4 467.8L405.2 474.0L404.3 487.8L408.5 496.5L414.2 503.3L415.9 508.5L422.7 513.8L427.4 514.6L413.8 526.8L400.8 533.6L400.8 537.1L395.5 540.1L395.1 544.1L388.3 545.8L386.0 550.8L366.9 557.3L366.3 558.1L336.0 557.6L309.5 556.1L302.5 556.6L263.2 554.8L218.4 555.8L210.6 553.8L211.2 562.1L167.1 561.6L162.8 562.1L164.7 556.3L170.0 558.3L172.9 539.8L171.1 537.3L176.6 529.3L180.7 528.8L193.7 535.8L198.2 532.1L194.9 526.1L196.2 521.3L210.8 517.1L207.5 509.0L212.2 502.5L215.5 498.3L224.5 497.8L227.4 494.5L230.5 497.8L235.2 496.3L244.1 503.0L247.0 498.3L256.0 493.8L258.3 498.3L266.3 496.5L265.7 491.5L273.5 485.8L274.9 491.0L282.8 495.3L286.9 492.3L290.2 480.8L296.5 478.5L298.8 472.8L304.8 469.0L304.4 460.0L313.6 462.0L320.2 457.8L326.4 457.5L323.5 445.0L326.2 443.0L339.9 443.0L347.1 452.5L347.6 456.5L358.7 458.3Z M211.2 562.1L210.6 553.8L218.4 555.8L263.2 554.8L302.5 556.6L309.5 556.1L336.0 557.6L366.3 558.1L366.9 557.3L437.7 557.8L436.2 568.6L429.6 570.9L425.1 579.4L418.7 577.6L404.6 586.4L403.7 581.9L398.8 584.9L391.0 595.1L381.9 597.6L373.1 604.6L363.4 604.9L354.6 611.6L351.9 619.1L344.9 620.1L343.9 630.9L298.2 631.2L235.9 630.4L206.0 630.7L196.4 630.7L131.1 630.7L134.6 629.4L138.1 621.4L137.5 610.4L144.1 602.9L145.3 595.9L150.5 593.4L151.7 584.9L158.7 573.4L158.5 562.1L160.4 562.1L162.8 562.1L167.1 561.6L211.2 562.1Z" fill="rgba(154,140,110,0.55)" stroke="#4a3a22" stroke-width="1.4"/><path d="M302.1 813.3L319.6 813.1L324.5 826.3L373.1 829.3L418.7 832.8L420.4 842.6L424.7 842.3L426.2 833.1L424.9 824.6L428.2 821.1L436.4 824.8L446.1 826.6L448.2 846.3L452.7 868.6L463.0 897.9L478.8 929.2L476.5 931.4L477.2 945.9L483.8 962.2L494.2 995.0L496.3 1005.2L496.1 1015.7L492.2 1053.5L488.9 1054.3L485.4 1066.0L486.6 1069.8L479.8 1078.3L477.0 1076.3L470.4 1079.8L459.1 1081.8L455.8 1077.0L457.4 1070.0L449.4 1049.8L443.2 1046.0L437.7 1048.8L433.4 1037.5L432.3 1028.2L424.9 1018.0L423.1 1011.2L424.3 1001.5L420.2 999.7L421.2 1005.5L417.5 1007.0L406.2 982.2L401.7 976.0L412.4 957.7L405.4 958.7L400.8 964.4L396.1 955.4L402.3 930.4L403.5 909.6L399.2 904.6L397.8 897.9L391.0 896.4L383.1 885.4L376.6 880.9L376.2 874.1L371.8 871.6L368.1 864.1L354.4 854.1L342.6 856.3L343.2 863.4L339.3 862.1L324.5 870.6L308.7 872.6L309.1 867.6L305.4 861.6L286.9 848.1L273.7 842.3L261.8 840.8L251.9 841.8L230.3 846.1L235.5 839.3L232.8 835.6L234.2 828.1L226.2 819.3L227.4 813.3L302.1 813.3Z" fill="rgba(154,140,110,0.55)" stroke="#4a3a22" stroke-width="1.4"/><path d="M567.8 -630.1L573.2 -630.0L574.2 -628.5L564.8 -628.6L564.6 -629.7L567.8 -630.1Z M881.7 -471.9L881.2 -469.1L883.5 -468.5L880.4 -465.6L880.3 -463.9L877.9 -464.9L875.6 -463.7L878.3 -469.0L875.5 -472.4L878.4 -473.1L881.7 -471.9Z M515.3 -364.0L515.7 -359.0L514.3 -359.4L512.8 -357.0L512.2 -358.8L513.4 -360.1L513.3 -362.4L512.0 -364.0L512.3 -365.8L515.3 -364.0Z M536.5 -343.5L530.8 -334.6L525.4 -322.4L526.2 -326.3L533.4 -341.2L533.5 -346.7L531.0 -344.7L529.4 -339.0L531.2 -339.1L530.8 -337.5L522.9 -322.7L528.2 -334.7L527.6 -339.6L524.3 -335.8L520.1 -327.6L515.4 -322.5L510.3 -324.3L505.0 -319.3L516.1 -333.4L514.7 -335.1L511.7 -333.1L501.8 -321.3L500.7 -320.9L499.3 -323.9L496.5 -324.4L506.5 -336.1L514.1 -341.5L516.0 -346.3L516.7 -354.2L518.0 -349.2L515.9 -344.8L515.5 -341.0L511.3 -334.9L517.8 -338.2L522.2 -349.4L523.4 -357.5L524.0 -354.1L528.2 -353.7L530.3 -349.2L535.5 -348.4L536.2 -344.6L534.7 -343.4L536.5 -343.5Z M513.2 -351.7L508.0 -342.9L497.9 -338.1L493.5 -338.0L495.8 -343.1L502.1 -344.1L501.8 -346.3L508.1 -345.8L511.1 -348.7L512.1 -351.7L513.6 -353.0L513.2 -351.7Z M545.0 -347.9L544.4 -337.2L535.3 -334.2L535.9 -336.8L539.1 -340.9L538.4 -341.6L539.7 -344.4L538.9 -345.0L542.5 -349.1L544.8 -349.0L545.0 -347.9Z M532.6 -331.8L534.4 -332.8L534.8 -330.6L532.8 -329.5L535.3 -329.9L532.8 -328.0L531.0 -322.8L528.1 -319.3L531.8 -327.5L532.6 -331.8Z M1083.9 -47.6L1103.4 -42.6L1118.8 -36.1L1122.9 -31.6L1128.0 -30.0L1129.6 -27.9L1141.4 -24.9L1149.0 -15.7L1147.6 -13.3L1143.6 -12.2L1128.3 -12.0L1120.7 -14.9L1098.2 -19.6L1091.3 -23.7L1080.7 -26.8L1079.4 -31.6L1071.5 -38.3L1057.4 -43.5L1053.0 -46.8L1052.0 -45.2L1047.6 -48.6L1049.6 -50.3L1058.6 -52.6L1068.3 -49.6L1083.9 -47.6Z M1158.0 52.9L1158.9 53.9L1154.9 57.0L1152.9 56.9L1155.7 54.0L1153.2 54.0L1147.9 57.8L1147.2 58.6L1142.1 63.2L1144.8 62.5L1148.5 57.8L1151.3 56.9L1147.5 59.8L1145.3 64.1L1143.0 63.9L1141.9 66.1L1139.3 67.0L1138.4 70.3L1140.2 69.8L1143.3 71.6L1144.6 70.3L1144.1 71.6L1141.9 72.3L1136.6 72.1L1139.5 63.6L1153.4 53.4L1158.0 52.9Z M823.8 82.3L820.6 86.2L812.5 88.8L820.8 81.6L823.0 81.0L823.8 82.3Z M1310.9 -119.4L1305.8 -123.5L1293.2 -120.1L1288.0 -122.1L1278.3 -114.6L1271.0 -112.9L1263.8 -114.7L1258.4 -111.7L1249.3 -104.3L1243.4 -101.2L1245.7 -95.2L1242.5 -90.3L1240.0 -95.0L1236.6 -88.2L1231.1 -85.1L1222.7 -76.7L1214.5 -74.6L1209.8 -66.5L1203.9 -65.5L1199.3 -65.4L1192.1 -66.7L1187.3 -64.3L1181.4 -65.5L1174.8 -63.7L1168.5 -63.4L1161.9 -63.9L1146.9 -59.0L1151.4 -61.9L1144.4 -60.9L1129.5 -65.5L1122.8 -68.3L1110.8 -67.7L1102.7 -67.9L1095.6 -68.1L1088.7 -65.9L1084.0 -66.8L1072.5 -69.1L1060.1 -66.8L1049.7 -69.4L1034.9 -67.0L1023.6 -67.9L1005.0 -66.6L996.5 -68.0L992.8 -64.7L986.4 -64.8L981.7 -63.7L975.5 -64.3L979.6 -62.3L972.1 -63.1L968.5 -56.8L960.8 -53.7L958.0 -46.6L952.9 -43.2L950.8 -36.1L951.0 -30.6L945.6 -23.9L939.0 -24.2L930.5 -21.6L925.3 -22.6L919.5 -21.5L913.1 -18.1L917.0 -14.3L912.2 -13.7L908.0 -11.9L908.0 -17.9L902.2 -11.1L899.0 -6.4L889.8 -0.7L883.2 9.4L877.8 15.6L872.9 22.5L867.7 25.6L863.9 30.3L859.4 29.4L854.1 24.2L847.3 24.0L839.4 19.5L828.4 19.1L817.9 15.4L824.8 18.5L836.2 20.6L843.0 22.9L854.9 26.4L862.3 31.5L855.3 46.9L847.8 52.1L844.7 59.6L834.9 62.4L832.3 69.7L827.1 77.6L818.1 82.1L810.2 89.0L806.5 94.0L812.1 89.3L817.0 89.2L833.5 82.1L840.7 75.3L845.5 68.0L851.1 64.4L856.4 57.5L868.8 44.2L872.2 37.5L894.5 19.9L904.5 15.9L921.7 5.0L939.6 -2.5L956.9 -7.6L972.1 -14.7L986.8 -18.3L1004.7 -19.5L1009.5 -21.0L1032.4 -18.9L1045.0 -14.3L1057.5 -5.0L1060.3 2.0L1055.3 -1.1L1046.1 -3.7L1051.6 -0.8L1060.2 8.1L1056.0 11.2L1054.7 17.4L1040.3 21.1L1038.5 27.6L1031.6 28.1L1020.8 36.0L1014.2 36.5L1001.5 31.2L998.6 26.5L992.0 32.1L984.4 31.4L978.1 31.1L964.8 36.7L961.2 41.2L952.6 41.9L947.8 41.3L937.8 39.5L919.6 36.5L910.5 40.0L910.3 52.3L903.3 62.8L886.8 68.7L886.5 63.0L880.0 61.5L853.2 96.3L852.2 101.9L851.0 108.5L845.9 112.6L842.6 119.2L841.9 124.9L843.9 130.5L837.9 137.5L833.1 143.4L827.1 150.2L830.1 155.7L824.4 154.2L822.7 160.9L818.6 158.1L814.0 159.8L806.6 160.2L801.3 162.8L801.9 168.3L799.2 173.0L785.1 173.3L762.2 173.4L739.4 173.2L733.9 173.3L709.8 174.0L684.4 173.9L692.6 170.3L699.0 164.4L693.6 159.1L696.5 147.8L687.6 144.6L679.5 144.3L658.9 149.7L645.0 156.6L636.8 150.1L627.5 152.8L617.9 148.4L614.3 141.0L610.9 134.1L606.8 136.8L596.7 133.5L592.6 126.7L584.3 121.0L579.8 119.5L543.5 112.5L534.7 104.5L527.4 90.8L522.1 84.9L517.2 77.2L517.3 70.1L512.5 62.0L514.8 56.4L514.5 8.9L514.4 1.6L513.8 -98.6L520.3 -90.3L517.9 -95.1L513.8 -99.7L513.8 -109.3L513.5 -121.5L520.4 -130.5L523.2 -124.7L528.4 -125.1L532.1 -122.3L535.1 -113.6L538.5 -108.0L536.3 -114.5L541.3 -122.7L539.9 -128.4L535.0 -130.6L531.8 -136.0L538.7 -138.9L541.9 -145.0L545.8 -148.8L549.4 -154.5L554.0 -157.1L548.7 -158.6L549.1 -166.1L541.3 -172.0L541.6 -178.0L542.6 -183.8L538.1 -186.3L538.4 -192.4L533.5 -193.0L535.9 -199.4L534.5 -204.8L533.4 -212.1L529.0 -214.8L534.4 -215.4L530.7 -219.1L527.6 -224.1L531.4 -227.7L536.4 -229.1L530.7 -231.0L528.1 -235.6L532.9 -237.6L528.4 -241.3L522.7 -241.3L527.0 -242.9L531.2 -245.9L525.6 -244.6L519.4 -246.4L516.6 -251.5L515.1 -256.8L511.5 -262.9L509.4 -268.1L524.4 -274.7L533.8 -276.1L537.8 -279.1L556.5 -285.1L577.0 -296.4L580.6 -300.2L596.4 -310.4L600.9 -315.5L609.7 -325.7L616.1 -331.7L617.5 -337.4L620.4 -342.5L621.6 -365.6L619.8 -376.2L616.3 -393.0L610.7 -403.2L598.8 -421.3L586.7 -427.9L582.3 -432.6L568.0 -437.6L564.2 -440.7L558.9 -444.0L554.4 -448.7L548.3 -448.4L551.9 -452.4L551.1 -457.8L549.6 -463.2L555.6 -464.1L559.8 -465.6L563.9 -470.9L574.5 -478.8L579.7 -484.0L571.6 -485.0L578.4 -490.6L575.5 -496.8L580.2 -496.8L587.2 -495.0L592.8 -491.8L588.3 -493.4L584.8 -497.5L588.6 -501.8L593.6 -502.2L588.8 -507.8L593.3 -510.1L596.6 -513.6L601.9 -514.5L609.0 -516.3L596.9 -518.6L592.8 -513.1L581.6 -514.7L589.6 -517.6L584.4 -520.6L582.6 -526.8L577.6 -529.6L583.6 -534.6L589.3 -536.5L584.5 -537.8L580.2 -536.8L574.4 -540.9L582.4 -546.3L577.5 -546.6L585.8 -549.9L572.4 -545.9L561.7 -547.7L570.4 -557.6L575.2 -559.7L579.3 -566.6L575.8 -578.1L584.1 -578.7L580.2 -581.1L587.1 -582.1L581.5 -583.8L576.1 -589.3L568.2 -590.9L565.6 -596.9L563.6 -603.5L562.7 -610.8L567.6 -621.0L579.1 -624.5L586.7 -630.0L602.3 -626.8L634.4 -620.4L641.3 -619.0L652.1 -616.4L645.3 -611.6L657.8 -616.6L663.6 -617.3L669.6 -616.1L677.6 -614.4L683.4 -609.6L690.8 -607.8L683.9 -611.8L696.0 -614.5L700.6 -617.7L710.6 -619.4L715.3 -624.0L722.0 -625.0L726.1 -620.3L732.3 -619.9L738.6 -617.3L743.9 -611.4L749.5 -609.6L753.8 -607.9L759.4 -608.3L760.2 -601.7L753.4 -595.5L757.9 -597.5L774.3 -596.8L776.5 -591.8L782.0 -588.3L778.5 -584.7L773.2 -585.7L778.7 -584.0L784.0 -587.7L793.2 -587.5L797.7 -582.9L786.8 -581.6L790.6 -578.6L785.6 -577.0L796.4 -575.9L787.9 -574.4L793.6 -572.3L794.8 -566.7L799.0 -564.7L804.0 -562.8L809.5 -565.0L816.8 -562.9L823.6 -560.3L829.4 -559.7L834.0 -560.1L840.2 -560.2L847.5 -561.2L849.7 -555.3L855.3 -548.6L861.3 -553.7L864.9 -559.8L870.0 -560.5L873.1 -553.9L875.1 -548.7L862.8 -542.9L864.9 -537.9L858.9 -535.7L860.6 -530.7L866.7 -522.3L866.0 -514.8L858.3 -514.6L840.9 -513.0L832.9 -511.3L816.1 -514.5L832.6 -510.2L844.6 -511.1L850.5 -509.2L862.4 -510.0L868.2 -505.6L865.0 -497.9L869.8 -495.8L864.1 -491.7L865.3 -485.1L861.3 -480.6L865.8 -479.6L873.6 -482.2L879.4 -480.8L877.8 -475.5L873.3 -474.8L869.0 -473.6L876.0 -470.2L870.2 -469.2L872.1 -461.1L868.8 -457.2L864.4 -456.5L864.4 -462.8L860.2 -464.5L859.9 -458.2L843.8 -455.5L851.4 -453.8L855.6 -455.7L859.9 -452.5L865.4 -452.1L870.2 -455.7L875.8 -460.1L883.6 -461.5L892.2 -460.4L896.6 -462.4L909.9 -457.4L912.2 -450.7L913.5 -444.3L915.8 -438.5L912.5 -431.3L907.2 -422.4L889.5 -418.4L881.0 -414.3L875.1 -409.6L890.0 -417.5L909.4 -422.1L913.0 -429.2L917.8 -439.3L922.8 -443.7L927.5 -443.2L928.9 -434.7L920.4 -426.6L925.4 -430.0L930.8 -433.9L931.3 -441.5L935.6 -439.8L933.1 -435.2L936.5 -431.7L935.4 -423.5L933.1 -418.8L936.7 -422.3L942.2 -432.8L953.3 -437.6L958.9 -439.7L963.7 -442.2L972.8 -442.6L974.1 -449.2L978.5 -453.3L982.4 -458.8L990.9 -453.2L994.8 -450.2L994.1 -442.9L991.6 -437.0L996.1 -438.2L998.2 -444.5L996.6 -451.5L993.2 -454.8L1002.0 -459.0L995.1 -461.4L1000.1 -463.5L1006.3 -462.7L1002.2 -466.3L1006.9 -468.0L1012.6 -465.2L1019.1 -467.9L1011.0 -470.6L1004.9 -472.8L1003.9 -478.1L1009.3 -474.6L1010.1 -483.3L1017.7 -478.7L1015.0 -484.4L1011.1 -488.4L1023.6 -487.0L1030.9 -483.2L1022.5 -488.3L1015.7 -489.3L1011.0 -499.6L1017.1 -502.4L1024.9 -501.6L1030.9 -500.8L1022.8 -504.1L1025.4 -509.5L1029.4 -514.8L1032.4 -520.4L1035.3 -525.2L1043.1 -527.4L1035.5 -523.6L1038.6 -519.7L1043.2 -519.8L1039.8 -516.4L1033.7 -513.9L1042.7 -508.5L1038.6 -506.2L1038.4 -497.9L1036.5 -490.3L1041.0 -486.4L1050.5 -490.2L1048.6 -484.1L1046.7 -479.0L1048.4 -473.2L1052.9 -469.3L1042.6 -467.3L1036.4 -467.5L1037.1 -461.9L1045.7 -460.8L1055.2 -460.6L1060.3 -454.4L1065.9 -457.7L1071.5 -458.2L1080.5 -459.0L1084.3 -454.5L1064.1 -451.2L1062.9 -445.7L1069.9 -446.0L1060.3 -436.2L1058.4 -431.1L1051.7 -428.6L1058.5 -421.8L1063.8 -409.8L1068.5 -411.0L1072.1 -406.2L1076.5 -404.9L1080.2 -408.2L1075.8 -402.1L1074.3 -396.7L1076.2 -391.6L1071.7 -389.5L1071.0 -383.5L1075.1 -385.3L1073.4 -379.7L1070.7 -374.3L1065.7 -367.8L1061.3 -361.4L1067.8 -354.0L1070.4 -349.0L1059.8 -348.5L1061.0 -342.8L1066.8 -340.8L1065.2 -332.4L1071.3 -334.4L1085.6 -330.0L1076.7 -326.3L1084.1 -315.1L1090.8 -307.2L1096.3 -307.3L1098.0 -299.2L1082.9 -291.6L1081.3 -286.0L1085.9 -282.0L1077.6 -265.5L1066.7 -266.2L1054.3 -271.9L1046.3 -270.5L1037.0 -271.8L1026.0 -269.3L1014.6 -271.6L1005.8 -270.2L1000.7 -275.5L996.3 -280.0L986.3 -282.9L974.3 -294.7L970.4 -297.0L964.8 -298.1L970.3 -292.6L967.6 -288.1L971.4 -282.2L973.3 -273.7L968.6 -271.0L961.2 -274.2L958.3 -278.6L948.7 -283.6L944.1 -286.5L946.4 -277.6L952.7 -270.4L958.0 -266.0L951.5 -265.3L948.4 -260.6L941.8 -264.1L936.8 -259.5L938.1 -254.3L940.4 -248.9L936.6 -245.6L931.5 -240.5L937.6 -234.3L944.0 -227.4L941.8 -219.5L954.2 -216.6L956.9 -211.5L962.5 -207.4L959.6 -200.8L960.0 -193.1L956.5 -189.5L957.2 -183.0L963.1 -177.0L971.1 -179.4L971.8 -189.4L976.2 -189.3L982.5 -190.7L985.2 -186.3L983.2 -179.9L979.5 -174.1L982.1 -164.8L977.5 -160.5L979.2 -155.4L982.9 -152.4L983.5 -159.4L988.6 -156.3L992.5 -151.6L997.8 -148.5L1001.9 -150.6L1010.2 -148.3L1014.2 -155.7L1026.5 -154.0L1035.6 -147.2L1045.0 -138.4L1040.4 -134.7L1044.4 -129.9L1050.2 -131.0L1056.5 -134.3L1053.2 -139.4L1056.1 -146.3L1056.7 -152.0L1061.8 -153.1L1061.2 -159.0L1058.5 -171.3L1058.7 -176.9L1059.7 -185.1L1067.3 -185.8L1068.6 -195.4L1076.8 -197.1L1082.2 -190.5L1080.2 -181.4L1086.4 -178.5L1071.6 -174.4L1066.9 -172.3L1063.0 -167.7L1068.4 -165.3L1068.0 -158.3L1078.1 -151.9L1072.1 -149.4L1301.5 -146.2L1311.0 -146.2L1310.9 -119.4Z" fill="rgba(140,43,43,0.76)" stroke="#4a3a22" stroke-width="1.4"/><rect x="816.8" y="292.8" width="22" height="22" rx="3" fill="#1f4e79" stroke="#14100a" stroke-width="2"/><rect x="699.6" y="358.6" width="22" height="22" rx="3" fill="#8c2b2b" stroke="#14100a" stroke-width="2"/><rect x="658.4" y="393.3" width="22" height="22" rx="3" fill="#1f4e79" stroke="#14100a" stroke-width="2"/><rect x="488.9" y="720.9" width="22" height="22" rx="3" fill="#1f4e79" stroke="#14100a" stroke-width="2"/><line x1="994.8" y1="274.1" x2="799.4" y2="73.1" stroke="#b94b4b" stroke-width="1.5" stroke-dasharray="5 5" opacity="0.45"/><line x1="994.8" y1="274.1" x2="827.8" y2="303.8" stroke="#b94b4b" stroke-width="1.5" stroke-dasharray="5 5" opacity="0.45"/><line x1="994.8" y1="274.1" x2="710.6" y2="369.6" stroke="#b94b4b" stroke-width="1.5" stroke-dasharray="5 5" opacity="0.45"/><line x1="781.6" y1="548.2" x2="710.6" y2="369.6" stroke="#b94b4b" stroke-width="1.5" stroke-dasharray="5 5" opacity="0.45"/><line x1="781.6" y1="548.2" x2="669.4" y2="404.3" stroke="#b94b4b" stroke-width="1.5" stroke-dasharray="5 5" opacity="0.45"/><line x1="781.6" y1="548.2" x2="499.9" y2="731.9" stroke="#b94b4b" stroke-width="1.5" stroke-dasharray="5 5" opacity="0.45"/><line x1="604" y1="822.3" x2="499.9" y2="731.9" stroke="#b94b4b" stroke-width="1.5" stroke-dasharray="5 5" opacity="0.45"/><line x1="604" y1="822.3" x2="375" y2="737.9" stroke="#b94b4b" stroke-width="1.5" stroke-dasharray="5 5" opacity="0.45"/><circle cx="994.8" cy="274.1" r="9" fill="#8c2b2b" stroke="#14100a" stroke-width="1.5"/><text x="994.8" y="278.1" font-size="11" text-anchor="middle" fill="#f7f2e2">&#9875;</text><text x="994.8" y="296.1" font-family="Georgia,serif" font-size="9" font-style="italic" font-weight="bold" text-anchor="middle" fill="#21424c" stroke="rgba(247,242,226,0.7)" stroke-width="2" paint-order="stroke">Royal Navy</text><circle cx="781.6" cy="548.2" r="9" fill="#8c2b2b" stroke="#14100a" stroke-width="1.5"/><text x="781.6" y="552.2" font-size="11" text-anchor="middle" fill="#f7f2e2">&#9875;</text><text x="781.6" y="570.2" font-family="Georgia,serif" font-size="9" font-style="italic" font-weight="bold" text-anchor="middle" fill="#21424c" stroke="rgba(247,242,226,0.7)" stroke-width="2" paint-order="stroke">Royal Navy</text><circle cx="604" cy="822.3" r="9" fill="#8c2b2b" stroke="#14100a" stroke-width="1.5"/><text x="604" y="826.3" font-size="11" text-anchor="middle" fill="#f7f2e2">&#9875;</text><text x="604" y="844.3" font-family="Georgia,serif" font-size="9" font-style="italic" font-weight="bold" text-anchor="middle" fill="#21424c" stroke="rgba(247,242,226,0.7)" stroke-width="2" paint-order="stroke">Royal Navy</text><text x="881.1" y="149.2" font-family="Georgia,serif" font-size="11" font-weight="bold" text-anchor="middle" fill="#f7efd9" stroke="rgba(20,12,4,0.75)" stroke-width="2.6" paint-order="stroke">Maine</text><circle cx="881.1" cy="168.2" r="13" fill="#f7f2e2" stroke="#1f4e79" stroke-width="2"/><text x="881.1" y="172.7" font-family="Georgia,serif" font-size="10.5" font-weight="bold" text-anchor="middle" fill="#2b2118">1k</text><text x="801.2" y="224.6" font-family="Georgia,serif" font-size="11" font-weight="bold" text-anchor="middle" fill="#f7efd9" stroke="rgba(20,12,4,0.75)" stroke-width="2.6" paint-order="stroke">New Hampshire</text><circle cx="801.2" cy="243.6" r="13" fill="#f7f2e2" stroke="#1f4e79" stroke-width="2"/><text x="801.2" y="248.1" font-family="Georgia,serif" font-size="10.5" font-weight="bold" text-anchor="middle" fill="#2b2118">2k</text><text x="788.7" y="279.4" font-family="Georgia,serif" font-size="11" font-weight="bold" text-anchor="middle" fill="#f7efd9" stroke="rgba(20,12,4,0.75)" stroke-width="2.6" paint-order="stroke">Massachusetts</text><circle cx="788.7" cy="298.4" r="13" fill="#f7f2e2" stroke="#1f4e79" stroke-width="2"/><text x="788.7" y="302.9" font-family="Georgia,serif" font-size="10.5" font-weight="bold" text-anchor="middle" fill="#2b2118">1.5k</text><path d="M800.7 282.9L802.1 286.5L805.9 286.7L803.0 289.1L803.9 292.8L800.7 290.8L797.5 292.8L798.4 289.1L795.5 286.7L799.3 286.5Z" fill="#fff3cf" stroke="#2b2118" stroke-width="0.7"/><text x="801.2" y="318.2" font-family="Georgia,serif" font-size="11" font-weight="bold" text-anchor="middle" fill="#f7efd9" stroke="rgba(20,12,4,0.75)" stroke-width="2.6" paint-order="stroke">R.I.</text><circle cx="801.2" cy="337.2" r="13" fill="#f7f2e2" stroke="#1f4e79" stroke-width="2"/><text x="801.2" y="341.7" font-family="Georgia,serif" font-size="10.5" font-weight="bold" text-anchor="middle" fill="#2b2118">1.5k</text><text x="746.1" y="325.1" font-family="Georgia,serif" font-size="11" font-weight="bold" text-anchor="middle" fill="#f7efd9" stroke="rgba(20,12,4,0.75)" stroke-width="2.6" paint-order="stroke">Connecticut</text><circle cx="746.1" cy="344.1" r="13" fill="#f7f2e2" stroke="#1f4e79" stroke-width="2"/><text x="746.1" y="348.6" font-family="Georgia,serif" font-size="10.5" font-weight="bold" text-anchor="middle" fill="#2b2118">2k</text><text x="664.4" y="254.3" font-family="Georgia,serif" font-size="11" font-weight="bold" text-anchor="middle" fill="#f7efd9" stroke="rgba(20,12,4,0.75)" stroke-width="2.6" paint-order="stroke">New York</text><circle cx="664.4" cy="273.3" r="13" fill="#f7f2e2" stroke="#1f4e79" stroke-width="2"/><text x="664.4" y="277.8" font-family="Georgia,serif" font-size="10.5" font-weight="bold" text-anchor="middle" fill="#2b2118">2k</text><text x="732.8" y="419.5" font-family="Georgia,serif" font-size="11" font-weight="bold" text-anchor="middle" fill="#f7efd9" stroke="rgba(20,12,4,0.75)" stroke-width="2.6" paint-order="stroke">New Jersey</text><circle cx="692.8" cy="403.5" r="13" fill="#f7f2e2" stroke="#1f4e79" stroke-width="2"/><text x="692.8" y="408" font-family="Georgia,serif" font-size="10.5" font-weight="bold" text-anchor="middle" fill="#2b2118">2k</text><text x="575.6" y="349.1" font-family="Georgia,serif" font-size="11" font-weight="bold" text-anchor="middle" fill="#f7efd9" stroke="rgba(20,12,4,0.75)" stroke-width="2.6" paint-order="stroke">Pennsylvania</text><circle cx="575.6" cy="368.1" r="13" fill="#f7f2e2" stroke="#1f4e79" stroke-width="2"/><text x="575.6" y="372.6" font-family="Georgia,serif" font-size="10.5" font-weight="bold" text-anchor="middle" fill="#2b2118">2k</text><text x="689.1" y="469.4" font-family="Georgia,serif" font-size="11" font-weight="bold" text-anchor="middle" fill="#f7efd9" stroke="rgba(20,12,4,0.75)" stroke-width="2.6" paint-order="stroke">Delaware</text><circle cx="659.1" cy="451.4" r="13" fill="#f7f2e2" stroke="#1f4e79" stroke-width="2"/><text x="659.1" y="455.9" font-family="Georgia,serif" font-size="10.5" font-weight="bold" text-anchor="middle" fill="#2b2118">1.5k</text><text x="596.9" y="414.2" font-family="Georgia,serif" font-size="11" font-weight="bold" text-anchor="middle" fill="#f7efd9" stroke="rgba(20,12,4,0.75)" stroke-width="2.6" paint-order="stroke">Maryland</text><circle cx="596.9" cy="433.2" r="13" fill="#f7f2e2" stroke="#1f4e79" stroke-width="2"/><text x="596.9" y="437.7" font-family="Georgia,serif" font-size="10.5" font-weight="bold" text-anchor="middle" fill="#2b2118">2k</text><text x="515.2" y="466.7" font-family="Georgia,serif" font-size="11" font-weight="bold" text-anchor="middle" fill="#f7efd9" stroke="rgba(20,12,4,0.75)" stroke-width="2.6" paint-order="stroke">Virginia</text><circle cx="515.2" cy="485.7" r="13" fill="#f7f2e2" stroke="#1f4e79" stroke-width="2"/><text x="515.2" y="490.2" font-family="Georgia,serif" font-size="10.5" font-weight="bold" text-anchor="middle" fill="#2b2118">3.5k</text><path d="M527.2 470.2L528.6 473.8L532.4 474.0L529.5 476.4L530.4 480.1L527.2 478.1L524.0 480.1L524.9 476.4L522.0 474.0L525.8 473.8Z" fill="#fff3cf" stroke="#2b2118" stroke-width="0.7"/><text x="520.9" y="592.9" font-family="Georgia,serif" font-size="11" font-weight="bold" text-anchor="middle" fill="#f7efd9" stroke="rgba(20,12,4,0.75)" stroke-width="2.6" paint-order="stroke">North Carolina</text><circle cx="520.9" cy="611.9" r="13" fill="#f7f2e2" stroke="#1f4e79" stroke-width="2"/><text x="520.9" y="616.4" font-family="Georgia,serif" font-size="10.5" font-weight="bold" text-anchor="middle" fill="#2b2118">2k</text><text x="465.6" y="667.5" font-family="Georgia,serif" font-size="11" font-weight="bold" text-anchor="middle" fill="#f7efd9" stroke="rgba(20,12,4,0.75)" stroke-width="2.6" paint-order="stroke">South Carolina</text><circle cx="465.6" cy="686.5" r="13" fill="#f7f2e2" stroke="#1f4e79" stroke-width="2"/><text x="465.6" y="691" font-family="Georgia,serif" font-size="10.5" font-weight="bold" text-anchor="middle" fill="#2b2118">1.5k</text><text x="375" y="724.9" font-family="Georgia,serif" font-size="11" font-weight="bold" text-anchor="middle" fill="#f7efd9" stroke="rgba(20,12,4,0.75)" stroke-width="2.6" paint-order="stroke">Georgia</text><circle cx="375" cy="743.9" r="13" fill="#f7f2e2" stroke="#8c2b2b" stroke-width="2"/><text x="375" y="748.4" font-family="Georgia,serif" font-size="10.5" font-weight="bold" text-anchor="middle" fill="#2b2118">5k</text><path d="M387.0 728.4L388.4 732.0L392.2 732.2L389.3 734.6L390.2 738.3L387.0 736.3L383.8 738.3L384.7 734.6L381.8 732.2L385.6 732.0Z" fill="#fff3cf" stroke="#2b2118" stroke-width="0.7"/><text x="749.7" y="190.3" font-family="Georgia,serif" font-size="11" font-weight="bold" text-anchor="middle" fill="#f7efd9" stroke="rgba(20,12,4,0.75)" stroke-width="2.6" paint-order="stroke">Vermont</text><circle cx="749.7" cy="209.3" r="13" fill="#f7f2e2" stroke="#9a8c6e" stroke-width="2"/><text x="749.7" y="213.8" font-family="Georgia,serif" font-size="10.5" font-weight="bold" text-anchor="middle" fill="#2b2118">1k</text><text x="476.1" y="224.6" font-family="Georgia,serif" font-size="11" font-weight="bold" text-anchor="middle" fill="#f7efd9" stroke="rgba(20,12,4,0.75)" stroke-width="2.6" paint-order="stroke">Ontario</text><circle cx="476.1" cy="243.6" r="13" fill="#f7f2e2" stroke="#9a8c6e" stroke-width="2"/><text x="476.1" y="248.1" font-family="Georgia,serif" font-size="10.5" font-weight="bold" text-anchor="middle" fill="#2b2118">1.5k</text><text x="401.5" y="375.3" font-family="Georgia,serif" font-size="11" font-weight="bold" text-anchor="middle" fill="#f7efd9" stroke="rgba(20,12,4,0.75)" stroke-width="2.6" paint-order="stroke">Ohio Country</text><circle cx="401.5" cy="394.3" r="13" fill="#f7f2e2" stroke="#9a8c6e" stroke-width="2"/><text x="401.5" y="398.8" font-family="Georgia,serif" font-size="10.5" font-weight="bold" text-anchor="middle" fill="#2b2118">1.5k</text><text x="291.3" y="553.5" font-family="Georgia,serif" font-size="11" font-weight="bold" text-anchor="middle" fill="#f7efd9" stroke="rgba(20,12,4,0.75)" stroke-width="2.6" paint-order="stroke">Appalachia</text><circle cx="291.3" cy="572.5" r="13" fill="#f7f2e2" stroke="#9a8c6e" stroke-width="2"/><text x="291.3" y="577" font-family="Georgia,serif" font-size="10.5" font-weight="bold" text-anchor="middle" fill="#2b2118">1.5k</text><text x="390.8" y="861.9" font-family="Georgia,serif" font-size="11" font-weight="bold" text-anchor="middle" fill="#f7efd9" stroke="rgba(20,12,4,0.75)" stroke-width="2.6" paint-order="stroke">East Florida</text><circle cx="390.8" cy="880.9" r="13" fill="#f7f2e2" stroke="#9a8c6e" stroke-width="2"/><text x="390.8" y="885.4" font-family="Georgia,serif" font-size="10.5" font-weight="bold" text-anchor="middle" fill="#2b2118">2.5k</text><text x="799.4" y="60.099999999999994" font-family="Georgia,serif" font-size="11" font-weight="bold" text-anchor="middle" fill="#f7efd9" stroke="rgba(20,12,4,0.75)" stroke-width="2.6" paint-order="stroke">Quebec</text><circle cx="799.4" cy="79.1" r="13" fill="#f7f2e2" stroke="#8c2b2b" stroke-width="2"/><text x="799.4" y="83.6" font-family="Georgia,serif" font-size="10.5" font-weight="bold" text-anchor="middle" fill="#2b2118">6k</text><path d="M811.4 63.6L812.8 67.2L816.6 67.4L813.7 69.8L814.6 73.5L811.4 71.5L808.2 73.5L809.1 69.8L806.2 67.4L810.0 67.2Z" fill="#fff3cf" stroke="#2b2118" stroke-width="0.7"/><text x="861.8" y="309.8" font-family="Georgia,serif" font-size="11" font-weight="bold" text-anchor="middle" fill="#f7efd9" stroke="rgba(20,12,4,0.75)" stroke-width="2.6" paint-order="stroke">Boston</text><text x="827.8" y="308.3" font-family="Georgia,serif" font-size="10.5" font-weight="bold" text-anchor="middle" fill="#f7f2e2" stroke="rgba(15,9,4,0.85)" stroke-width="3" paint-order="stroke">1.5k</text><text x="740.6" y="373.6" font-family="Georgia,serif" font-size="11" font-weight="bold" text-anchor="middle" fill="#f7efd9" stroke="rgba(20,12,4,0.75)" stroke-width="2.6" paint-order="stroke">N.Y.C.</text><path d="M710.6 345.1L712.2 349.3L716.8 349.6L713.3 352.5L714.4 356.9L710.6 354.4L706.8 356.9L707.9 352.5L704.4 349.6L709.0 349.3Z" fill="#ffd24a" stroke="#2b2118" stroke-width="0.7"/><text x="710.6" y="374.1" font-family="Georgia,serif" font-size="10.5" font-weight="bold" text-anchor="middle" fill="#f7f2e2" stroke="rgba(15,9,4,0.85)" stroke-width="3" paint-order="stroke">8k</text><path d="M699.6 353.6L700.9 356.8L704.4 357.1L701.7 359.3L702.5 362.6L699.6 360.8L696.7 362.6L697.5 359.3L694.8 357.1L698.3 356.8Z" fill="#fff3cf" stroke="#2b2118" stroke-width="0.7"/><text x="665.4" y="429.3" font-family="Georgia,serif" font-size="11" font-weight="bold" text-anchor="middle" fill="#f7efd9" stroke="rgba(20,12,4,0.75)" stroke-width="2.6" paint-order="stroke">Phila.</text><path d="M669.4 379.8L671.0 384.0L675.6 384.3L672.1 387.2L673.2 391.6L669.4 389.1L665.6 391.6L666.7 387.2L663.2 384.3L667.8 384.0Z" fill="#ffd24a" stroke="#2b2118" stroke-width="0.7"/><text x="669.4" y="408.8" font-family="Georgia,serif" font-size="10.5" font-weight="bold" text-anchor="middle" fill="#f7f2e2" stroke="rgba(15,9,4,0.85)" stroke-width="3" paint-order="stroke">3k</text><path d="M658.4 388.3L659.7 391.5L663.2 391.8L660.5 394.0L661.3 397.3L658.4 395.5L655.5 397.3L656.3 394.0L653.6 391.8L657.1 391.5Z" fill="#fff3cf" stroke="#2b2118" stroke-width="0.7"/><text x="499.9" y="754.9" font-family="Georgia,serif" font-size="11" font-weight="bold" text-anchor="middle" fill="#f7efd9" stroke="rgba(20,12,4,0.75)" stroke-width="2.6" paint-order="stroke">Charleston</text><text x="499.9" y="736.4" font-family="Georgia,serif" font-size="10.5" font-weight="bold" text-anchor="middle" fill="#f7f2e2" stroke="rgba(15,9,4,0.85)" stroke-width="3" paint-order="stroke">1.5k</text><text x="987" y="780" font-family="Georgia,serif" font-size="17" font-style="italic" letter-spacing="4" text-anchor="middle" fill="rgba(30,60,70,0.55)" font-weight="bold">ATLANTIC OCEAN</text></svg>