<svg xmlns="http://www.w3.org/2000/svg" viewBox="0 0 1000 1042" height="900"><rect width="1000" height="1042" fill="#0a0f16"/><rect width="1000" height="1042" fill="#5b7fa6" fill-opacity="0.4"/><path d="M236 41L238 43L242 46L242 48L243 50L242 51L244 54L243 59L245 62L244 66L247 73L253 78L250 80L250 83L233 83L227 83L225 87L219 89L215 89L213 90L214 93L214 96L217 98L216 99L211 100L207 103L198 106L195 110L191 113L183 115L176 115L176 117L174 119L167 118L151 127L145 131L145 146L143 146L144 152L144 153L135 154L129 157L126 156L123 157L116 155L107 157L108 159L108 160L105 162L103 168L98 169L93 185L85 191L80 197L72 202L69 210L67 221L62 227L62 229L60 232L57 233L42 232L28 234L29 227L31 223L35 221L37 217L38 214L40 211L39 210L45 200L45 199L43 202L44 199L58 187L59 177L65 165L76 159L82 146L85 142L99 139L105 136L112 131L120 126L124 121L131 111L132 106L129 103L129 93L131 89L136 83L137 76L148 67L170 57L178 45L184 31L192 29L193 30L192 32L194 34L199 38L202 39L207 40L216 38L220 39L222 39L226 37L228 40L236 41ZM143 146L145 146L145 169L98 169L98 205L90 207L84 211L82 214L84 235L29 235L27 242L27 241L28 234L42 232L57 233L60 232L62 229L62 227L67 221L69 210L72 202L80 197L85 191L93 185L98 169L103 168L105 162L108 160L108 159L107 157L116 155L123 157L126 156L129 157L135 154L144 153L144 152L143 146Z" fill="#d64550" stroke="#0a0d12" stroke-width="0.6" opacity="0.93"/><path d="M388 15L389 16L383 21L385 23L384 31L386 39L384 43L384 46L382 48L378 51L377 53L373 55L373 59L376 67L382 70L385 77L395 83L402 109L399 111L403 118L406 124L407 144L405 150L407 157L407 160L406 161L401 164L400 167L408 178L409 182L412 189L414 190L418 189L430 193L436 204L373 241L350 261L316 268L313 267L311 265L313 262L313 256L312 256L301 253L299 250L292 249L290 246L284 242L284 238L204 186L145 151L145 131L151 127L167 118L174 119L176 117L176 115L183 115L191 113L195 110L198 106L207 103L211 100L216 99L217 98L214 96L214 93L213 90L215 89L219 89L225 87L227 83L233 83L250 83L250 80L253 78L247 73L244 66L245 62L243 59L244 54L242 51L243 50L242 48L242 46L238 43L236 41L241 41L244 40L252 34L262 30L267 31L272 26L285 21L304 20L309 17L317 17L321 16L335 16L342 19L353 16L359 13L360 14L365 15L370 15L369 13L379 16L388 15Z" fill="#d64550" stroke="#0a0d12" stroke-width="0.6" opacity="0.93"/><path d="M430 68L429 75L430 77L430 79L420 83L417 85L415 88L412 89L410 92L412 99L411 102L407 107L402 109L395 83L385 77L382 70L376 67L373 59L373 55L377 53L378 51L382 48L384 46L384 43L386 39L384 31L385 23L383 21L389 16L388 15L392 14L396 11L404 9L406 10L405 11L406 12L407 12L407 11L411 11L411 14L413 16L413 17L414 18L416 16L423 13L424 16L420 21L416 24L415 26L417 30L423 33L423 38L424 39L418 47L410 52L409 56L413 60L415 61L418 61L419 63L421 63L422 62L424 62L425 65L426 66L425 67L430 68ZM426 46L424 47L426 45L426 46ZM422 60L419 60L419 58L421 58L423 59L422 60Z" fill="#d64550" stroke="#0a0d12" stroke-width="0.6" opacity="0.93"/><path d="M402 109L407 107L411 102L412 99L410 92L412 89L415 88L417 85L420 83L430 79L430 77L429 75L430 68L441 72L447 73L455 72L467 75L472 77L481 79L484 82L484 85L486 89L489 93L495 95L504 96L519 100L524 102L531 107L537 109L545 106L551 99L551 96L549 91L548 87L550 83L555 78L564 74L569 73L572 71L580 72L593 76L593 80L596 81L603 82L607 84L615 84L619 85L622 89L618 94L619 103L616 110L619 124L619 253L605 254L605 261L493 205L468 217L457 209L436 204L430 193L418 189L415 190L413 190L410 186L408 178L400 167L401 164L406 161L407 157L405 150L407 144L406 133L406 125L403 118L399 111L402 109Z" fill="#d64550" stroke="#0a0d12" stroke-width="0.6" opacity="0.93"/><path d="M787 225L710 225L711 223L710 223L707 225L619 225L619 124L616 110L619 103L618 94L622 89L623 91L625 91L632 90L651 93L655 96L660 96L662 97L669 98L677 101L682 100L689 95L693 95L696 92L703 91L698 93L704 92L705 90L712 92L717 91L720 94L717 92L715 94L718 95L720 97L722 96L721 94L727 98L734 96L735 97L742 97L749 94L759 120L757 123L753 136L752 141L750 144L743 140L736 133L734 127L728 119L726 113L725 114L723 118L727 122L727 127L731 133L740 142L740 146L744 152L746 160L754 173L763 190L767 195L772 198L768 198L768 200L768 205L770 212L773 215L778 216L780 220L786 224L787 225Z" fill="#d64550" stroke="#0a0d12" stroke-width="0.6" opacity="0.93"/><path d="M37 258L36 259L36 258L37 255L37 258ZM95 327L87 321L85 318L82 315L79 309L77 308L72 308L69 304L63 301L56 300L46 303L39 302L36 307L35 312L36 301L41 288L42 279L39 268L35 263L37 262L38 260L36 261L38 257L39 250L36 244L35 244L34 245L33 245L30 238L29 238L28 239L27 242L29 235L84 235L82 214L84 211L90 207L98 205L98 169L145 169L145 151L200 183L175 183L188 302L192 306L190 317L138 317L136 317L136 314L135 315L135 317L128 319L117 318L113 322L106 315L102 318L99 326L97 328L95 327Z" fill="#e0a526" stroke="#0a0d12" stroke-width="0.6" opacity="0.93"/><path d="M107 361L106 358L107 353L104 347L102 347L101 348L98 343L99 340L98 335L95 332L96 329L95 327L97 328L99 326L102 318L106 315L113 322L117 318L128 319L135 317L135 315L136 314L136 317L138 317L190 317L192 306L188 302L175 183L200 183L284 238L284 242L290 246L292 249L299 250L301 253L312 256L313 256L313 262L311 265L313 267L316 268L327 266L327 296L327 302L322 313L317 317L317 319L311 318L310 319L286 320L281 324L272 324L271 325L264 323L262 324L258 323L244 331L240 332L238 336L233 334L231 335L227 339L226 343L222 343L221 348L218 350L212 346L211 347L207 350L208 355L204 357L205 358L205 361L201 365L196 367L193 369L194 375L192 378L190 380L191 384L190 388L185 389L183 392L180 391L180 389L179 384L177 385L177 386L174 385L173 389L170 390L169 392L164 391L162 388L160 388L158 391L155 392L155 390L151 388L150 380L148 380L146 380L149 375L143 371L143 367L141 361L139 360L135 360L136 363L132 364L131 366L123 363L120 364L117 368L114 363L108 366L106 363L107 361Z" fill="#e0a526" stroke="#0a0d12" stroke-width="0.6" opacity="0.93"/><path d="M459 342L455 343L449 346L446 348L443 351L438 351L436 349L428 347L415 347L409 349L403 355L391 353L382 348L378 347L371 351L365 352L356 343L345 340L341 341L333 342L326 346L324 353L323 355L319 359L318 368L319 370L318 370L307 361L301 363L301 368L297 362L297 361L299 360L297 356L295 356L293 358L290 357L282 352L282 347L285 347L280 344L276 342L273 337L273 335L270 331L271 324L281 324L286 320L310 319L311 318L317 319L317 317L322 313L327 302L327 296L327 266L350 261L373 241L436 204L457 209L468 217L479 211L481 226L481 232L487 240L486 241L487 243L492 249L489 255L486 297L470 313L457 333L459 342Z" fill="#e0a526" stroke="#0a0d12" stroke-width="0.6" opacity="0.93"/><path d="M95 327L96 329L95 332L98 335L99 340L98 343L101 348L102 347L104 348L107 353L106 358L107 359L107 361L98 361L94 362L85 359L84 359L83 357L74 357L54 357L48 359L32 361L32 359L36 358L34 356L32 358L31 357L32 351L33 350L45 350L45 348L52 347L54 344L67 349L73 347L73 346L71 344L65 345L57 341L55 341L50 342L49 344L34 344L31 339L34 337L31 338L29 332L26 329L23 328L22 329L21 327L26 325L30 320L34 314L36 307L39 302L46 303L57 300L66 302L72 308L77 308L80 310L82 315L85 318L87 321L95 327ZM34 344L49 344L50 342L55 341L57 341L65 345L71 344L73 346L73 347L67 349L54 344L52 347L45 348L45 350L33 350L32 351L31 347L33 345L34 348L36 348L40 348L40 347L50 346L40 346L37 347L36 347L34 344ZM32 361L48 359L54 357L74 357L75 359L75 362L71 364L74 366L74 370L67 371L61 373L56 381L55 380L56 378L53 380L53 378L51 377L51 375L50 375L50 373L55 372L53 371L51 372L49 370L50 368L53 368L55 367L50 367L45 370L43 369L43 367L40 367L38 365L39 363L36 363L32 361ZM41 379L40 380L39 379L41 378L41 379ZM44 379L43 379L43 378L44 379ZM46 377L45 378L46 376L47 376L46 377ZM49 373L48 373L50 371L49 373ZM44 374L42 374L43 372L44 374ZM42 368L42 370L40 368L42 368ZM123 416L121 416L119 418L117 418L120 413L118 410L118 408L116 407L117 404L110 395L100 394L100 395L97 396L95 395L93 396L92 396L88 403L85 405L84 407L80 408L81 406L78 403L77 401L75 401L75 395L73 396L71 395L70 392L68 393L64 391L62 387L62 384L61 385L59 381L58 381L57 383L56 383L56 381L61 373L67 371L74 370L74 366L71 364L75 362L75 359L74 357L83 357L84 359L85 359L93 361L107 361L106 363L108 366L114 363L117 368L120 364L123 363L130 366L132 364L136 363L135 360L138 359L140 361L143 367L143 371L149 375L146 380L148 380L150 380L151 388L155 390L155 392L153 395L153 401L154 403L156 403L156 406L158 407L156 409L156 411L159 413L159 417L159 417L157 416L152 416L151 419L154 420L155 421L152 428L148 429L146 427L142 433L139 434L137 431L134 431L136 427L134 418L130 415L126 416L125 415L123 416ZM123 416L122 420L119 422L118 426L109 433L106 438L102 435L92 431L92 429L91 427L92 426L89 427L87 425L85 420L82 420L81 416L81 416L83 417L86 414L82 414L82 411L84 410L80 408L84 407L85 405L88 403L92 396L93 396L95 395L97 396L100 395L100 394L109 394L117 404L116 407L118 408L118 410L120 413L117 418L119 418L121 416L123 416ZM91 430L85 429L90 428L91 428L91 430ZM106 438L109 433L118 426L119 422L122 420L123 416L125 415L126 416L130 415L130 416L131 416L134 418L136 427L134 431L137 431L139 434L142 433L145 427L147 427L149 429L151 436L150 439L146 444L151 446L156 447L158 451L163 453L163 460L161 464L161 467L161 474L151 471L139 464L123 450L116 446L115 444L109 441L106 438Z" fill="#e0a526" stroke="#0a0d12" stroke-width="0.6" opacity="0.93"/><path d="M224 463L222 463L224 463ZM155 392L158 391L160 388L162 388L164 391L169 392L170 390L173 389L174 385L177 386L177 385L179 384L180 389L180 391L181 392L183 392L185 389L189 388L192 390L196 391L198 395L202 398L207 399L208 398L214 396L222 396L228 402L230 402L230 404L229 408L231 411L232 420L228 423L226 434L222 439L222 442L225 455L226 456L228 456L229 459L228 463L226 463L223 462L223 460L223 460L220 463L210 460L203 461L211 462L199 463L193 462L192 463L196 463L184 465L161 474L161 467L161 464L163 460L163 453L158 451L156 447L151 446L146 444L150 439L151 437L148 429L149 428L152 429L155 421L154 420L151 419L152 416L154 416L157 416L159 417L159 417L159 413L156 411L156 409L158 407L156 406L156 403L154 403L153 401L153 395L155 392ZM267 379L268 380L266 385L273 390L272 399L271 399L272 400L271 402L273 402L275 403L274 411L273 412L277 418L276 420L276 426L275 429L275 430L277 432L275 439L278 444L281 446L284 449L281 453L271 454L263 458L256 462L246 464L239 468L234 466L224 464L228 463L229 459L228 456L226 456L225 455L222 444L222 439L226 434L228 423L232 420L231 411L229 408L230 404L228 398L229 391L228 390L228 388L227 386L228 380L253 380L258 380L259 381L263 378L267 379ZM280 380L279 384L278 389L286 394L287 403L290 408L290 437L289 437L290 442L293 447L284 449L281 446L278 444L275 439L277 432L275 430L275 429L276 426L276 420L277 418L273 412L274 411L275 403L273 402L271 402L272 400L271 399L272 399L273 390L266 384L268 380L267 379L275 381L280 380ZM290 448L293 447L290 442L289 437L290 437L290 408L287 403L286 394L279 389L279 384L280 380L281 379L283 379L284 377L286 376L288 374L295 374L299 371L301 368L302 366L301 363L307 361L318 370L317 375L320 379L322 386L321 388L319 389L318 390L319 392L318 396L315 397L314 399L312 402L312 404L310 407L307 408L305 424L307 430L306 437L307 441L306 446L290 448ZM280 380L275 381L263 378L259 381L258 380L253 380L228 380L227 386L228 389L228 398L230 402L229 402L222 396L214 396L208 398L207 399L202 398L198 395L196 391L192 390L190 388L191 384L190 380L192 378L194 375L193 369L196 367L201 365L205 361L205 358L204 357L208 355L207 350L209 348L212 346L218 350L221 348L222 343L226 343L227 339L231 335L233 334L238 336L240 332L244 331L258 323L262 324L264 323L271 325L270 331L273 335L273 336L274 338L276 342L280 344L285 347L282 347L282 352L290 357L293 358L297 356L299 359L299 360L297 361L301 368L300 371L295 374L288 374L286 376L284 377L283 379L281 379L280 380Z" fill="#e0a526" stroke="#0a0d12" stroke-width="0.6" opacity="0.93"/><path d="M370 473L368 473L369 471L371 472L370 473ZM459 342L466 351L468 361L472 362L474 364L473 373L468 377L465 377L461 382L458 386L457 392L455 394L454 401L450 402L447 412L445 414L442 414L440 419L437 428L433 433L435 435L431 438L430 441L428 443L424 444L423 440L417 436L414 438L411 438L410 437L405 440L404 443L395 451L393 454L392 462L388 468L386 468L384 466L385 470L384 471L375 471L374 470L373 471L370 471L367 469L369 470L368 472L365 473L363 469L364 474L361 474L360 472L360 474L356 475L356 473L355 475L352 474L346 470L343 463L345 463L343 462L343 461L343 460L345 459L346 458L343 459L341 457L344 456L343 456L343 455L340 456L340 456L339 454L336 450L330 446L326 445L317 445L320 442L316 443L315 445L306 446L307 441L306 437L307 430L305 424L307 408L310 407L312 404L312 402L314 399L314 397L318 396L318 394L319 392L318 391L318 389L321 388L322 385L320 379L317 375L318 371L319 370L318 368L319 359L323 355L324 353L326 346L330 343L336 341L341 341L345 340L356 343L365 352L371 351L378 347L382 348L391 353L403 355L409 349L415 347L428 347L436 349L438 351L443 351L446 348L449 346L455 343L459 342Z" fill="#e0a526" stroke="#0a0d12" stroke-width="0.6" opacity="0.93"/><path d="M605 261L605 314L593 314L591 316L591 322L588 324L587 328L583 330L585 336L579 341L581 347L577 351L575 355L576 357L581 356L582 357L584 365L586 366L586 372L590 375L590 381L584 380L574 385L573 386L573 390L571 391L569 394L567 395L560 403L554 407L550 407L545 408L537 408L535 409L534 411L537 413L529 422L516 423L504 429L501 424L498 427L492 429L486 429L487 426L485 425L481 415L469 406L464 399L468 395L477 395L488 394L483 389L481 385L479 379L481 373L480 368L477 362L477 359L476 357L472 355L471 352L466 351L459 342L457 333L470 313L486 297L489 255L492 249L487 243L486 241L487 240L481 232L481 226L479 211L493 205L605 261Z" fill="#e0a526" stroke="#0a0d12" stroke-width="0.6" opacity="0.93"/><path d="M388 468L392 462L394 452L404 443L405 440L410 437L411 438L415 438L417 436L423 440L424 444L426 444L429 442L431 438L435 435L433 433L437 428L440 419L442 414L445 414L448 411L450 402L454 401L455 394L457 392L458 386L461 382L465 377L468 377L473 373L474 364L472 362L468 361L466 351L471 352L472 355L476 357L477 359L477 362L480 368L481 373L479 379L481 385L483 389L488 394L477 395L468 395L464 399L469 406L481 415L485 425L487 426L484 432L482 434L476 446L472 448L471 450L473 453L473 461L474 462L475 469L480 475L481 478L479 479L480 480L490 491L492 492L494 494L496 503L494 507L495 511L494 512L487 508L484 508L481 507L477 507L477 506L476 506L473 504L455 505L454 503L430 503L427 503L427 505L408 505L406 503L408 492L407 490L404 485L405 484L403 484L402 482L403 481L405 481L403 479L404 478L401 478L400 480L394 478L393 471L390 469L390 471L388 471L388 468ZM391 482L393 482L394 484L390 490L387 489L387 487L388 486L391 482ZM427 505L427 521L407 522L405 520L403 521L400 519L401 515L403 513L406 508L406 503L408 505L427 505ZM455 505L453 510L454 518L463 515L467 516L471 523L469 526L466 528L464 530L463 538L466 539L468 541L471 543L470 562L468 563L467 566L468 568L465 570L463 570L463 568L461 565L457 569L451 568L448 562L445 561L443 562L443 568L438 569L436 568L433 569L431 568L430 575L433 577L433 580L436 582L434 585L435 587L432 587L430 585L426 587L424 590L413 578L405 571L405 570L408 572L409 571L403 569L399 562L401 563L401 562L398 561L395 554L399 558L402 558L401 557L399 557L399 554L397 555L395 553L390 544L392 545L394 545L396 543L399 540L399 531L399 530L401 533L406 535L406 533L408 532L405 533L402 531L399 527L399 527L401 526L403 527L403 521L405 520L407 522L427 521L427 503L454 503L455 505ZM424 590L426 587L430 585L432 587L435 587L434 585L436 582L433 580L433 577L430 575L431 568L433 569L436 568L438 569L443 568L443 562L445 561L448 562L451 568L457 569L461 565L463 568L463 570L465 570L468 568L467 566L468 563L470 562L471 543L468 541L466 539L463 538L464 530L466 528L469 526L471 523L467 516L463 515L454 518L453 510L455 505L473 504L476 506L477 506L477 507L481 507L484 508L489 508L494 512L495 511L494 506L500 495L500 491L502 486L513 483L523 486L528 484L530 486L530 489L522 507L522 514L520 519L520 532L517 539L518 543L511 549L505 552L501 561L496 566L496 578L495 584L491 591L486 593L475 604L471 603L470 600L471 598L470 596L464 598L461 598L460 602L457 603L448 598L442 600L441 602L439 603L437 606L434 602L433 600L424 590ZM608 413L609 414L609 417L610 418L618 421L623 425L623 426L622 429L624 431L632 436L639 442L638 444L641 450L650 455L652 461L654 463L649 462L645 464L627 460L625 461L623 464L621 465L616 466L610 465L597 470L590 469L587 471L583 477L573 475L571 475L557 472L552 467L547 464L542 463L536 466L533 472L529 474L530 486L528 484L523 486L514 483L502 486L500 491L500 495L496 503L494 494L492 492L490 491L481 481L479 479L481 478L480 475L475 470L474 462L473 461L473 453L472 452L471 449L475 447L482 434L486 429L492 429L498 427L501 424L504 429L516 423L529 422L537 413L534 410L537 408L545 408L550 407L554 407L558 404L567 395L569 394L571 391L573 390L573 386L578 383L584 380L590 381L596 389L601 397L600 404L598 407L599 409L599 411L601 412L608 413Z" fill="#3fa05a" stroke="#0a0d12" stroke-width="0.6" opacity="0.93"/><path d="M701 651L675 655L675 656L674 659L668 665L671 674L671 685L670 687L667 697L669 702L677 709L683 710L683 707L687 706L687 724L685 724L684 722L678 724L675 723L671 716L670 716L668 712L655 707L650 698L649 699L647 703L645 704L634 703L627 701L625 699L624 693L613 696L611 696L611 692L608 691L607 689L605 688L603 690L598 690L593 691L585 691L581 693L580 689L582 686L581 680L580 677L575 669L576 658L576 653L575 649L575 640L574 638L558 638L557 636L558 633L548 634L545 634L543 636L540 647L534 648L529 647L521 649L515 649L507 637L506 633L503 628L503 622L499 618L451 617L444 620L442 620L440 616L444 615L444 608L443 607L448 602L453 600L457 603L460 602L461 598L464 598L470 596L471 598L470 600L471 603L475 604L483 596L487 592L491 591L493 588L495 584L496 578L496 566L501 561L505 552L511 549L518 543L517 539L520 532L520 519L522 514L522 507L530 489L530 480L529 475L536 466L540 464L545 463L552 467L557 472L571 475L573 475L583 477L587 471L590 469L597 470L610 465L616 466L621 465L623 464L625 461L627 460L645 464L650 462L654 463L659 470L665 474L668 474L672 472L679 473L683 470L686 471L693 479L697 481L698 484L701 484L703 486L701 492L702 494L700 501L704 501L708 505L703 512L689 524L689 528L686 534L684 549L684 555L681 557L679 559L678 561L678 566L674 570L675 573L676 574L679 578L679 589L682 598L681 604L685 616L683 620L684 624L686 628L693 634L701 651Z" fill="#3fa05a" stroke="#0a0d12" stroke-width="0.6" opacity="0.93"/><path d="M452 600L448 602L443 607L444 608L444 615L440 616L439 615L439 610L437 606L439 603L441 602L442 600L448 598L452 600ZM605 688L606 696L605 699L606 710L604 715L605 718L577 718L577 760L578 764L580 769L597 784L569 789L565 788L560 789L555 787L535 786L531 785L527 780L465 780L457 775L452 774L444 778L437 777L433 778L434 770L433 758L435 757L437 754L444 724L449 719L450 715L457 712L459 708L462 702L463 691L461 685L458 682L455 676L451 663L451 661L452 661L451 662L456 658L456 653L449 637L448 633L444 628L441 621L453 618L499 618L503 622L503 628L506 633L507 637L515 649L521 649L529 647L534 648L540 647L543 636L545 634L548 634L558 633L557 636L558 638L574 638L575 640L575 649L576 653L576 658L575 669L580 677L581 680L582 686L580 689L581 692L582 693L585 691L593 691L598 690L603 690L605 688Z" fill="#3fa05a" stroke="#0a0d12" stroke-width="0.6" opacity="0.93"/><path d="M748 402L745 401L746 396L745 392L738 385L734 384L735 382L733 372L735 363L728 363L729 366L719 366L723 370L723 376L724 379L717 385L713 391L706 398L701 398L690 390L685 393L685 395L683 398L676 400L674 402L674 404L663 404L660 400L649 400L643 402L633 392L632 389L631 388L621 390L620 394L617 398L617 401L615 403L613 410L609 412L608 413L601 412L599 411L599 409L598 407L600 404L601 397L596 389L590 381L590 375L586 372L586 366L584 365L582 357L581 356L576 357L575 355L577 351L581 347L579 341L585 336L583 330L587 328L588 324L591 322L591 316L593 314L605 314L605 254L619 253L619 225L707 225L710 223L711 223L710 225L787 225L788 231L792 238L792 239L791 238L791 240L792 246L791 252L792 259L795 270L799 272L806 278L807 278L811 282L806 288L800 289L796 291L795 295L789 295L787 301L788 306L781 322L782 334L780 343L777 351L776 356L770 357L762 369L760 376L760 382L757 384L755 382L751 385L750 387L751 392L748 402ZM746 476L739 482L735 482L732 481L723 483L720 486L717 484L715 482L712 483L706 482L702 486L701 484L698 484L697 481L693 479L686 471L684 470L679 473L672 472L668 474L665 474L659 470L657 467L655 465L652 461L650 455L641 450L638 444L639 442L632 436L624 431L622 429L623 426L623 425L618 421L610 418L609 417L609 414L608 413L613 410L615 403L617 401L617 398L620 394L621 390L631 388L632 389L633 392L643 402L649 400L660 400L663 404L674 404L674 402L676 400L683 398L685 395L685 393L690 390L701 398L706 398L713 391L717 385L724 379L723 376L723 370L719 366L729 366L728 363L735 363L733 372L735 382L734 384L738 385L745 392L746 396L745 401L748 402L748 413L748 415L746 416L736 416L732 424L736 426L742 427L745 429L747 433L756 441L760 453L764 458L746 476Z" fill="#3d7eb5" stroke="#0a0d12" stroke-width="0.6" opacity="0.93"/><path d="M764 458L760 453L756 441L747 433L745 429L742 427L734 425L733 423L736 416L746 416L748 414L748 401L751 392L750 387L753 383L755 382L757 384L760 382L760 376L762 369L770 357L776 356L777 351L780 343L782 334L786 334L789 334L792 332L797 336L801 326L806 329L809 332L814 331L818 329L820 331L824 330L830 332L833 332L843 336L850 345L856 350L858 354L861 355L864 360L856 371L856 381L859 381L867 379L872 380L868 386L871 392L874 395L876 396L880 403L882 404L887 408L929 423L943 423L921 444L901 466L887 465L881 467L875 470L871 474L859 477L858 479L847 479L842 475L829 481L824 487L804 484L787 473L775 472L771 467L772 463L771 460L767 459L765 460L764 458ZM782 334L781 322L788 306L787 301L789 295L795 295L796 291L800 289L806 288L811 282L817 295L821 311L828 322L829 317L832 319L832 322L834 324L839 325L842 328L848 329L854 338L863 344L865 349L867 349L869 352L870 354L873 355L873 354L875 356L871 357L869 361L866 359L864 360L861 355L858 354L856 350L850 345L843 336L833 332L830 332L824 330L820 331L817 329L814 331L809 332L806 329L801 326L797 336L792 332L789 334L786 334L782 334ZM832 309L833 310L831 309L832 309ZM833 314L834 315L835 314L837 315L837 316L831 315L830 314L832 314L830 313L831 312L830 311L832 312L833 314ZM877 373L872 380L867 379L859 381L856 381L856 371L865 359L869 361L871 357L875 356L878 361L879 365L874 369L870 370L868 372L867 372L867 373L874 372L877 373Z" fill="#3d7eb5" stroke="#0a0d12" stroke-width="0.6" opacity="0.93"/><path d="M853 559L852 557L845 547L845 495L850 490L859 477L870 475L875 470L881 467L887 465L901 466L921 444L943 423L957 402L957 377L973 373L978 370L981 367L983 366L990 369L987 376L988 385L986 388L989 388L989 387L991 388L991 389L989 388L985 390L983 402L978 411L973 420L970 423L967 430L961 440L958 448L943 472L916 500L892 516L880 526L859 549L853 559ZM957 377L957 402L943 423L929 423L888 409L879 402L876 396L874 395L871 392L868 386L877 373L879 375L885 383L893 388L901 388L913 383L923 384L935 378L940 379L944 378L952 376L957 377Z" fill="#3d7eb5" stroke="#0a0d12" stroke-width="0.6" opacity="0.93"/><path d="M745 549L702 549L695 550L689 556L688 554L684 555L684 549L686 534L689 528L689 524L693 522L695 519L697 518L708 506L708 505L707 503L700 501L702 494L701 492L703 487L702 486L705 483L707 482L712 483L715 482L717 484L720 486L723 483L732 481L735 482L739 482L746 476L749 481L749 482L753 484L752 487L753 491L755 494L757 496L759 500L760 511L758 516L758 518L753 521L746 533L745 549ZM845 566L845 565L847 564L845 566ZM745 549L746 533L753 521L758 518L758 516L760 512L760 510L759 500L757 496L755 494L753 491L752 487L753 484L749 482L749 481L746 476L764 458L765 460L767 459L771 460L772 463L771 467L775 472L787 473L804 484L824 487L829 481L842 475L847 479L858 479L850 490L845 496L845 547L852 557L853 559L849 563L845 563L844 564L844 564L844 567L840 571L837 571L834 573L833 581L829 586L827 591L822 600L820 601L800 587L797 584L798 581L798 578L745 549ZM684 555L688 554L689 556L695 550L697 550L697 552L702 557L702 565L702 568L698 569L696 568L692 569L689 568L688 573L686 575L682 575L680 573L677 572L676 574L675 573L674 570L678 566L678 561L681 557L684 555ZM698 569L696 572L697 573L696 576L701 577L701 581L699 582L699 583L696 586L692 593L689 596L686 598L682 598L679 589L679 578L676 575L677 572L680 573L682 575L686 575L688 573L689 568L692 569L696 568L698 569Z" fill="#3d7eb5" stroke="#0a0d12" stroke-width="0.6" opacity="0.93"/><path d="M824 622L825 625L824 626L819 622L820 619L821 616L824 622ZM829 604L829 609L827 612L826 611L826 605L829 604ZM731 668L724 664L718 663L717 661L714 661L712 658L709 656L705 657L704 656L702 653L693 634L686 628L684 624L683 620L685 616L681 604L682 598L686 598L689 596L692 593L696 586L702 580L701 577L697 576L696 575L697 573L696 572L698 569L702 568L702 565L702 557L697 552L697 551L697 550L702 549L746 549L798 578L798 581L797 584L820 601L814 621L815 624L819 628L821 631L824 632L825 634L821 641L821 645L822 644L823 645L823 648L821 654L822 658L824 660L823 661L826 665L826 668L828 675L827 676L829 676L831 678L832 678L838 683L831 688L821 692L814 693L810 696L805 694L802 694L799 698L794 700L788 698L784 700L779 700L773 697L772 697L769 699L760 698L759 696L757 695L755 691L756 687L755 679L754 676L751 672L746 669L746 671L745 671L742 670L738 671L737 669L731 668ZM827 648L825 647L830 643L829 646L827 648Z" fill="#3d7eb5" stroke="#0a0d12" stroke-width="0.6" opacity="0.93"/><path d="M696 756L683 756L675 760L673 768L661 773L648 788L645 789L638 788L632 788L629 786L623 786L620 783L616 782L610 781L597 784L580 769L578 764L577 760L577 718L605 718L604 715L606 710L605 699L606 696L605 688L607 689L608 691L611 692L611 696L613 696L624 693L625 699L627 701L634 703L645 704L647 703L649 699L650 698L651 701L654 703L656 707L668 712L670 716L672 717L676 724L679 724L684 722L685 724L687 724L687 706L683 707L683 710L677 709L669 702L667 698L667 697L671 684L670 672L668 665L674 659L675 656L675 655L701 651L703 655L705 656L711 657L714 661L717 661L718 663L724 664L731 668L732 671L735 671L737 674L737 677L740 679L742 684L739 687L736 689L738 692L736 696L737 700L736 706L737 709L740 709L738 711L733 713L732 716L732 717L732 721L730 725L728 727L730 728L729 729L732 733L734 732L735 733L693 746L696 756ZM757 706L756 706L756 704L757 705L757 706ZM756 704L755 705L754 704L755 704L756 704ZM735 733L734 732L732 733L729 729L730 728L728 727L730 725L732 721L732 717L732 716L733 713L738 711L740 709L737 709L736 706L737 700L736 696L738 692L736 689L739 687L742 684L740 679L737 677L737 674L735 671L732 671L731 668L732 668L738 671L742 670L745 671L746 671L746 669L751 672L754 676L756 686L755 691L757 695L759 696L760 698L755 699L752 707L754 723L756 725L759 726L764 731L772 742L773 745L772 750L772 760L771 762L766 763L765 764L763 768L765 772L765 776L762 776L761 775L762 773L762 772L752 764L752 762L750 759L754 751L754 741L751 738L741 740L735 733Z" fill="#8e6bb0" stroke="#0a0d12" stroke-width="0.6" opacity="0.93"/><path d="M708 851L724 835L723 833L725 830L725 826L728 824L732 817L732 815L729 808L730 804L728 802L728 800L731 799L732 794L732 778L731 773L732 771L722 767L717 767L714 764L711 763L708 761L696 760L695 754L693 746L735 733L741 740L752 738L754 741L754 748L754 751L750 759L752 762L752 764L762 772L761 776L764 776L765 772L763 768L766 763L771 761L772 750L773 745L772 742L764 731L759 726L756 725L754 723L752 707L755 699L769 699L772 697L773 697L779 700L784 700L788 698L794 700L799 698L802 694L805 694L810 696L814 693L821 692L831 688L838 683L840 685L838 687L839 688L837 695L838 704L838 711L839 713L839 716L837 718L839 718L839 734L841 735L840 740L842 738L843 743L840 748L840 750L839 753L833 760L831 764L828 765L829 767L820 772L818 774L805 778L796 783L788 789L787 791L782 796L780 800L779 800L778 799L778 801L776 801L773 803L766 810L760 814L756 813L757 814L756 824L760 828L762 837L764 840L765 851L766 851L767 847L768 849L767 854L769 859L766 870L768 871L767 874L764 879L760 882L737 891L732 894L729 896L727 901L730 905L732 903L731 913L720 913L719 902L718 901L717 898L718 896L718 880L715 872L712 866L708 851ZM708 851L703 849L693 849L685 847L681 848L677 845L676 842L662 839L657 832L658 824L652 824L650 818L643 815L636 810L633 802L623 788L623 786L629 786L634 788L638 788L645 789L648 788L661 773L673 768L675 760L680 757L686 756L696 756L696 760L708 761L711 763L714 764L717 767L722 767L732 771L731 773L732 778L732 794L731 799L728 800L728 802L730 804L729 808L732 815L732 817L728 824L725 826L725 830L723 833L724 835L708 851Z" fill="#8e6bb0" stroke="#0a0d12" stroke-width="0.6" opacity="0.93"/><path d="M597 784L610 781L616 782L620 783L623 786L618 786L613 789L611 788L609 789L601 795L600 795L596 789L595 789L563 793L563 845L549 845L549 936L543 938L540 940L539 942L537 943L533 942L523 942L513 939L512 937L512 933L508 930L505 931L504 936L499 938L489 929L483 919L481 913L481 909L478 906L477 898L477 888L472 876L471 863L470 859L471 857L472 858L472 856L471 851L457 830L453 820L443 802L437 795L433 789L433 778L437 777L444 778L452 774L457 775L465 780L527 780L531 785L535 786L555 787L560 789L565 788L569 789L597 784ZM623 786L623 788L633 802L636 810L643 815L650 818L652 824L658 824L657 832L662 839L676 842L677 845L681 848L678 848L674 852L665 855L659 862L649 867L648 869L646 877L639 882L633 884L628 896L626 897L616 899L610 898L608 896L604 896L597 891L594 891L590 894L586 903L581 907L579 910L574 911L573 913L559 913L558 908L561 904L560 900L555 889L549 884L549 845L563 845L563 793L595 789L596 789L600 795L609 789L611 788L613 789L618 786L623 786Z" fill="#8e6bb0" stroke="#0a0d12" stroke-width="0.6" opacity="0.93"/><path d="M681 848L685 847L693 849L703 849L708 851L712 866L715 872L718 879L718 901L716 901L710 898L707 899L701 907L702 912L703 913L705 917L708 919L715 920L718 920L718 913L731 913L726 932L724 937L719 941L715 943L709 949L694 971L690 976L683 981L674 990L660 1001L649 1007L642 1010L640 1011L631 1010L629 1012L629 1014L628 1015L620 1014L617 1016L614 1017L601 1014L595 1015L585 1014L581 1015L574 1019L563 1019L557 1021L550 1025L544 1025L541 1023L539 1023L540 1021L537 1019L533 1019L533 1016L532 1015L528 1016L528 1019L526 1015L526 1013L528 1013L527 1010L525 1006L521 1002L519 998L521 996L522 997L523 996L526 993L524 982L517 972L512 964L506 949L499 938L504 936L505 931L508 930L512 933L512 937L513 939L523 942L539 942L539 941L543 938L549 936L549 884L555 889L560 900L561 904L558 908L559 913L573 913L574 911L579 910L581 907L586 903L590 894L592 892L597 891L604 896L616 899L626 897L628 896L633 884L639 882L646 877L648 869L649 867L659 862L665 855L674 852L678 848L681 848ZM672 959L667 960L663 967L658 966L653 962L649 952L652 951L658 943L671 938L680 945L682 947L680 952L678 954L677 957L672 959ZM718 901L719 902L720 913L718 913L718 920L711 920L705 917L703 913L701 912L701 908L705 901L710 898L716 901L718 901Z" fill="#8e6bb0" stroke="#0a0d12" stroke-width="0.6" opacity="0.93"/><path d="M965 710L971 719L974 733L975 743L978 749L979 752L978 755L974 760L972 758L970 753L968 753L967 754L968 762L969 764L970 767L968 770L969 772L966 774L964 778L964 787L963 793L949 836L942 852L937 871L932 884L930 887L926 889L918 891L909 895L903 895L899 892L892 891L888 887L886 882L883 877L882 870L883 867L881 860L878 856L877 850L877 844L880 836L885 834L886 829L891 822L893 816L894 809L891 804L891 799L888 793L887 783L887 780L893 770L894 764L900 763L905 760L906 761L910 760L911 758L918 757L921 760L922 759L920 758L920 757L922 754L929 750L930 753L931 753L931 749L935 743L936 742L937 744L936 746L936 747L940 741L943 742L941 740L940 738L944 732L942 730L943 728L944 727L947 728L949 726L955 722L957 716L955 711L957 710L961 705L962 706L965 710ZM948 723L947 724L946 722L948 721L948 723ZM971 773L969 776L970 774L972 770L971 773Z" fill="#8e6bb0" stroke="#0a0d12" stroke-width="0.6" opacity="0.93"/><line x1="925" y1="808" x2="768" y2="778" stroke="rgba(220,232,245,0.6)" stroke-width="1.2" stroke-dasharray="5 4"/><line x1="925" y1="808" x2="758" y2="624" stroke="rgba(220,232,245,0.6)" stroke-width="1.2" stroke-dasharray="5 4"/><circle cx="148" cy="115" r="2" fill="#0a0d12"/><circle cx="304" cy="139" r="2" fill="#0a0d12"/><circle cx="402" cy="55" r="2" fill="#0a0d12"/><circle cx="521" cy="154" r="2" fill="#0a0d12"/><circle cx="688" cy="162" r="2" fill="#0a0d12"/><circle cx="122" cy="250" r="2" fill="#0a0d12"/><circle cx="218" cy="291" r="2" fill="#0a0d12"/><circle cx="400" cy="290" r="2" fill="#0a0d12"/><circle cx="114" cy="388" r="2" fill="#0a0d12"/><circle cx="189" cy="428" r="2" fill="#0a0d12"/><circle cx="382" cy="400" r="2" fill="#0a0d12"/><circle cx="530" cy="319" r="2" fill="#0a0d12"/><circle cx="556" cy="443" r="2" fill="#0a0d12"/><circle cx="601" cy="576" r="2" fill="#0a0d12"/><circle cx="515" cy="709" r="2" fill="#0a0d12"/><circle cx="689" cy="310" r="2" fill="#0a0d12"/><circle cx="825" cy="414" r="2" fill="#0a0d12"/><circle cx="911" cy="468" r="2" fill="#0a0d12"/><circle cx="800" cy="527" r="2" fill="#0a0d12"/><circle cx="758" cy="624" r="2" fill="#0a0d12"/><circle cx="659" cy="725" r="2" fill="#0a0d12"/><circle cx="768" cy="778" r="2" fill="#0a0d12"/><circle cx="510" cy="847" r="2" fill="#0a0d12"/><circle cx="622" cy="944" r="2" fill="#0a0d12"/><circle cx="925" cy="808" r="2" fill="#0a0d12"/><text x="148" y="109" fill="#eef" font-size="10" text-anchor="middle" font-family="sans-serif">Morocco</text><text x="304" y="133" fill="#eef" font-size="10" text-anchor="middle" font-family="sans-serif">Algeria</text><text x="402" y="49" fill="#eef" font-size="10" text-anchor="middle" font-family="sans-serif">Tunisia</text><text x="521" y="148" fill="#eef" font-size="10" text-anchor="middle" font-family="sans-serif">Libya</text><text x="688" y="156" fill="#eef" font-size="10" text-anchor="middle" font-family="sans-serif">Egypt</text><text x="122" y="244" fill="#eef" font-size="10" text-anchor="middle" font-family="sans-serif">Mauritania</text><text x="218" y="285" fill="#eef" font-size="10" text-anchor="middle" font-family="sans-serif">Mali</text><text x="400" y="284" fill="#eef" font-size="10" text-anchor="middle" font-family="sans-serif">Niger</text><text x="114" y="382" fill="#eef" font-size="10" text-anchor="middle" font-family="sans-serif">Senegambia</text><text x="189" y="422" fill="#eef" font-size="10" text-anchor="middle" font-family="sans-serif">Gold Coast</text><text x="382" y="394" fill="#eef" font-size="10" text-anchor="middle" font-family="sans-serif">Nigeria</text><text x="530" y="313" fill="#eef" font-size="10" text-anchor="middle" font-family="sans-serif">Chad</text><text x="556" y="437" fill="#eef" font-size="10" text-anchor="middle" font-family="sans-serif">Cameroon</text><text x="601" y="570" fill="#eef" font-size="10" text-anchor="middle" font-family="sans-serif">Congo</text><text x="515" y="703" fill="#eef" font-size="10" text-anchor="middle" font-family="sans-serif">Angola</text><text x="689" y="304" fill="#eef" font-size="10" text-anchor="middle" font-family="sans-serif">Sudan</text><text x="825" y="408" fill="#eef" font-size="10" text-anchor="middle" font-family="sans-serif">Ethiopia</text><text x="911" y="462" fill="#eef" font-size="10" text-anchor="middle" font-family="sans-serif">Somalia</text><text x="800" y="521" fill="#eef" font-size="10" text-anchor="middle" font-family="sans-serif">Great Lakes</text><text x="758" y="618" fill="#eef" font-size="10" text-anchor="middle" font-family="sans-serif">Tanganyika</text><text x="659" y="719" fill="#eef" font-size="10" text-anchor="middle" font-family="sans-serif">Zambezi</text><text x="768" y="772" fill="#eef" font-size="10" text-anchor="middle" font-family="sans-serif">Mozambique</text><text x="510" y="841" fill="#eef" font-size="10" text-anchor="middle" font-family="sans-serif">Kalahari</text><text x="622" y="938" fill="#eef" font-size="10" text-anchor="middle" font-family="sans-serif">South Africa</text><text x="925" y="802" fill="#eef" font-size="10" text-anchor="middle" font-family="sans-serif">Madagascar</text></svg>