<svg xmlns="http://www.w3.org/2000/svg" viewBox="0 0 1000 1077"><rect width="100%" height="100%" fill="#11202b"/>
<line x1="698" y1="294" x2="862" y2="105" stroke="#4a708a" stroke-width="1.5" stroke-dasharray="5 5" opacity="0.7"/>
<line x1="701" y1="451" x2="674" y2="633" stroke="#4a708a" stroke-width="1.5" stroke-dasharray="5 5" opacity="0.7"/>
<line x1="674" y1="633" x2="413" y2="783" stroke="#4a708a" stroke-width="1.5" stroke-dasharray="5 5" opacity="0.7"/>
<path d="M280 267L282 263L278 258L282 249L281 247L286 244L289 240L293 240L295 236L303 238L307 241L309 245L320 245L327 244L337 243L338 233L341 231L344 234L346 231L347 227L344 223L346 218L352 210L358 207L362 201L367 201L371 196L372 192L378 190L383 185L391 181L389 176L393 176L398 180L404 178L408 182L411 182L417 174L424 171L428 171L425 176L432 180L428 190L423 192L422 199L418 207L419 210L418 213L414 214L410 219L407 220L404 223L404 233L407 234L410 238L414 241L415 248L413 251L409 254L411 255L410 258L402 267L400 268L400 278L403 285L404 289L402 294L403 298L402 302L404 312L406 313L407 319L408 323L401 335L398 339L394 354L394 359L398 361L397 366L399 369L403 372L401 375L408 378L407 382L409 385L407 389L413 392L415 396L422 400L423 404L424 409L422 413L419 415L416 415L412 419L408 417L406 414L401 416L394 417L388 415L383 415L380 414L372 413L366 414L365 417L375 420L376 421L375 426L378 427L381 426L388 429L391 433L391 438L387 438L385 440L380 439L371 439L368 441L368 446L365 449L367 453L370 454L372 460L370 464L369 472L359 473L356 471L353 468L348 464L338 460L328 454L326 452L317 451L310 453L306 455L295 447L287 446L286 441L283 442L280 444L277 444L272 441L273 436L272 434L258 433L254 436L245 437L240 439L235 437L233 434L234 428L226 429L224 432L220 432L217 434L214 433L211 427L217 427L226 424L227 422L227 414L221 412L220 408L223 407L224 404L229 402L230 400L234 399L237 401L246 399L250 402L252 400L249 396L248 392L249 390L247 387L251 381L253 379L252 374L256 375L257 370L254 367L250 365L245 365L243 362L250 356L252 351L250 349L250 345L252 343L266 343L271 345L277 350L282 348L288 349L291 347L297 348L301 347L295 337L298 334L305 336L307 338L314 335L318 336L327 336L331 331L331 325L327 319L328 316L327 312L334 307L335 303L333 299L335 294L331 291L325 290L321 287L309 285L303 279L296 276L290 275L288 273L281 273L280 267Z" fill="#b3322c" stroke="#0d0a07" stroke-width="1" opacity="0.92"/>
<path d="M38 389L43 390L45 394L45 398L54 398L58 396L61 399L62 403L72 402L74 407L70 413L72 418L77 415L81 415L82 412L95 405L95 402L91 400L90 395L84 387L89 385L91 386L94 382L101 381L100 378L107 374L113 373L115 376L120 378L121 380L121 386L123 389L122 391L126 394L129 394L137 392L135 396L141 396L144 397L157 397L160 399L161 404L165 409L165 413L166 418L169 421L168 425L166 425L165 429L169 430L175 435L179 436L186 437L188 438L194 437L198 438L203 437L209 432L207 430L209 426L217 427L226 424L227 422L227 414L221 412L220 408L223 407L224 404L229 402L230 400L234 399L237 401L246 399L250 402L252 400L249 396L248 392L249 390L247 387L251 381L253 379L252 374L256 375L257 370L254 367L250 365L245 365L243 362L250 356L252 351L250 349L250 345L252 343L266 343L271 345L277 350L282 348L288 349L291 347L297 348L301 347L295 337L298 334L305 336L307 338L314 335L318 336L327 336L331 331L331 325L327 319L328 316L327 312L334 307L335 303L333 299L335 294L331 291L325 290L321 287L309 285L303 279L296 276L290 275L288 273L281 273L280 267L282 263L278 258L282 249L281 247L286 244L289 240L293 240L295 236L285 234L282 228L275 225L272 226L263 225L249 220L256 213L258 206L267 195L268 191L266 190L262 185L261 178L254 179L250 181L244 181L241 182L242 186L235 188L233 193L227 202L225 209L224 222L221 226L224 231L223 238L218 241L213 241L206 240L196 244L190 248L179 250L174 249L170 250L168 254L164 254L158 251L141 239L132 237L130 231L130 227L135 225L134 214L146 208L153 202L155 197L160 194L162 189L156 180L155 175L144 176L133 179L126 181L114 188L100 185L92 183L70 190L78 196L78 198L70 204L61 204L54 202L51 202L51 199L48 197L45 192L40 192L38 191L38 232L68 249L75 241L77 246L80 248L78 251L93 259L98 263L96 266L95 271L103 277L101 280L100 282L104 284L107 289L108 295L111 296L117 299L113 304L115 308L114 314L109 313L104 314L103 317L105 322L104 326L97 326L93 329L88 331L89 336L91 338L87 344L77 348L74 352L74 354L68 358L69 360L74 359L74 362L77 364L83 366L85 371L80 374L77 378L72 379L68 382L63 379L62 377L38 371L38 389Z" fill="#b3322c" stroke="#0d0a07" stroke-width="1" opacity="0.92"/>
<path d="M38 191L40 192L45 192L48 197L51 199L51 202L54 202L61 204L70 204L78 198L78 196L70 190L92 183L100 185L114 188L126 181L133 179L144 176L155 175L156 180L162 189L160 194L155 197L153 202L146 208L134 214L135 225L130 227L130 231L132 237L141 239L158 251L164 254L168 254L170 250L174 249L179 250L190 248L196 244L206 240L213 241L218 241L223 238L224 231L221 226L224 222L225 209L227 202L233 193L235 188L242 186L241 182L244 181L250 181L254 179L261 178L262 185L266 190L268 191L267 195L258 206L256 213L249 220L263 225L272 226L275 225L282 228L285 234L303 238L307 241L309 245L320 245L327 244L337 243L338 233L341 231L344 234L346 231L347 227L344 223L346 218L352 210L358 207L362 201L367 201L371 196L372 192L378 190L383 185L391 181L389 176L393 176L398 180L404 178L408 182L411 182L417 174L424 171L428 171L425 176L432 180L428 190L423 192L422 199L418 207L419 210L418 213L414 214L410 219L407 220L404 223L404 233L407 234L410 238L414 241L415 248L413 251L409 254L411 255L410 258L402 267L400 268L400 278L403 285L404 289L402 294L403 298L402 302L404 312L406 313L407 319L408 323L401 335L398 339L394 354L394 359L398 361L405 362L412 361L414 359L419 359L424 356L436 352L438 353L445 351L447 348L455 343L464 342L464 337L482 338L488 334L493 337L496 337L501 334L505 333L519 326L523 321L522 320L524 309L526 306L526 299L528 294L524 291L521 289L521 287L518 283L517 279L523 278L526 274L530 273L529 265L533 261L534 258L541 250L542 246L542 242L539 240L538 237L534 233L530 225L521 221L520 216L521 210L523 206L526 205L532 200L529 196L533 190L539 188L542 189L547 190L554 186L555 181L559 172L554 167L553 159L542 157L536 153L538 149L542 147L556 143L555 140L549 139L548 133L544 128L544 125L541 123L539 118L535 114L534 112L537 109L538 106L535 104L536 99L540 95L546 93L547 86L548 82L555 79L557 74L561 71L567 72L569 70L574 79L574 83L572 84L573 92L581 92L586 93L590 91L590 88L597 86L610 80L613 80L617 85L620 82L623 81L630 77L633 79L638 80L648 76L649 68L647 65L650 62L656 59L663 58L670 59L671 56L677 56L682 54L685 55L693 62L694 66L692 68L696 70L697 76L703 74L705 82L703 86L698 88L702 93L704 93L707 103L711 102L720 102L737 103L740 105L745 101L746 97L743 90L742 85L743 82L743 78L745 73L740 70L744 66L752 63L755 67L762 69L762 72L765 77L768 78L770 82L770 87L773 88L775 85L782 78L787 75L789 71L793 71L804 66L809 67L822 58L829 56L833 59L836 59L841 56L843 52L848 49L858 52L862 52L863 49L860 46L864 44L874 48L880 48L890 45L892 41L897 38L409 38L400 47L363 59L334 61L314 60L260 66L226 77L200 87L194 92L192 92L187 91L173 90L173 82L143 86L118 77L83 71L76 69L64 58L58 56L38 55L38 191Z" fill="#2f6fb0" stroke="#0d0a07" stroke-width="1" opacity="0.92"/>
<path d="M593 155L596 157L597 160L594 163L595 168L601 169L606 173L613 170L615 171L623 170L625 173L630 175L632 172L639 169L646 169L646 173L648 179L647 184L650 188L643 192L642 196L643 199L649 204L655 204L657 207L661 207L664 209L675 207L675 204L678 198L684 187L687 185L693 184L693 179L688 177L688 171L678 170L678 167L674 163L673 154L683 155L683 151L668 144L663 141L663 137L661 135L663 132L670 131L670 128L666 128L662 127L656 128L650 125L641 118L640 114L632 119L633 123L627 125L623 125L620 129L615 131L611 130L605 133L613 143L608 148L599 150L593 155ZM725 122L733 129L738 127L738 130L742 133L752 133L754 136L753 139L755 146L759 146L759 150L763 154L788 145L799 131L805 128L814 119L828 120L831 121L836 121L839 117L840 116L841 121L852 127L853 131L857 133L856 135L853 140L841 152L838 156L828 160L826 163L828 168L823 168L818 171L819 175L818 178L839 177L832 184L834 188L812 195L812 199L814 203L820 200L833 197L833 196L832 194L834 192L841 192L845 190L851 186L859 178L878 169L883 168L886 166L893 166L898 163L907 162L910 158L914 161L927 160L933 157L937 154L938 150L942 147L950 142L957 136L961 136L962 51L959 46L956 43L957 38L949 38L943 43L938 38L897 38L892 41L890 45L880 48L874 48L864 44L860 46L863 49L862 52L858 52L848 49L843 52L841 56L836 59L833 59L829 56L822 58L809 67L804 66L793 71L789 71L787 75L782 78L775 85L773 88L770 87L770 82L768 78L765 77L762 72L762 69L755 67L752 63L744 66L740 70L745 73L743 78L743 82L742 85L743 90L746 97L745 101L740 105L737 109L733 112L729 113L725 122Z" fill="#2f9e8f" stroke="#0d0a07" stroke-width="1" opacity="0.92"/>
<path d="M517 279L518 283L521 287L521 289L524 291L528 294L531 295L538 294L541 297L544 298L552 298L560 302L566 302L573 303L574 306L578 304L581 301L586 301L590 305L595 302L594 298L590 294L588 289L590 285L595 279L601 277L607 271L610 267L614 257L625 254L624 251L629 245L631 251L639 245L644 238L648 237L670 237L676 229L680 228L684 224L686 220L683 219L679 214L675 207L664 209L661 207L657 207L655 204L649 204L643 199L642 196L643 192L650 188L647 184L648 179L646 173L646 169L639 169L632 172L630 175L625 173L623 170L615 171L613 170L606 173L601 169L595 168L594 163L597 160L596 157L593 155L599 150L608 148L613 143L605 133L611 130L615 131L620 129L623 125L627 125L633 123L632 119L640 114L641 118L650 125L656 128L662 127L666 128L670 128L670 131L663 132L661 135L663 137L663 141L668 144L683 151L683 155L673 154L674 163L678 167L678 170L688 171L688 177L693 179L693 184L698 185L704 190L716 186L727 186L732 184L739 177L741 171L746 163L754 158L763 154L759 150L759 146L755 146L753 139L754 136L752 133L742 133L738 130L738 127L733 129L725 122L729 113L733 112L737 109L740 105L737 103L720 102L711 102L707 103L704 93L702 93L698 88L703 86L705 82L703 74L697 76L696 70L692 68L694 66L693 62L685 55L682 54L677 56L671 56L670 59L663 58L656 59L650 62L647 65L649 68L648 76L638 80L633 79L630 77L623 81L620 82L617 85L613 80L610 80L597 86L590 88L590 91L586 93L581 92L573 92L572 84L574 83L574 79L569 70L567 72L561 71L557 74L555 79L548 82L547 86L546 93L540 95L536 99L535 104L538 106L537 109L534 112L535 114L539 118L541 123L544 125L544 128L548 133L549 139L555 140L556 143L542 147L538 149L536 153L542 157L553 159L554 167L559 172L555 181L554 186L547 190L542 189L539 188L533 190L529 196L532 200L526 205L523 206L521 210L520 216L521 221L530 225L534 233L538 237L539 240L542 242L542 246L541 250L534 258L533 261L529 265L530 273L526 274L523 278L517 279Z" fill="#2f6fb0" stroke="#0d0a07" stroke-width="1" opacity="0.92"/>
<path d="M686 220L693 224L713 227L718 226L723 226L728 229L732 234L732 239L734 242L730 245L729 250L729 256L735 261L742 264L748 264L760 263L765 259L765 256L775 250L781 245L779 243L798 237L810 241L816 246L823 247L832 252L845 252L848 249L850 249L853 252L859 254L869 253L872 254L868 257L869 262L863 267L866 269L866 271L859 276L855 275L852 271L844 271L833 276L810 284L807 285L800 283L800 284L803 287L804 291L802 291L799 290L797 292L795 295L795 301L794 303L784 306L782 303L782 299L776 300L773 303L776 307L779 307L780 308L771 313L768 318L764 321L758 324L751 332L747 335L744 342L742 343L738 342L734 344L726 345L722 356L718 358L715 357L711 358L707 368L699 369L694 360L689 359L684 360L684 364L679 364L677 366L672 366L667 362L664 363L663 367L661 367L656 357L654 355L652 351L647 348L633 350L632 353L630 360L626 362L621 363L617 362L608 363L604 362L602 363L598 362L594 359L593 355L589 352L585 352L584 348L577 346L571 346L572 339L575 338L580 332L586 330L590 327L592 322L596 318L602 317L606 313L611 313L610 311L614 308L617 309L618 304L613 307L609 306L605 309L595 311L593 314L589 316L590 310L593 308L595 302L594 298L590 294L588 289L590 285L595 279L601 277L607 271L610 267L614 257L625 254L624 251L629 245L631 251L639 245L644 238L648 237L670 237L676 229L680 228L684 224L686 220Z" fill="#2f9e8f" stroke="#0d0a07" stroke-width="1" opacity="0.92"/>
<path d="M591 484L588 485L585 483L585 479L582 477L580 480L577 482L568 481L563 478L560 478L560 472L558 471L552 472L549 469L544 467L542 470L537 471L537 468L533 467L531 463L529 456L530 454L530 448L528 445L524 447L520 450L517 450L507 446L503 445L490 448L482 447L473 448L467 446L464 444L453 442L450 438L447 437L444 438L443 435L437 430L431 426L431 424L427 417L423 415L422 413L424 409L423 404L422 400L415 396L413 392L407 389L409 385L407 382L408 378L401 375L403 372L399 369L397 366L398 361L405 362L412 361L414 359L419 359L424 356L436 352L438 353L445 351L447 348L455 343L464 342L464 337L482 338L488 334L493 337L496 337L501 334L505 333L519 326L523 321L522 320L524 309L526 306L526 299L528 294L531 295L538 294L541 297L544 298L552 298L560 302L566 302L573 303L574 306L578 304L581 301L586 301L590 305L595 302L593 308L590 310L589 316L593 314L595 311L605 309L609 306L613 307L618 304L617 309L614 308L610 311L611 313L606 313L602 317L596 318L592 322L590 327L586 330L580 332L575 338L572 339L571 346L577 346L584 348L585 352L589 352L593 355L594 359L598 362L602 363L604 362L608 363L617 362L621 363L621 367L631 374L637 374L638 377L636 380L640 386L633 391L632 393L622 395L618 393L614 388L614 385L609 384L605 382L602 383L599 385L599 389L601 391L599 394L601 400L594 402L590 406L589 409L590 413L587 418L582 420L576 418L573 420L572 423L574 425L584 428L585 439L591 440L599 446L602 446L604 443L607 443L611 446L613 461L612 469L602 470L597 472L592 480L591 484Z" fill="#d4a72c" stroke="#0d0a07" stroke-width="1" opacity="0.92"/>
<path d="M572 423L584 428L585 439L591 440L599 446L602 446L604 443L607 443L611 446L613 461L612 469L602 470L597 472L592 480L591 484L598 493L603 492L606 494L611 495L613 499L617 500L610 505L610 508L607 509L606 512L613 520L611 523L612 526L617 530L618 540L620 542L621 547L624 547L630 543L634 543L640 537L646 538L649 542L646 548L641 550L640 553L644 556L650 555L652 552L657 550L658 547L656 545L659 542L663 542L664 545L669 545L669 547L674 553L679 554L681 556L688 556L692 555L697 557L699 561L707 560L714 553L717 552L720 549L721 545L724 543L727 539L725 532L727 530L726 526L728 525L733 526L739 526L745 523L743 519L740 517L744 512L748 514L750 509L753 506L755 495L759 493L767 494L767 497L774 502L777 503L783 502L786 504L788 509L791 506L797 504L796 501L804 500L807 500L807 506L812 506L818 510L818 512L828 506L837 505L841 503L838 494L833 488L821 481L816 476L810 472L800 468L797 462L788 461L777 465L771 464L773 462L776 463L789 457L800 460L807 467L813 468L821 467L834 473L841 473L841 469L840 465L837 462L834 460L827 457L823 454L823 447L821 445L807 440L802 436L802 432L804 429L803 422L797 414L793 404L789 399L788 396L779 374L768 367L760 366L753 362L744 356L738 356L737 352L739 346L742 343L738 342L734 344L726 345L722 356L718 358L715 357L711 358L707 368L699 369L694 360L689 359L684 360L684 364L679 364L677 366L672 366L667 362L664 363L663 367L661 367L656 357L654 355L652 351L647 348L633 350L632 353L630 360L626 362L621 363L621 367L631 374L637 374L638 377L636 380L640 386L633 391L632 393L622 395L618 393L614 388L614 385L609 384L605 382L602 383L599 385L599 389L601 391L599 394L601 400L594 402L590 406L589 409L590 413L587 418L582 420L576 418L573 420L572 423Z" fill="#d4a72c" stroke="#0d0a07" stroke-width="1" opacity="0.92"/>
<path d="M322 523L328 526L328 543L323 545L325 549L327 549L331 544L333 545L334 550L341 552L341 558L343 564L347 565L349 569L357 575L356 580L356 585L357 587L354 591L357 593L356 596L356 603L360 605L358 612L360 614L358 617L359 623L362 625L363 629L362 632L358 635L357 637L354 637L347 644L342 647L342 648L338 651L341 653L344 653L346 650L350 649L352 651L355 648L363 649L365 651L366 655L363 658L366 661L361 663L357 664L361 667L362 672L358 676L358 680L362 682L364 691L369 690L372 693L372 697L376 696L376 691L378 691L381 685L387 687L386 691L390 690L394 693L398 688L403 686L405 684L407 679L411 680L412 682L418 682L421 678L433 682L431 695L433 697L439 696L439 700L436 703L435 711L433 715L429 717L427 722L423 725L421 730L423 733L426 733L428 729L434 725L439 727L441 730L440 733L441 739L440 743L443 745L447 742L449 739L454 740L459 739L461 741L464 739L467 739L468 734L466 733L470 723L487 726L489 731L493 733L500 732L498 729L499 724L496 721L497 718L508 711L516 716L520 716L522 718L527 717L532 717L536 714L538 708L535 705L535 702L539 695L540 690L547 686L545 684L541 685L536 684L538 681L539 677L541 675L542 670L533 667L532 660L534 656L529 648L532 645L533 641L530 640L526 641L523 640L522 631L527 622L527 618L528 616L535 615L539 611L540 608L542 605L546 604L547 600L545 596L541 594L543 592L544 585L539 580L535 579L535 574L541 569L548 567L548 565L550 563L557 565L566 562L570 562L573 557L576 555L587 553L593 550L596 544L604 544L610 549L615 548L621 547L620 542L618 540L617 530L612 526L611 523L613 520L606 512L607 509L610 508L610 505L617 500L613 499L611 495L606 494L603 492L598 493L591 484L588 485L585 483L585 479L582 477L580 480L577 482L568 481L563 478L560 478L560 472L558 471L552 472L549 469L544 467L542 470L537 471L537 468L533 467L531 463L529 456L530 454L530 448L528 445L524 447L520 450L517 450L507 446L503 445L490 448L482 447L473 448L467 446L464 444L453 442L450 438L447 437L444 438L443 435L437 430L431 426L431 424L427 417L423 415L422 413L419 415L416 415L412 419L408 417L406 414L401 416L394 417L388 415L383 415L380 414L372 413L366 414L365 417L375 420L376 421L375 426L378 427L381 426L388 429L391 433L391 438L387 438L385 440L380 439L371 439L368 441L368 446L365 449L367 453L370 454L372 460L370 464L369 472L371 472L374 476L374 478L382 480L389 485L390 487L391 493L389 495L390 500L390 504L387 507L384 507L380 504L375 506L371 511L361 516L356 515L353 517L345 515L341 517L335 518L333 516L330 519L324 520L322 523Z" fill="#7a4fb0" stroke="#0d0a07" stroke-width="1" opacity="0.92"/>
<path d="M38 857L42 856L43 856L44 863L46 865L45 869L47 871L47 874L48 877L49 878L59 876L66 879L69 876L66 873L67 861L67 853L62 847L59 836L62 834L64 828L66 827L68 827L71 831L75 829L78 829L82 832L86 828L93 819L95 817L109 824L113 828L115 829L121 825L121 823L127 817L129 817L134 824L139 816L151 825L152 825L153 824L156 817L159 815L162 815L165 819L168 819L174 815L180 815L184 811L186 804L187 802L200 797L203 794L209 799L212 802L216 797L216 794L219 794L225 788L230 790L236 787L237 779L236 777L238 774L237 770L230 766L226 768L223 768L217 766L216 764L213 764L210 768L205 765L202 766L199 763L199 757L195 753L191 753L183 751L182 755L180 756L177 754L173 747L173 742L175 741L182 745L187 742L188 740L193 739L196 733L200 731L203 733L207 732L209 734L212 738L218 739L223 742L228 741L231 744L238 739L238 736L237 732L243 731L253 727L256 724L265 723L266 721L269 721L270 717L268 714L270 712L279 709L285 716L286 719L288 723L294 720L299 725L302 725L306 723L310 723L313 720L313 716L319 710L323 711L330 715L334 708L337 708L337 711L344 710L347 708L348 703L344 704L344 701L349 700L352 702L358 702L362 692L364 691L362 682L358 680L358 676L362 672L361 667L357 664L361 663L366 661L363 658L366 655L365 651L363 649L355 648L352 651L350 649L346 650L344 653L341 653L338 651L342 648L342 647L347 644L354 637L357 637L358 635L362 632L363 629L362 625L359 623L358 617L360 614L358 612L360 605L356 603L356 596L357 593L354 591L357 587L356 585L356 580L357 575L349 569L347 565L343 564L341 558L341 552L334 550L333 545L331 544L327 549L325 549L323 545L328 543L328 526L322 523L324 520L330 519L333 516L335 518L341 517L345 515L353 517L356 515L361 516L371 511L375 506L380 504L384 507L387 507L390 504L390 500L389 495L391 493L390 487L389 485L382 480L374 478L374 476L371 472L369 472L359 473L356 471L353 468L348 464L338 460L328 454L326 452L317 451L310 453L306 455L295 447L287 446L286 441L283 442L280 444L277 444L272 441L273 436L272 434L258 433L254 436L245 437L240 439L235 437L233 434L234 428L226 429L224 432L220 432L217 434L214 433L211 427L209 426L207 430L209 432L203 437L198 438L194 437L188 438L175 435L169 430L165 429L166 425L168 425L169 421L166 418L165 413L165 409L161 404L160 399L157 397L144 397L141 396L135 396L137 392L129 394L126 394L122 391L123 389L121 386L121 380L120 378L115 376L113 373L107 374L100 378L101 381L94 382L91 386L89 385L84 387L90 395L91 400L95 402L95 405L82 412L81 415L77 415L72 418L70 413L74 407L72 402L68 403L65 407L64 411L66 413L63 418L56 414L47 417L45 418L44 425L47 429L48 430L45 435L38 436L38 857Z" fill="#7a4fb0" stroke="#0d0a07" stroke-width="1" opacity="0.92"/>
<path d="M522 631L523 640L526 641L530 640L533 641L532 645L529 648L534 656L532 660L533 667L542 670L541 675L539 677L538 681L536 684L541 685L545 684L547 686L540 690L539 695L535 702L535 705L538 708L536 714L539 714L539 720L543 719L549 720L553 718L555 716L560 715L561 717L566 720L565 724L567 726L554 732L553 735L550 740L546 742L555 750L558 748L563 747L566 748L567 745L572 747L575 743L579 742L582 743L586 741L593 739L600 746L604 748L608 747L606 740L607 736L611 734L617 735L620 737L630 737L636 746L639 744L644 743L644 748L649 754L653 762L651 766L655 779L661 784L665 780L667 780L668 785L670 784L672 779L671 777L672 775L676 775L678 776L680 772L682 769L686 769L689 765L694 760L693 755L688 754L686 751L693 751L693 748L696 745L700 745L704 747L708 746L714 747L718 745L720 741L717 737L727 734L729 731L727 726L730 723L740 723L742 722L740 719L737 717L736 715L738 713L747 713L754 717L755 716L752 708L752 704L756 695L755 692L750 692L747 694L744 694L741 693L736 688L743 690L749 690L757 683L765 679L761 671L759 669L755 668L753 662L758 664L762 660L762 664L763 666L765 666L765 669L768 670L773 666L775 658L780 650L784 648L793 638L793 635L792 632L795 629L796 625L801 620L801 618L798 615L804 615L806 614L811 604L813 603L816 602L818 607L821 607L827 603L831 604L831 601L826 591L828 588L832 586L833 583L828 580L832 580L834 579L833 577L828 572L825 572L828 568L835 567L838 568L841 572L843 572L845 558L844 554L842 553L834 557L827 558L834 554L843 547L849 543L834 539L824 530L818 527L814 527L804 532L794 533L788 527L783 529L779 528L777 529L787 524L793 523L801 525L804 523L808 517L818 512L818 510L812 506L807 506L807 500L804 500L796 501L797 504L791 506L788 509L786 504L783 502L777 503L774 502L767 497L767 494L759 493L755 495L753 506L750 509L748 514L744 512L740 517L743 519L745 523L739 526L733 526L728 525L726 526L727 530L725 532L727 539L724 543L721 545L720 549L717 552L714 553L707 560L699 561L697 557L692 555L688 556L681 556L679 554L674 553L669 547L669 545L664 545L663 542L659 542L656 545L658 547L657 550L652 552L650 555L644 556L640 553L641 550L646 548L649 542L646 538L640 537L634 543L630 543L624 547L621 547L615 548L610 549L604 544L596 544L593 550L587 553L576 555L573 557L570 562L566 562L557 565L550 563L548 565L548 567L541 569L535 574L535 579L539 580L544 585L543 592L541 594L545 596L547 600L546 604L542 605L540 608L539 611L535 615L528 616L527 618L527 622L522 631Z" fill="#3f9e4d" stroke="#0d0a07" stroke-width="1" opacity="0.92"/>
<path d="M173 742L173 747L177 754L180 756L182 755L183 751L191 753L195 753L199 757L199 763L202 766L205 765L210 768L213 764L216 764L217 766L223 768L226 768L230 766L237 770L238 774L236 777L237 779L236 787L230 790L225 788L219 794L216 794L216 797L212 802L213 805L219 807L225 811L229 810L231 809L236 809L242 813L252 811L261 816L258 822L253 824L252 827L251 831L252 833L255 835L256 837L256 847L259 846L266 849L268 849L272 854L276 857L280 857L283 861L286 860L287 862L294 861L298 859L300 860L307 865L313 863L317 863L319 861L320 858L322 858L325 861L327 860L328 859L327 856L326 850L331 850L331 851L330 853L331 855L337 860L347 861L350 862L351 864L349 868L352 868L359 867L367 864L366 858L369 859L373 864L375 864L375 863L378 866L382 866L382 870L376 872L375 876L372 880L373 883L372 888L377 896L377 899L379 903L383 906L384 908L380 907L380 909L382 912L389 913L398 912L402 909L405 905L404 903L397 897L400 893L399 891L392 890L391 887L392 883L399 878L400 872L401 872L402 876L404 877L406 876L414 870L423 868L424 865L427 866L435 866L438 864L446 863L449 861L453 857L457 857L459 855L459 852L463 852L469 855L473 856L477 854L475 847L478 848L478 851L484 855L487 852L493 848L496 851L498 850L499 849L500 842L503 838L506 843L510 843L513 841L518 839L519 837L521 838L523 833L521 831L521 823L517 818L517 816L513 813L513 811L517 810L518 808L517 806L520 804L524 803L523 807L524 813L529 818L532 823L536 826L539 826L543 824L549 825L552 823L555 824L558 826L560 826L559 822L564 817L566 818L567 822L571 822L573 822L574 820L577 819L580 816L584 815L592 819L596 819L599 814L602 813L610 815L618 812L621 812L625 808L629 810L633 810L635 807L636 801L638 799L641 799L642 797L642 795L640 794L643 794L648 790L650 783L655 784L657 785L661 784L655 779L651 766L653 762L649 754L644 748L644 743L639 744L636 746L630 737L620 737L617 735L611 734L607 736L606 740L608 747L604 748L600 746L593 739L586 741L582 743L579 742L575 743L572 747L567 745L566 748L563 747L558 748L555 750L546 742L550 740L553 735L554 732L567 726L565 724L566 720L561 717L560 715L555 716L553 718L549 720L543 719L539 720L539 714L536 714L532 717L527 717L522 718L520 716L516 716L508 711L497 718L496 721L499 724L498 729L500 732L493 733L489 731L487 726L470 723L466 733L468 734L467 739L464 739L461 741L459 739L454 740L449 739L447 742L443 745L440 743L441 739L440 733L441 730L439 727L434 725L428 729L426 733L423 733L421 730L423 725L427 722L429 717L433 715L435 711L436 703L439 700L439 696L433 697L431 695L433 682L421 678L418 682L412 682L411 680L407 679L405 684L403 686L398 688L394 693L390 690L386 691L387 687L381 685L378 691L376 691L376 696L372 697L372 693L369 690L364 691L362 692L358 702L352 702L349 700L344 701L344 704L348 703L347 708L344 710L337 711L337 708L334 708L330 715L323 711L319 710L313 716L313 720L310 723L306 723L302 725L299 725L294 720L288 723L286 719L285 716L279 709L270 712L268 714L270 717L269 721L266 721L265 723L256 724L253 727L243 731L237 732L238 736L238 739L231 744L228 741L223 742L218 739L212 738L209 734L207 732L203 733L200 731L196 733L193 739L188 740L187 742L182 745L175 741L173 742ZM332 965L335 979L347 986L359 988L366 992L372 990L378 985L385 984L387 983L386 981L394 975L400 973L402 971L407 955L409 950L416 940L420 939L424 936L422 928L419 923L416 923L411 918L410 918L408 919L407 924L400 921L400 924L398 922L391 921L388 923L381 925L371 924L369 924L366 927L358 927L355 929L353 932L357 932L338 945L333 950L332 965Z" fill="#3f9e4d" stroke="#0d0a07" stroke-width="1" opacity="0.92"/>
<text x="341" y="343" text-anchor="middle" font-size="13" font-family="sans-serif" fill="#fff" stroke="#0d0a07" stroke-width="3" paint-order="stroke" font-weight="700">Sili</text>
<text x="181" y="308" text-anchor="middle" font-size="13" font-family="sans-serif" fill="#fff" stroke="#0d0a07" stroke-width="3" paint-order="stroke" font-weight="700">Liang</text>
<text x="373" y="154" text-anchor="middle" font-size="13" font-family="sans-serif" fill="#fff" stroke="#0d0a07" stroke-width="3" paint-order="stroke" font-weight="700">Bing</text>
<text x="862" y="109" text-anchor="middle" font-size="13" font-family="sans-serif" fill="#fff" stroke="#0d0a07" stroke-width="3" paint-order="stroke" font-weight="700">You</text>
<text x="620" y="175" text-anchor="middle" font-size="13" font-family="sans-serif" fill="#fff" stroke="#0d0a07" stroke-width="3" paint-order="stroke" font-weight="700">Ji</text>
<text x="698" y="298" text-anchor="middle" font-size="13" font-family="sans-serif" fill="#fff" stroke="#0d0a07" stroke-width="3" paint-order="stroke" font-weight="700">Qing</text>
<text x="523" y="393" text-anchor="middle" font-size="13" font-family="sans-serif" fill="#fff" stroke="#0d0a07" stroke-width="3" paint-order="stroke" font-weight="700">Yu</text>
<text x="701" y="455" text-anchor="middle" font-size="13" font-family="sans-serif" fill="#fff" stroke="#0d0a07" stroke-width="3" paint-order="stroke" font-weight="700">Xu</text>
<text x="460" y="573" text-anchor="middle" font-size="13" font-family="sans-serif" fill="#fff" stroke="#0d0a07" stroke-width="3" paint-order="stroke" font-weight="700">Jing</text>
<text x="179" y="609" text-anchor="middle" font-size="13" font-family="sans-serif" fill="#fff" stroke="#0d0a07" stroke-width="3" paint-order="stroke" font-weight="700">Yi</text>
<text x="674" y="637" text-anchor="middle" font-size="13" font-family="sans-serif" fill="#fff" stroke="#0d0a07" stroke-width="3" paint-order="stroke" font-weight="700">Yang</text>
<text x="413" y="787" text-anchor="middle" font-size="13" font-family="sans-serif" fill="#fff" stroke="#0d0a07" stroke-width="3" paint-order="stroke" font-weight="700">Jiao</text>
</svg>
