<svg xmlns="http://www.w3.org/2000/svg" viewBox="0 0 1000 500" width="1100"><rect width="1000" height="500" fill="#0a0f16"/><rect width="1000" height="500" fill="#5b7fa6" fill-opacity="0.4"/><path d="M222 234L226 238L230 240L241 242L243 241L242 240L242 239L246 240L251 239L258 236L264 235L270 237L275 241L273 251L270 256L252 259L253 257L252 253L253 251L249 250L248 251L246 253L247 257L245 260L245 263L243 264L243 266L246 265L245 268L239 272L237 275L238 286L235 295L229 295L222 294L216 292L210 286L205 287L203 286L199 285L194 285L182 280L173 280L160 283L151 285L140 290L136 294L132 296L125 297L113 297L87 293L80 294L70 293L55 291L44 290L33 292L31 291L31 289L31 288L37 284L37 283L25 277L24 275L19 272L18 270L18 268L20 266L22 266L25 266L26 265L26 264L18 260L13 262L7 266L3 266L0 263L0 161L4 158L10 153L18 151L22 151L31 145L38 143L41 140L43 140L50 143L60 143L71 145L74 145L78 146L89 145L92 145L103 153L110 152L113 149L124 146L149 143L153 139L154 136L165 134L171 134L175 135L178 137L181 141L187 149L188 153L191 156L195 159L201 166L206 170L209 174L217 179L220 186L223 191L222 196L223 198L219 209L218 215L220 227L217 229L222 234Z" fill="#d64550" stroke="#0a0d12" stroke-width="0.6" opacity="0.93"/><path d="M215 358L210 358L208 358L207 359L202 359L198 360L196 359L189 354L187 354L179 355L174 357L165 358L164 359L161 363L156 364L155 365L154 367L150 366L147 367L145 369L148 374L148 377L148 379L140 382L135 381L126 382L116 384L112 382L107 380L102 379L99 380L93 377L90 373L89 373L85 374L73 374L73 376L72 376L67 377L58 379L51 379L44 379L41 381L33 381L34 371L36 366L34 365L30 357L28 356L21 353L12 346L15 345L19 341L19 339L17 338L16 335L17 330L16 329L17 327L20 326L25 326L29 322L34 318L35 315L31 312L27 309L20 305L18 303L17 300L14 296L13 294L13 291L14 287L15 285L21 283L22 280L22 279L25 277L37 283L37 284L31 288L31 289L31 291L33 292L44 290L55 291L70 293L80 294L87 293L113 297L125 297L132 296L136 294L140 290L151 285L160 283L173 280L182 280L194 285L199 285L203 286L205 287L210 286L216 292L222 294L229 295L235 295L234 304L231 308L226 306L219 307L216 312L212 315L211 321L210 330L205 332L196 340L201 343L204 345L208 350L214 355L215 358Z" fill="#d64550" stroke="#0a0d12" stroke-width="0.6" opacity="0.93"/><path d="M165 134L166 132L173 129L175 130L187 130L191 127L193 128L198 126L208 128L213 131L216 131L217 132L217 134L220 134L225 134L227 135L226 137L226 138L228 137L229 138L231 140L233 137L242 139L245 143L247 145L249 145L253 144L254 144L257 147L258 151L257 155L254 160L255 161L256 162L262 165L264 167L269 169L269 172L268 174L268 175L270 177L270 180L276 183L281 185L284 188L283 195L290 199L288 201L280 202L277 199L275 198L272 200L270 200L266 198L264 199L261 198L259 200L257 201L257 196L257 196L255 195L249 198L247 199L248 201L248 204L250 208L248 213L245 215L241 217L240 220L238 222L234 224L232 226L233 230L232 232L225 232L222 234L217 229L220 227L218 215L219 209L223 198L222 196L223 191L220 186L217 179L209 174L206 170L201 166L195 159L191 156L188 153L187 149L184 144L178 137L175 135L171 134L165 134Z" fill="#d64550" stroke="#0a0d12" stroke-width="0.6" opacity="0.93"/><path d="M0 263L3 266L7 266L13 262L18 260L26 264L26 265L20 266L18 268L18 270L19 272L21 274L23 274L25 277L22 279L22 280L21 283L15 285L13 291L13 294L14 296L17 300L18 303L20 305L27 309L31 312L35 315L34 318L29 322L25 326L20 326L17 327L16 329L17 330L16 335L17 338L19 340L19 341L15 345L12 346L9 344L2 346L0 346Z" fill="#d64550" stroke="#0a0d12" stroke-width="0.6" opacity="0.93"/><path d="M579 175L578 176L565 175L555 176L548 182L544 182L537 183L533 185L528 189L525 187L520 187L515 188L510 191L507 191L501 190L494 192L479 201L476 204L475 204L475 201L473 199L468 204L350 204L349 203L357 201L358 200L357 199L347 197L341 194L347 194L353 196L362 196L370 197L378 192L370 194L362 193L359 191L356 189L355 186L356 184L355 179L351 173L349 171L354 181L354 189L353 191L349 192L340 191L342 187L339 188L336 192L333 192L326 192L314 195L311 201L310 204L248 204L247 199L249 198L255 195L257 196L257 196L257 201L258 201L259 200L261 198L264 199L266 198L270 200L272 200L275 198L277 199L280 202L288 201L290 199L283 195L284 188L281 185L276 183L270 180L270 177L268 175L268 174L269 172L269 169L264 167L262 165L256 162L255 161L254 160L258 152L257 147L254 144L253 144L249 145L247 145L245 143L242 139L233 137L231 140L229 138L228 137L226 138L226 137L227 135L225 134L220 134L217 134L217 132L216 131L213 131L208 128L198 126L193 128L191 127L187 130L175 130L173 129L166 132L165 134L154 136L153 139L149 143L124 146L113 149L110 152L103 153L92 145L89 145L78 146L74 145L71 145L60 143L50 143L43 140L41 140L38 143L31 145L30 143L31 142L27 139L24 139L21 138L19 136L13 134L11 133L9 128L5 128L5 123L11 118L14 112L19 106L19 105L21 104L29 106L30 106L30 104L25 101L26 97L23 88L25 85L37 75L61 58L70 57L73 53L75 52L75 49L73 46L71 43L71 43L75 41L75 40L71 38L67 31L59 25L59 23L60 22L57 17L57 14L61 13L64 13L70 15L71 15L76 12L81 8L84 5L117 2L140 3L170 8L184 9L189 14L200 14L203 15L203 18L204 19L205 18L209 15L215 16L217 16L221 14L236 16L237 19L240 20L243 17L245 16L249 15L252 13L254 13L256 15L261 21L262 22L270 20L291 19L297 21L298 24L302 26L305 26L306 24L308 23L307 19L305 14L310 7L313 4L318 0L432 0L443 8L443 9L442 10L433 11L433 13L436 16L436 21L437 23L438 24L439 25L436 27L446 27L454 30L467 28L468 29L470 34L471 34L475 34L476 35L475 36L476 38L478 43L480 45L480 47L478 50L479 52L482 55L484 56L485 58L488 59L496 56L504 57L511 61L513 61L518 61L522 64L527 61L540 59L548 57L551 57L557 61L557 64L561 68L573 74L577 74L578 71L579 70L581 70L588 73L595 73L604 78L608 78L613 77L618 81L624 81L635 87L638 87L644 86L646 87L646 88L645 89L645 92L647 94L647 98L645 100L639 105L632 107L632 109L634 110L642 112L643 113L639 115L635 114L632 116L630 122L637 123L639 130L637 131L637 132L641 133L641 134L639 137L635 144L635 147L633 148L631 149L613 149L604 148L601 149L597 153L594 155L590 156L585 157L582 159L581 161L581 164L579 167L579 168L581 169L581 170L579 171L579 172L579 175ZM340 204L340 201L343 204Z" fill="#e0a526" stroke="#0a0d12" stroke-width="0.6" opacity="0.93"/><path d="M476 204L473 207L469 210L466 211L465 210L472 206L475 204L468 204L467 205L459 208L459 215L464 224L462 224L457 222L457 218L453 215L445 216L441 212L437 211L433 211L430 210L422 207L416 206L416 209L414 211L408 212L402 210L400 208L391 210L386 210L375 211L375 204Z" fill="#e0a526" stroke="#0a0d12" stroke-width="0.6" opacity="0.93"/><path d="M1000 28L994 31L982 33L979 35L976 41L961 48L957 50L951 50L952 52L954 59L959 71L958 73L956 74L944 78L941 76L937 74L923 61L918 58L914 57L911 57L905 62L903 64L903 69L902 71L893 77L889 82L887 89L886 94L888 96L894 100L894 102L893 104L892 106L888 108L882 114L879 122L881 128L888 131L893 133L895 135L897 138L896 145L900 150L903 152L910 150L932 152L935 153L948 167L963 187L963 188L960 189L956 189L950 187L949 187L947 188L947 189L947 191L948 193L950 194L973 202L973 204L969 204L967 208L957 211L953 211L953 214L569 214L572 213L574 214L574 214L576 214L578 211L586 211L589 211L583 206L574 200L571 201L568 200L565 195L563 192L570 192L577 190L580 189L589 191L589 188L587 185L600 182L612 178L617 177L617 176L618 175L614 169L608 169L605 172L595 173L591 173L594 171L598 170L599 169L592 170L589 172L579 175L579 172L579 171L581 170L581 169L579 168L579 167L581 164L581 161L582 159L585 157L590 156L594 155L597 153L601 149L604 148L621 149L633 148L635 147L635 144L639 137L641 134L641 133L637 132L637 131L639 130L637 123L630 122L632 116L635 114L639 115L643 113L642 112L634 110L632 109L632 107L639 105L645 100L647 98L647 94L645 92L645 89L646 88L646 87L644 86L638 87L635 87L624 81L618 81L613 77L608 78L604 78L595 73L588 73L581 70L579 70L578 71L577 74L573 74L561 68L557 64L557 61L551 57L548 57L540 59L527 61L522 64L518 61L513 61L511 61L504 57L500 56L500 0L1000 0Z" fill="#e0a526" stroke="#0a0d12" stroke-width="0.6" opacity="0.93"/><path d="M953 214L955 217L955 218L953 218L950 217L946 217L938 222L934 224L923 226L918 225L916 227L915 229L911 226L909 226L912 229L912 231L911 232L910 234L908 235L907 239L905 242L901 249L897 253L896 257L893 254L891 258L884 262L883 266L882 268L883 270L884 271L890 272L894 273L901 279L904 282L906 286L908 294L909 302L913 292L916 290L911 303L910 308L911 314L909 320L912 323L916 325L918 328L919 333L922 335L931 345L937 351L942 359L949 363L943 371L939 373L931 376L924 385L921 386L911 385L904 383L902 382L900 377L898 374L893 372L884 364L882 363L878 364L877 364L876 362L872 361L865 358L856 356L852 353L844 350L844 349L847 340L847 339L842 338L834 338L827 333L817 330L813 335L810 332L809 331L804 330L797 332L784 337L779 337L776 335L777 334L778 332L778 330L770 327L762 325L753 322L750 320L750 318L741 315L735 316L729 313L724 313L716 315L699 314L691 310L682 308L666 302L661 303L648 301L646 302L642 306L638 305L626 295L619 289L597 275L594 274L583 272L578 271L566 261L561 262L556 262L553 261L550 259L548 258L546 253L543 251L534 248L523 245L522 245L522 243L531 241L534 240L526 237L531 235L535 236L539 239L543 240L545 239L559 237L560 235L560 233L557 232L558 230L560 227L566 221L569 214L574 214L574 217L576 214ZM928 233L927 233L926 230L926 228L927 227L928 230L928 233ZM500 237L503 235L506 234L510 234L521 236L516 242L514 248L508 249L500 249Z" fill="#3fa05a" stroke="#0a0d12" stroke-width="0.6" opacity="0.93"/><path d="M766 389L765 387L764 387L757 386L755 384L755 383L756 383L755 382L752 380L747 376L744 375L742 373L741 372L736 372L735 373L732 376L731 377L722 375L712 375L708 377L697 374L704 368L706 364L706 358L702 352L696 334L694 331L683 328L681 324L673 319L659 316L642 306L646 302L648 301L661 303L666 302L682 308L691 310L699 314L716 315L724 313L729 313L735 316L741 315L750 318L750 320L753 322L762 325L770 327L778 330L778 332L777 334L776 335L779 337L784 337L797 332L804 330L809 331L810 332L813 335L817 330L827 333L834 338L842 338L847 339L847 340L844 349L844 350L852 353L856 356L865 358L872 361L868 366L864 367L864 369L864 371L866 371L868 375L879 381L881 383L880 387L876 390L873 390L863 386L858 387L854 386L847 384L846 383L847 381L837 378L831 377L821 383L815 384L816 385L806 385L803 386L794 385L778 388L766 389Z" fill="#3fa05a" stroke="#0a0d12" stroke-width="0.6" opacity="0.93"/><path d="M813 439L806 433L800 429L796 427L786 428L778 426L774 424L775 423L772 416L772 415L770 411L774 408L775 405L776 403L773 395L768 393L766 391L766 389L778 388L794 385L803 386L806 385L816 385L815 384L821 382L822 384L824 386L828 388L828 388L824 389L824 390L831 393L835 393L836 393L837 395L842 398L842 400L836 403L835 406L842 414L856 420L856 422L853 428L852 428L844 428L842 429L845 430L850 433L852 435L855 437L864 443L869 442L874 444L874 447L871 449L870 450L878 456L877 457L872 457L871 457L871 458L874 460L875 462L875 468L868 467L863 469L861 469L855 458L856 456L849 451L850 447L849 445L848 444L843 445L838 447L834 445L830 443L828 444L827 443L827 441L826 439L823 437L813 439ZM841 407L840 407L839 407L839 405L841 405L842 405L841 407ZM815 441L813 439L823 437L826 439L827 441L827 443L828 444L830 443L834 445L838 447L846 444L849 445L850 447L849 451L856 456L855 458L861 469L842 465L839 464L833 459L826 455L824 451L821 449L815 441ZM960 484L951 486L950 485L943 479L939 478L938 477L936 474L929 471L928 470L928 468L930 467L937 465L939 464L938 461L933 458L932 456L933 453L938 452L940 450L928 440L925 440L920 441L910 446L900 452L892 458L888 459L877 468L875 468L875 462L874 460L871 458L871 457L872 457L877 457L878 456L870 450L871 449L874 447L874 444L869 442L864 443L855 437L852 435L850 433L845 430L842 429L844 428L852 428L853 428L856 422L856 420L842 414L838 410L835 406L835 405L836 403L842 400L842 398L837 395L836 393L835 393L831 393L824 390L824 389L828 388L828 388L824 386L822 384L821 382L831 377L837 378L847 381L846 383L847 384L854 386L858 387L863 386L873 390L876 390L880 387L881 383L879 381L868 375L866 371L864 371L864 369L864 367L868 366L872 361L876 362L877 364L878 364L882 363L884 364L893 372L898 374L900 377L902 382L904 383L911 385L921 386L924 385L931 376L939 373L943 371L949 363L952 365L966 380L968 382L971 389L972 392L981 400L984 403L992 408L1000 408L1000 417L997 417L988 420L984 422L981 425L979 434L976 443L976 446L977 450L977 452L974 454L971 462L970 463L969 464L968 461L965 460L963 461L962 466L959 470L960 484ZM822 392L822 392L820 392L820 390L822 390L822 392Z" fill="#3fa05a" stroke="#0a0d12" stroke-width="0.6" opacity="0.93"/><path d="M142 424L134 425L131 424L134 422L140 420L142 422L142 424ZM183 500L177 498L174 498L172 495L167 493L164 495L155 491L153 490L155 487L158 487L158 484L156 480L156 478L159 477L161 478L164 480L165 483L164 485L166 487L167 488L168 486L169 485L170 486L174 487L182 485L184 484L178 484L175 483L173 480L170 475L171 474L175 472L179 468L176 467L174 467L172 466L172 464L173 462L173 460L167 454L168 452L175 446L175 445L172 444L160 446L155 447L147 448L146 444L148 441L148 433L149 429L154 428L160 422L169 414L179 414L183 412L189 412L190 415L196 417L205 417L209 415L205 411L206 410L210 410L214 411L214 412L212 415L213 415L225 414L237 415L250 415L252 413L242 409L249 406L280 402L280 401L263 400L259 398L253 394L252 393L253 387L255 385L262 385L283 387L286 387L286 500ZM215 358L214 362L216 367L221 373L227 376L248 384L252 385L250 391L248 393L242 394L225 390L220 390L217 391L212 393L205 392L196 394L194 399L188 404L178 408L170 411L160 419L155 424L150 426L152 421L152 417L159 413L169 409L171 406L147 407L144 403L147 402L155 394L156 392L155 389L155 384L162 381L164 380L165 379L164 371L161 370L158 368L154 367L155 365L156 364L161 363L164 359L165 358L174 357L179 355L187 354L189 354L196 359L198 360L202 359L207 359L208 358L210 358L215 358Z" fill="#3d7eb5" stroke="#0a0d12" stroke-width="0.6" opacity="0.93"/><path d="M286 500L286 387L298 386L315 390L331 389L334 387L338 381L360 372L368 367L377 364L391 361L403 357L406 357L435 358L455 359L465 355L470 356L468 359L469 361L472 364L475 367L484 370L497 367L502 368L506 378L510 381L514 383L518 383L521 381L523 380L528 380L536 383L536 500Z" fill="#3d7eb5" stroke="#0a0d12" stroke-width="0.6" opacity="0.93"/><path d="M697 374L708 377L712 375L722 375L731 377L732 376L735 373L736 372L739 372L742 373L744 375L747 376L756 383L755 383L755 384L757 386L763 386L765 387L766 391L773 395L776 403L775 405L774 408L770 411L772 415L772 416L775 423L774 424L784 428L786 428L796 427L800 429L812 438L815 441L814 441L807 437L804 438L802 440L800 449L798 450L790 450L787 451L789 456L792 459L792 462L791 464L792 467L795 470L795 475L796 480L796 486L801 487L802 488L799 491L797 496L795 500L536 500L536 383L538 386L551 389L563 390L568 393L585 396L591 395L602 392L622 389L636 393L640 394L643 394L647 395L652 394L667 389L672 386L677 385L682 384L693 378L697 374Z" fill="#3d7eb5" stroke="#0a0d12" stroke-width="0.6" opacity="0.93"/><path d="M51 466L53 470L54 471L67 475L75 476L76 477L79 481L79 482L78 483L79 488L81 492L84 494L92 495L92 496L92 499L91 500L84 499L83 498L79 496L78 493L77 491L75 489L74 488L73 486L63 486L59 484L58 480L54 478L49 474L45 471L37 469L33 470L31 470L31 469L41 464L45 463L47 463L51 466ZM64 460L62 461L60 461L57 457L64 460ZM67 459L66 459L67 456L70 455L69 457L67 459ZM96 471L91 472L92 470L88 468L89 465L92 466L92 469L96 471ZM99 407L94 408L90 405L90 404L94 400L97 400L100 403L99 405L99 407ZM146 492L143 494L139 491L138 490L141 489L143 487L141 485L138 482L137 479L143 479L147 481L149 481L148 483L148 489L147 490L146 492ZM158 453L157 455L162 458L164 460L164 463L164 463L160 462L161 463L162 464L160 465L157 465L149 463L147 461L153 457L149 457L145 461L140 459L137 457L140 454L144 454L146 453L149 452L149 451L155 451L158 453ZM132 413L128 414L123 411L127 410L131 412L132 413ZM123 429L120 432L120 435L117 435L116 432L115 432L114 435L112 435L109 434L109 429L116 428L117 430L120 429L120 428L123 427L123 429ZM154 367L158 368L161 370L164 371L165 379L164 380L162 381L155 384L155 389L156 393L155 394L147 402L144 403L143 401L138 398L125 397L119 395L116 395L111 393L107 394L100 398L96 398L91 395L88 395L85 396L80 400L74 403L70 402L63 402L62 404L67 409L65 411L67 414L73 414L79 417L82 420L84 423L77 419L68 416L65 415L62 417L61 418L70 424L71 428L70 430L66 428L59 421L51 419L50 421L51 424L52 426L60 430L58 431L50 429L47 425L47 421L32 414L30 411L32 410L33 407L29 408L22 411L22 413L23 415L20 424L21 427L30 436L33 442L35 444L39 447L44 451L46 454L47 458L44 461L41 461L40 460L42 457L41 455L35 452L33 453L30 455L32 458L34 460L34 463L38 463L33 466L29 468L21 468L20 469L25 470L28 471L36 474L41 476L45 476L49 481L56 483L60 487L66 488L70 490L72 492L73 500L57 500L54 499L51 500L0 500L0 489L9 493L20 496L25 498L28 500L33 500L32 498L34 497L40 497L42 495L41 494L39 493L36 492L33 493L30 492L27 490L21 488L15 484L14 486L11 487L8 487L0 486L0 388L5 388L7 387L18 389L26 386L27 382L28 381L41 381L44 379L51 379L58 379L67 377L72 376L73 376L73 374L85 374L89 373L90 373L93 377L99 380L102 379L107 380L112 382L116 384L126 382L135 381L140 382L148 379L148 377L148 374L145 369L146 368L147 367L150 366L154 367Z" fill="#3d7eb5" stroke="#0a0d12" stroke-width="0.6" opacity="0.93"/><line x1="427" y1="208" x2="413" y2="435" stroke="rgba(220,232,245,0.6)" stroke-width="1.2" stroke-dasharray="5 4"/><line x1="427" y1="208" x2="765" y2="273" stroke="rgba(220,232,245,0.6)" stroke-width="1.2" stroke-dasharray="5 4"/><line x1="51" y1="424" x2="413" y2="435" stroke="rgba(220,232,245,0.6)" stroke-width="1.2" stroke-dasharray="5 4"/><circle cx="117" cy="220" r="2" fill="#0a0d12"/><circle cx="115" cy="330" r="2" fill="#0a0d12"/><circle cx="231" cy="172" r="2" fill="#0a0d12"/><circle cx="11" cy="305" r="2" fill="#0a0d12"/><circle cx="330" cy="99" r="2" fill="#0a0d12"/><circle cx="427" cy="208" r="2" fill="#0a0d12"/><circle cx="756" cy="100" r="2" fill="#0a0d12"/><circle cx="765" cy="273" r="2" fill="#0a0d12"/><circle cx="768" cy="351" r="2" fill="#0a0d12"/><circle cx="916" cy="416" r="2" fill="#0a0d12"/><circle cx="228" cy="452" r="2" fill="#0a0d12"/><circle cx="413" cy="435" r="2" fill="#0a0d12"/><circle cx="665" cy="444" r="2" fill="#0a0d12"/><circle cx="51" cy="424" r="2" fill="#0a0d12"/><text x="117" y="214" fill="#eef" font-size="10" text-anchor="middle" font-family="sans-serif">Wallachia</text><text x="115" y="324" fill="#eef" font-size="10" text-anchor="middle" font-family="sans-serif">Bulgaria</text><text x="231" y="166" fill="#eef" font-size="10" text-anchor="middle" font-family="sans-serif">Moldavia</text><text x="11" y="299" fill="#eef" font-size="10" text-anchor="middle" font-family="sans-serif">Serbia</text><text x="330" y="93" fill="#eef" font-size="10" text-anchor="middle" font-family="sans-serif">Ukraine</text><text x="427" y="202" fill="#eef" font-size="10" text-anchor="middle" font-family="sans-serif">Crimea</text><text x="756" y="94" fill="#eef" font-size="10" text-anchor="middle" font-family="sans-serif">Don Steppe</text><text x="765" y="267" fill="#eef" font-size="10" text-anchor="middle" font-family="sans-serif">Circassia</text><text x="768" y="345" fill="#eef" font-size="10" text-anchor="middle" font-family="sans-serif">Georgia</text><text x="916" y="410" fill="#eef" font-size="10" text-anchor="middle" font-family="sans-serif">Armenia</text><text x="228" y="446" fill="#eef" font-size="10" text-anchor="middle" font-family="sans-serif">Thrace</text><text x="413" y="429" fill="#eef" font-size="10" text-anchor="middle" font-family="sans-serif">Anatolia</text><text x="665" y="438" fill="#eef" font-size="10" text-anchor="middle" font-family="sans-serif">Eastern Anatolia</text><text x="51" y="418" fill="#eef" font-size="10" text-anchor="middle" font-family="sans-serif">Greece</text></svg>