<svg xmlns="http://www.w3.org/2000/svg" viewBox="0 0 1000 970" width="1100"><rect width="1000" height="970" fill="#0a0f16"/><rect width="1000" height="970" fill="#5b7fa6" fill-opacity="0.4"/><path d="M240 0L244 2L248 0L348 0L351 8L356 10L362 7L368 3L375 1L378 0L439 0L425 5L417 3L383 5L368 9L367 11L358 16L357 17L352 17L340 27L339 29L344 32L346 35L349 42L351 44L352 48L350 51L350 52L352 55L347 62L342 65L337 70L335 73L332 75L334 78L336 80L336 87L335 89L329 91L323 92L313 92L303 89L300 91L299 94L307 102L312 110L311 112L301 118L294 118L290 119L288 121L286 126L285 128L285 131L280 138L281 153L275 159L269 163L266 162L261 157L256 159L247 157L243 161L235 165L231 165L230 166L230 168L234 170L234 171L230 173L221 175L216 174L213 173L210 173L207 174L204 176L200 181L194 184L192 188L191 194L191 202L189 209L189 211L191 213L189 216L154 225L137 225L133 226L126 228L124 231L108 227L75 230L26 216L54 187L55 180L53 173L50 170L25 167L24 155L25 144L17 121L17 117L28 106L27 105L20 104L15 102L15 100L16 96L15 88L19 82L27 81L22 75L29 71L29 69L33 65L32 63L35 58L33 52L36 51L39 45L38 42L41 42L47 47L49 48L60 47L67 52L69 55L70 55L72 54L75 53L79 54L81 53L93 47L93 43L96 40L94 36L95 35L100 35L117 30L122 30L122 30L124 27L132 23L137 20L138 17L144 0Z" fill="#d64550" stroke="#0a0d12" stroke-width="0.6" opacity="0.93"/><path d="M182 350L172 353L164 352L153 354L145 354L141 358L138 356L126 354L123 351L119 353L113 352L108 353L106 355L106 357L96 356L91 357L81 356L78 356L70 360L67 357L63 359L58 360L53 359L47 358L49 355L50 341L53 338L55 328L56 326L63 324L64 322L68 323L70 318L74 316L84 314L96 314L97 308L98 307L98 301L100 299L100 298L99 297L96 295L88 296L84 295L84 292L85 288L83 273L84 265L78 266L71 260L57 256L49 249L41 234L40 231L26 216L75 230L108 227L124 231L126 228L133 226L137 225L154 225L182 219Z" fill="#d64550" stroke="#0a0d12" stroke-width="0.6" opacity="0.93"/><path d="M411 212L406 214L401 226L391 242L374 250L372 252L369 260L362 267L360 274L350 277L339 278L330 281L327 282L324 280L323 278L322 275L318 272L315 272L307 277L300 289L289 299L287 309L288 311L295 314L305 316L308 318L307 327L305 331L306 336L311 342L317 343L320 342L323 343L323 351L330 362L335 373L333 375L332 377L333 379L335 381L335 382L330 384L327 386L325 387L321 385L320 381L318 381L306 385L304 388L297 389L294 389L290 386L276 386L270 385L268 386L266 384L264 386L264 395L257 395L251 396L247 398L246 401L244 399L241 399L238 397L237 399L232 400L232 396L229 398L227 396L227 393L223 391L221 389L221 383L217 371L215 370L203 368L202 366L203 360L203 357L199 352L198 349L195 346L192 345L188 346L187 347L186 349L193 348L196 350L189 350L182 350L182 219L189 216L191 213L190 212Z" fill="#d64550" stroke="#0a0d12" stroke-width="0.6" opacity="0.93"/><path d="M508 41L517 57L515 61L509 64L506 67L503 69L499 68L490 71L486 71L481 74L476 76L473 76L460 72L453 71L433 68L423 71L419 78L418 79L418 81L422 82L423 84L424 85L421 88L422 90L423 90L432 91L432 93L431 94L424 97L424 99L424 102L428 105L429 106L428 110L424 114L424 115L428 119L433 121L434 125L433 127L435 128L444 129L444 133L444 136L445 137L448 138L454 138L462 140L465 143L464 145L462 147L447 153L441 157L440 160L442 168L440 176L441 178L443 178L443 181L436 185L435 185L425 196L421 199L421 201L422 205L418 209L411 212L190 212L189 211L189 209L191 202L191 194L194 184L200 181L204 176L207 174L210 173L213 173L216 174L221 175L226 175L234 171L234 170L230 168L230 166L231 165L235 165L243 161L247 157L256 159L261 157L266 162L269 163L275 159L281 153L280 138L285 131L285 128L286 126L288 121L290 119L294 118L301 118L311 112L312 110L307 102L299 94L300 91L303 89L313 92L323 92L329 91L335 89L336 87L336 80L334 78L332 75L335 73L337 70L342 65L347 62L352 55L350 52L350 51L352 48L351 44L349 42L346 35L344 32L339 29L340 27L352 17L357 17L358 16L367 11L368 9L383 5L417 3L424 5L439 0L448 0L451 1L456 0L465 3L467 8L468 8L472 7L475 8L480 11L483 14L484 19L484 25L482 28L482 29L487 31L489 35L492 36L502 34L502 37L508 41Z" fill="#d64550" stroke="#0a0d12" stroke-width="0.6" opacity="0.93"/><path d="M305 333L305 331L307 327L308 318L305 316L295 314L287 310L288 304L290 298L300 289L307 277L315 272L318 272L322 275L323 278L324 280L327 282L330 281L339 278L350 277L360 274L362 267L368 262L372 252L374 250L391 242L401 226L406 214L418 209L422 205L421 201L421 199L425 196L435 185L436 185L443 181L443 178L441 178L440 176L442 168L440 160L441 157L447 153L462 147L464 145L465 143L462 140L454 138L448 138L445 137L444 136L444 133L444 129L435 128L433 127L434 125L433 121L428 119L424 115L424 114L428 110L429 106L428 105L424 102L424 99L424 97L431 94L432 93L432 91L423 90L421 89L421 88L424 85L423 84L422 82L418 81L418 79L423 71L433 68L453 71L460 72L468 75L476 76L481 74L486 71L490 71L499 68L503 69L506 67L509 64L515 61L517 57L539 46L542 47L546 46L547 46L546 53L554 71L555 73L566 75L574 80L575 82L575 84L568 88L567 91L569 97L570 106L574 111L579 114L580 116L579 120L582 123L583 130L582 136L580 137L578 140L573 141L569 137L567 133L558 135L557 136L560 145L568 153L566 157L566 159L570 163L567 168L568 169L568 172L569 173L573 172L575 172L576 169L579 170L586 179L591 182L593 183L600 183L606 187L606 333Z" fill="#e0a526" stroke="#0a0d12" stroke-width="0.6" opacity="0.93"/><path d="M606 187L609 188L611 188L612 189L612 195L627 200L636 205L637 207L634 207L632 208L623 215L618 220L614 230L613 237L610 239L609 243L608 246L608 248L619 254L621 254L622 253L624 253L629 256L641 263L646 267L662 277L666 275L680 283L687 283L689 287L706 292L711 289L722 292L724 290L730 288L746 294L748 302L758 307L761 307L763 310L766 311L775 308L777 308L779 310L780 314L782 315L784 315L788 314L799 316L809 320L819 317L821 320L827 322L831 321L837 321L844 320L848 322L849 321L853 311L852 305L848 300L848 299L849 291L853 280L853 277L851 276L853 274L861 272L866 270L873 273L874 277L871 287L872 290L875 293L872 296L871 298L874 301L874 304L883 309L889 308L897 310L897 312L902 312L913 310L915 308L920 306L926 309L932 310L943 309L948 309L952 307L955 309L960 309L965 307L970 307L972 306L972 304L969 300L972 294L969 289L962 290L957 286L957 285L959 280L969 281L973 279L977 278L980 278L984 277L990 274L991 272L989 271L991 268L1000 263L1000 333L903 333L900 328L899 327L898 327L897 328L897 331L895 333L891 333L884 330L882 327L882 324L881 322L879 321L877 321L876 322L878 325L878 326L874 326L869 324L869 323L867 320L861 316L860 316L859 318L862 320L862 322L853 331L852 333L606 333Z" fill="#e0a526" stroke="#0a0d12" stroke-width="0.6" opacity="0.93"/><path d="M247 398L251 396L254 395L264 395L264 386L266 384L268 386L270 385L276 386L290 386L294 389L297 389L304 388L306 385L318 381L320 381L321 385L325 387L327 386L330 384L335 382L335 381L333 379L332 377L333 375L335 373L330 362L323 351L323 343L320 342L317 343L311 342L306 336L305 333L545 333L545 485L389 485L388 481L386 481L385 479L383 474L386 471L382 471L388 466L397 462L389 464L380 464L382 458L385 455L379 455L380 450L383 448L388 447L382 446L377 447L369 446L373 449L372 452L371 454L366 457L365 460L369 461L370 463L371 465L371 469L364 480L353 485L311 485L304 479L295 470L279 455L273 449L272 446L272 443L274 441L277 442L279 444L281 446L289 442L293 442L295 440L298 441L303 438L308 437L316 425L319 424L318 422L316 422L313 426L311 425L307 426L298 429L295 431L293 432L280 429L267 423L262 418L255 407L256 405L266 398L257 402L253 406L250 406L247 398Z" fill="#e0a526" stroke="#0a0d12" stroke-width="0.6" opacity="0.93"/><path d="M852 277L853 277L853 280L849 291L848 299L853 309L853 311L850 320L848 322L844 320L837 321L831 321L827 322L821 320L819 317L809 320L799 316L788 314L784 315L782 315L780 314L779 310L777 308L775 308L766 311L763 310L761 307L758 307L748 302L746 294L730 288L724 290L722 292L711 289L706 292L689 287L687 283L680 283L666 275L662 277L646 267L641 263L629 256L624 253L622 253L621 254L619 254L608 248L608 246L610 239L613 237L614 230L616 225L618 220L625 213L634 207L637 207L640 211L642 211L644 209L649 202L656 200L662 201L668 202L671 209L673 210L681 214L693 222L697 224L702 224L708 229L715 237L717 237L725 234L730 236L734 245L751 256L753 256L760 254L762 255L760 261L761 263L770 264L778 264L783 269L786 275L788 275L790 275L790 270L792 269L794 272L800 275L804 274L805 270L806 270L809 270L811 272L819 275L822 278L837 278L844 276L852 277ZM959 280L957 285L957 286L962 290L969 289L972 294L969 300L972 304L972 306L970 307L965 307L960 309L955 309L952 307L948 309L943 309L932 310L926 309L920 306L915 308L913 310L902 312L897 312L897 310L889 308L883 309L880 307L874 304L874 301L871 298L872 296L875 294L877 289L882 285L884 281L893 271L895 269L902 267L904 265L909 263L920 265L920 266L919 270L920 270L931 271L937 272L940 274L942 274L948 270L959 275L959 280Z" fill="#e0a526" stroke="#0a0d12" stroke-width="0.6" opacity="0.93"/><path d="M727 333L727 485L545 485L545 333Z" fill="#3fa05a" stroke="#0a0d12" stroke-width="0.6" opacity="0.93"/><path d="M1000 452L999 454L997 455L996 454L993 451L991 451L989 454L987 455L985 434L981 426L980 414L977 404L975 404L974 402L971 404L968 403L968 409L963 413L962 416L963 421L962 423L958 425L956 424L955 423L953 418L951 418L951 422L949 421L947 413L944 407L944 404L946 396L950 393L951 391L955 391L961 388L965 389L966 388L968 383L972 383L973 382L977 371L977 367L977 367L983 368L984 367L984 365L976 360L971 359L954 359L948 358L922 359L904 355L903 352L904 347L903 338L904 335L903 333L852 333L851 337L852 338L856 340L864 347L866 349L872 349L873 353L877 355L877 356L875 358L873 358L862 358L860 365L858 367L853 366L849 375L853 379L855 380L857 379L861 382L868 384L870 386L870 394L866 404L867 407L871 411L870 415L870 417L877 419L874 423L876 435L880 446L880 456L877 456L879 460L880 465L876 465L874 462L874 465L871 467L870 465L869 463L871 454L870 453L868 453L868 451L866 460L867 463L866 465L862 466L857 462L856 466L852 466L850 464L854 454L854 450L848 446L847 443L847 447L853 451L850 455L847 460L839 465L824 468L821 470L817 474L814 478L813 482L815 485L727 485L727 333L1000 333Z" fill="#3fa05a" stroke="#0a0d12" stroke-width="0.6" opacity="0.93"/><path d="M880 452L880 446L876 435L874 423L877 419L870 417L870 415L871 411L867 407L866 404L870 394L870 386L868 384L861 382L857 379L855 380L853 379L849 375L853 366L858 367L860 365L862 358L873 358L875 358L877 356L877 355L873 353L872 349L866 349L864 347L859 342L856 340L853 339L851 337L853 331L862 322L862 320L859 318L860 316L861 316L867 320L869 323L869 324L874 326L878 326L878 325L876 322L877 321L879 321L881 322L882 324L882 327L884 330L890 333L893 334L895 333L897 331L897 328L898 327L899 327L904 335L903 338L904 347L903 352L904 355L922 359L948 358L954 359L971 359L981 363L984 365L984 367L983 368L977 367L977 367L977 371L973 382L972 383L968 383L966 388L965 389L961 388L955 391L951 391L950 393L946 396L944 404L949 421L951 422L951 418L953 418L955 423L956 424L958 425L962 423L963 421L962 416L963 413L968 409L968 403L971 404L974 402L975 404L977 404L980 414L981 426L985 434L987 456L988 471L989 476L987 477L986 475L980 472L978 472L976 474L975 476L976 479L976 481L978 483L980 491L971 480L970 464L967 458L964 448L966 444L964 446L960 439L955 433L954 430L954 428L952 430L946 435L944 436L938 436L934 433L929 423L928 421L929 416L927 406L926 408L926 411L917 410L921 413L925 414L927 416L927 420L923 423L924 425L926 427L923 428L922 432L924 435L924 437L927 441L928 444L927 447L920 453L916 460L914 460L911 458L912 454L915 450L908 454L907 451L906 445L909 440L906 443L905 446L905 452L903 455L902 457L899 458L896 462L893 446L893 448L894 457L892 460L890 463L886 463L882 458L880 452ZM944 449L941 451L942 439L945 446L944 449ZM956 443L955 444L954 443L952 440L953 436L956 443ZM933 452L927 453L925 453L930 445L929 438L926 436L924 429L927 428L929 430L931 435L935 440L934 450L933 452ZM966 460L965 462L964 460L965 457L966 458L966 460ZM968 469L966 470L965 469L965 463L968 463L969 466L968 469ZM929 425L929 427L927 426L925 424L927 423L929 425Z" fill="#3fa05a" stroke="#0a0d12" stroke-width="0.6" opacity="0.93"/><path d="M545 485L545 667L424 667L423 664L421 657L418 655L422 655L417 649L419 647L416 647L415 645L412 640L408 635L404 622L401 600L398 590L399 587L394 573L391 558L390 556L391 552L394 545L393 541L391 545L389 546L388 538L388 536L394 537L388 534L387 532L388 530L386 528L384 520L385 513L390 498L390 490L389 485L353 485L345 489L334 493L330 493L325 493L318 490L311 485Z" fill="#3fa05a" stroke="#0a0d12" stroke-width="0.6" opacity="0.93"/><path d="M815 485L816 493L817 494L811 502L811 506L803 510L799 515L797 514L795 514L797 516L796 518L794 518L775 524L773 524L775 523L774 519L773 519L772 518L765 522L763 527L763 527L769 525L771 526L771 526L764 530L751 542L748 547L730 567L717 574L703 588L696 592L685 598L678 603L675 608L678 613L677 616L675 619L671 622L659 626L649 625L645 626L640 638L637 640L636 644L632 643L631 643L630 640L626 640L618 643L615 645L609 657L608 664L608 667L545 667L545 485Z" fill="#3d7eb5" stroke="#0a0d12" stroke-width="0.6" opacity="0.93"/><path d="M608 667L611 682L611 686L609 691L613 701L615 713L611 706L608 709L610 711L615 714L616 716L613 737L610 744L606 750L602 758L599 770L600 774L597 778L600 778L601 782L601 808L596 809L592 808L588 809L585 810L583 813L584 817L576 828L574 831L573 835L576 838L584 840L587 841L588 843L582 841L575 840L558 845L554 849L551 852L550 859L549 863L547 867L538 873L533 875L531 876L524 874L517 869L502 851L499 844L497 841L495 835L492 820L493 821L495 823L496 832L498 833L499 832L495 821L492 817L491 816L491 812L483 794L476 777L470 767L464 759L461 756L453 740L451 732L448 725L445 707L443 702L439 696L436 682L424 667ZM994 844L992 845L991 843L991 842L993 841L994 841L994 843L994 844ZM985 801L984 802L981 802L980 795L983 792L985 791L987 797L985 801ZM991 776L989 777L988 776L989 775L989 772L991 774L991 776ZM992 772L991 772L990 772L987 766L986 761L988 759L990 752L994 751L993 748L991 747L992 741L993 737L992 734L994 731L996 716L998 713L1000 711L1000 725L999 725L997 729L999 732L1000 741L998 744L996 744L996 751L992 758L994 761L993 769L992 772ZM1000 759L999 758L1000 757ZM991 731L990 733L990 729L991 728L992 729L991 731ZM387 782L388 780L387 782ZM396 871L395 871L396 869L396 871Z" fill="#3d7eb5" stroke="#0a0d12" stroke-width="0.6" opacity="0.93"/><path d="M605 829L603 830L602 828L602 826L603 826L603 828L605 829ZM602 847L603 849L598 845L602 847ZM606 824L614 824L617 829L628 837L633 846L634 849L637 851L642 859L643 863L646 864L648 866L649 874L657 885L657 888L662 896L663 900L662 912L660 921L656 927L646 933L628 940L621 941L614 939L609 935L602 914L600 891L597 877L597 873L598 870L598 877L599 878L600 877L602 866L604 858L604 852L608 846L609 842L610 839L609 831L616 834L619 834L618 832L614 830L607 829L605 826L606 824Z" fill="#3d7eb5" stroke="#0a0d12" stroke-width="0.6" opacity="0.93"/><line x1="627" y1="891" x2="531" y2="749" stroke="rgba(220,232,245,0.6)" stroke-width="1.2" stroke-dasharray="5 4"/><circle cx="174" cy="103" r="2" fill="#0a0d12"/><circle cx="122" cy="289" r="2" fill="#0a0d12"/><circle cx="267" cy="289" r="2" fill="#0a0d12"/><circle cx="367" cy="120" r="2" fill="#0a0d12"/><circle cx="486" cy="223" r="2" fill="#0a0d12"/><circle cx="767" cy="303" r="2" fill="#0a0d12"/><circle cx="420" cy="410" r="2" fill="#0a0d12"/><circle cx="725" cy="265" r="2" fill="#0a0d12"/><circle cx="636" cy="409" r="2" fill="#0a0d12"/><circle cx="830" cy="401" r="2" fill="#0a0d12"/><circle cx="916" cy="397" r="2" fill="#0a0d12"/><circle cx="470" cy="571" r="2" fill="#0a0d12"/><circle cx="643" cy="555" r="2" fill="#0a0d12"/><circle cx="531" cy="749" r="2" fill="#0a0d12"/><circle cx="627" cy="891" r="2" fill="#0a0d12"/><text x="174" y="97" fill="#eef" font-size="10" text-anchor="middle" font-family="sans-serif">Afghanistan</text><text x="122" y="283" fill="#eef" font-size="10" text-anchor="middle" font-family="sans-serif">Baluchistan</text><text x="267" y="283" fill="#eef" font-size="10" text-anchor="middle" font-family="sans-serif">Sindh</text><text x="367" y="114" fill="#eef" font-size="10" text-anchor="middle" font-family="sans-serif">Punjab</text><text x="486" y="217" fill="#eef" font-size="10" text-anchor="middle" font-family="sans-serif">Hindustan</text><text x="767" y="297" fill="#eef" font-size="10" text-anchor="middle" font-family="sans-serif">Oudh</text><text x="420" y="404" fill="#eef" font-size="10" text-anchor="middle" font-family="sans-serif">Rajputana</text><text x="725" y="259" fill="#eef" font-size="10" text-anchor="middle" font-family="sans-serif">Nepal & Bhutan</text><text x="636" y="403" fill="#eef" font-size="10" text-anchor="middle" font-family="sans-serif">Central India</text><text x="830" y="395" fill="#eef" font-size="10" text-anchor="middle" font-family="sans-serif">Bengal</text><text x="916" y="391" fill="#eef" font-size="10" text-anchor="middle" font-family="sans-serif">Bengal Delta</text><text x="470" y="565" fill="#eef" font-size="10" text-anchor="middle" font-family="sans-serif">Bombay</text><text x="643" y="549" fill="#eef" font-size="10" text-anchor="middle" font-family="sans-serif">The Deccan</text><text x="531" y="743" fill="#eef" font-size="10" text-anchor="middle" font-family="sans-serif">Madras</text><text x="627" y="885" fill="#eef" font-size="10" text-anchor="middle" font-family="sans-serif">Ceylon</text></svg>