<svg xmlns="http://www.w3.org/2000/svg" viewBox="0 0 1000 638" width="1200"><rect width="1000" height="638" fill="#0a0f16"/><rect width="1000" height="638" fill="#5b7fa6" fill-opacity="0.4"/><path d="M255 319L255 273L249 251L253 246L254 241L255 239L253 233L252 227L259 220L260 223L263 223L274 221L303 226L309 230L316 230L318 232L330 233L342 238L350 236L360 229L363 228L366 229L370 224L381 222L381 223L374 225L377 225L383 224L385 221L394 224L402 223L407 227L406 227L402 224L399 228L404 229L406 232L409 232L410 230L409 228L417 233L428 230L430 232L434 231L440 231L445 230L451 227L461 251L466 266L462 271L460 282L456 290L455 298L451 303L448 302L442 297L438 292L431 286L428 277L420 265L416 256L414 257L415 258L412 263L413 265L417 270L418 273L418 277L423 286L430 293L437 300L437 306L440 312L443 313L445 319Z" fill="#d64550" stroke="#0a0d12" stroke-width="0.6" opacity="0.93"/><path d="M508 426L392 426L393 422L393 421L391 421L391 422L389 425L387 426L255 426L255 319L445 319L446 327L448 329L454 340L459 347L472 373L478 380L485 384L480 385L479 388L479 395L483 405L488 410L494 412L498 417L507 423L508 426Z" fill="#d64550" stroke="#0a0d12" stroke-width="0.6" opacity="0.93"/><path d="M0 194L6 193L11 195L25 198L32 202L46 204L50 209L50 213L53 220L58 225L66 228L80 229L103 236L105 237L110 239L121 246L126 249L130 250L134 249L143 245L149 238L151 235L152 232L152 230L148 222L147 217L148 213L152 208L157 204L162 200L172 196L179 196L184 193L195 193L215 200L216 203L215 206L219 208L230 209L237 213L249 212L253 213L256 215L259 220L252 227L253 233L255 239L254 241L253 246L249 251L255 273L255 468L234 468L234 479L63 395L26 412L13 402L10 400L0 398Z" fill="#d64550" stroke="#0a0d12" stroke-width="0.6" opacity="0.93"/><path d="M429 638L430 634L420 634L420 638L204 638L202 637L200 628L200 627L199 624L196 623L190 624L188 621L191 615L195 612L196 610L196 607L194 600L195 598L203 592L201 590L200 584L201 582L206 580L206 578L208 574L211 571L212 568L211 563L215 560L226 559L233 559L234 468L255 468L255 426L387 426L389 425L391 422L391 421L393 421L393 422L392 426L508 426L509 434L516 444L516 446L514 445L514 447L515 456L515 460L515 466L516 473L516 477L518 487L521 493L523 495L526 496L530 499L536 505L538 505L539 506L544 509L545 511L541 514L537 519L527 522L522 525L519 531L511 531L510 536L508 540L509 547L500 569L498 572L501 590L498 604L493 615L492 622L492 623L486 624L482 625L474 638ZM406 638L420 638L420 634L430 634L429 638Z" fill="#d64550" stroke="#0a0d12" stroke-width="0.6" opacity="0.93"/><path d="M372 230L371 226L369 222L366 220L362 218L358 218L354 220L351 222L349 226L348 230L349 234L351 237L354 240L358 241L362 241L366 240L369 237L371 234Z" fill="#d64550" stroke="#0a0d12" stroke-width="0.6" opacity="0.93"/><path d="M486 183L485 185L487 193L485 197L480 199L480 204L478 204L476 202L472 201L469 203L467 209L468 215L467 217L471 217L472 218L467 221L466 226L470 226L478 224L477 229L477 231L471 246L471 252L470 256L468 265L466 266L461 251L458 246L452 230L454 228L454 226L458 223L457 222L461 215L470 190L477 190L479 189L479 186L480 186L481 186L486 183ZM457 222L458 223L454 226L454 228L452 230L451 227L457 222ZM480 204L480 208L479 213L480 218L478 224L470 226L466 226L467 221L472 218L471 217L467 216L468 215L467 209L469 203L472 201L476 202L478 204L480 204ZM485 197L487 198L491 201L494 202L497 205L507 206L548 184L554 202L553 203L554 206L558 205L559 208L552 213L510 224L531 245L524 248L521 255L505 258L499 266L490 273L467 269L470 256L471 252L471 246L477 231L477 229L478 222L480 218L479 213L480 208L480 199L485 197Z" fill="#e0a526" stroke="#0a0d12" stroke-width="0.6" opacity="0.93"/><path d="M487 129L493 131L494 129L497 128L497 124L500 123L503 123L501 118L502 113L503 111L509 112L512 114L520 114L536 108L541 109L548 113L561 113L575 110L589 104L607 104L618 102L621 100L624 101L625 104L624 105L613 115L605 117L602 120L601 126L603 132L603 135L600 143L600 154L595 161L594 162L589 163L548 184L507 206L497 205L494 202L491 201L487 198L485 197L487 193L485 189L485 184L490 179L488 177L489 176L491 174L497 174L495 172L497 170L499 169L502 166L500 161L496 160L499 157L498 156L496 156L495 157L489 157L487 150L488 144L487 140L484 137L486 131L487 129ZM489 157L495 157L496 156L498 156L499 157L496 160L500 161L502 166L499 169L497 170L495 172L497 174L491 174L490 175L488 177L490 179L490 180L481 186L480 186L479 186L479 189L477 190L470 190L481 170L482 165L485 161L489 159L489 157Z" fill="#e0a526" stroke="#0a0d12" stroke-width="0.6" opacity="0.93"/><path d="M625 104L627 104L634 98L637 99L640 99L653 102L656 102L660 100L662 100L664 101L664 105L666 107L672 103L675 103L677 105L678 111L681 113L682 118L686 120L689 127L693 128L697 131L706 131L708 132L703 135L702 136L702 139L705 142L705 145L705 146L700 148L695 153L694 158L692 158L690 161L692 166L689 171L691 172L697 179L700 179L699 181L702 181L703 183L705 187L704 190L705 192L710 193L726 203L729 203L731 204L734 210L741 217L738 226L738 234L745 234L745 245L752 249L753 251L754 255L756 256L752 256L748 254L744 255L744 256L738 253L730 254L728 254L726 256L721 265L718 269L713 275L710 275L675 272L619 232L582 214L556 210L559 208L558 205L554 206L553 203L554 202L548 184L589 163L594 162L595 161L600 154L600 143L603 135L603 132L601 126L602 120L605 117L613 115L624 105L625 104Z" fill="#e0a526" stroke="#0a0d12" stroke-width="0.6" opacity="0.93"/><path d="M479 193L479 190L477 187L474 185L471 184L468 184L465 185L462 187L461 190L460 193L461 196L462 199L465 201L468 203L471 203L474 201L477 199L479 196Z" fill="#e0a526" stroke="#0a0d12" stroke-width="0.6" opacity="0.93"/><path d="M276 40L271 40L270 40L271 38L275 37L276 39L276 40ZM468 113L462 110L453 115L446 121L440 124L424 126L421 127L416 126L412 124L405 116L388 110L375 109L374 111L374 116L371 122L370 122L367 121L355 124L345 121L343 119L341 113L340 112L337 113L329 111L326 110L323 113L322 114L320 114L321 112L315 112L312 113L309 113L308 113L308 112L319 110L324 106L305 106L303 107L303 105L304 104L309 103L309 101L303 98L301 94L299 92L303 91L303 88L303 86L295 84L294 82L291 81L289 82L283 79L284 77L285 77L286 76L285 72L286 71L288 72L289 73L289 76L291 78L292 76L295 77L301 75L297 76L296 75L293 70L296 69L298 66L294 65L295 61L291 58L296 53L296 52L279 54L279 53L280 50L280 43L283 42L292 34L298 34L300 33L304 33L305 35L308 36L313 36L316 34L313 32L316 32L319 32L318 34L318 35L325 34L341 34L342 34L336 31L340 29L358 27L348 25L343 23L341 21L342 18L344 17L360 18L369 17L379 19L388 19L390 18L393 14L406 9L411 6L431 0L463 1L465 0L468 0ZM319 1L319 3L323 9L327 11L342 16L339 21L336 22L323 20L318 21L314 21L308 22L307 25L303 28L293 32L284 40L281 41L282 38L282 36L286 33L292 31L293 29L279 30L277 27L279 27L284 22L284 16L289 14L290 13L289 8L283 6L284 5L287 4L290 1L296 0L306 0L309 2L317 0L319 1Z" fill="#3fa05a" stroke="#0a0d12" stroke-width="0.6" opacity="0.93"/><path d="M607 10L613 12L615 11L627 12L630 9L634 9L635 11L642 15L641 16L643 17L648 18L648 20L652 23L654 27L653 30L650 32L653 39L652 40L658 42L666 42L668 43L677 50L672 47L669 50L668 55L660 56L661 59L663 61L663 64L663 65L665 67L666 77L669 78L664 87L664 88L667 88L672 91L671 92L672 97L676 100L676 103L672 103L666 107L664 105L664 101L662 100L660 100L656 102L653 102L640 99L637 99L634 98L627 104L625 104L624 101L621 100L618 102L607 104L589 104L575 110L561 113L548 113L541 109L536 108L520 114L512 114L509 112L503 111L502 113L501 118L503 123L500 123L497 124L497 128L494 129L492 131L487 129L488 128L485 121L493 114L493 110L492 110L490 108L482 112L481 114L480 115L476 115L468 113L468 0L471 0L471 2L473 4L480 8L488 6L490 7L493 12L498 15L500 16L503 14L506 14L510 15L512 17L527 20L530 21L540 23L562 19L570 22L577 22L580 22L589 19L592 17L598 16L605 12L607 10Z" fill="#3fa05a" stroke="#0a0d12" stroke-width="0.6" opacity="0.93"/><path d="M648 19L647 18L643 17L642 16L641 15L635 11L633 9L630 9L627 12L615 11L613 12L607 10L611 6L612 4L612 0L707 0L711 2L709 5L706 6L706 8L708 8L709 10L716 15L715 18L712 20L706 17L703 18L698 17L696 15L696 14L687 12L680 15L677 16L677 17L664 17L648 19ZM676 49L671 45L666 42L660 42L652 40L653 39L650 32L653 30L654 27L652 23L648 19L664 17L677 17L677 16L681 15L683 17L685 18L682 20L690 22L693 25L693 25L689 28L689 29L693 34L701 38L701 39L700 42L694 42L693 43L698 45L706 51L709 51L712 52L712 54L710 55L715 59L711 60L713 62L713 66L705 66L701 60L702 59L697 56L698 53L697 52L691 53L686 51L684 51L684 49L682 48L676 49ZM693 29L691 30L691 29L692 28L693 29ZM677 50L676 49L682 48L684 49L685 52L686 51L691 53L695 52L698 52L697 56L702 59L701 60L705 66L691 64L684 58L677 50ZM763 76L757 76L754 73L751 72L749 70L745 67L746 65L751 63L751 62L747 60L747 59L748 57L752 55L745 49L740 50L734 53L727 57L723 60L720 61L714 66L713 66L713 62L711 60L715 59L710 55L712 54L712 52L709 51L706 51L698 45L693 43L694 42L700 42L701 39L701 38L693 34L691 31L689 28L693 25L693 25L690 22L682 20L685 18L683 17L681 15L687 12L696 14L696 15L696 16L700 17L703 18L706 17L711 20L713 19L715 18L716 15L709 10L706 7L706 6L709 5L711 2L714 3L714 4L718 4L726 10L729 15L730 15L740 17L742 17L746 12L753 8L757 3L759 5L767 13L771 21L776 26L782 30L787 30L791 32L794 34L795 37L790 36L786 36L778 38L776 41L773 51L774 56L772 58L769 63L769 64L768 62L766 61L763 67L763 76ZM681 21L680 21L680 20L681 20L681 21Z" fill="#3fa05a" stroke="#0a0d12" stroke-width="0.6" opacity="0.93"/><path d="M316 116L316 116L315 115L316 114L316 116ZM162 77L162 79L164 80L166 82L165 84L162 83L160 83L159 80L156 81L158 78L160 78L161 75L162 77ZM168 89L170 91L168 91L166 92L162 88L164 87L165 88L168 89ZM164 72L161 73L162 69L164 67L164 72L164 72ZM165 78L164 78L162 75L164 76L165 78ZM151 55L151 56L146 54L141 48L146 46L147 47L148 48L146 50L147 51L148 54L151 55ZM222 65L224 68L231 70L237 71L238 74L238 75L240 80L242 82L246 82L246 85L245 86L242 85L239 83L238 81L235 77L229 77L227 76L226 73L218 68L213 67L210 67L210 67L218 63L219 63L222 65ZM229 61L228 62L227 62L225 59L229 61ZM232 60L231 61L232 59L233 58L232 60ZM248 68L246 68L246 67L244 66L244 64L246 65L246 66L248 68ZM251 29L248 30L245 29L245 28L247 26L249 26L251 28L251 29ZM224 87L223 87L222 87L223 85L224 87ZM214 124L214 125L211 124L211 123L211 121L212 119L215 122L214 124ZM302 139L301 140L300 139L300 138L299 136L301 133L301 132L303 131L301 136L303 139L302 139ZM298 107L296 108L297 106L296 105L299 106L298 107ZM297 112L296 112L297 111L302 109L305 109L297 112ZM267 107L265 108L263 105L266 102L268 103L267 107ZM261 105L260 107L258 106L258 104L260 103L261 103L261 105ZM266 119L265 120L263 120L264 119L264 118L266 119ZM263 113L261 112L262 111L264 112L263 113ZM294 89L299 90L299 91L295 93L289 91L290 90L294 89ZM277 95L276 95L277 94L278 93L284 92L281 94L277 95ZM274 111L271 111L277 108L278 108L274 111ZM286 115L284 117L282 116L282 115L284 115L285 115L284 114L286 115ZM242 94L240 95L240 94L241 92L242 92L243 93L242 94ZM243 99L242 100L243 98L242 97L243 96L244 98L243 99ZM245 111L245 113L241 114L242 112L243 112L245 111ZM254 96L254 98L253 98L253 96L254 96ZM255 90L255 92L249 87L249 86L251 85L252 87L254 87L255 90ZM261 94L260 95L259 95L255 92L261 94ZM249 108L248 107L249 106L249 106L250 107L249 108ZM279 80L277 82L274 80L274 79L276 78L273 74L273 73L277 72L280 74L280 79L279 80ZM285 57L285 58L288 60L289 63L287 62L288 64L287 64L280 63L279 62L282 60L280 60L278 62L275 61L273 60L275 58L278 57L280 57L280 56L284 56L285 57ZM270 33L268 34L265 32L267 32L270 33ZM265 43L263 47L261 46L261 45L259 46L257 46L257 43L260 42L261 43L265 42L265 43ZM264 97L262 98L262 96L263 96L265 96L264 97ZM245 104L243 104L243 102L245 102L245 104ZM316 129L314 130L313 129L314 126L313 124L317 120L324 118L322 123L321 125L321 126L318 127L316 129ZM231 138L234 138L236 136L238 136L238 138L236 138L239 139L240 141L242 141L249 140L255 140L258 142L265 142L271 142L271 142L271 146L272 146L277 144L280 144L283 142L282 148L280 149L273 148L251 150L250 150L249 147L244 146L225 143L224 140L225 138L226 137L227 138L228 137L228 135L230 137L231 138ZM283 6L289 8L290 13L289 14L284 16L284 21L279 27L277 27L274 25L261 23L258 21L251 24L244 22L236 27L229 27L229 28L231 31L230 32L231 34L235 34L239 36L241 39L237 37L232 35L228 36L228 36L233 40L234 42L233 43L231 42L227 38L222 37L221 38L222 40L227 43L226 44L221 43L220 41L219 38L211 34L210 32L211 30L205 32L205 35L204 40L204 42L209 47L212 52L218 56L220 60L216 62L215 61L216 58L213 57L211 57L209 58L210 60L212 63L214 63L209 66L204 67L213 69L216 71L218 71L221 74L225 75L227 78L233 79L235 82L235 91L233 92L225 85L223 84L217 86L214 88L216 89L217 93L221 94L223 97L216 99L215 99L215 97L213 96L208 94L207 95L208 98L210 100L214 109L214 114L216 118L212 116L208 111L207 111L204 111L202 116L202 118L201 118L199 117L199 113L193 106L191 107L190 111L189 112L186 109L183 105L183 102L185 100L185 98L182 95L177 92L176 90L173 87L177 85L179 81L184 81L188 78L190 78L211 86L210 84L215 84L217 82L215 81L209 80L200 76L198 78L191 76L180 78L177 75L177 77L174 78L173 77L170 71L168 69L165 68L165 67L165 65L168 65L173 66L173 65L173 63L166 64L159 58L155 57L153 52L149 49L152 50L154 49L155 47L157 47L156 43L158 42L163 40L166 33L169 32L171 29L169 26L169 24L177 24L179 23L182 24L187 22L191 18L195 18L202 19L207 17L208 14L216 14L218 13L226 13L234 11L235 10L245 10L247 12L251 14L252 13L255 14L261 16L272 14L275 15L279 13L280 10L278 7L278 6L281 5L283 6Z" fill="#3d7eb5" stroke="#0a0d12" stroke-width="0.6" opacity="0.93"/><path d="M419 145L421 146L424 147L430 145L434 145L435 147L436 149L437 148L440 149L444 147L447 148L448 149L440 150L434 154L428 155L426 157L426 158L424 158L423 156L419 156L414 155L411 150L411 147L413 148L416 146L419 145ZM447 148L444 147L440 149L437 148L436 149L435 147L434 145L430 145L424 147L421 146L419 145L423 145L424 141L432 142L438 141L448 139L459 135L446 143L445 145L447 148Z" fill="#3d7eb5" stroke="#0a0d12" stroke-width="0.6" opacity="0.93"/><path d="M43 130L42 126L40 122L37 120L33 118L29 118L25 120L22 122L20 126L19 130L20 134L22 137L25 140L29 141L33 141L37 140L40 137L42 134Z" fill="#3d7eb5" stroke="#0a0d12" stroke-width="0.6" opacity="0.93"/><path d="M509 354L505 350L501 349L500 348L501 347L502 349L505 350L510 353L509 354ZM617 538L618 538L618 537L618 536L621 538L620 541L619 539L616 539L615 539L612 535L614 534L615 533L614 532L615 532L616 533L616 537L617 538ZM660 524L658 525L653 524L651 522L648 521L645 522L642 524L643 526L642 528L641 531L641 533L642 536L642 539L634 545L632 538L629 535L629 533L625 529L623 523L618 518L612 513L607 505L605 501L601 496L598 488L591 473L588 472L585 468L576 462L572 462L569 460L564 452L559 447L555 440L556 438L556 436L553 428L555 417L555 413L553 411L553 409L551 407L552 407L549 403L547 398L542 389L538 385L530 379L528 379L526 377L522 377L514 366L516 363L514 356L509 348L506 346L504 340L500 338L495 328L486 318L484 314L480 310L477 304L472 297L470 296L462 295L460 296L460 295L463 287L467 269L491 272L499 266L504 259L521 255L524 248L531 245L510 224L552 213L556 210L582 214L585 215L619 232L660 262ZM502 347L501 346L502 343L502 347Z" fill="#8e6bb0" stroke="#0a0d12" stroke-width="0.6" opacity="0.93"/><path d="M829 489L767 498L748 507L736 522L733 530L726 533L723 533L718 526L709 527L692 525L684 523L667 523L660 524L660 262L675 272L710 275L713 275L733 277L736 285L738 287L754 286L758 295L762 300L762 302L762 304L764 306L771 309L770 310L775 315L777 316L781 320L787 323L790 326L787 326L788 329L791 332L792 334L791 338L788 338L789 341L792 348L797 353L799 360L805 369L808 371L814 370L816 371L817 371L815 376L821 377L821 381L842 406L896 412L898 411L907 425L893 468L829 489Z" fill="#8e6bb0" stroke="#0a0d12" stroke-width="0.6" opacity="0.93"/><path d="M853 539L842 543L837 547L835 550L833 554L834 561L824 565L821 567L809 571L798 574L791 578L785 578L773 582L767 586L764 590L759 595L751 596L744 595L737 599L732 603L719 607L713 608L700 609L695 610L689 616L684 617L682 621L676 622L673 621L667 624L660 625L652 622L649 623L648 620L643 611L644 602L643 599L640 596L640 591L638 585L639 584L637 578L637 576L635 572L631 570L632 568L634 569L634 568L632 561L635 553L634 545L642 539L642 536L641 533L642 528L643 526L642 524L646 522L647 521L650 521L653 524L658 525L663 523L684 523L692 525L709 527L718 526L723 533L726 533L733 530L736 522L748 507L767 498L770 497L829 489L845 526L847 526L853 539ZM630 568L629 568L629 568L630 565L630 567L630 568ZM633 602L632 603L633 601L634 601L633 602ZM634 596L633 597L632 596L633 594L634 596ZM867 625L876 624L883 627L875 631L866 632L864 631L858 627L860 624L862 623L865 623L867 625Z" fill="#8e6bb0" stroke="#0a0d12" stroke-width="0.6" opacity="0.93"/><path d="M973 463L971 464L971 461L974 458L976 454L978 457L975 459L973 463ZM853 539L847 526L845 526L829 489L893 468L907 425L898 411L898 404L904 389L905 387L904 384L905 383L915 382L913 378L910 378L911 376L910 373L911 369L911 365L913 362L915 363L915 364L914 365L916 367L923 362L925 368L929 373L934 380L939 383L949 387L960 389L964 391L970 391L974 393L979 401L988 411L990 413L996 415L996 421L987 436L980 441L977 444L968 459L965 460L962 459L963 455L961 456L960 456L955 463L951 475L953 489L951 490L940 491L932 495L929 498L927 507L923 511L904 514L899 519L899 521L900 524L899 525L895 531L889 533L884 531L874 532L871 534L864 537L857 538L853 539ZM921 348L920 348L918 347L918 339L917 339L918 336L921 335L923 333L924 333L924 338L923 345L921 348ZM921 357L919 357L920 355L921 355L921 357ZM921 348L923 350L923 362L916 367L914 365L915 364L915 363L913 362L911 365L911 369L910 373L911 376L910 378L913 378L915 382L905 383L904 384L905 387L904 389L898 404L898 411L896 412L842 406L821 380L821 377L821 376L823 378L825 378L825 381L828 383L835 383L844 380L870 381L881 377L884 372L888 366L896 361L905 351L914 345L917 339L918 339L918 347L920 348L921 348ZM858 377L855 377L860 374L861 375L858 377ZM843 377L842 375L843 375L844 376L843 377ZM871 379L871 380L868 380L865 379L869 377L871 379ZM882 374L881 374L879 373L881 372L882 374Z" fill="#8e6bb0" stroke="#0a0d12" stroke-width="0.6" opacity="0.93"/><path d="M751 263L749 264L746 260L749 256L752 260L752 262L751 263ZM754 286L738 287L736 285L733 277L713 275L721 265L727 255L730 254L739 254L744 256L745 259L748 264L744 263L739 268L741 269L745 268L746 269L749 277L752 282L754 286ZM814 370L808 371L805 369L804 366L805 364L803 353L809 341L811 339L814 337L820 343L821 345L819 351L821 361L818 369L814 370Z" fill="#8e6bb0" stroke="#0a0d12" stroke-width="0.6" opacity="0.93"/><path d="M692 620L691 617L690 613L687 611L683 610L680 610L676 611L673 613L671 617L671 620L671 624L673 627L676 629L680 631L683 631L687 629L690 627L691 624Z" fill="#8e6bb0" stroke="#0a0d12" stroke-width="0.6" opacity="0.93"/><path d="M871 99L872 99L872 325L869 325L866 325L862 322L861 320L851 316L845 312L843 309L840 306L834 304L830 302L821 301L814 295L814 293L811 287L810 282L806 279L805 278L806 275L802 273L801 268L791 257L789 251L787 251L778 255L775 253L767 248L766 247L767 247L770 247L771 247L771 245L766 245L767 246L764 247L764 248L764 253L762 255L759 255L756 256L754 255L753 251L752 249L745 245L745 234L738 234L738 226L741 217L734 210L731 204L729 203L726 203L710 193L705 192L704 190L705 187L703 183L702 181L699 181L700 179L697 179L691 172L689 171L692 166L690 161L692 158L694 158L695 153L700 148L705 146L705 145L705 142L702 139L702 136L703 135L708 132L706 131L697 131L693 128L689 127L686 120L682 118L681 113L678 111L676 104L676 100L672 97L671 92L672 91L667 88L664 88L664 87L669 78L666 77L665 67L663 65L663 64L663 61L661 59L660 56L668 55L669 50L672 47L677 50L684 58L691 64L706 67L709 66L714 66L720 61L723 60L731 55L740 50L745 49L752 55L748 57L747 59L747 60L751 62L751 63L746 65L745 67L749 70L751 72L754 73L757 76L763 76L764 85L768 92L774 95L790 98L794 103L799 106L811 112L825 115L834 114L867 108L871 108L866 110L867 110L872 110L872 110L872 106L871 99Z" fill="#c98a3a" stroke="#0a0d12" stroke-width="0.6" opacity="0.93"/><path d="M919 321L917 323L914 326L912 325L903 328L900 328L900 327L910 323L910 322L910 320L913 321L919 319L921 320L919 321ZM872 99L876 99L887 96L891 90L902 84L906 83L920 84L921 83L923 80L929 80L934 81L940 81L943 82L944 86L957 89L964 93L967 93L969 92L971 93L975 92L985 95L986 96L987 99L988 101L1000 106L1000 354L998 354L996 353L992 353L988 351L980 353L974 350L962 349L956 347L953 348L952 346L943 345L941 340L940 337L938 333L937 323L934 319L930 316L922 315L917 316L914 318L907 320L903 324L900 324L888 330L886 330L878 326L872 325L872 110L873 108L872 106Z" fill="#c98a3a" stroke="#0a0d12" stroke-width="0.6" opacity="0.93"/><line x1="352" y1="273" x2="588" y2="349" stroke="rgba(220,232,245,0.6)" stroke-width="1.1" stroke-dasharray="5 4"/><line x1="364" y1="375" x2="588" y2="349" stroke="rgba(220,232,245,0.6)" stroke-width="1.1" stroke-dasharray="5 4"/><line x1="204" y1="54" x2="389" y2="65" stroke="rgba(220,232,245,0.6)" stroke-width="1.1" stroke-dasharray="5 4"/><line x1="426" y1="151" x2="543" y2="148" stroke="rgba(220,232,245,0.6)" stroke-width="1.1" stroke-dasharray="5 4"/><line x1="426" y1="151" x2="389" y2="65" stroke="rgba(220,232,245,0.6)" stroke-width="1.1" stroke-dasharray="5 4"/><line x1="917" y1="456" x2="938" y2="213" stroke="rgba(220,232,245,0.6)" stroke-width="1.1" stroke-dasharray="5 4"/><line x1="31" y1="130" x2="204" y2="54" stroke="rgba(220,232,245,0.6)" stroke-width="1.1" stroke-dasharray="5 4"/><line x1="31" y1="130" x2="360" y2="230" stroke="rgba(220,232,245,0.6)" stroke-width="1.1" stroke-dasharray="5 4"/><line x1="31" y1="130" x2="426" y2="151" stroke="rgba(220,232,245,0.6)" stroke-width="1.1" stroke-dasharray="5 4"/><line x1="360" y1="230" x2="470" y2="193" stroke="rgba(220,232,245,0.6)" stroke-width="1.1" stroke-dasharray="5 4"/><line x1="470" y1="193" x2="426" y2="151" stroke="rgba(220,232,245,0.6)" stroke-width="1.1" stroke-dasharray="5 4"/><line x1="681" y1="620" x2="367" y2="534" stroke="rgba(220,232,245,0.6)" stroke-width="1.1" stroke-dasharray="5 4"/><line x1="681" y1="620" x2="917" y2="456" stroke="rgba(220,232,245,0.6)" stroke-width="1.1" stroke-dasharray="5 4"/><circle cx="352" cy="273" r="1.8" fill="#0a0d12"/><circle cx="364" cy="375" r="1.8" fill="#0a0d12"/><circle cx="137" cy="324" r="1.8" fill="#0a0d12"/><circle cx="367" cy="534" r="1.8" fill="#0a0d12"/><circle cx="360" cy="230" r="1.8" fill="#0a0d12"/><circle cx="506" cy="229" r="1.8" fill="#0a0d12"/><circle cx="543" cy="148" r="1.8" fill="#0a0d12"/><circle cx="654" cy="191" r="1.8" fill="#0a0d12"/><circle cx="470" cy="193" r="1.8" fill="#0a0d12"/><circle cx="389" cy="65" r="1.8" fill="#0a0d12"/><circle cx="562" cy="63" r="1.8" fill="#0a0d12"/><circle cx="738" cy="35" r="1.8" fill="#0a0d12"/><circle cx="204" cy="54" r="1.8" fill="#0a0d12"/><circle cx="426" cy="151" r="1.8" fill="#0a0d12"/><circle cx="31" cy="130" r="1.8" fill="#0a0d12"/><circle cx="588" cy="349" r="1.8" fill="#0a0d12"/><circle cx="749" cy="409" r="1.8" fill="#0a0d12"/><circle cx="735" cy="555" r="1.8" fill="#0a0d12"/><circle cx="917" cy="456" r="1.8" fill="#0a0d12"/><circle cx="735" cy="270" r="1.8" fill="#0a0d12"/><circle cx="681" cy="620" r="1.8" fill="#0a0d12"/><circle cx="785" cy="174" r="1.8" fill="#0a0d12"/><circle cx="938" cy="213" r="1.8" fill="#0a0d12"/><text x="352" y="268" fill="#eef" font-size="10" text-anchor="middle" font-family="sans-serif">Lower Egypt</text><text x="364" y="370" fill="#eef" font-size="10" text-anchor="middle" font-family="sans-serif">Upper Egypt</text><text x="137" y="319" fill="#eef" font-size="10" text-anchor="middle" font-family="sans-serif">Cyrenaica</text><text x="367" y="529" fill="#eef" font-size="10" text-anchor="middle" font-family="sans-serif">Sudan</text><text x="360" y="225" fill="#eef" font-size="10" text-anchor="middle" font-family="sans-serif">Alexandria</text><text x="506" y="224" fill="#eef" font-size="10" text-anchor="middle" font-family="sans-serif">Palestine</text><text x="543" y="143" fill="#eef" font-size="10" text-anchor="middle" font-family="sans-serif">Syria</text><text x="654" y="186" fill="#eef" font-size="10" text-anchor="middle" font-family="sans-serif">Mesopotamia</text><text x="470" y="188" fill="#eef" font-size="10" text-anchor="middle" font-family="sans-serif">Acre</text><text x="389" y="60" fill="#eef" font-size="10" text-anchor="middle" font-family="sans-serif">Anatolia</text><text x="562" y="58" fill="#eef" font-size="10" text-anchor="middle" font-family="sans-serif">Eastern Anatolia</text><text x="738" y="30" fill="#eef" font-size="10" text-anchor="middle" font-family="sans-serif">Caucasus</text><text x="204" y="49" fill="#eef" font-size="10" text-anchor="middle" font-family="sans-serif">Greece</text><text x="426" y="146" fill="#eef" font-size="10" text-anchor="middle" font-family="sans-serif">Cyprus</text><text x="31" y="125" fill="#eef" font-size="10" text-anchor="middle" font-family="sans-serif">Malta</text><text x="588" y="344" fill="#eef" font-size="10" text-anchor="middle" font-family="sans-serif">Hejaz</text><text x="749" y="404" fill="#eef" font-size="10" text-anchor="middle" font-family="sans-serif">Nejd</text><text x="735" y="550" fill="#eef" font-size="10" text-anchor="middle" font-family="sans-serif">Yemen</text><text x="917" y="451" fill="#eef" font-size="10" text-anchor="middle" font-family="sans-serif">Oman</text><text x="735" y="265" fill="#eef" font-size="10" text-anchor="middle" font-family="sans-serif">Persian Gulf</text><text x="681" y="615" fill="#eef" font-size="10" text-anchor="middle" font-family="sans-serif">Aden</text><text x="785" y="169" fill="#eef" font-size="10" text-anchor="middle" font-family="sans-serif">Persia</text><text x="938" y="208" fill="#eef" font-size="10" text-anchor="middle" font-family="sans-serif">Eastern Persia</text></svg>